<svg width="151" height="151" viewBox="0 0 151 151" fill="none" xmlns="http://www.w3.org/2000/svg">
<path d="M41.1862 142.077H115.101C115.928 142.074 116.721 141.744 117.306 141.159C117.891 140.574 118.221 139.781 118.224 138.954V130.101C118.221 129.274 117.891 128.481 117.306 127.896C116.721 127.311 115.928 126.981 115.101 126.978H41.1862C40.3589 126.981 39.5663 127.311 38.9813 127.896C38.3963 128.481 38.0663 129.274 38.0634 130.101V138.954C38.062 139.365 38.1418 139.771 38.2982 140.151C38.4547 140.53 38.6847 140.875 38.9749 141.165C39.2652 141.456 39.61 141.686 39.9895 141.842C40.369 141.999 40.7757 142.078 41.1862 142.077Z" fill="#38A1FF"/>
<path d="M79.582 44.9671C79.2078 44.8919 78.8212 44.9037 78.4522 45.0017C78.3851 45.0217 78.3253 45.0611 78.2805 45.115C78.2358 45.169 78.2079 45.2349 78.2006 45.3046C78.1933 45.3743 78.2068 45.4446 78.2393 45.5066C78.2719 45.5687 78.3221 45.6197 78.3837 45.6532C79.1165 45.8814 79.8936 45.9285 80.6486 45.7903C80.9913 45.7564 81.163 45.2073 80.751 45.1041C80.3634 45.0423 79.9734 44.9966 79.582 44.9671Z" fill="#191919"/>
<path d="M77.3867 43.8373C77.6982 43.3259 78.155 42.9189 78.6989 42.6683C79.2428 42.4177 79.849 42.3348 80.4402 42.4303C80.7151 42.4657 80.8499 41.9904 80.578 41.8812C80.2182 41.7381 79.8332 41.6691 79.4461 41.6784C79.0589 41.6877 78.6777 41.7751 78.3251 41.9353C77.9726 42.0955 77.656 42.3253 77.3945 42.6109C77.1329 42.8964 76.9317 43.2318 76.8029 43.5971C76.7057 43.9375 77.2096 44.1047 77.3867 43.8373Z" fill="#191919"/>
<path d="M80.5436 51.3484C78.9257 51.3484 78.3894 50.1854 77.6271 49.8043C77.5697 49.771 77.5029 49.7576 77.4371 49.7662C77.3713 49.7748 77.3102 49.8048 77.2632 49.8517C77.2163 49.8986 77.1861 49.9597 77.1774 50.0254C77.1687 50.0912 77.182 50.158 77.2151 50.2155C77.5906 50.7548 78.0954 51.1912 78.6832 51.4849C79.271 51.7786 79.9231 51.9202 80.5797 51.8967C80.6482 51.8865 80.7104 51.851 80.7539 51.7971C80.7973 51.7432 80.819 51.675 80.8144 51.6059C80.8098 51.5368 80.7795 51.4719 80.7293 51.4242C80.6791 51.3765 80.6128 51.3494 80.5436 51.3484Z" fill="#191919"/>
<path d="M47.2231 84.325C47.3888 84.6368 47.8445 84.3574 47.7036 84.0501C46.6635 81.7746 43.6875 81.6127 41.87 83.1236C38.9859 85.5234 39.2013 89.9839 40.4291 93.1783C41.2023 95.0493 42.2301 96.8045 43.4834 98.3943C44.4392 99.6673 45.4417 101.301 46.9828 101.963C47.4882 102.201 48.0562 102.273 48.605 102.168C49.1538 102.063 49.6552 101.787 50.0371 101.379C51.2257 100.166 51.1669 98.4282 51.0321 96.8495C51.028 96.7613 50.99 96.678 50.9261 96.6171C50.8622 96.5561 50.7773 96.5221 50.689 96.5221C50.6007 96.5221 50.5158 96.5561 50.4519 96.6171C50.388 96.678 50.3501 96.7613 50.3459 96.8495C50.3459 98.0855 50.3753 99.8292 49.3509 100.691C47.6939 102.087 46.2627 100.347 45.3702 99.2492C43.78 97.4046 42.4521 95.3493 41.4241 93.1414C40.4246 90.8102 39.9877 88.0851 40.9782 85.6951C41.9784 83.2833 45.5487 81.166 47.2231 84.325Z" fill="#191919"/>
<path d="M37.8907 86.4179C38.2334 86.3787 38.2673 85.8342 37.8907 85.8342C32.5376 86.143 34.8093 94.4788 36.0378 97.3983C37.0034 99.6956 38.5437 102.509 40.7386 103.884C42.2149 104.809 44.4783 104.897 45.337 103.095C45.5019 102.748 45.0598 102.303 44.7532 102.649C41.6726 106.125 37.9946 99.6625 36.8949 97.2258C35.7636 94.7214 33.2509 86.9421 37.8907 86.4179Z" fill="#191919"/>
<path d="M25.262 95.2367C24.4308 96.7815 24.0453 98.5268 24.1484 100.278C24.2515 102.029 24.8391 103.717 25.8457 105.154C27.4817 107.427 30.9729 109.891 33.875 108.688C33.9755 108.657 34.0603 108.589 34.1115 108.497C34.1628 108.405 34.1766 108.297 34.1501 108.195C34.1235 108.093 34.0587 108.006 33.9692 107.951C33.8796 107.895 33.7722 107.877 33.6694 107.899C27.0704 109.071 23.4859 100.948 25.7772 95.5463C25.921 95.2066 25.4345 94.894 25.262 95.2367Z" fill="#191919"/>
<path d="M23.8889 93.6588C24.5252 93.8282 25.1924 93.845 25.8364 93.7078C26.4803 93.5706 27.0828 93.2834 27.5948 92.8694C27.3331 94.8105 27.6683 96.7853 28.5559 98.5313C29.9756 101.089 31.8747 103.349 34.1493 105.188C35.664 106.452 37.7105 107.412 39.2621 105.703C39.3394 105.625 39.3828 105.521 39.3828 105.411C39.3828 105.302 39.3394 105.197 39.2621 105.12C39.1848 105.042 39.0799 104.999 38.9706 104.999C38.8613 104.999 38.7564 105.042 38.6791 105.12C35.7416 107.538 30.8554 100.727 29.5855 98.5999C28.0045 95.9599 26.9093 90.3695 31.4693 89.9183C31.8128 89.8844 31.8128 89.3617 31.4693 89.3692C30.8121 89.3482 30.1616 89.5062 29.5874 89.8265C29.0131 90.1468 28.5368 90.6173 28.2094 91.1875C27.9014 88.797 28.0059 86.3713 28.5182 84.0161C29.5666 83.2016 30.6671 82.4566 31.8128 81.7858C36.8187 78.7594 42.1416 78.4227 47.6665 80.2041H47.7388C47.8488 80.881 48.0813 81.5321 48.425 82.1255C48.4574 82.1782 48.5029 82.2216 48.557 82.2517C48.611 82.2818 48.6719 82.2975 48.7338 82.2973C51.8779 82.4501 54.8878 83.6179 57.3122 85.6257C57.312 85.668 57.3214 85.7098 57.3397 85.748C57.3579 85.7861 57.3845 85.8197 57.4175 85.8461C57.4506 85.8725 57.4891 85.8912 57.5304 85.9006C57.5716 85.91 57.6144 85.9101 57.6556 85.9007C60.1435 87.8686 62.0817 90.445 63.2829 93.3808C63.9581 94.9102 64.1959 96.597 63.9698 98.2534C63.5932 100.004 62.3926 99.143 61.3961 98.4937C59.6494 97.3563 58.094 95.9327 56.3172 94.8564C55.869 94.5852 55.454 95.2759 55.9059 95.5772C59.1771 97.757 61.3102 100.082 63.0773 100.278C65.9583 100.597 64.7901 95.166 64.3126 93.7582C63.1111 90.3981 60.9074 87.4878 57.9991 85.4201C57.9283 81.9056 57.273 80.0926 58.2733 75.0912C60.6753 75.3654 63.1692 75.0792 64.7585 73.9931C68.3091 71.5639 70.9695 68.5699 71.7935 62.7378C72.7389 63.6545 73.9317 64.2747 75.2252 64.5221C75.0188 73.7867 74.954 83.0565 74.3672 92.2827C74.3364 92.7632 75.0564 92.7293 75.0873 92.2827C75.7328 83.0934 76.0831 73.7874 75.8081 64.5907C77.1289 64.827 78.4904 64.6547 79.7106 64.0967C80.9309 63.5387 81.9517 62.6215 82.6368 61.4678C82.684 61.5105 82.7449 61.5348 82.8085 61.5364C88.4572 61.5355 94.0389 62.7593 99.169 65.1236C104.299 67.4879 108.856 70.9363 112.524 75.2313C114.697 77.981 116.337 81.1113 117.363 84.462C118.275 87.212 119.387 91.4624 117.225 93.7959C117.475 89.2977 114.602 86.211 110.877 83.7073C107.781 81.6254 104.906 80.3005 101.166 80.2425C98.5255 80.2111 95.8898 80.4759 93.3084 81.0319C93.2775 79.7473 92.9105 78.4932 92.2441 77.3946C92.2057 77.3348 92.1458 77.2921 92.0768 77.2752C92.0078 77.2583 91.9349 77.2685 91.8732 77.3038C91.8116 77.3391 91.7658 77.3967 91.7454 77.4648C91.725 77.5328 91.7315 77.6061 91.7635 77.6695C92.4572 78.9349 93.27 81.0628 92.4844 82.4735C91.8961 83.5341 90.5968 83.1574 89.5679 83.4C88.8459 83.5777 88.1444 83.8301 87.4747 84.1532C87.9426 81.0189 87.8728 77.8278 87.2683 74.7169C87.2043 74.4066 86.6846 74.4766 86.7192 74.7854C87.1469 78.0452 87.1124 81.349 86.6168 84.5991C85.8703 85.0396 85.1486 85.5209 84.4551 86.0408C81.2614 88.4398 78.5973 91.1912 77.2491 95.0311C76.6698 96.6799 75.9046 99.5987 76.9741 101.174C78.7495 103.787 83.567 99.1881 84.8663 98.0161C85.2429 97.6749 85.6195 97.3322 85.9962 97.0211C86.4089 96.6799 85.8274 96.0992 85.4124 96.4382C84.2216 97.4106 82.9773 98.4297 81.6719 99.3207C80.9187 99.8359 78.7299 101.68 77.8305 100.762C77.4626 100.204 77.2933 99.5394 77.35 98.8741C77.1617 94.2101 80.6574 90.1059 84.0754 87.3446C86.0858 85.7206 88.1805 84.3114 90.7331 83.9815C91.7342 83.8527 93.0063 84.7814 93.169 81.6826C101.109 80.2199 105.987 80.3397 112.008 85.5941C112.504 87.9168 112.609 90.306 112.317 92.663C111.965 92.1393 111.49 91.7094 110.934 91.4105C110.378 91.1117 109.757 90.9529 109.126 90.948C108.782 90.9193 108.783 91.4586 109.126 91.4963C116.994 92.3708 108.874 108.756 101.988 106.561C101.894 106.54 101.795 106.554 101.709 106.599C101.623 106.644 101.556 106.718 101.519 106.808C101.482 106.898 101.478 106.998 101.507 107.09C101.537 107.183 101.598 107.262 101.68 107.314C105.636 109.317 109.624 104.476 111.459 101.549C112.637 99.6657 113.553 96.2642 112.866 93.8275C112.9 93.7936 112.9 93.7251 112.935 93.6904C112.832 93.8968 114.583 95.0944 114.788 95.1969C116.274 95.9651 117.717 94.7924 118.459 93.5835C120.553 90.1752 118.433 84.4598 116.744 80.8541C120.038 77.5595 121.681 75.5929 128.068 68.8094C129.066 67.7489 130.327 66.784 130.916 65.4124C131.326 64.1861 131.421 62.8759 131.19 61.6034C130.987 59.6609 131.054 59.1743 129.406 21.3176C129.33 19.6018 129.747 17.2367 128.17 16.067C126.396 14.9261 124.496 13.9935 122.508 13.2876C120.003 12.2466 117.422 11.3978 114.788 10.7485C97.3411 6.39868 86.2651 8.77056 75.5656 15.0418C74.7431 15.5231 73.5643 15.9615 73.0604 16.8262C72.6047 17.6096 72.8254 19.3999 72.7516 20.3264C72.5912 22.3518 72.4352 24.3433 72.2372 26.3657C72.1769 26.9841 72.0677 31.8265 71.7912 31.9244C71.0749 32.1783 70.3466 32.4328 69.5949 32.7823C68.1548 33.3854 66.8817 34.3275 65.884 35.5283C64.8862 36.7292 64.1934 38.1533 63.8644 39.6795C63.5202 41.4639 63.591 43.1797 62.9718 44.9295C62.3867 46.5625 61.4892 48.066 60.3296 49.3561C56.458 53.6856 45.9823 54.9337 44.854 60.2024C44.7445 60.6514 44.7212 61.1171 44.7854 61.5748C33.393 65.3838 23.4882 73.862 21.2452 86.0415C20.8133 87.9617 20.9566 89.9666 21.6572 91.8059C22.1824 92.6475 22.9651 93.2973 23.8889 93.6588ZM79.5818 63.3584C77.3688 64.2773 73.6419 63.8231 71.899 61.5394C72.2876 56.4928 71.9208 53.1229 72.5512 49.3237C73.1659 45.6171 74.4727 42.4265 74.2324 38.5527C74.2324 38.5527 78.1446 42.7391 84.5274 40.2686C85.0172 41.7208 85.3058 43.2332 85.3853 44.7638C84.6212 44.0501 83.7944 43.4067 82.9147 42.8415C82.8551 42.8095 82.786 42.7996 82.7198 42.8138C82.6536 42.828 82.5945 42.8653 82.5533 42.919C82.512 42.9726 82.4911 43.0392 82.4944 43.1069C82.4977 43.1745 82.525 43.2388 82.5713 43.2882C83.7433 44.2968 84.8547 45.3738 85.8997 46.5135C86.4052 47.7096 84.9401 47.5891 83.7719 48.1947C83.5 48.3363 83.6009 48.8515 83.9436 48.8123C84.2186 48.7814 84.5959 48.7099 84.9733 48.6413C83.4345 53.6969 78.5062 55.6922 74.4727 53.4107C74.1654 53.2367 73.8242 53.6811 74.0961 53.8912C74.8389 54.4735 75.6988 54.8884 76.6169 55.1076C77.535 55.3268 78.4895 55.345 79.4153 55.1611C79.4153 55.8473 79.3302 56.5667 79.2775 57.2543C79.2278 57.9051 78.9009 58.9009 79.1404 59.4846V59.5193C79.174 59.5951 79.2203 59.6647 79.2775 59.7249C80.1787 60.2839 81.1191 60.7771 82.0915 61.2004C81.4392 62.1098 80.5786 62.8497 79.5818 63.3584ZM98.3527 63.839C94.5856 62.4202 90.6534 61.4862 86.6507 61.0596C85.9239 60.95 85.1901 60.8926 84.4551 60.8879C83.9511 60.9546 83.4388 60.9195 82.9486 60.7847C82.4848 60.5664 82.0374 60.3147 81.6102 60.0314C81.0406 59.7389 80.4567 59.4755 79.8605 59.2421C79.9747 58.6777 80.0094 58.1002 79.9636 57.5262C79.9835 56.7021 79.9603 55.8775 79.8943 55.0557C83.161 54.1646 85.2685 51.566 86.0029 48.2617C87.074 47.6945 87.3587 46.6995 86.2086 45.5501C86.1283 43.6788 85.7339 41.8343 85.0418 40.0938C86.0013 39.6755 86.9203 39.1699 87.7873 38.5836C87.7873 38.5836 84.3903 32.3387 77.8705 31.3776C77.9044 30.2794 78.0414 25.7503 78.0414 24.5836C78.0414 23.8974 77.8079 22.7676 78.0761 22.1469C78.357 21.4977 79.2059 21.1113 79.8258 20.706C85.4493 17.0424 92.0769 16.2078 98.6653 16.2447C107.839 16.2967 115.851 18.1692 120.832 20.2255C121.927 20.5816 122.966 21.0886 123.921 21.7319C124.879 22.525 124.582 24.6484 124.641 25.8497C124.805 29.1774 124.84 32.5413 124.882 35.8675C125.253 66.0715 125.28 55.9407 125.396 60.9496C125.443 62.9743 124.089 64.0009 122.789 65.4448C119.796 68.7672 116.612 71.9647 113.729 75.3617C109.787 70.1541 104.459 66.161 98.3549 63.839H98.3527ZM73.9545 19.6756C74.066 18.1323 73.9884 17.3407 75.3268 16.4496C86.3005 9.13436 98.0905 8.24783 111.152 10.7191C115.839 11.5863 120.396 13.051 124.71 15.0772C125.806 15.597 128.076 16.3457 128.519 17.5824C128.899 18.6452 128.685 20.1901 128.725 21.3229C128.816 23.9652 129.942 50.4566 130.44 61.0596C130.507 62.4666 130.857 64.2532 130.132 65.5201C129.491 66.4101 128.754 67.2271 127.935 67.9568C126.622 69.3548 119.047 77.4963 116.611 80.241C115.913 78.7251 115.074 77.2777 114.107 75.9175C117.058 72.7608 119.96 69.5559 122.891 66.378C123.948 65.4029 124.902 64.3222 125.74 63.1528C126.396 62.0229 126.078 60.5451 126.014 59.2752C125.534 49.7282 125.887 40.1247 125.362 26.0237C125.316 24.7892 125.623 22.5348 124.779 21.4939C124.11 20.8894 123.329 20.423 122.48 20.1215C118.386 18.1436 110.857 16.006 101.719 15.4892C94.3757 15.0742 86.7998 15.5713 80.2378 19.2636C79.3807 19.7457 77.3756 20.6284 76.9432 21.5632C76.6932 22.1078 76.9658 23.1073 76.9779 23.7249C77.0291 26.3838 76.9229 27.4112 76.8408 31.2736C75.5506 31.2079 74.2575 31.3235 72.9994 31.6171C73.2683 27.6025 73.6683 23.6232 73.9545 19.6756ZM23.1681 82.8147C24.2903 79.2756 26.1105 75.9973 28.5212 73.1736C33.0465 68.1351 38.8061 64.3622 45.2328 62.2263C46.7393 65.0396 53.3292 64.6961 51.6495 71.045C51.1689 72.8632 54.1547 74.442 57.5863 74.9572C56.826 78.1963 56.6981 81.5518 57.2097 84.8394C55.4968 83.6046 53.5959 82.6544 51.5802 82.0254C50.7931 81.8122 49.3153 81.9229 48.7323 81.3392C47.4285 80.0354 48.492 77.7019 49.5217 76.6692C49.7619 76.4297 49.3861 76.0539 49.145 76.2926C48.6842 76.7076 48.3172 77.2161 48.0686 77.7843C47.8199 78.3524 47.6954 78.9671 47.7034 79.5872C39.9618 76.7513 33.567 78.6766 27.4923 83.8052C25.0549 85.8638 23.031 88.8841 23.3745 92.2473C21.0749 89.9183 22.2198 85.6212 23.1681 82.8147Z" fill="#191919"/>
<path d="M127.898 67.9221C128.71 67.1857 129.446 66.3696 130.095 65.4862C130.84 64.1763 130.467 62.4319 130.404 61.0249C129.921 50.4233 128.781 23.9666 128.688 21.2882C128.649 20.19 128.862 18.6105 128.481 17.5477C128.039 16.3117 125.77 15.5607 124.672 15.0433C120.356 13.0216 115.8 11.5571 111.114 10.6852C98.1358 8.21988 86.4843 8.95276 75.29 16.4156C73.9515 17.3074 74.0268 18.1315 73.9168 19.6409C73.6268 23.6232 73.2307 27.5677 72.9565 31.5485C74.2092 31.2224 75.5072 31.1064 76.7979 31.205C76.9048 26.1886 76.935 28.5514 76.935 23.6563C76.935 23.0387 76.6525 22.0745 76.9011 21.4938C77.3003 20.5621 79.3392 19.6786 80.1949 19.195C86.7268 15.5103 94.332 15.029 101.677 15.4206C110.51 15.8914 118.079 17.9755 122.437 20.0529C123.289 20.3476 124.072 20.8147 124.736 21.4253C125.556 22.4579 125.263 24.7537 125.319 25.9551C125.493 29.6255 126.177 61.5069 126.177 61.5069L126.109 61.644C126.092 62.1574 125.964 62.661 125.732 63.1196C125.061 64.3292 123.781 65.3543 122.883 66.3456C119.982 69.5503 117.054 72.7301 114.099 75.8851C115.066 77.246 115.904 78.6933 116.604 80.2085C119.898 76.4515 123.484 72.7306 127.898 67.9221Z" fill="#38A1FF"/>
<path d="M147.045 121.831C143.598 117.79 140.241 113.638 136.854 109.546C135.408 107.8 134.003 105.535 132.29 104.056C131.259 103.166 128.79 103.713 127.486 103.713C124.501 103.713 121.55 103.764 118.564 103.781C118.473 103.788 118.389 103.829 118.327 103.896C118.265 103.963 118.231 104.051 118.231 104.142C118.231 104.232 118.265 104.32 118.327 104.387C118.389 104.454 118.473 104.495 118.564 104.502C132.499 104.698 130.707 104.489 131.604 104.57C133.079 106.077 134.358 107.891 135.722 109.512C137.933 112.141 144.609 120.252 145.775 121.659C99.6033 120.145 49.1567 123.247 5.3594 121.625C12.1383 112.387 18.0639 104.639 17.9871 104.639C18.7945 104.529 19.6114 104.506 20.4237 104.57C21.1769 104.532 21.9302 104.506 22.6886 104.467C23.3063 104.436 23.3063 103.511 22.6886 103.541C21.8307 103.582 20.9382 103.603 20.0803 103.644C19.324 103.579 18.5625 103.613 17.8153 103.747C16.5906 104.22 15.4465 106.422 14.6933 107.418C11.117 112.149 7.52339 116.921 4.12789 121.795C4.08676 121.863 4.0642 121.94 4.06248 122.02C4.06077 122.099 4.07996 122.177 4.11813 122.247C4.15629 122.316 4.21209 122.375 4.27991 122.416C4.34774 122.457 4.42519 122.479 4.5045 122.481C51.8818 123.251 122.814 121.125 146.74 122.55C146.824 122.552 146.906 122.528 146.977 122.483C147.048 122.437 147.103 122.372 147.136 122.294C147.169 122.217 147.178 122.131 147.162 122.049C147.146 121.966 147.105 121.89 147.045 121.831Z" fill="#191919"/>
<path d="M48.8685 104.471C56.4195 104.557 64.0014 104.574 71.5509 104.574C77.4531 104.574 83.3967 104.842 89.2914 104.437C89.668 104.411 89.668 103.82 89.2914 103.854C75.8088 104.197 62.3202 103.339 48.8347 103.82C48.4241 103.781 48.4241 104.463 48.8685 104.471Z" fill="#191919"/>
<path d="M117.089 107.316C116.845 107.045 116.442 107.448 116.677 107.727C117.726 108.972 118.838 110.163 120.006 111.296L104.702 111.502C103.43 110.119 102.171 108.724 100.927 107.316C100.685 107.043 100.306 107.455 100.515 107.727C101.528 109.044 102.642 110.267 103.707 111.536L94.647 111.639C93.6181 110.198 92.5651 108.807 91.5588 107.346C91.3479 107.041 90.8726 107.312 91.0783 107.621C91.8315 108.993 92.6909 110.297 93.5834 111.636C90.3235 111.669 81.5734 111.739 80.4775 111.739C80.0241 110.26 79.4961 108.806 78.8957 107.381C78.859 107.316 78.7995 107.267 78.7288 107.243C78.6581 107.22 78.5811 107.223 78.5129 107.253C78.4446 107.283 78.3898 107.337 78.3591 107.405C78.3284 107.473 78.324 107.55 78.3466 107.621C78.8573 108.983 79.2392 110.366 79.6851 111.739C76.5284 111.773 73.337 111.773 70.1803 111.807C70.1456 110.469 70.0944 109.131 70.0771 107.827C70.0714 107.744 70.0346 107.666 69.9741 107.61C69.9136 107.553 69.8338 107.522 69.7509 107.522C69.6681 107.522 69.5883 107.553 69.5278 107.61C69.4672 107.666 69.4304 107.744 69.4248 107.827C69.4075 109.165 69.4248 110.503 69.4594 111.841L56.5915 111.944C57.2091 110.503 57.7748 109.054 58.3759 107.651C58.5092 107.341 57.9684 107.104 57.8268 107.411C57.1263 108.931 56.4198 110.43 55.7675 111.941C52.1987 111.975 48.63 111.975 45.0613 112.009C45.9405 110.546 46.8559 109.104 47.8067 107.686C48.0139 107.378 47.5386 107.106 47.3262 107.411C46.2589 108.943 45.1983 110.43 44.238 112.005C41.3554 112.005 38.4382 112.04 35.5564 112.074C36.4369 110.78 37.2059 109.414 37.8552 107.991C37.9968 107.649 37.5442 107.337 37.3408 107.682C36.4683 109.158 35.5759 110.622 34.6639 112.074C34.5614 112.074 24.8502 112.143 20.1147 112.109C21.0751 110.735 22.0836 109.407 23.0658 108.059C23.4131 107.582 22.6252 107.137 22.2765 107.613C20.0469 110.659 17.883 113.727 15.9623 116.947C15.9242 117.013 15.9043 117.088 15.9044 117.164C15.9044 117.24 15.9245 117.315 15.9627 117.381C16.0008 117.447 16.0556 117.502 16.1217 117.54C16.1877 117.578 16.2626 117.599 16.3389 117.599C35.2446 117.682 60.8103 117.42 134.76 117.564C134.834 117.561 134.906 117.538 134.967 117.495C135.028 117.453 135.076 117.394 135.104 117.326C135.133 117.258 135.142 117.182 135.13 117.109C135.117 117.036 135.084 116.968 135.034 116.913C132.209 113.594 128.927 110.702 125.872 107.648C125.597 107.374 125.22 107.785 125.46 108.06C126.421 109.158 127.451 110.187 128.48 111.217C126.009 111.251 123.504 111.32 121.034 111.354C119.663 109.992 118.339 108.706 117.089 107.316ZM120.624 111.88C122.305 113.527 124.089 115.071 125.805 116.684C120.349 116.649 114.859 116.649 109.402 116.615C109.402 116.349 109.562 116.69 105.285 112.085C106.437 112.201 119.446 111.905 120.624 111.88ZM104.29 112.154C105.628 113.66 107.035 115.173 108.442 116.649H98.0101C97.1175 115.173 96.1225 113.698 95.1275 112.257L104.29 112.154ZM79.9261 112.429C80.372 113.836 80.8526 115.242 81.367 116.615H70.4205C70.3181 115.242 70.2496 113.87 70.181 112.497C73.4409 112.497 76.7009 112.463 79.9261 112.429ZM69.4941 112.531C69.5287 113.904 69.6319 115.277 69.7344 116.649C64.6215 116.649 59.5087 116.649 54.4305 116.684C55.0865 115.358 55.7155 114.02 56.3173 112.669C60.6754 112.634 65.0674 112.6 69.4941 112.53V112.531ZM41.665 116.684H32.6754C33.5333 115.448 34.2571 114.11 35.0427 112.842C37.9599 112.808 40.8764 112.808 43.7589 112.774C42.9926 114.039 42.2937 115.344 41.665 116.684ZM17.1297 116.684C17.883 115.38 18.7115 114.11 19.5664 112.875C24.4389 112.909 29.2776 112.909 34.1502 112.875C33.2749 114.094 32.4943 115.378 31.8152 116.716C31.4393 116.718 21.6596 116.718 17.1297 116.684ZM42.4197 116.684C43.1059 115.345 43.8614 114.041 44.5815 112.771C47.7043 112.738 54.945 112.703 55.4278 112.703C54.8443 114.042 54.2266 115.38 53.5749 116.718C49.866 116.684 46.1263 116.684 42.4197 116.684ZM82.054 116.512C81.5734 115.173 81.1275 113.8 80.7155 112.463C85.176 112.429 89.6035 112.36 94.064 112.291C95.059 113.766 96.1225 115.208 97.1175 116.649C80.4082 116.649 82.2536 116.712 82.054 116.512ZM128.962 111.639C130.643 113.321 132.325 114.968 133.903 116.752C124.727 116.617 127.414 116.87 126.766 116.547C125.084 114.965 123.369 113.458 121.653 111.877C129.226 111.66 128.846 111.755 128.962 111.639Z" fill="#191919"/>
<path d="M108.51 134.218C108.397 133.786 108.144 133.403 107.79 133.129C107.436 132.856 107.002 132.707 106.554 132.707C106.107 132.707 105.672 132.856 105.318 133.129C104.964 133.403 104.711 133.786 104.598 134.218C104.6 134.237 104.599 134.256 104.593 134.274C104.587 134.292 104.577 134.308 104.564 134.322C104.48 134.628 104.468 134.949 104.529 135.26C104.59 135.572 104.722 135.865 104.914 136.117C105.107 136.369 105.355 136.573 105.639 136.714C105.924 136.854 106.237 136.928 106.554 136.928C106.871 136.928 107.184 136.854 107.468 136.714C107.753 136.573 108.001 136.369 108.193 136.117C108.386 135.865 108.518 135.572 108.579 135.26C108.639 134.949 108.628 134.628 108.544 134.322C108.531 134.308 108.522 134.292 108.516 134.274C108.51 134.256 108.508 134.237 108.51 134.218Z" fill="#191919"/>
<path d="M97.3919 134.218C97.2789 133.786 97.0257 133.403 96.6717 133.129C96.3177 132.856 95.8831 132.707 95.4358 132.707C94.9885 132.707 94.5539 132.856 94.1999 133.129C93.8459 133.403 93.5927 133.786 93.4797 134.218C93.482 134.237 93.4801 134.256 93.4742 134.274C93.4684 134.292 93.4587 134.308 93.4458 134.322C93.3621 134.628 93.3501 134.949 93.4109 135.261C93.4716 135.572 93.6033 135.865 93.7958 136.118C93.9884 136.37 94.2365 136.574 94.521 136.715C94.8054 136.856 95.1185 136.929 95.4358 136.929C95.7531 136.929 96.0662 136.856 96.3506 136.715C96.6351 136.574 96.8832 136.37 97.0758 136.118C97.2683 135.865 97.4 135.572 97.4607 135.261C97.5215 134.949 97.5095 134.628 97.4258 134.322C97.4282 134.303 97.4264 134.284 97.4205 134.266C97.4146 134.248 97.4049 134.232 97.3919 134.218Z" fill="#191919"/>
<path d="M86.3084 134.218C86.1955 133.786 85.9422 133.403 85.5882 133.129C85.2342 132.856 84.7996 132.707 84.3523 132.707C83.905 132.707 83.4704 132.856 83.1164 133.129C82.7624 133.403 82.5092 133.786 82.3962 134.218C82.3985 134.237 82.3966 134.256 82.3907 134.274C82.3849 134.292 82.3752 134.308 82.3623 134.322C82.2786 134.628 82.2666 134.949 82.3274 135.261C82.3881 135.572 82.5198 135.865 82.7124 136.118C82.9049 136.37 83.153 136.574 83.4375 136.715C83.7219 136.856 84.035 136.929 84.3523 136.929C84.6696 136.929 84.9827 136.856 85.2671 136.715C85.5516 136.574 85.7997 136.37 85.9923 136.118C86.1848 135.865 86.3165 135.572 86.3773 135.261C86.438 134.949 86.426 134.628 86.3423 134.322C86.3294 134.308 86.3197 134.292 86.3139 134.274C86.308 134.256 86.3061 134.237 86.3084 134.218Z" fill="#191919"/>
<path d="M75.1899 134.218C75.077 133.786 74.8237 133.403 74.4697 133.129C74.1157 132.856 73.6811 132.707 73.2338 132.707C72.7865 132.707 72.3519 132.856 71.9979 133.129C71.644 133.403 71.3907 133.786 71.2777 134.218C71.28 134.237 71.2781 134.256 71.2723 134.274C71.2664 134.292 71.2567 134.308 71.2438 134.322C71.1604 134.628 71.1486 134.949 71.2095 135.26C71.2703 135.572 71.4021 135.865 71.5947 136.117C71.7872 136.369 72.0353 136.573 72.3197 136.714C72.604 136.854 72.917 136.928 73.2342 136.928C73.5514 136.928 73.8644 136.854 74.1487 136.714C74.4331 136.573 74.6812 136.369 74.8737 136.117C75.0663 135.865 75.1981 135.572 75.2589 135.26C75.3198 134.949 75.308 134.628 75.2246 134.322C75.2115 134.308 75.2016 134.292 75.1956 134.274C75.1896 134.256 75.1877 134.237 75.1899 134.218Z" fill="#191919"/>
<path d="M64.0718 134.219C63.9586 133.786 63.7053 133.403 63.3514 133.13C62.9975 132.857 62.5631 132.709 62.1161 132.709C61.6691 132.709 61.2347 132.857 60.8808 133.13C60.5269 133.403 60.2736 133.786 60.1604 134.219C60.1626 134.237 60.1607 134.256 60.1547 134.274C60.1487 134.292 60.1388 134.308 60.1257 134.322C60.0423 134.628 60.0305 134.949 60.0914 135.26C60.1522 135.572 60.284 135.865 60.4766 136.117C60.6691 136.369 60.9172 136.573 61.2016 136.714C61.4859 136.854 61.7989 136.928 62.1161 136.928C62.4333 136.928 62.7463 136.854 63.0306 136.714C63.315 136.573 63.5631 136.369 63.7556 136.117C63.9482 135.865 64.08 135.572 64.1408 135.26C64.2017 134.949 64.1899 134.628 64.1065 134.322C64.1065 134.287 64.0718 134.252 64.0718 134.219Z" fill="#191919"/>
<path d="M52.9883 134.219C52.8751 133.786 52.6218 133.403 52.2679 133.13C51.914 132.857 51.4796 132.709 51.0326 132.709C50.5856 132.709 50.1512 132.857 49.7973 133.13C49.4434 133.403 49.1901 133.786 49.0769 134.219C49.0791 134.237 49.0772 134.256 49.0712 134.274C49.0652 134.292 49.0553 134.308 49.0422 134.322C48.9588 134.628 48.947 134.949 49.0079 135.26C49.0687 135.572 49.2005 135.865 49.3931 136.117C49.5856 136.369 49.8337 136.573 50.1181 136.714C50.4024 136.854 50.7154 136.928 51.0326 136.928C51.3498 136.928 51.6628 136.854 51.9471 136.714C52.2315 136.573 52.4796 136.369 52.6721 136.117C52.8647 135.865 52.9965 135.572 53.0573 135.26C53.1182 134.949 53.1064 134.628 53.023 134.322C53.0099 134.308 53 134.292 52.994 134.274C52.988 134.256 52.9861 134.237 52.9883 134.219Z" fill="#191919"/>
<path d="M121.103 35.7695C121.38 35.4275 120.892 34.9071 120.588 35.2543C115.669 40.8808 110.663 46.3266 105.284 51.5539C100.786 55.9226 100.539 56.1395 99.9307 56.3579C99.1451 56.6419 99.1428 56.4596 98.4898 55.9467C95.8701 53.8874 91.8457 48.9086 88.472 45.4461C88.4213 45.4002 88.3549 45.3756 88.2865 45.3773C88.2181 45.379 88.153 45.4069 88.1047 45.4553C88.0563 45.5037 88.0284 45.5688 88.0266 45.6372C88.0249 45.7055 88.0495 45.772 88.0954 45.8227C90.0425 48.0997 92.037 50.3563 94.0315 52.6513C95.5754 54.6175 97.4163 56.331 99.4878 57.7303C99.5746 57.7792 99.6749 57.7989 99.7738 57.7865C99.8727 57.774 99.965 57.73 100.037 57.661C103.331 53.7834 107.449 50.5582 111.017 46.9209C114.516 43.3529 117.939 39.6689 121.103 35.7695Z" fill="#191919"/>
<path d="M121.172 32.9555C120.275 32.206 119.765 31.5831 118.908 30.9647C118.617 30.7488 118.257 30.6471 117.896 30.6787C117.535 30.7104 117.198 30.8732 116.95 31.1364C110.949 37.3881 105.482 42.3134 99.7574 48.9123C99.706 48.9768 99.6408 49.0289 99.5665 49.0647C99.4923 49.1005 99.4109 49.1191 99.3284 49.1191C99.246 49.1191 99.1646 49.1005 99.0904 49.0647C99.0161 49.0289 98.9508 48.9768 98.8995 48.9123L92.3111 41.6717C92.2249 41.5595 92.117 41.4659 91.9938 41.3963C91.8706 41.3268 91.7347 41.2827 91.5941 41.2668C91.4536 41.2508 91.3113 41.2633 91.1756 41.3035C91.04 41.3437 90.9139 41.4107 90.8047 41.5007C89.8111 42.2709 88.8709 43.1076 87.9907 44.0051C87.7955 44.2061 87.6836 44.4735 87.6773 44.7536C87.671 45.0337 87.7708 45.3058 87.9568 45.5153L88.0592 45.6185C88.0687 45.5717 88.0906 45.5284 88.1226 45.493C88.1547 45.4576 88.1956 45.4314 88.2413 45.4173C88.2869 45.4032 88.3355 45.4017 88.3819 45.4128C88.4283 45.424 88.4709 45.4474 88.5051 45.4807C92.4828 49.5345 96.1171 54.1366 98.5229 55.9813C99.2008 56.5033 99.2008 56.6501 99.9645 56.3933C100.473 56.1708 100.929 55.8433 101.302 55.4322C108.115 49.0861 114.565 42.3612 120.622 35.2897C120.655 35.2496 120.698 35.2187 120.746 35.1997C120.795 35.1807 120.847 35.1743 120.898 35.1812C120.95 35.1881 120.999 35.2079 121.04 35.2389C121.082 35.2698 121.115 35.3109 121.137 35.3582C121.24 35.2211 121.381 35.0871 121.513 34.9123C121.716 34.6039 121.793 34.2299 121.73 33.8664C121.666 33.5029 121.467 33.1772 121.172 32.9555Z" fill="#38A1FF"/>
<path d="M93.96 102.546C91.2959 103.741 90.8545 100.179 90.8371 98.4281C90.8371 97.9822 90.1849 98.0161 90.151 98.4281C90.0109 100.144 89.9762 102.311 91.6265 103.369C92.7563 104.094 93.9931 103.779 95.0582 103.06C97.5596 101.374 99.1715 98.0484 100.308 95.3399C101.504 92.4897 102.059 88.683 100.308 85.9375C98.8017 83.5694 94.8315 82.5653 93.4455 85.6287C93.3062 85.9367 93.7611 86.2154 93.9261 85.9036C95.4062 83.0964 99.8494 84.0808 100.446 88.9918C100.646 91.1597 100.256 93.3414 99.3161 95.3052C98.3136 97.5235 96.014 101.625 93.96 102.546Z" fill="#191919"/>
<path d="M96.3285 104.227C96.0235 103.881 95.5753 104.33 95.7448 104.674C96.5342 106.492 98.7961 106.385 100.24 105.462C102.398 104.084 103.885 101.244 104.835 98.9771C106.045 96.0983 108.296 87.7903 103.016 87.3775C102.639 87.3482 102.673 87.8928 103.016 87.9613C107.511 88.5104 105.098 96.0893 104.045 98.599C103.043 100.997 99.4265 107.757 96.3285 104.227Z" fill="#191919"/>
<path d="M105.936 108.071C105.456 108.036 105.385 108.764 105.833 108.894C107.437 109.342 109.133 109.335 110.732 108.874C112.332 108.414 113.772 107.518 114.892 106.286C117.103 103.655 116.801 99.7221 115.373 96.8154C115.204 96.4712 114.714 96.7838 114.858 97.1242C116.041 99.9262 116.172 103.828 113.863 106.08C111.676 108.217 108.819 108.276 105.936 108.071Z" fill="#191919"/>
</svg>
