<svg width="26" height="26" viewBox="0 0 30 30" fill="none" xmlns="http://www.w3.org/2000/svg">
<path d="M0.5 8.00001C0.5 3.85787 3.85787 0.5 8 0.5H22C26.1421 0.5 29.5 3.85786 29.5 8V21.6839C29.5 25.8261 26.1421 29.1839 22 29.1839H8C3.85786 29.1839 0.5 25.8261 0.5 21.6839V8.00001Z" fill="white"/>
<path d="M0.5 8.00001C0.5 3.85787 3.85787 0.5 8 0.5H22C26.1421 0.5 29.5 3.85786 29.5 8V21.6839C29.5 25.8261 26.1421 29.1839 22 29.1839H8C3.85786 29.1839 0.5 25.8261 0.5 21.6839V8.00001Z" stroke="#007AB5"/>
<path d="M24.1367 3.125H20.8292C19.4004 3.125 18.5454 3.98 18.5454 5.40875V8.71625C18.5454 10.145 19.4004 11 20.8292 11H24.1367C25.5654 11 26.4204 10.145 26.4204 8.71625V5.40875C26.4204 3.98 25.5654 3.125 24.1367 3.125ZM24.8567 7.265C24.4404 8.5925 22.9892 9.3125 22.4829 9.3125C21.9767 9.3125 20.5367 8.615 20.1092 7.265C20.0417 7.0625 20.0079 6.8375 20.0079 6.62375C20.0079 5.8925 20.3792 5.13875 21.1554 4.89125C21.6167 4.745 22.1117 4.82375 22.4604 5.11625C22.8204 4.835 23.3154 4.745 23.7879 4.89125C24.8229 5.2175 25.1492 6.37625 24.8567 7.265Z" fill="#00ACFF"/>
<path opacity="0.4" d="M24.1367 11H20.8292C19.4004 11 18.5454 10.145 18.5454 8.71625V5.40875C18.5454 4.95875 18.6354 4.57625 18.7929 4.25H8.42041C5.31541 4.25 2.79541 6.75875 2.79541 9.8525V16.58V17.705C2.79541 20.7987 5.31541 23.3075 8.42041 23.3075H10.1079C10.4117 23.3075 10.8167 23.51 11.0079 23.7575L12.6954 25.9963C13.4379 26.9862 14.6529 26.9862 15.3954 25.9963L17.0829 23.7575C17.2967 23.4762 17.6342 23.3075 17.9829 23.3075H19.6704C22.7754 23.3075 25.2954 20.7987 25.2954 17.705V10.7413C24.9692 10.91 24.5867 11 24.1367 11Z" fill="#00ACFF"/>
<path d="M14.0454 15.5C13.4154 15.5 12.9204 14.9937 12.9204 14.375C12.9204 13.7562 13.4267 13.25 14.0454 13.25C14.6642 13.25 15.1704 13.7562 15.1704 14.375C15.1704 14.9937 14.6754 15.5 14.0454 15.5Z" fill="#00ACFF"/>
<path d="M18.5454 15.5C17.9154 15.5 17.4204 14.9937 17.4204 14.375C17.4204 13.7562 17.9267 13.25 18.5454 13.25C19.1642 13.25 19.6704 13.7562 19.6704 14.375C19.6704 14.9937 19.1754 15.5 18.5454 15.5Z" fill="#00ACFF"/>
<path d="M9.54541 15.5C8.91541 15.5 8.42041 14.9937 8.42041 14.375C8.42041 13.7562 8.92666 13.25 9.54541 13.25C10.1642 13.25 10.6704 13.7562 10.6704 14.375C10.6704 14.9937 10.1754 15.5 9.54541 15.5Z" fill="#00ACFF"/>
</svg>
