<svg width="30" height="30" viewBox="0 0 30 30" fill="none" xmlns="http://www.w3.org/2000/svg">
<path d="M0.5 8C0.5 3.85786 3.85786 0.5 8 0.5H22C26.1421 0.5 29.5 3.85786 29.5 8V22C29.5 26.1421 26.1421 29.5 22 29.5H8C3.85786 29.5 0.5 26.1421 0.5 22V8Z" fill="white"/>
<path d="M0.5 8C0.5 3.85786 3.85786 0.5 8 0.5H22C26.1421 0.5 29.5 3.85786 29.5 8V22C29.5 26.1421 26.1421 29.5 22 29.5H8C3.85786 29.5 0.5 26.1421 0.5 22V8Z" stroke="#007AB5"/>
<path opacity="0.4" d="M5.23752 12.8846C4.78271 12.8846 4.4231 12.525 4.4231 12.0702V9.62694C4.4231 6.7606 6.7606 4.4231 9.62694 4.4231H12.0702C12.525 4.4231 12.8846 4.78271 12.8846 5.23752C12.8846 5.69233 12.525 6.05194 12.0702 6.05194H9.62694C7.64906 6.05194 6.05194 7.65963 6.05194 9.62694V12.0702C6.05194 12.525 5.68175 12.8846 5.23752 12.8846Z" fill="#00ACFF"/>
<path opacity="0.4" d="M24.7626 12.8846C24.3184 12.8846 23.9482 12.525 23.9482 12.0702V9.62694C23.9482 7.64906 22.3405 6.05194 20.3732 6.05194H17.9299C17.4751 6.05194 17.1155 5.68175 17.1155 5.23752C17.1155 4.79329 17.4751 4.4231 17.9299 4.4231H20.3732C23.2395 4.4231 25.577 6.7606 25.577 9.62694V12.0702C25.577 12.525 25.2174 12.8846 24.7626 12.8846Z" fill="#00ACFF"/>
<path d="M20.373 25.5768H18.9028C18.4586 25.5768 18.0884 25.2171 18.0884 24.7623C18.0884 24.3181 18.448 23.9479 18.9028 23.9479H20.373C22.3509 23.9479 23.948 22.3402 23.948 20.3729V18.9133C23.948 18.4691 24.3076 18.0989 24.7624 18.0989C25.2066 18.0989 25.5768 18.4585 25.5768 18.9133V20.3729C25.5768 23.2393 23.2393 25.5768 20.373 25.5768Z" fill="#00ACFF"/>
<path d="M12.0702 25.5768H9.62694C6.7606 25.5768 4.4231 23.2393 4.4231 20.3729V17.9297C4.4231 17.4749 4.78271 17.1152 5.23752 17.1152C5.69233 17.1152 6.05194 17.4749 6.05194 17.9297V20.3729C6.05194 22.3508 7.65963 23.9479 9.62694 23.9479H12.0702C12.5144 23.9479 12.8846 24.3075 12.8846 24.7624C12.8846 25.2172 12.525 25.5768 12.0702 25.5768Z" fill="#00ACFF"/>
<path d="M21.8326 14.1855H20.3941H9.60567H8.16721C7.7124 14.1855 7.35278 14.5557 7.35278 15C7.35278 15.4442 7.7124 15.8144 8.16721 15.8144H9.60567H20.3941H21.8326C22.2874 15.8144 22.647 15.4442 22.647 15C22.647 14.5557 22.2874 14.1855 21.8326 14.1855Z" fill="#00ACFF"/>
<path d="M9.60571 17.0517V17.4007C9.60571 19.1565 11.023 20.5738 12.7788 20.5738H17.2211C18.9769 20.5738 20.3942 19.1565 20.3942 17.4007V17.0517C20.3942 16.9248 20.299 16.8296 20.1721 16.8296H9.82783C9.70091 16.8296 9.60571 16.9248 9.60571 17.0517Z" fill="#00ACFF"/>
<path opacity="0.4" d="M9.60571 12.9479V12.5989C9.60571 10.8431 11.023 9.42578 12.7788 9.42578H17.2211C18.9769 9.42578 20.3942 10.8431 20.3942 12.5989V12.9479C20.3942 13.0748 20.299 13.17 20.1721 13.17H9.82783C9.70091 13.17 9.60571 13.0748 9.60571 12.9479Z" fill="#00ACFF"/>
</svg>
