<svg width="30" height="30" viewBox="0 0 30 30" fill="none" xmlns="http://www.w3.org/2000/svg">
<path d="M0.5 8C0.5 3.85786 3.85786 0.5 8 0.5H22C26.1421 0.5 29.5 3.85786 29.5 8V22C29.5 26.1421 26.1421 29.5 22 29.5H8C3.85786 29.5 0.5 26.1421 0.5 22V8Z" fill="white"/>
<path d="M0.5 8C0.5 3.85786 3.85786 0.5 8 0.5H22C26.1421 0.5 29.5 3.85786 29.5 8V22C29.5 26.1421 26.1421 29.5 22 29.5H8C3.85786 29.5 0.5 26.1421 0.5 22V8Z" stroke="#007AB5"/>
<path opacity="0.4" d="M24.1573 9.51821C24.1757 9.73821 24.1573 9.96737 24.1023 10.1965L21.0132 22.599C20.7932 23.5248 19.9682 24.1665 19.0149 24.1665H6.96984C5.58568 24.1665 4.60486 22.8099 5.00819 21.4807L8.86735 9.07818C9.13318 8.21651 9.9307 7.62988 10.829 7.62988H22.104C22.984 7.62988 23.699 8.15238 24.0015 8.88571C24.0932 9.07821 24.139 9.29821 24.1573 9.51821Z" fill="#00ACFF"/>
<path d="M25.074 21.985C25.1657 23.1675 24.2307 24.1667 23.0482 24.1667H19.0149C19.9682 24.1667 20.7932 23.525 21.0132 22.5991L24.1024 10.1967C24.1574 9.96751 24.1757 9.73835 24.1574 9.51835L24.1666 9.5L25.074 21.985Z" fill="#00ACFF"/>
<path d="M12.8732 10.5359C12.8182 10.5359 12.7632 10.5267 12.7082 10.5175C12.3415 10.4258 12.1124 10.0592 12.2041 9.68336L13.1574 5.72335C13.249 5.35669 13.6157 5.1367 13.9915 5.2192C14.3582 5.31086 14.5874 5.67751 14.4957 6.05334L13.5424 10.0133C13.469 10.325 13.1849 10.5359 12.8732 10.5359Z" fill="#00ACFF"/>
<path d="M19.0151 10.5451C18.9692 10.5451 18.9142 10.545 18.8684 10.5267C18.5017 10.4442 18.2634 10.0775 18.3367 9.71086L19.1984 5.73256C19.2809 5.35673 19.6476 5.12755 20.0142 5.20088C20.3809 5.28338 20.6192 5.65006 20.5459 6.01673L19.6842 9.99503C19.62 10.325 19.3359 10.5451 19.0151 10.5451Z" fill="#00ACFF"/>
<path d="M18.3917 15.6875H11.0583C10.6825 15.6875 10.3708 15.3758 10.3708 15C10.3708 14.6242 10.6825 14.3125 11.0583 14.3125H18.3917C18.7675 14.3125 19.0792 14.6242 19.0792 15C19.0792 15.3758 18.7675 15.6875 18.3917 15.6875Z" fill="#00ACFF"/>
<path d="M17.4749 19.3542H10.1416C9.76577 19.3542 9.4541 19.0426 9.4541 18.6667C9.4541 18.2909 9.76577 17.9792 10.1416 17.9792H17.4749C17.8508 17.9792 18.1624 18.2909 18.1624 18.6667C18.1624 19.0426 17.8508 19.3542 17.4749 19.3542Z" fill="#00ACFF"/>
</svg>
