<svg width="30" height="30" viewBox="0 0 30 30" fill="none" xmlns="http://www.w3.org/2000/svg">
<path d="M0.5 8C0.5 3.85786 3.85786 0.5 8 0.5H22C26.1421 0.5 29.5 3.85786 29.5 8V22C29.5 26.1421 26.1421 29.5 22 29.5H8C3.85786 29.5 0.5 26.1421 0.5 22V8Z" fill="white"/>
<path d="M0.5 8C0.5 3.85786 3.85786 0.5 8 0.5H22C26.1421 0.5 29.5 3.85786 29.5 8V22C29.5 26.1421 26.1421 29.5 22 29.5H8C3.85786 29.5 0.5 26.1421 0.5 22V8Z" stroke="#007AB5"/>
<g clip-path="url(#clip0_23_838)">
<path opacity="0.4" d="M15.7592 15.5207V22.1574L4.75918 22.1757V15.5207L4.75 14.1457V8.48071C4.75 7.86654 5.06168 7.29817 5.56585 6.95901L9.23251 4.51152C9.84668 4.09902 10.6533 4.09902 11.2675 4.51152L14.9342 6.95901C15.4475 7.29817 15.75 7.86654 15.75 8.48071V14.1457L15.7592 15.5207Z" fill="#00ACFF"/>
<path d="M22.1666 21.4791H21.0024V18.7291C21.8732 18.4449 22.5057 17.6291 22.5057 16.6666V14.8333C22.5057 13.6324 21.5249 12.6516 20.3241 12.6516C19.1232 12.6516 18.1424 13.6324 18.1424 14.8333V16.6666C18.1424 17.6199 18.7657 18.4266 19.6182 18.7199V21.4791H3.83325C3.45742 21.4791 3.14575 21.7908 3.14575 22.1666C3.14575 22.5424 3.45742 22.8541 3.83325 22.8541H20.2691C20.2874 22.8541 20.2966 22.8633 20.3149 22.8633C20.3332 22.8633 20.3424 22.8541 20.3608 22.8541H22.1666C22.5424 22.8541 22.8541 22.5424 22.8541 22.1666C22.8541 21.7908 22.5424 21.4791 22.1666 21.4791Z" fill="#00ACFF"/>
<path d="M15.7592 15.5208H4.75918L4.75 14.1458H15.75L15.7592 15.5208Z" fill="#00ACFF"/>
<path d="M10.25 22.8542C9.87417 22.8542 9.5625 22.5426 9.5625 22.1667V18.7292C9.5625 18.3534 9.87417 18.0417 10.25 18.0417C10.6258 18.0417 10.9375 18.3534 10.9375 18.7292V22.1667C10.9375 22.5426 10.6258 22.8542 10.25 22.8542Z" fill="#00ACFF"/>
<path d="M10.2499 11.8541C11.1359 11.8541 11.8541 11.1359 11.8541 10.2499C11.8541 9.36396 11.1359 8.64575 10.2499 8.64575C9.36396 8.64575 8.64575 9.36396 8.64575 10.2499C8.64575 11.1359 9.36396 11.8541 10.2499 11.8541Z" fill="#00ACFF"/>
</g>
<defs>
<clipPath id="clip0_23_838">
<rect width="22" height="22" fill="white" transform="translate(2 2)"/>
</clipPath>
</defs>
</svg>
