<svg width="268" height="210" viewBox="0 0 268 210" fill="none" xmlns="http://www.w3.org/2000/svg">
<mask id="mask0_2_1348" style="mask-type:luminance" maskUnits="userSpaceOnUse" x="0" y="0" width="268" height="210">
<rect width="267.108" height="209.648" fill="white"/>
</mask>
<g mask="url(#mask0_2_1348)">
<ellipse cx="136.323" cy="104.824" rx="112.576" ry="104.824" fill="#F1F0FF"/>
<rect x="129.77" y="59.1245" width="69.0307" height="99.5353" fill="white"/>
<path d="M115.934 119.877H186.713" stroke="black"/>
<path d="M115.934 126.386H186.713" stroke="black"/>
<path d="M115.934 132.895H186.713" stroke="black"/>
<path d="M115.934 139.404H186.713" stroke="black"/>
<ellipse cx="164.286" cy="88.1444" rx="18.059" ry="16.8154" fill="#F2F2F2"/>
<rect opacity="0.7" x="186.713" y="94.5182" width="28.5442" height="24.6806" fill="#98B9F2"/>
<path d="M194.18 109.324L200.458 106.864V107.83L195.324 109.769L200.458 111.714V112.681L194.18 110.215V109.324ZM206.018 104.688H206.834L204.331 112.578H203.515L206.018 104.688ZM216.067 110.226L209.788 112.681V111.714L214.917 109.769L209.788 107.83V106.864L216.067 109.324V110.226Z" fill="white"/>
<rect x="10.4948" y="10.1707" width="154.082" height="94.3824" stroke="black"/>
<path d="M10.4948 15.1883H164.577" stroke="black"/>
<rect x="21.7085" y="23.5953" width="46.3122" height="43.1231" stroke="black"/>
<path d="M76.9043 27.3929H147.683" stroke="black"/>
<path d="M76.9043 33.9019H147.683" stroke="black"/>
<path d="M76.9043 40.4109H147.683" stroke="black"/>
<path d="M76.9043 46.92H147.683" stroke="black"/>
<path opacity="0.44" fill-rule="evenodd" clip-rule="evenodd" d="M44.8645 34.9865L32.2524 55.3253H57.4767L44.8645 34.9865Z" fill="#918EF4"/>
<ellipse cx="13.8444" cy="12.7469" rx="1.31058" ry="1.22033" fill="#AB8DE5"/>
<ellipse cx="18.3588" cy="12.7469" rx="1.31058" ry="1.22033" fill="#73E5E2"/>
<ellipse cx="22.8732" cy="12.7469" rx="1.31058" ry="1.22033" fill="#50B89D"/>
<path fill-rule="evenodd" clip-rule="evenodd" d="M78.3601 87.1273L82.7293 83.5339H78.2729L78.3601 87.1273Z" fill="#AB8DE5"/>
<path fill-rule="evenodd" clip-rule="evenodd" d="M73.9915 77.0244C73.9915 75.1147 74.7166 73.4846 76.1668 72.1342C77.6171 70.7838 79.3677 70.1086 81.4187 70.1086H100.351C102.402 70.1086 104.153 70.7838 105.603 72.1342C107.053 73.4846 107.779 75.1147 107.779 77.0244C107.779 78.9342 107.053 80.5643 105.603 81.9147C104.153 83.2651 102.402 83.9403 100.351 83.9403H81.4187C79.3677 83.9403 77.6171 83.2651 76.1668 81.9147C74.7166 80.5643 73.9915 78.9342 73.9915 77.0244Z" fill="#AB8DE5"/>
<ellipse cx="86.3706" cy="77.0244" rx="1.31058" ry="1.22033" fill="white"/>
<ellipse cx="90.885" cy="77.0244" rx="1.31058" ry="1.22033" fill="white"/>
<ellipse cx="95.3996" cy="77.0244" rx="1.31058" ry="1.22033" fill="white"/>
<path fill-rule="evenodd" clip-rule="evenodd" d="M216.714 46.445L212.345 42.8516H216.801L216.714 46.445Z" fill="#98B9F2"/>
<path fill-rule="evenodd" clip-rule="evenodd" d="M221.083 36.3426C221.083 38.2523 220.358 39.8824 218.908 41.2328C217.457 42.5832 215.707 43.2584 213.656 43.2584H194.723C192.672 43.2584 190.922 42.5832 189.471 41.2328C188.021 39.8824 187.296 38.2523 187.296 36.3426C187.296 34.4328 188.021 32.8027 189.471 31.4524C190.922 30.102 192.672 29.4268 194.723 29.4268L213.656 29.4268C215.707 29.4268 217.457 30.102 218.908 31.4524C220.358 32.8027 221.083 34.4328 221.083 36.3426Z" fill="#98B9F2"/>
<ellipse cx="208.704" cy="36.3425" rx="1.31058" ry="1.22033" fill="white"/>
<ellipse cx="204.189" cy="36.3425" rx="1.31058" ry="1.22033" fill="white"/>
<ellipse cx="199.674" cy="36.3425" rx="1.31058" ry="1.22033" fill="white"/>
<ellipse cx="214.384" cy="11.5267" rx="1.31058" ry="1.22033" fill="#918EF4"/>
<ellipse cx="217.151" cy="16.5439" rx="1.31058" ry="1.22033" fill="#918EF4"/>
<ellipse cx="187.004" cy="66.0408" rx="2.0391" ry="1.89869" fill="#918EF4"/>
<ellipse cx="198.947" cy="72.5498" rx="2.0391" ry="1.89869" fill="#918EF4"/>
<ellipse cx="15.4467" cy="74.7196" rx="2.0391" ry="1.89869" fill="#F98B67"/>
<path fill-rule="evenodd" clip-rule="evenodd" d="M191.723 161.44V161.169L191.024 160.356L189.407 158.527L187.689 156.591C187.689 156.591 186.034 155.525 185.609 155.341C184.092 154.61 182.417 154.208 180.71 154.165C179.589 154.165 175.397 154.323 175.389 154.979C175.389 155.952 181.26 159.638 185.563 161.428C187.453 161.44 191.723 161.44 191.723 161.44Z" fill="#1F161E"/>
<path fill-rule="evenodd" clip-rule="evenodd" d="M190.834 161.44C184.86 157.16 172.665 133.817 175.793 125.165C182.451 128.325 189.757 139.22 193.202 148.419C193.388 149.018 193.537 149.627 193.648 150.241L195.046 156.208L195.384 161.451L190.834 161.44Z" fill="#6F9CEB"/>
<path fill-rule="evenodd" clip-rule="evenodd" d="M194.913 161.44C192.897 159.916 192.254 155.403 192.236 153.719C192.204 150.576 192.722 148.259 195.609 144.802C198.496 141.344 197.726 135.607 201.56 131.737C205.393 127.867 207.933 126.788 212.481 126.788C217.03 126.788 218.478 133.655 218.452 135.382C218.399 142.352 213.684 143.34 210.806 146.664C208.718 149.078 208.555 151.053 207.922 152.181C204.532 158.262 201.777 160.548 199.738 161.441" fill="#918EF4"/>
<path d="M196.025 160.935C196.083 149.048 209.535 131.191 212.412 128.517" stroke="white" stroke-width="0.4" stroke-linecap="round" stroke-linejoin="round"/>
<path d="M196.75 155.533C195.261 154.022 193.909 149.74 194.111 148.628" stroke="white" stroke-width="0.4" stroke-linecap="round" stroke-linejoin="round"/>
<path d="M192.938 160.414C190.829 156.934 180.823 139.967 177.092 127.47" stroke="white" stroke-width="0.4" stroke-linecap="round" stroke-linejoin="round"/>
<path fill-rule="evenodd" clip-rule="evenodd" d="M199.75 161.44H206.018L200.779 179.611H186.757L181.598 161.44H199.75" fill="#B37361"/>
<path d="M177.439 155.346C180.494 155.541 184.339 155.671 187.051 157.393" stroke="white" stroke-width="0.4" stroke-linecap="round" stroke-linejoin="round"/>
<path fill-rule="evenodd" clip-rule="evenodd" d="M225.873 87.0598C225.137 90.3334 219.783 130.939 221.533 140.638C223.283 150.337 251.825 170.658 253.075 171.014C254.531 170.019 256.673 166.756 256.673 166.756C256.673 166.756 235.746 144.167 235.347 143.261C234.948 142.355 239.931 90.0436 239.931 90.0436L225.873 87.0598Z" fill="#7472C1"/>
<path fill-rule="evenodd" clip-rule="evenodd" d="M259.956 94.45L238.603 175.546H231.412L238.699 90.9459L259.956 94.45Z" fill="#AB8DE5"/>
<path fill-rule="evenodd" clip-rule="evenodd" d="M244.792 48.0186C247.739 48.0186 263.116 48.4824 265.894 53.5212C268.672 58.5601 266.054 81.8546 264.327 82.7551C263.395 83.2407 263.142 82.7686 262.871 83.7544C262.6 84.7402 259.958 94.4482 259.958 94.4482C258.28 94.4917 233.822 91.0606 225.879 87.0498C225.926 85.9329 226.31 83.0361 226.31 82.8133C225.256 83.2148 223.98 83.2989 223.63 82.8133C220.531 78.444 225.151 55.665 228.465 51.0811C229.874 49.1172 240.057 48.0321 244.792 48.0186Z" fill="#6F9CEB"/>
<path fill-rule="evenodd" clip-rule="evenodd" d="M254.914 83.3847C255.637 83.3847 261.856 87.453 261.322 89.4517C261.759 87.8463 263.134 82.8856 263.134 82.8856C262.543 82.9914 255.445 83.3929 254.914 83.3847Z" fill="#1F161E"/>
<path fill-rule="evenodd" clip-rule="evenodd" d="M248.597 50.6767C248.597 51.5585 241.108 51.5585 241.108 50.6767V41.7264H248.597V50.6767Z" fill="#F8CDBA"/>
<path fill-rule="evenodd" clip-rule="evenodd" d="M244.3 43.8444C244.883 43.8444 248.596 45.3727 248.596 46.2257V41.7264C247.67 41.7264 244.3 43.8444 244.3 43.8444Z" fill="#1F161E"/>
<ellipse cx="243.275" cy="37.7151" rx="7.28457" ry="6.78296" fill="#F8CDBA"/>
<path fill-rule="evenodd" clip-rule="evenodd" d="M240.811 27.7996C237.071 27.7996 234.741 29.9857 234.741 32.7873C234.741 35.1169 235.347 36.4354 236.061 36.7687C236.512 34.5067 237.494 33.4598 238.306 33.0095C238.937 33.4598 240.019 34.5502 241.463 34.8864C242.906 35.2227 246.668 35.1574 249.706 37.2136C250.699 36.373 251.689 35.2797 251.689 33.9918C251.689 32.7038 251.077 31.0873 247.48 30.1538C245.105 29.5378 244.773 27.7996 240.811 27.7996Z" fill="#1F161E"/>
<ellipse cx="236.468" cy="39.1118" rx="1.27586" ry="0.618396" fill="#FA9E9F"/>
<ellipse cx="244.493" cy="39.1118" rx="1.27586" ry="0.618396" fill="#FA9E9F"/>
<path d="M239.585 37.8291C239.347 38.1465 238.129 39.478 239.413 40.0152" stroke="#1F161E" stroke-linecap="round"/>
<path d="M241.985 41.5689C242.512 41.4481 242.972 41.147 243.272 40.7253" stroke="#1F161E" stroke-linecap="round"/>
<ellipse cx="250.009" cy="38.4963" rx="1.68368" ry="1.56774" fill="#F8CDBA"/>
<path d="M255.083 61.3652C254.952 62.8624 254.439 70.2608 254.632 71.2349C252.188 72.0267 229.813 81.9069 225.942 82.9915" stroke="#1F161E" stroke-linecap="round"/>
<path d="M229.096 59.0298C228.58 60.7057 226.845 68.3134 228.065 71.8445" stroke="#1F161E" stroke-linecap="round"/>
<path d="M234.808 79.5309C235.974 80.2951 247.141 84.8954 262.581 83.1596" stroke="#1F161E" stroke-linecap="round"/>
<path fill-rule="evenodd" clip-rule="evenodd" d="M233.74 71.8473C234.489 71.9584 232.048 70.1426 230.664 70.8192C229.281 71.4958 227.417 74.5513 227.798 75.2591C227.902 75.5194 228.128 75.7217 228.411 75.8093C228.694 75.8968 229.004 75.86 229.255 75.7094C229.63 75.4842 232.435 71.6516 233.74 71.8473Z" fill="#F8CDBA"/>
<path fill-rule="evenodd" clip-rule="evenodd" d="M256.435 167.089C256.834 167.36 260.373 169.59 260.402 170.995C260.431 172.4 257.104 177.056 256.435 177.189C255.765 177.322 255.287 176.796 255.287 175.855C255.287 174.914 256.55 173.265 256.382 172.533C256.215 171.8 254.579 170.46 253.74 170.436" fill="#EBEBEB" fill-opacity="0.25098"/>
<path fill-rule="evenodd" clip-rule="evenodd" d="M237.919 175.546C237.919 176.192 238.321 180.243 237.517 180.62C236.713 180.997 227.841 181.219 227.439 180.845C227.037 180.47 226.793 179.682 227.148 179.456C227.503 179.231 230.936 178.591 231.4 178.293C232.086 177.529 232.402 176.534 232.274 175.546" fill="#EBEBEB" fill-opacity="0.25098"/>
<rect x="7.57617" y="145.462" width="56.3258" height="26.6034" fill="#B37361"/>
<path fill-rule="evenodd" clip-rule="evenodd" d="M91.6515 132.995C91.8964 134.351 96.0498 165.353 96.7227 165.865C97.3957 166.378 104.54 167.514 105.152 166.662C105.274 165.306 105.443 143.685 105.822 141.751" fill="#1F161E"/>
<path fill-rule="evenodd" clip-rule="evenodd" d="M11.2902 126.526C8.40959 125.205 14.4158 151.388 30.2229 151.388C46.03 151.388 72.6374 128.967 76.9454 128.967C86.4553 128.967 108.967 146.352 110.733 146.352C112.084 145.094 114.787 142.892 114.787 142.013C114.787 141.134 93.2329 108.111 77.1051 108.111C70.8521 108.119 17.7945 129.518 11.2902 126.526Z" fill="#7472C1"/>
<path fill-rule="evenodd" clip-rule="evenodd" d="M20.1858 126.972C23.3461 126.305 27.2785 124.577 30.7589 122.812C21.2894 125.692 13.53 127.558 11.2902 126.527C9.76372 125.828 10.7309 132.836 14.3204 139.586C13.6696 138.28 12.7435 128.555 20.1858 126.972Z" fill="#1F161E"/>
<path fill-rule="evenodd" clip-rule="evenodd" d="M27.1522 81.0381C29.6427 81.1004 42.607 80.7442 46.1606 83.8967C48.7963 86.2345 56.9931 106.339 58.257 113.399C52.752 116.006 13.0433 133.708 0.75753 125.924C0.486702 119.876 1.74804 95.8332 9.78512 83.2242C12.7232 81.4014 24.7583 80.9811 27.1522 81.0381Z" fill="white"/>
<path fill-rule="evenodd" clip-rule="evenodd" d="M32.2033 75.2856H24.6277V82.8633C24.6277 84.762 32.2033 84.7444 32.2033 82.8633V75.2856Z" fill="#F8CDBA"/>
<path fill-rule="evenodd" clip-rule="evenodd" d="M24.6302 79.8607C24.6302 79.0201 27.132 76.9075 28.6787 76.9804C28.7166 76.0445 25.1435 74.6996 25.1435 74.6996L24.6277 75.9928L24.6302 79.8607Z" fill="#1F161E"/>
<path fill-rule="evenodd" clip-rule="evenodd" d="M40.1343 75.2857C40.3045 74.5516 40.3904 73.8028 40.3906 73.0519C40.3906 67.4593 35.6982 62.9248 29.9047 62.9248C24.1113 62.9248 19.4188 67.4593 19.4188 73.0519C19.4188 73.8 19.5045 74.5489 19.6745 75.2829L40.1343 75.2857Z" fill="#1F161E"/>
<path fill-rule="evenodd" clip-rule="evenodd" d="M37.3704 68.4592C36.0857 68.2775 34.8042 67.3364 33.9102 66.7209C28.8131 70.198 25.548 70.242 25.1951 70.242C24.8422 70.242 23.4067 72.1625 22.7457 72.3794L22.6876 72.3471C23.2143 75.1113 25.3742 77.3606 28.2655 78.1561C31.1569 78.9517 34.2828 78.1567 36.3385 76.1031C38.3941 74.0494 39.0262 71.0901 37.9708 68.4604C37.7716 68.4834 37.5702 68.4834 37.371 68.4603L37.3704 68.4592Z" fill="#F8CDBA"/>
<ellipse cx="24.2254" cy="61.3076" rx="3.09337" ry="2.88036" fill="#1F161E"/>
<path d="M25.603 70.0892C24.9071 70.1178 24.3586 70.6515 24.3586 71.3002C24.3586 71.9488 24.9071 72.4825 25.603 72.5111" stroke="#1F161E" stroke-linecap="round"/>
<path d="M35.5182 70.2438C35.897 70.7182 36.8812 71.5511 35.5182 72.4323" stroke="#1F161E" stroke-linecap="round"/>
<path d="M31.3851 73.0671C31.3503 73.6887 31.7453 74.2616 32.3667 74.4908" stroke="#1F161E" stroke-linecap="round"/>
<ellipse cx="28.8478" cy="72.571" rx="1.2001" ry="0.580187" fill="#FA9E9F"/>
<ellipse cx="37.7694" cy="72.571" rx="1.2001" ry="0.580187" fill="#FA9E9F"/>
<path fill-rule="evenodd" clip-rule="evenodd" d="M45.8873 101.995L53.9819 100.055C54.7596 101.286 58.5462 113.385 58.5462 113.385L46.0515 118.289C46.2137 115.997 46.7055 105.502 45.8873 101.995Z" fill="#F8CDBA"/>
<path d="M17.506 100.099C17.2294 102.129 16.7914 104.137 16.1954 106.107" stroke="#1F161E" stroke-linecap="round"/>
<path d="M45.8872 101.995C45.6922 100.56 44.5502 92.4761 42.6045 88.2202" stroke="#1F161E" stroke-linecap="round"/>
<path fill-rule="evenodd" clip-rule="evenodd" d="M45.8873 101.995L53.9819 100.055C54.7596 101.286 58.5462 113.385 58.5462 113.385L46.0515 118.289C46.2137 115.997 46.7055 105.502 45.8873 101.995Z" fill="#F8CDBA"/>
<path fill-rule="evenodd" clip-rule="evenodd" d="M110.974 145.712C111.155 145.983 113.566 148.738 114.42 148.768C115.273 148.798 120.455 145.53 120.228 144.83C120.001 144.13 116.75 144.586 116.191 144.339C115.366 143.855 114.676 143.196 114.178 142.416" fill="#1F161E"/>
<path fill-rule="evenodd" clip-rule="evenodd" d="M98.2309 166.153C98.1678 166.454 97.8408 170.005 98.4317 170.58C99.0226 171.155 105.187 172.153 105.548 171.499C105.909 170.845 103.218 169.074 103.01 168.538C102.782 167.657 102.782 166.739 103.01 165.858" fill="#1F161E"/>
<path fill-rule="evenodd" clip-rule="evenodd" d="M88.5637 114.145H61.135L67.6652 98.0322H95.0939L88.5637 114.145Z" fill="#969696"/>
<rect x="38.2795" y="113.538" width="27.4287" height="0.607227" fill="#969696"/>
<path fill-rule="evenodd" clip-rule="evenodd" d="M16.1954 106.109C15.6682 107.942 13.1077 115.808 14.1506 117.164C15.1935 118.519 41.3085 115.447 48.2963 113.421C50.076 112.878 51.3954 111.458 52.1845 111.273C54.2835 110.941 56.3134 112.137 56.8915 114.045C54.1036 115.303 13.8128 134.456 0.758813 125.932C-1.70831 124.286 2.61988 104.216 2.81811 103.204C5.02198 103.451 16.1954 106.109 16.1954 106.109Z" fill="#F8CDBA"/>
<path d="M46.2604 113.91C47.047 113.733 47.7345 113.565 48.2995 113.402C50.0791 112.86 51.3985 111.439 52.1876 111.254C54.2867 110.923 56.3165 112.118 56.8946 114.026" stroke="#1F161E" stroke-linecap="round"/>
</g>
</svg>
