<?xml version="1.0"?>
<svg width="1999.9999999999998" height="267" xmlns="http://www.w3.org/2000/svg" xmlns:svg="http://www.w3.org/2000/svg" enable-background="new 0 0 2000 267" version="1.1" xml:space="preserve">
 <g class="layer">
  <title>Layer 1</title>
  <g id="svg_71"> 
   <path d="m906.54,226.93c-7.32,-2.23 -14.23,-4.42 -21.09,-6.74c-1.76,-0.59 -3.35,-1.63 -5.6,-2.76c2.84,-6.38 5.62,-12.59 8.24,-18.46c6.23,2.64 12.07,5.94 18.41,7.63c14.6,3.89 28.88,3.49 41.56,-5.85c5.68,-4.18 8.67,-9.99 9.61,-16.38c1.17,-7.98 1.3,-16.09 1.93,-24.92c-5.08,3.36 -8.93,6.36 -13.22,8.65c-13.82,7.39 -28.33,7.42 -42.76,2.11c-22.09,-8.14 -33.63,-24.16 -36.99,-45.87c-3.18,-20.53 0.36,-39.71 14.62,-55.98c9.52,-10.87 21.93,-17.42 37.19,-19.27c10.85,-1.31 20.85,0.63 30.62,4.48c3.59,1.41 6.87,3.54 10.64,5.52c0.18,-2.63 0.32,-4.7 0.48,-7.03c6.95,0 13.76,0 21.04,0c0.08,1.53 0.23,3.02 0.23,4.51c0.01,39.63 0.22,79.25 -0.1,118.87c-0.12,14.61 -4.53,28.21 -15.84,38.82c-7.29,6.84 -16.63,10.43 -26.92,12.41c-10.67,0.27 -21.16,0.27 -32.06,0.27m-17.46,-112.39c0.6,3.14 1.05,6.32 1.84,9.42c6.45,25.12 35.5,40.32 59.97,22.53c3.13,-2.28 7.27,-4.12 7.27,-8.89c-0.03,-19.16 0.04,-38.31 -0.13,-57.46c-0.01,-1.44 -1.27,-3.61 -2.57,-4.17c-6.66,-2.88 -13.29,-6.43 -20.34,-7.69c-13.74,-2.45 -27.24,2.08 -36.4,13.53c-7.6,9.51 -9.89,20.36 -9.63,32.72z" fill="#00ACFF" id="svg_3" opacity="1"/>
   <path d="m471.47,226.93c-5.48,-6.26 -5.89,-13.47 -5.88,-21.04c0.14,-62.08 0.13,-124.15 0.01,-186.24c-0.02,-6.62 0.82,-12.75 5.34,-18.38c3.43,-0.28 6.75,-0.28 10.47,-0.28c4.9,3.77 6.6,8.84 6.61,14.14c0.12,65.93 0.12,131.85 -0.01,197.78c-0.01,5.03 -1.52,9.96 -6.08,13.74c-3.42,0.27 -6.74,0.27 -10.46,0.27z" fill="#00ACFF" id="svg_4" opacity="1"/>
   <path d="m747.82,1c0.42,42.84 0.35,85.68 0.52,128.52c0.02,5.09 0.94,10.27 2.19,15.26c2.71,10.87 15.58,14.26 23.87,12.29c3.84,-0.91 7.67,-1.84 12.2,-2.91c1.88,5.58 3.79,11.2 6,17.75c-5.6,1.4 -10.85,3.44 -16.25,3.9c-10.03,0.88 -20.12,1.12 -29.75,-2.94c-11.4,-4.82 -17.5,-13.34 -19.81,-24.53c-0.74,-3.54 -0.94,-7.22 -0.95,-10.83c-0.05,-45.24 -0.04,-90.48 -0.04,-136.1c7.19,-0.4 14.39,-0.4 22,-0.4z" fill="#00ACFF" id="svg_5" opacity="1"/>
   <path d="m354.05,1c17.56,18.03 28.5,39.53 38.32,61.56c5.71,12.82 10.79,25.89 16.17,38.84c0.87,2.08 1.13,3.76 -1.81,4.57c-10.02,2.77 -20.01,5.63 -29.71,8.36c-5.84,-14.55 -11.43,-28.89 -17.32,-43.11c-7.48,-18.05 -16.51,-35.28 -31.66,-48.91c-2.96,-2.67 -6.45,-4.81 -10.15,-7.53c10.35,-4.44 20.6,-8.84 31,-13.51c1.69,-0.26 3.23,-0.26 5.15,-0.26z" fill="#00ACFF" id="svg_6" opacity="1"/>
   <path d="m825.89,1c6.37,2.01 11.65,4.65 13.49,11.1c2.43,8.54 -2.05,16.75 -10.55,19.01c-8.27,2.2 -18.11,-2.28 -19.89,-9.79c-2.25,-9.49 -0.39,-17.35 11.78,-20.05c1.7,-0.27 3.25,-0.27 5.17,-0.27z" fill="#00ACFF" id="svg_7" opacity="1"/>
   <path d="m155.72,226.93c-2.76,-2.09 -5.08,-4.22 -7.46,-6.27c-3.25,-2.78 -6.6,-5.56 -5.43,-10.3c1.2,-4.8 4.85,-7.35 9.65,-8.83c4.83,-1.48 8.52,0.34 12,3.17c1.22,1 2.48,1.97 3.93,2.71c0.21,-0.24 0.15,-0.31 0.15,-0.31c1.45,2.06 2.57,4.47 4.44,6.1c3.64,3.17 7.71,5.91 12.22,9.29c-4.57,1.42 -8.55,2.66 -12.7,4.17c-5.58,0.27 -10.98,0.27 -16.8,0.27z" fill="#00ACFF" id="svg_8" opacity="1"/>
   <path d="m1404.87,127.08c0,15.61 0,30.8 0,46.26c-8.19,0 -15.88,0 -24,0c0,-43.78 0,-87.42 0,-131.07c-0.32,-0.09 -0.65,-0.19 -0.98,-0.29c-1.26,2.47 -2.59,4.91 -3.76,7.42c-12.08,25.88 -24.15,51.76 -36.21,77.65c-1.12,2.41 -2.05,4.94 -3.45,7.2c-0.6,0.98 -2.15,2 -3.31,2.03c-6.57,0.19 -13.15,0.23 -19.72,-0.03c-1.28,-0.05 -3.08,-1.37 -3.65,-2.54c-8.45,-17.35 -16.78,-34.75 -25.05,-52.18c-5.61,-11.82 -11.05,-23.71 -16.6,-35.56c-0.64,-1.37 -1.49,-2.65 -3.12,-3.85c0,43.66 0,87.33 0,131.24c-7.72,0 -14.81,0 -22.2,0c0,-54.55 0,-108.91 0,-163.91c7.19,0 14.36,0.54 21.4,-0.14c8.52,-0.83 13.07,1.44 16.36,9.65c7.2,17.94 15.99,35.31 24.17,52.9c5.57,11.99 11.18,23.96 16.79,35.94c0.53,1.13 1.29,2.17 2.22,3.72c7.76,-17.14 15.31,-33.87 22.92,-50.58c7.51,-16.52 15.04,-33.02 22.69,-49.48c0.41,-0.9 1.9,-1.9 2.9,-1.91c10.6,-0.14 21.21,-0.08 32.62,-0.08c0,39.22 0,78.21 0,117.6z" fill="#00ACFF" id="svg_9" opacity="1"/>
   <path d="m627.14,129.62c-13.01,0 -25.57,0.2 -38.11,-0.12c-3.95,-0.1 -5.5,1.47 -6.73,4.47c-5.14,12.59 -10.37,25.16 -15.62,37.71c-0.53,1.26 -1.39,2.39 -2.23,3.82c-6.86,-2.59 -13.53,-5.1 -20.64,-7.79c4.8,-11.1 9.54,-21.98 14.21,-32.9c11.13,-26.08 22.17,-52.2 33.35,-78.26c6.42,-14.97 13.01,-29.87 19.68,-44.75c0.48,-1.05 2.27,-2.21 3.48,-2.24c7.17,-0.21 14.35,-0.21 21.51,0.01c1.21,0.03 3,1.26 3.45,2.34c17.52,41.22 34.89,82.5 52.33,123.75c4.42,10.47 8.96,20.88 13.72,31.93c-7.46,2.88 -14.63,5.65 -22.38,8.65c-2.28,-5.46 -4.53,-10.82 -6.76,-16.2c-3.76,-9.07 -7.56,-18.13 -11.23,-27.23c-0.99,-2.45 -2.48,-3.3 -5.3,-3.26c-10.76,0.17 -21.52,0.07 -32.73,0.07m17.47,-19.46c3.43,0 6.85,0 11.14,0c-10.63,-25.72 -21.04,-50.92 -31.77,-76.89c-10.82,25.97 -21.32,51.17 -32.03,76.89c17.73,0 34.75,0 52.67,0z" fill="#00ACFF" id="svg_10" opacity="1"/>
   <path d="m1441.35,87.9c7.01,-20.29 20.7,-33.86 42.74,-38.26c15.33,-3.05 30.54,-1.2 43.91,7.17c12.5,7.82 19.17,19.51 22.14,33.14c2.26,10.37 2.63,20.82 0.44,31.88c-29.39,0 -59.03,0 -89.91,0c1.69,5.26 2.66,9.85 4.57,14.06c5.79,12.7 17.09,19.99 31.72,20.82c14.2,0.81 27.63,-2.09 41.12,-8.01c1.87,6.58 3.63,12.79 5.48,19.29c-22.91,8.34 -45.69,12.02 -68.96,4.7c-19.53,-6.15 -30.34,-20.14 -34.64,-38.64c-1.61,-6.9 -2.83,-14.11 -2.56,-21.13c0.31,-8.28 2.43,-16.48 3.95,-25.02m42.01,15.49c15.62,0 31.23,0 47.12,0c-0.79,-13.38 -3.97,-25.01 -16.83,-31.44c-13.42,-6.7 -27.13,-6.36 -39.04,2.93c-8.99,7.01 -12.51,17.06 -13.36,28.51c7.53,0 14.36,0 22.1,0z" fill="#00ACFF" id="svg_11" opacity="1"/>
   <path d="m1616.91,153.1c9.63,4.59 19.63,4.51 29.45,2.94c8.81,-1.4 17.39,-4.04 26.56,-6.26c1.42,4.88 3.12,10.3 4.48,15.8c0.21,0.84 -0.89,2.56 -1.83,2.97c-10.59,4.59 -21.81,7.14 -33.4,7.51c-10.2,0.33 -20.45,0.77 -30.48,-2.37c-19.48,-6.1 -31.31,-18.74 -36.43,-37.17c-5.62,-20.22 -5.06,-40.05 5.33,-58.97c9.06,-16.52 23.22,-26.19 43.09,-28.41c13.85,-1.55 26.91,0.29 38.59,7.45c12.56,7.68 19.29,19.3 22.44,32.91c2.48,10.65 2.46,21.32 0.5,32.44c-29.63,0 -59.16,0 -88.67,0c-0.42,10.1 7.24,25.45 20.36,31.16m-16.38,-67.61c-2.02,5.69 -5,11.2 -4.36,17.55c23.13,0 45.85,0 69.12,0c-0.43,-2.73 -0.87,-5.04 -1.14,-7.37c-2.52,-22.43 -23.93,-31.87 -44.12,-26.43c-8.85,2.39 -14.63,8.45 -19.5,16.25z" fill="#00ACFF" id="svg_12" opacity="1"/>
   <path d="m1743.05,93.24c0,13.12 -0.09,25.81 0.05,38.5c0.04,3.47 0.46,7 1.24,10.39c2.83,12.3 13.87,16.46 25.53,14.09c5.27,-1.07 10.3,-3.27 15.97,-5.14c2.12,5.4 4.32,11.07 6.66,17.06c-16.77,8.01 -33.63,12.09 -51.53,4c-11.76,-5.31 -16.75,-15.26 -19.35,-26.53c-0.81,-3.52 -0.92,-7.23 -0.94,-10.84c-0.09,-18.19 -0.04,-36.39 -0.04,-54.58c0,-1.66 0,-3.33 0,-5.47c-7.54,0 -14.65,0 -22.08,0c0,-6.31 0,-12.16 0,-18.49c7.06,0 14.16,0 21.97,0c1.66,-12.78 3.27,-25.16 4.93,-37.93c5.61,0 11.31,0 17.54,0c0,12.43 0,24.76 0,37.58c12.08,0 23.66,0 35.59,0c0,6.31 0,12.16 0,18.5c-11.54,0 -23.13,0 -35.53,0c0,6.45 0,12.44 0,18.85z" fill="#00ACFF" id="svg_14" opacity="1"/>
   <path d="m811.94,83.08c0,-10.54 0,-20.65 0,-31.03c7.89,0 15.28,0 22.99,0c0,40.38 0,80.63 0,121.23c-7.41,0 -14.79,0 -22.99,0c0,-29.86 0,-59.82 0,-90.2z" fill="#00ACFF" id="svg_15" opacity="1"/>
   <path d="m1104.45,97.02c0.3,1.4 0.76,3.21 0.76,5.01c0.05,21.79 0.04,43.57 0.02,65.35c-0.01,1.53 -0.32,3.06 -0.6,4.92c-0.14,-24.75 -0.19,-49.82 -0.18,-75.28z" fill="#00BFFF" id="svg_16" opacity="1"/>
   <path d="m79.85,153.35c-6.48,-4.5 -13.01,-8.93 -19.37,-13.57c-0.91,-0.67 -1.6,-2.43 -1.41,-3.53c1.21,-7.22 2.69,-14.39 4.66,-21.82c3.98,-1.19 3.55,-2.61 1.11,-4.26c1.74,-8.24 3.48,-16.48 5.53,-25.09c2.88,-1.08 2.18,-1.97 0.48,-2.92c0.93,-3.99 1.87,-7.96 3.1,-12.37c0.46,-1.5 0.6,-2.56 0.75,-3.62c0.07,-0.75 0.14,-1.51 0.69,-2.5c0.61,-1.32 0.74,-2.39 0.86,-3.45c1.94,-6.92 3.87,-13.85 6.36,-20.93c2.17,-0.69 3.78,-1.21 5.39,-1.73c9.39,1.73 18.78,3.48 27.35,5.06c-1.66,1.75 -3.9,4.11 -6.6,6.44c-5.41,-2.06 -3.45,1.62 -3.7,3.46c-3.7,3.38 -7.58,6.62 -11.02,10.21c-3.2,3.33 -1.42,6.95 0.13,10.87c-0.29,1.07 -0.48,1.66 -0.66,2.24c0.89,-0.13 1.79,-0.25 2.68,-0.39c1.08,0.69 2.15,1.37 3.45,2.49c1.06,0.64 1.89,0.86 2.73,1.08c2.76,0.05 5.53,0.11 8.74,0.25c1.27,-0.03 2.1,-0.14 2.92,-0.25c3.35,-0.91 6.68,-1.8 10.47,-2.54c3.75,2.54 2.35,-0.81 2.99,-1.7c3.94,-1.73 7.88,-3.45 12.36,-5.08c4.04,1.88 4.12,-0.1 3.79,-2.53c0.43,-0.36 0.85,-0.71 1.28,-1.07c-0.08,-0.15 -0.17,-0.3 -0.25,-0.46c-5.53,2.18 -11.11,4.27 -16.6,6.57c-7.97,3.33 -16.22,4.64 -24.66,2.45c-8.11,-2.09 -9.86,-8.52 -3.79,-13.84c12.94,-11.34 26.06,-22.49 39.24,-33.59c1.81,-1.52 4.31,-2.49 6.66,-3.27c14.62,-4.88 29.35,-9.45 43.91,-14.49c9.79,-3.38 19.39,-2.37 29.23,-0.58c17.52,3.18 35.09,6.05 52.64,9.05c7.97,1.37 15.9,3.36 23.93,3.89c5.1,0.34 10.65,-0.81 15.47,-2.56c3.47,-1.26 5.9,-0.9 8.59,0.72c7.62,4.59 12.36,11.65 16.87,18.65c14.27,22.14 24.61,46.02 34.19,70.22c0.09,0.24 -0.02,0.54 -0.1,1.81c-18.95,5.25 -30.62,20.52 -45.43,32.48c-9.71,-16.22 -23.83,-27.43 -39.79,-37.08c-21,-12.71 -41.63,-25.96 -62.39,-39.02c-7.98,-5.03 -16.15,-9.83 -23.73,-15.37c-5.61,-4.1 -11.31,-5.03 -17.77,-3.15c-7.75,2.25 -15.48,4.55 -23.11,7.12c-1.89,0.63 -3.35,2.4 -5.01,3.66c0.21,0.31 0.41,0.63 0.62,0.95c5.09,-1.71 10.18,-3.42 15.84,-4.98c3.03,1.27 5.79,3.04 5.46,-1.85c1.88,-0.54 3.78,-1.08 6.1,-1.38c1.27,0.31 2.13,0.38 2.98,0.46c5.33,-0.63 9.65,1.37 13.87,4.25c6.21,4.24 12.68,8.13 19.3,12.7c1.71,3.2 3.4,5.48 7.21,4.21c5.58,3.5 11.17,7 16.88,10.96c1.05,0.9 1.97,1.35 2.91,1.79c8.24,5.08 16.49,10.15 25.13,15.6c1.75,1.26 3.1,2.13 4.47,3c0,0 -0.05,0.02 0.04,0.26c0.94,2.68 2.66,3.71 5.36,3.13c1.87,1.1 3.76,2.19 5.97,3.71c2.43,5.02 7.06,7.74 11.98,7.29c8.99,5.81 15.46,13.78 21.38,22.75c0.56,1.53 1.12,2.52 1.7,3.52c2.08,8.67 1.96,16.86 -6,23.49c-4.27,-1.8 -3.96,0.53 -3.67,2.83c-4.4,2.9 -8.94,1.76 -13.43,0.32c-1.79,-0.58 -3.43,-1.57 -5.27,-2.86c-0.04,-4.41 -2.98,-2.38 -4.78,-2.59c-7.89,-5.13 -15.79,-10.25 -23.68,-15.38c-0.21,0.24 -0.42,0.47 -0.63,0.72c3.78,3.99 7.62,7.93 11.31,12.01c8.44,9.33 7.79,23.5 -1.14,32.21c-1.28,0.96 -2.04,1.71 -2.78,2.45c-1.59,0.58 -3.17,1.15 -5.19,1.46c-2.97,-3.07 -3.83,-1.02 -4.69,1.03c-4.76,0.16 -9.17,-0.57 -12.49,-4.74c-0.42,-0.56 -0.72,-0.75 -1.01,-0.95c-6.68,-5.42 -13.37,-10.85 -20.05,-16.27c-0.31,0.31 -0.63,0.63 -0.93,0.94c6.33,6.3 12.68,12.59 19.03,19.39c-1.79,4.32 -0.01,5.11 3.64,4.32c0.26,1.89 0.52,3.78 0.22,5.86c-3.73,0.4 -4.23,1.47 -1.76,3.48c-2.47,1.29 -4.87,3.49 -7.42,3.66c-5.9,0.4 -12.32,2.67 -17.64,-2.72c0.05,-3.11 -0.98,-3.28 -2.88,-1.73c-7.38,-5.21 -14.77,-10.43 -22.29,-15.99c-0.45,-0.54 -0.74,-0.74 -1.04,-0.93c-1.37,-0.42 -2.74,-0.85 -4.35,-1.77c-0.73,-2.71 -1.88,-3.09 -3.98,-1.61c0.55,0.53 1.36,1.07 2.14,1.57c-0.04,-0.04 -0.12,-0.12 -0.12,-0.12c2.35,2.01 4.63,4.08 7.06,5.99c6.12,4.82 12.28,9.6 18.48,14.35c2.64,2.02 1.92,3.9 0.13,6.02c-3.66,4.35 -9.19,3.9 -14.51,4.76c-1.41,-3.31 -2.74,-1.42 -4.01,-0.48c-4.7,-2.41 -9.54,-4.63 -14.07,-7.29c-3.74,-2.19 -7.14,-4.91 -10.9,-7.93c-1.06,-1.48 -1.91,-2.43 -2.77,-3.38c-2.84,-5.32 -7.42,-8.41 -14.12,-9.63c-0.93,-0.63 -1.39,-1.03 -1.84,-1.43c0.56,-4.26 1.12,-8.51 1.96,-13.29c2.76,-4.4 0.59,-7.44 -4.88,-7.74c-0.28,-0.1 -0.51,-0.27 -0.74,-0.94c-0.37,-1.39 -0.69,-2.33 -1.01,-3.27c-0.88,0.47 -1.77,0.94 -2.66,1.4c-2.45,-0.52 -4.9,-1.06 -7.77,-1.93c-1.52,-1.35 -2.65,-2.36 -3.76,-3.36c-0.94,1.2 -1.88,2.39 -2.83,3.6c-1.59,0.6 -3.18,1.21 -4.84,1.84c-0.83,-2.76 -1.59,-5.24 -2.31,-8.27c-0.62,-1.26 -1.27,-1.98 -1.93,-2.69c-6.41,-4.71 -13.38,-7.41 -21.13,-3.36c-2.62,1.37 -4.36,4.26 -6.66,6.61c-1.19,-0.75 -2.52,-1.59 -3.98,-2.8c-0.55,-0.66 -0.95,-0.95 -1.36,-1.24c-0.14,-0.03 -0.3,-0.07 -0.83,-0.28c-0.59,-0.33 -0.82,-0.48 -1.04,-0.63c-0.5,-0.4 -1,-0.8 -1.69,-1.72c-1.94,-1.46 -3.7,-2.41 -5.47,-3.36m169.73,-8.51c0.57,-0.62 1.14,-1.23 1.71,-1.84c-0.48,-0.2 -0.95,-0.41 -1.43,-0.61c-0.22,0.76 -0.44,1.52 -0.29,2.45m11.31,5.72c0.3,0.12 0.6,0.25 0.9,0.37c-0.2,-0.25 -0.39,-0.5 -0.9,-0.37m-41.12,22.94c-0.29,-0.08 -0.57,-0.15 -0.85,-0.22c0.23,0.23 0.47,0.46 0.85,0.22m-68.21,-112.3c0.27,0.08 0.54,0.15 0.81,0.23c-0.16,-0.2 -0.33,-0.41 -0.81,-0.23z" fill="#00ACFF" id="svg_17" opacity="1"/>
   <path d="m77.21,30.74c-0.56,4.64 -1.25,9.23 -2.4,13.72c-6.58,25.66 -13.37,51.25 -19.81,76.94c-1.42,5.63 -1.7,11.51 -2.54,17.41c-16.02,-2.61 -31.93,-5.21 -48.78,-7.96c12.13,-37.25 24.14,-74.18 36.26,-111.41c12.58,3.82 24.75,7.52 37.27,11.31z" fill="#00ACFF" id="svg_18" opacity="1"/>
   <path d="m122.36,206.44c-7.55,-6.42 -6.8,-13.3 -3.14,-20.33c2.01,-3.86 4.44,-7.57 7.19,-10.99c1.23,-1.52 3.7,-3 5.64,-3.05c15.69,-0.37 21.46,10.29 15.95,22.09c-1.95,4.16 -3.61,8.67 -6.55,12.14c-4.62,5.47 -13.45,5.26 -19.1,0.14z" fill="#00ACFF" id="svg_19" opacity="1"/>
   <path d="m113.84,192.82c-5.31,4.87 -11.64,5.89 -17.19,2.98c-6,-3.15 -8.91,-9.77 -8.12,-15.76c0.91,-7.05 6.07,-11.86 9.31,-17.64c1.72,-3.08 9.91,-3.28 15.29,-1.02c6.68,2.82 10.32,10.64 7.62,17.19c-1.96,4.78 -4.45,9.37 -6.93,14.27z" fill="#00ACFF" id="svg_20" opacity="1"/>
   <path d="m63.11,152.21c0.51,-1.35 0.92,-2.37 1.78,-4.51c5.87,3.87 11.37,7.41 16.77,11.09c2.15,1.46 4.12,3.17 6.08,4.87c1.35,1.16 3.83,2.87 3.56,3.66c-0.85,2.55 -2.18,5.6 -4.37,6.97c-5.29,3.32 -11.29,3.86 -17.3,1.16c-5.6,-2.51 -8.01,-6.76 -7.6,-12.49c0.24,-3.49 0.65,-6.96 1.09,-10.75z" fill="#00ACFF" id="svg_21" opacity="1"/>
   <path d="m296.96,119.18c-4.75,0.7 -9.37,-2.02 -11.54,-6.9c3.75,2.02 7.56,4.34 11.54,6.9z" fill="#00ACFF" id="svg_22" opacity="1"/>
   <path d="m149.97,174c5.34,0.06 7.51,3.1 4.81,7.11c-1.71,-2.19 -3.19,-4.53 -4.81,-7.11z" fill="#00ACFF" id="svg_23" opacity="1"/>
   <path d="m131.41,169.3c0.61,-1.25 1.55,-2.45 2.49,-3.65c1.11,1 2.23,2.01 3.4,3.3c-1.82,0.33 -3.69,0.36 -5.89,0.35z" fill="#00ACFF" id="svg_24" opacity="1"/>
   <path d="m174.63,53.45c0.65,4.88 -2.1,3.11 -4.79,1.8c1.33,-0.72 2.9,-1.25 4.79,-1.8z" fill="#00ACFF" id="svg_25" opacity="1"/>
   <path d="m248.49,203.8c-3.7,1.08 -5.49,0.29 -3.56,-3.78c1.28,1 2.45,2.25 3.56,3.78z" fill="#00ACFF" id="svg_26" opacity="1"/>
   <path d="m224.24,73.44c-3.64,1.51 -5.33,-0.78 -6.9,-3.73c2.16,0.99 4.45,2.24 6.9,3.73z" fill="#00ACFF" id="svg_27" opacity="1"/>
   <path d="m105.34,52.45c-0.03,-1.8 -1.98,-5.47 3.16,-3.29c-0.83,1.19 -1.85,2.23 -3.16,3.29z" fill="#00ACFF" id="svg_28" opacity="1"/>
   <path d="m64.69,110.44c2.6,1.38 3.03,2.79 -0.66,3.78c-0.02,-1.14 0.25,-2.33 0.66,-3.78z" fill="#00ACFF" id="svg_29" opacity="1"/>
   <path d="m87.72,37.38c-1.32,0.68 -2.92,1.2 -4.84,1.68c0.31,-3.04 2.21,-2.98 4.84,-1.68z" fill="#00ACFF" id="svg_30" opacity="1"/>
   <path d="m310.82,171.97c-0.57,-2.25 -0.89,-4.59 3.1,-2.65c-0.81,0.97 -1.81,1.79 -3.1,2.65z" fill="#00ACFF" id="svg_31" opacity="1"/>
   <path d="m279.04,108.17c-2.56,0.83 -4.27,-0.19 -5.2,-2.9c1.63,0.7 3.35,1.68 5.2,2.9z" fill="#00ACFF" id="svg_32" opacity="1"/>
   <path d="m247.16,213.3c-2.74,-1.88 -2.24,-2.95 1.2,-3.16c-0.12,1.01 -0.52,2.02 -1.2,3.16z" fill="#00ACFF" id="svg_33" opacity="1"/>
   <path d="m260.58,201.44c0.53,-2.08 1.39,-4.14 4.04,-1.1c-1.16,0.52 -2.43,0.83 -4.04,1.1z" fill="#00ACFF" id="svg_34" opacity="1"/>
   <path d="m145.69,171.07c0.63,-0.59 1.52,-1.06 2.4,-1.53c0.32,0.95 0.65,1.89 0.93,3.08c-1.05,-0.3 -2.05,-0.85 -3.33,-1.55z" fill="#00ACFF" id="svg_35" opacity="1"/>
   <path d="m143.35,67.19c0.62,2.39 0.54,4.37 -3.18,2.45c0.82,-0.9 1.86,-1.65 3.18,-2.45z" fill="#00ACFF" id="svg_36" opacity="1"/>
   <path d="m80.02,153.59c1.6,0.71 3.36,1.66 5.2,2.91c-1.63,-0.69 -3.33,-1.68 -5.2,-2.91z" fill="#00ACFF" id="svg_37" opacity="1"/>
   <path d="m287.21,167.14c1.64,-0.03 4.57,-2.06 4.44,2.1c-1.46,-0.46 -2.87,-1.16 -4.44,-2.1z" fill="#00ACFF" id="svg_38" opacity="1"/>
   <path d="m187.55,192.34c1.83,-1.48 2.99,-1.1 3.53,1.37c-0.37,0.24 -0.77,0.21 -1.47,0.14c-0.3,-0.06 -0.22,0.02 -0.3,-0.17c-0.64,-0.58 -1.19,-0.96 -1.76,-1.34z" fill="#00ACFF" id="svg_39" opacity="1"/>
   <path d="m127.22,74.79c-0.37,0.85 1.03,4.21 -2.37,1.62c0.64,-0.67 1.37,-1.13 2.37,-1.62z" fill="#00ACFF" id="svg_40" opacity="1"/>
   <path d="m196.67,224.68c1.06,-1.18 2.4,-3.07 3.44,0.19c-1.05,0.17 -2.14,0.12 -3.44,-0.19z" fill="#00ACFF" id="svg_41" opacity="1"/>
   <path d="m219.08,212.88c1.78,-1.79 2.81,-1.62 2.6,1.23c-0.85,-0.18 -1.66,-0.58 -2.6,-1.23z" fill="#00ACFF" id="svg_42" opacity="1"/>
   <path d="m96.07,75.2c-0.78,0.36 -1.68,0.48 -2.57,0.61c0.19,-0.58 0.38,-1.18 0.73,-1.92c0.68,0.25 1.2,0.67 1.84,1.31z" fill="#00ACFF" id="svg_43" opacity="1"/>
   <path d="m70.6,82.31c1.96,0.79 2.66,1.68 -0.13,2.42c-0.2,-0.73 -0.16,-1.49 0.13,-2.42z" fill="#00ACFF" id="svg_44" opacity="1"/>
   <path d="m76.02,60.39c0.13,0.88 0,1.95 -0.37,3.09c-0.12,-0.91 0,-1.91 0.37,-3.09z" fill="#00ACFF" id="svg_45" opacity="1"/>
   <path d="m74.64,66.44c-0.08,0.78 -0.22,1.84 -0.6,3c0.03,-0.83 0.28,-1.77 0.6,-3z" fill="#00ACFF" id="svg_46" opacity="1"/>
   <path d="m168.72,206.08c0.85,0.72 1.7,1.67 2.63,2.9c-0.72,-0.3 -1.49,-0.89 -2.53,-1.68c-0.26,-0.19 -0.21,-0.12 -0.18,-0.1c0.05,-0.28 0.07,-0.58 0.08,-1.12z" fill="#00ACFF" id="svg_47" opacity="1"/>
   <path d="m122.06,160.4c0.6,0.44 1.26,1.16 1.86,2.09c-0.65,-0.46 -1.23,-1.14 -1.86,-2.09z" fill="#00ACFF" id="svg_48" opacity="1"/>
   <path d="m273.64,104.78c-1.21,-0.62 -2.57,-1.49 -4.05,-2.66c1.22,0.61 2.56,1.51 4.05,2.66z" fill="#00ACFF" id="svg_49" opacity="1"/>
   <path d="m244.07,86.18c-0.8,-0.19 -1.72,-0.64 -2.63,-1.29c0.84,0.21 1.67,0.63 2.63,1.29z" fill="#00ACFF" id="svg_50" opacity="1"/>
   <path d="m183.86,52.28c-0.67,0.16 -1.52,0.09 -2.46,-0.18c0.7,-0.14 1.5,-0.1 2.46,0.18z" fill="#00ACFF" id="svg_51" opacity="1"/>
   <path d="m102.11,78.87c-0.57,-0.09 -1.41,-0.31 -2.31,-0.74c0.63,0.07 1.34,0.34 2.31,0.74z" fill="#00ACFF" id="svg_52" opacity="1"/>
   <path d="m113.7,78.94c-0.49,0.16 -1.32,0.28 -2.25,0.22c0.57,-0.2 1.24,-0.24 2.25,-0.22z" fill="#00ACFF" id="svg_53" opacity="1"/>
   <path d="m320.15,145.42c-0.53,-0.72 -1.09,-1.71 -1.61,-2.95c0.56,0.74 1.06,1.71 1.61,2.95z" fill="#00ACFF" id="svg_54" opacity="1"/>
   <path d="m270.41,198.88c0.47,-0.71 1.22,-1.46 2.23,-2.28c-0.48,0.69 -1.22,1.47 -2.23,2.28z" fill="#00ACFF" id="svg_55" opacity="1"/>
   <path d="m88.95,159.52c0.33,0.11 0.74,0.4 1.08,0.83c-0.39,-0.12 -0.7,-0.38 -1.08,-0.83z" fill="#00ACFF" id="svg_56" opacity="1"/>
   <path d="m152.65,195.02c0.56,0.16 1.01,0.57 1.61,1.14c-0.48,-0.19 -1.09,-0.55 -1.61,-1.14z" fill="#00ACFF" id="svg_57" opacity="1"/>
   <path d="m195.7,195.9c0.22,0.01 0.51,0.2 0.79,0.5c-0.31,0.06 -0.54,-0.08 -0.79,-0.5z" fill="#00ACFF" id="svg_58" opacity="1"/>
   <path d="m246.83,195.9c0.22,0.01 0.51,0.2 0.79,0.5c-0.31,0.06 -0.54,-0.08 -0.79,-0.5z" fill="#00ACFF" id="svg_59" opacity="1"/>
   <path d="m87.1,158.62c0.13,-0.05 0.35,0.1 0.72,0.37c-0.17,0.19 -0.44,0.09 -0.72,-0.37z" fill="#00ACFF" id="svg_60" opacity="1"/>
   <path d="m249.39,144.75c0.03,-0.84 0.25,-1.6 0.47,-2.36c0.48,0.2 0.95,0.41 1.43,0.61c-0.57,0.61 -1.14,1.22 -1.89,1.75z" fill="#00ACFF" id="svg_65" opacity="1"/> 
   <g id="svg_70"> 
    <path d="m1104.51,96.62c0.22,-7.15 -1.02,-14.01 -5.61,-19.88c-7.75,-9.91 -19.15,-10.87 -30.51,-6.27c-10.59,4.28 -17.76,12.43 -24.69,20.67c-1.12,1.34 -1.18,3.71 -1.18,5.61c-0.08,23.68 -0.05,47.36 -0.05,71.05c0,1.68 0,3.37 0,5.43c-7.76,0 -15.25,0 -23.04,0c0,-40.35 0,-80.59 0,-121.15c7.22,0 14.31,0 22.03,0c0,5.52 0,11.04 0,16.68c5.53,-4.46 10.36,-8.91 15.77,-12.61c9.63,-6.57 20.54,-8.15 32.36,-7.12c9.52,0.82 18.04,3.24 24.95,9.46c8.43,7.6 12.74,17.49 12.94,28.11c0.57,28.32 0.18,56.67 0.15,85.01c0,0.41 -0.13,0.83 -0.26,1.66c-7.47,0 -14.99,0 -22.58,-0.64c0.12,-2.18 0.43,-3.71 0.44,-5.25c0.03,-21.78 0.04,-43.56 -0.02,-65.35c0,-1.8 -0.46,-3.6 -0.71,-5.41z" fill="#00ACFF" id="svg_13" opacity="1"/>
   </g>
  </g>
 </g>
</svg>