<svg width="166" height="40" viewBox="0 0 166 40" fill="none" xmlns="http://www.w3.org/2000/svg">
<path d="M18.7383 28.8867V33H5.85352V28.8867H18.7383ZM7.55859 7.40625V33H2.28516V7.40625H7.55859ZM26.7891 13.9805V33H21.709V13.9805H26.7891ZM21.3926 9.02344C21.3926 8.28516 21.6504 7.67578 22.166 7.19531C22.6816 6.71484 23.373 6.47461 24.2402 6.47461C25.0957 6.47461 25.7812 6.71484 26.2969 7.19531C26.8242 7.67578 27.0879 8.28516 27.0879 9.02344C27.0879 9.76172 26.8242 10.3711 26.2969 10.8516C25.7812 11.332 25.0957 11.5723 24.2402 11.5723C23.373 11.5723 22.6816 11.332 22.166 10.8516C21.6504 10.3711 21.3926 9.76172 21.3926 9.02344ZM35.9297 18.041V33H30.8672V13.9805H35.6133L35.9297 18.041ZM35.1914 22.8223H33.8203C33.8203 21.416 34.002 20.1504 34.3652 19.0254C34.7285 17.8887 35.2383 16.9219 35.8945 16.125C36.5508 15.3164 37.3301 14.7012 38.2324 14.2793C39.1465 13.8457 40.166 13.6289 41.291 13.6289C42.1816 13.6289 42.9961 13.7578 43.7344 14.0156C44.4727 14.2734 45.1055 14.6836 45.6328 15.2461C46.1719 15.8086 46.582 16.5527 46.8633 17.4785C47.1562 18.4043 47.3027 19.5352 47.3027 20.8711V33H42.2051V20.8535C42.2051 20.0098 42.0879 19.3535 41.8535 18.8848C41.6191 18.416 41.2734 18.0879 40.8164 17.9004C40.3711 17.7012 39.8203 17.6016 39.1641 17.6016C38.4844 17.6016 37.8926 17.7363 37.3887 18.0059C36.8965 18.2754 36.4863 18.6504 36.1582 19.1309C35.8418 19.5996 35.6016 20.1504 35.4375 20.7832C35.2734 21.416 35.1914 22.0957 35.1914 22.8223ZM56.2148 5.98242V33H51.1523V5.98242H56.2148ZM68.2031 13.9805L59.9414 23.4023L55.5117 27.8848L53.666 24.2285L57.1816 19.7637L62.1211 13.9805H68.2031ZM62.9473 33L57.3223 24.2109L60.8203 21.1523L68.7832 33H62.9473ZM78.7852 33.3516C77.3086 33.3516 75.9844 33.1172 74.8125 32.6484C73.6406 32.168 72.6445 31.5059 71.8242 30.6621C71.0156 29.8184 70.3945 28.8398 69.9609 27.7266C69.5273 26.6016 69.3105 25.4062 69.3105 24.1406V23.4375C69.3105 21.9961 69.5156 20.6777 69.9258 19.4824C70.3359 18.2871 70.9219 17.25 71.6836 16.3711C72.457 15.4922 73.3945 14.8184 74.4961 14.3496C75.5977 13.8691 76.8398 13.6289 78.2227 13.6289C79.5703 13.6289 80.7656 13.8516 81.8086 14.2969C82.8516 14.7422 83.7246 15.375 84.4277 16.1953C85.1426 17.0156 85.6816 18 86.0449 19.1484C86.4082 20.2852 86.5898 21.5508 86.5898 22.9453V25.0547H71.4727V21.6797H81.6152V21.293C81.6152 20.5898 81.4863 19.9629 81.2285 19.4121C80.9824 18.8496 80.6074 18.4043 80.1035 18.0762C79.5996 17.748 78.9551 17.584 78.1699 17.584C77.502 17.584 76.9277 17.7305 76.4473 18.0234C75.9668 18.3164 75.5742 18.7266 75.2695 19.2539C74.9766 19.7812 74.7539 20.4023 74.6016 21.1172C74.4609 21.8203 74.3906 22.5938 74.3906 23.4375V24.1406C74.3906 24.9023 74.4961 25.6055 74.707 26.25C74.9297 26.8945 75.2402 27.4512 75.6387 27.9199C76.0488 28.3887 76.541 28.752 77.1152 29.0098C77.7012 29.2676 78.3633 29.3965 79.1016 29.3965C80.0156 29.3965 80.8652 29.2207 81.6504 28.8691C82.4473 28.5059 83.1328 27.9609 83.707 27.2344L86.168 29.9062C85.7695 30.4805 85.2246 31.0312 84.5332 31.5586C83.8535 32.0859 83.0332 32.5195 82.0723 32.8594C81.1113 33.1875 80.0156 33.3516 78.7852 33.3516ZM100.705 28.8516V6H105.803V33H101.215L100.705 28.8516ZM88.6816 23.7188V23.3496C88.6816 21.8965 88.8457 20.5781 89.1738 19.3945C89.502 18.1992 89.9824 17.1738 90.6152 16.3184C91.248 15.4629 92.0273 14.8008 92.9531 14.332C93.8789 13.8633 94.9336 13.6289 96.1172 13.6289C97.2305 13.6289 98.2031 13.8633 99.0352 14.332C99.8789 14.8008 100.594 15.4688 101.18 16.3359C101.777 17.1914 102.258 18.2051 102.621 19.377C102.984 20.5371 103.248 21.8086 103.412 23.1914V24C103.248 25.3242 102.984 26.5547 102.621 27.6914C102.258 28.8281 101.777 29.8242 101.18 30.6797C100.594 31.5234 99.8789 32.1797 99.0352 32.6484C98.1914 33.1172 97.207 33.3516 96.082 33.3516C94.8984 33.3516 93.8438 33.1113 92.918 32.6309C92.0039 32.1504 91.2305 31.4766 90.5977 30.6094C89.9766 29.7422 89.502 28.7227 89.1738 27.5508C88.8457 26.3789 88.6816 25.1016 88.6816 23.7188ZM93.7441 23.3496V23.7188C93.7441 24.5039 93.8027 25.2363 93.9199 25.916C94.0488 26.5957 94.2539 27.1992 94.5352 27.7266C94.8281 28.2422 95.2031 28.6465 95.6602 28.9395C96.1289 29.2207 96.6973 29.3613 97.3652 29.3613C98.2324 29.3613 98.9473 29.168 99.5098 28.7812C100.072 28.3828 100.5 27.8379 100.793 27.1465C101.098 26.4551 101.273 25.6582 101.32 24.7559V22.4531C101.285 21.7148 101.18 21.0527 101.004 20.4668C100.84 19.8691 100.594 19.3594 100.266 18.9375C99.9492 18.5156 99.5508 18.1875 99.0703 17.9531C98.6016 17.7188 98.0449 17.6016 97.4004 17.6016C96.7441 17.6016 96.1816 17.7539 95.7129 18.0586C95.2441 18.3516 94.8633 18.7559 94.5703 19.2715C94.2891 19.7871 94.0781 20.3965 93.9375 21.0996C93.8086 21.791 93.7441 22.541 93.7441 23.3496Z" fill="#00ACFF"/>
<path d="M121.726 12.8C121.726 8.31958 121.726 6.07937 122.598 4.36808C123.365 2.86278 124.589 1.63893 126.094 0.871948C127.806 0 130.046 0 134.526 0H152.4C156.88 0 159.121 0 160.832 0.871948C162.337 1.63893 163.561 2.86278 164.328 4.36808C165.2 6.07937 165.2 8.31958 165.2 12.8V27.2C165.2 31.6804 165.2 33.9206 164.328 35.6319C163.561 37.1372 162.337 38.3611 160.832 39.1281C159.121 40 156.88 40 152.4 40H134.526C130.046 40 127.806 40 126.094 39.1281C124.589 38.3611 123.365 37.1372 122.598 35.6319C121.726 33.9206 121.726 31.6804 121.726 27.2V12.8Z" fill="#00ACFF"/>
<path d="M135.922 13.9805V33H130.842V13.9805H135.922ZM130.526 9.02344C130.526 8.28516 130.783 7.67578 131.299 7.19531C131.815 6.71484 132.506 6.47461 133.373 6.47461C134.229 6.47461 134.914 6.71484 135.43 7.19531C135.957 7.67578 136.221 8.28516 136.221 9.02344C136.221 9.76172 135.957 10.3711 135.43 10.8516C134.914 11.332 134.229 11.5723 133.373 11.5723C132.506 11.5723 131.815 11.332 131.299 10.8516C130.783 10.3711 130.526 9.76172 130.526 9.02344ZM145.063 18.041V33H140V13.9805H144.746L145.063 18.041ZM144.324 22.8223H142.953C142.953 21.416 143.135 20.1504 143.498 19.0254C143.862 17.8887 144.371 16.9219 145.028 16.125C145.684 15.3164 146.463 14.7012 147.366 14.2793C148.28 13.8457 149.299 13.6289 150.424 13.6289C151.315 13.6289 152.129 13.7578 152.867 14.0156C153.606 14.2734 154.239 14.6836 154.766 15.2461C155.305 15.8086 155.715 16.5527 155.996 17.4785C156.289 18.4043 156.436 19.5352 156.436 20.8711V33H151.338V20.8535C151.338 20.0098 151.221 19.3535 150.987 18.8848C150.752 18.416 150.407 18.0879 149.949 17.9004C149.504 17.7012 148.953 17.6016 148.297 17.6016C147.617 17.6016 147.026 17.7363 146.522 18.0059C146.03 18.2754 145.619 18.6504 145.291 19.1309C144.975 19.5996 144.735 20.1504 144.571 20.7832C144.407 21.416 144.324 22.0957 144.324 22.8223Z" fill="white"/>
</svg>
