<svg width="233" height="315" viewBox="0 0 233 315" fill="none" xmlns="http://www.w3.org/2000/svg">
<rect x="31" y="31" width="200" height="200" rx="16" fill="#F3F5F7"/>
<path d="M63 75C63 68.3726 68.3726 63 75 63H187C193.627 63 199 68.3726 199 75V231H63V75Z" fill="white"/>
<path d="M105.879 91.084C105.679 91.084 105.523 91.028 105.411 90.916C105.307 90.804 105.255 90.648 105.255 90.448V83.092C105.255 82.884 105.307 82.728 105.411 82.624C105.523 82.512 105.679 82.456 105.879 82.456C106.079 82.456 106.231 82.512 106.335 82.624C106.447 82.728 106.503 82.884 106.503 83.092V90.448C106.503 90.648 106.451 90.804 106.347 90.916C106.243 91.028 106.087 91.084 105.879 91.084ZM108.694 91.084C108.502 91.084 108.354 91.032 108.25 90.928C108.146 90.816 108.094 90.664 108.094 90.472V85.672C108.094 85.472 108.146 85.32 108.25 85.216C108.354 85.112 108.498 85.06 108.682 85.06C108.874 85.06 109.018 85.112 109.114 85.216C109.218 85.32 109.27 85.472 109.27 85.672V86.608L109.138 86.392C109.314 85.944 109.59 85.608 109.966 85.384C110.342 85.152 110.774 85.036 111.262 85.036C111.726 85.036 112.11 85.124 112.414 85.3C112.726 85.468 112.958 85.728 113.11 86.08C113.262 86.424 113.338 86.86 113.338 87.388V90.472C113.338 90.664 113.286 90.816 113.182 90.928C113.078 91.032 112.93 91.084 112.738 91.084C112.538 91.084 112.386 91.032 112.282 90.928C112.178 90.816 112.126 90.664 112.126 90.472V87.46C112.126 86.956 112.026 86.588 111.826 86.356C111.634 86.124 111.33 86.008 110.914 86.008C110.426 86.008 110.034 86.16 109.738 86.464C109.45 86.768 109.306 87.176 109.306 87.688V90.472C109.306 90.88 109.102 91.084 108.694 91.084ZM117.264 91.108C116.784 91.108 116.38 91.024 116.052 90.856C115.724 90.688 115.48 90.44 115.32 90.112C115.16 89.784 115.08 89.384 115.08 88.912V86.08H114.36C114.2 86.08 114.076 86.04 113.988 85.96C113.9 85.872 113.856 85.756 113.856 85.612C113.856 85.46 113.9 85.344 113.988 85.264C114.076 85.184 114.2 85.144 114.36 85.144H115.08V83.908C115.08 83.708 115.132 83.556 115.236 83.452C115.348 83.348 115.5 83.296 115.692 83.296C115.884 83.296 116.032 83.348 116.136 83.452C116.24 83.556 116.292 83.708 116.292 83.908V85.144H117.696C117.856 85.144 117.98 85.184 118.068 85.264C118.156 85.344 118.2 85.46 118.2 85.612C118.2 85.756 118.156 85.872 118.068 85.96C117.98 86.04 117.856 86.08 117.696 86.08H116.292V88.816C116.292 89.24 116.38 89.56 116.556 89.776C116.74 89.992 117.036 90.1 117.444 90.1C117.588 90.1 117.712 90.088 117.816 90.064C117.928 90.032 118.02 90.012 118.092 90.004C118.18 90.004 118.252 90.036 118.308 90.1C118.364 90.156 118.392 90.268 118.392 90.436C118.392 90.556 118.368 90.668 118.32 90.772C118.28 90.876 118.204 90.944 118.092 90.976C117.996 91.008 117.864 91.036 117.696 91.06C117.536 91.092 117.392 91.108 117.264 91.108ZM121.601 91.108C120.961 91.108 120.409 90.988 119.945 90.748C119.489 90.5 119.133 90.152 118.877 89.704C118.629 89.248 118.505 88.708 118.505 88.084C118.505 87.476 118.629 86.944 118.877 86.488C119.125 86.032 119.465 85.676 119.897 85.42C120.329 85.164 120.821 85.036 121.373 85.036C121.781 85.036 122.145 85.104 122.465 85.24C122.785 85.368 123.057 85.56 123.281 85.816C123.513 86.064 123.685 86.368 123.797 86.728C123.917 87.088 123.977 87.492 123.977 87.94C123.977 88.076 123.937 88.18 123.857 88.252C123.777 88.316 123.657 88.348 123.497 88.348H119.465V87.604H123.161L122.957 87.772C122.957 87.372 122.897 87.032 122.777 86.752C122.665 86.472 122.493 86.26 122.261 86.116C122.037 85.964 121.757 85.888 121.421 85.888C121.045 85.888 120.725 85.976 120.461 86.152C120.205 86.328 120.009 86.572 119.873 86.884C119.737 87.196 119.669 87.56 119.669 87.976V88.048C119.669 88.752 119.833 89.284 120.161 89.644C120.497 89.996 120.981 90.172 121.613 90.172C121.853 90.172 122.105 90.14 122.369 90.076C122.641 90.012 122.897 89.904 123.137 89.752C123.273 89.672 123.393 89.636 123.497 89.644C123.609 89.652 123.697 89.688 123.761 89.752C123.833 89.816 123.877 89.896 123.893 89.992C123.909 90.088 123.893 90.188 123.845 90.292C123.797 90.388 123.713 90.476 123.593 90.556C123.321 90.74 123.005 90.88 122.645 90.976C122.285 91.064 121.937 91.108 121.601 91.108ZM125.67 91.084C125.47 91.084 125.318 91.032 125.214 90.928C125.11 90.816 125.058 90.664 125.058 90.472V85.672C125.058 85.472 125.11 85.32 125.214 85.216C125.318 85.112 125.462 85.06 125.646 85.06C125.838 85.06 125.982 85.112 126.078 85.216C126.182 85.32 126.234 85.472 126.234 85.672V86.548H126.114C126.242 86.068 126.478 85.704 126.822 85.456C127.166 85.208 127.606 85.064 128.142 85.024C128.286 85.016 128.398 85.052 128.478 85.132C128.566 85.212 128.614 85.336 128.622 85.504C128.638 85.672 128.602 85.808 128.514 85.912C128.426 86.008 128.29 86.064 128.106 86.08L127.878 86.104C127.358 86.152 126.962 86.316 126.69 86.596C126.418 86.876 126.282 87.26 126.282 87.748V90.472C126.282 90.664 126.23 90.816 126.126 90.928C126.03 91.032 125.878 91.084 125.67 91.084ZM131.96 91.108C131.32 91.108 130.768 90.988 130.304 90.748C129.848 90.5 129.492 90.152 129.236 89.704C128.988 89.248 128.864 88.708 128.864 88.084C128.864 87.476 128.988 86.944 129.236 86.488C129.484 86.032 129.824 85.676 130.256 85.42C130.688 85.164 131.18 85.036 131.732 85.036C132.14 85.036 132.504 85.104 132.824 85.24C133.144 85.368 133.416 85.56 133.64 85.816C133.872 86.064 134.044 86.368 134.156 86.728C134.276 87.088 134.336 87.492 134.336 87.94C134.336 88.076 134.296 88.18 134.216 88.252C134.136 88.316 134.016 88.348 133.856 88.348H129.824V87.604H133.52L133.316 87.772C133.316 87.372 133.256 87.032 133.136 86.752C133.024 86.472 132.852 86.26 132.62 86.116C132.396 85.964 132.116 85.888 131.78 85.888C131.404 85.888 131.084 85.976 130.82 86.152C130.564 86.328 130.368 86.572 130.232 86.884C130.096 87.196 130.028 87.56 130.028 87.976V88.048C130.028 88.752 130.192 89.284 130.52 89.644C130.856 89.996 131.34 90.172 131.972 90.172C132.212 90.172 132.464 90.14 132.728 90.076C133 90.012 133.256 89.904 133.496 89.752C133.632 89.672 133.752 89.636 133.856 89.644C133.968 89.652 134.056 89.688 134.12 89.752C134.192 89.816 134.236 89.896 134.252 89.992C134.268 90.088 134.252 90.188 134.204 90.292C134.156 90.388 134.072 90.476 133.952 90.556C133.68 90.74 133.364 90.88 133.004 90.976C132.644 91.064 132.296 91.108 131.96 91.108ZM137.47 91.108C137.118 91.108 136.754 91.068 136.378 90.988C136.01 90.908 135.67 90.772 135.358 90.58C135.254 90.508 135.182 90.428 135.142 90.34C135.102 90.252 135.086 90.164 135.094 90.076C135.11 89.98 135.146 89.9 135.202 89.836C135.266 89.764 135.342 89.72 135.43 89.704C135.526 89.688 135.626 89.708 135.73 89.764C136.042 89.94 136.342 90.064 136.63 90.136C136.918 90.2 137.202 90.232 137.482 90.232C137.906 90.232 138.226 90.156 138.442 90.004C138.658 89.852 138.766 89.648 138.766 89.392C138.766 89.184 138.694 89.024 138.55 88.912C138.406 88.792 138.19 88.7 137.902 88.636L136.762 88.408C136.266 88.304 135.89 88.12 135.634 87.856C135.378 87.592 135.25 87.256 135.25 86.848C135.25 86.48 135.35 86.16 135.55 85.888C135.75 85.616 136.03 85.408 136.39 85.264C136.75 85.112 137.166 85.036 137.638 85.036C137.99 85.036 138.322 85.08 138.634 85.168C138.946 85.256 139.234 85.388 139.498 85.564C139.602 85.62 139.67 85.696 139.702 85.792C139.734 85.88 139.738 85.968 139.714 86.056C139.698 86.144 139.658 86.224 139.594 86.296C139.53 86.36 139.45 86.4 139.354 86.416C139.266 86.424 139.166 86.4 139.054 86.344C138.814 86.192 138.574 86.084 138.334 86.02C138.102 85.956 137.87 85.924 137.638 85.924C137.214 85.924 136.894 86.004 136.678 86.164C136.47 86.316 136.366 86.524 136.366 86.788C136.366 86.988 136.43 87.152 136.558 87.28C136.686 87.408 136.886 87.5 137.158 87.556L138.298 87.784C138.818 87.888 139.21 88.064 139.474 88.312C139.746 88.56 139.882 88.896 139.882 89.32C139.882 89.872 139.662 90.308 139.222 90.628C138.782 90.948 138.198 91.108 137.47 91.108ZM143.042 91.108C142.69 91.108 142.326 91.068 141.95 90.988C141.582 90.908 141.242 90.772 140.93 90.58C140.826 90.508 140.754 90.428 140.714 90.34C140.674 90.252 140.658 90.164 140.666 90.076C140.682 89.98 140.718 89.9 140.774 89.836C140.838 89.764 140.914 89.72 141.002 89.704C141.098 89.688 141.198 89.708 141.302 89.764C141.614 89.94 141.914 90.064 142.202 90.136C142.49 90.2 142.774 90.232 143.054 90.232C143.478 90.232 143.798 90.156 144.014 90.004C144.23 89.852 144.338 89.648 144.338 89.392C144.338 89.184 144.266 89.024 144.122 88.912C143.978 88.792 143.762 88.7 143.474 88.636L142.334 88.408C141.838 88.304 141.462 88.12 141.206 87.856C140.95 87.592 140.822 87.256 140.822 86.848C140.822 86.48 140.922 86.16 141.122 85.888C141.322 85.616 141.602 85.408 141.962 85.264C142.322 85.112 142.738 85.036 143.21 85.036C143.562 85.036 143.894 85.08 144.206 85.168C144.518 85.256 144.806 85.388 145.07 85.564C145.174 85.62 145.242 85.696 145.274 85.792C145.306 85.88 145.31 85.968 145.286 86.056C145.27 86.144 145.23 86.224 145.166 86.296C145.102 86.36 145.022 86.4 144.926 86.416C144.838 86.424 144.738 86.4 144.626 86.344C144.386 86.192 144.146 86.084 143.906 86.02C143.674 85.956 143.442 85.924 143.21 85.924C142.786 85.924 142.466 86.004 142.25 86.164C142.042 86.316 141.938 86.524 141.938 86.788C141.938 86.988 142.002 87.152 142.13 87.28C142.258 87.408 142.458 87.5 142.73 87.556L143.87 87.784C144.39 87.888 144.782 88.064 145.046 88.312C145.318 88.56 145.454 88.896 145.454 89.32C145.454 89.872 145.234 90.308 144.794 90.628C144.354 90.948 143.77 91.108 143.042 91.108ZM149.311 91.108C148.671 91.108 148.119 90.988 147.655 90.748C147.199 90.5 146.843 90.152 146.587 89.704C146.339 89.248 146.215 88.708 146.215 88.084C146.215 87.476 146.339 86.944 146.587 86.488C146.835 86.032 147.175 85.676 147.607 85.42C148.039 85.164 148.531 85.036 149.083 85.036C149.491 85.036 149.855 85.104 150.175 85.24C150.495 85.368 150.767 85.56 150.991 85.816C151.223 86.064 151.395 86.368 151.507 86.728C151.627 87.088 151.687 87.492 151.687 87.94C151.687 88.076 151.647 88.18 151.567 88.252C151.487 88.316 151.367 88.348 151.207 88.348H147.175V87.604H150.871L150.667 87.772C150.667 87.372 150.607 87.032 150.487 86.752C150.375 86.472 150.203 86.26 149.971 86.116C149.747 85.964 149.467 85.888 149.131 85.888C148.755 85.888 148.435 85.976 148.171 86.152C147.915 86.328 147.719 86.572 147.583 86.884C147.447 87.196 147.379 87.56 147.379 87.976V88.048C147.379 88.752 147.543 89.284 147.871 89.644C148.207 89.996 148.691 90.172 149.323 90.172C149.563 90.172 149.815 90.14 150.079 90.076C150.351 90.012 150.607 89.904 150.847 89.752C150.983 89.672 151.103 89.636 151.207 89.644C151.319 89.652 151.407 89.688 151.471 89.752C151.543 89.816 151.587 89.896 151.603 89.992C151.619 90.088 151.603 90.188 151.555 90.292C151.507 90.388 151.423 90.476 151.303 90.556C151.031 90.74 150.715 90.88 150.355 90.976C149.995 91.064 149.647 91.108 149.311 91.108ZM154.82 91.108C154.468 91.108 154.104 91.068 153.728 90.988C153.36 90.908 153.02 90.772 152.708 90.58C152.604 90.508 152.532 90.428 152.492 90.34C152.452 90.252 152.436 90.164 152.444 90.076C152.46 89.98 152.496 89.9 152.552 89.836C152.616 89.764 152.692 89.72 152.78 89.704C152.876 89.688 152.976 89.708 153.08 89.764C153.392 89.94 153.692 90.064 153.98 90.136C154.268 90.2 154.552 90.232 154.832 90.232C155.256 90.232 155.576 90.156 155.792 90.004C156.008 89.852 156.116 89.648 156.116 89.392C156.116 89.184 156.044 89.024 155.9 88.912C155.756 88.792 155.54 88.7 155.252 88.636L154.112 88.408C153.616 88.304 153.24 88.12 152.984 87.856C152.728 87.592 152.6 87.256 152.6 86.848C152.6 86.48 152.7 86.16 152.9 85.888C153.1 85.616 153.38 85.408 153.74 85.264C154.1 85.112 154.516 85.036 154.988 85.036C155.34 85.036 155.672 85.08 155.984 85.168C156.296 85.256 156.584 85.388 156.848 85.564C156.952 85.62 157.02 85.696 157.052 85.792C157.084 85.88 157.088 85.968 157.064 86.056C157.048 86.144 157.008 86.224 156.944 86.296C156.88 86.36 156.8 86.4 156.704 86.416C156.616 86.424 156.516 86.4 156.404 86.344C156.164 86.192 155.924 86.084 155.684 86.02C155.452 85.956 155.22 85.924 154.988 85.924C154.564 85.924 154.244 86.004 154.028 86.164C153.82 86.316 153.716 86.524 153.716 86.788C153.716 86.988 153.78 87.152 153.908 87.28C154.036 87.408 154.236 87.5 154.508 87.556L155.648 87.784C156.168 87.888 156.56 88.064 156.824 88.312C157.096 88.56 157.232 88.896 157.232 89.32C157.232 89.872 157.012 90.308 156.572 90.628C156.132 90.948 155.548 91.108 154.82 91.108Z" fill="#1A202C"/>
<rect x="79" y="110" width="41" height="5" rx="2.5" fill="#C3D4E9"/>
<rect x="79" y="133" width="79" height="5" rx="2.5" fill="#C3D4E9"/>
<rect x="79" y="156" width="60" height="5" rx="2.5" fill="#C3D4E9"/>
<rect x="79" y="179" width="31" height="5" rx="2.5" fill="#C3D4E9"/>
<rect x="114" y="179" width="31" height="5" rx="2.5" fill="#C3D4E9"/>
<rect x="79" y="202" width="75" height="5" rx="2.5" fill="#C3D4E9"/>
<path d="M32.1449 277C31.8249 277 31.5783 276.913 31.4049 276.74C31.2316 276.567 31.1449 276.32 31.1449 276V263.9C31.1449 263.58 31.2316 263.333 31.4049 263.16C31.5783 262.987 31.8249 262.9 32.1449 262.9H39.5049C39.7583 262.9 39.9516 262.967 40.0849 263.1C40.2316 263.22 40.3049 263.4 40.3049 263.64C40.3049 263.893 40.2316 264.087 40.0849 264.22C39.9516 264.353 39.7583 264.42 39.5049 264.42H32.9449V269.08H39.0849C39.3383 269.08 39.5316 269.147 39.6649 269.28C39.7983 269.413 39.8649 269.6 39.8649 269.84C39.8649 270.093 39.7983 270.287 39.6649 270.42C39.5316 270.54 39.3383 270.6 39.0849 270.6H32.9449V275.48H39.5049C39.7583 275.48 39.9516 275.547 40.0849 275.68C40.2316 275.8 40.3049 275.987 40.3049 276.24C40.3049 276.493 40.2316 276.687 40.0849 276.82C39.9516 276.94 39.7583 277 39.5049 277H32.1449ZM45.447 277.18C44.847 277.18 44.2403 277.113 43.627 276.98C43.027 276.833 42.4603 276.587 41.927 276.24C41.7803 276.147 41.6736 276.033 41.607 275.9C41.5536 275.753 41.5336 275.613 41.547 275.48C41.5736 275.333 41.6336 275.207 41.727 275.1C41.8203 274.993 41.9336 274.933 42.067 274.92C42.2136 274.893 42.367 274.927 42.527 275.02C43.047 275.313 43.547 275.52 44.027 275.64C44.5203 275.76 45.007 275.82 45.487 275.82C46.2203 275.82 46.7736 275.687 47.147 275.42C47.5203 275.153 47.707 274.8 47.707 274.36C47.707 273.987 47.5803 273.7 47.327 273.5C47.087 273.287 46.707 273.127 46.187 273.02L44.327 272.64C43.5003 272.453 42.8736 272.147 42.447 271.72C42.0336 271.28 41.827 270.72 41.827 270.04C41.827 269.44 41.987 268.92 42.307 268.48C42.6403 268.027 43.1003 267.68 43.687 267.44C44.2736 267.2 44.947 267.08 45.707 267.08C46.2936 267.08 46.847 267.16 47.367 267.32C47.9003 267.467 48.3803 267.693 48.807 268C48.967 268.093 49.067 268.213 49.107 268.36C49.1603 268.493 49.167 268.633 49.127 268.78C49.1003 268.913 49.0403 269.027 48.947 269.12C48.8536 269.213 48.7336 269.273 48.587 269.3C48.4403 269.313 48.2803 269.273 48.107 269.18C47.7203 268.913 47.3203 268.727 46.907 268.62C46.507 268.5 46.107 268.44 45.707 268.44C44.987 268.44 44.4403 268.58 44.067 268.86C43.707 269.14 43.527 269.507 43.527 269.96C43.527 270.307 43.6336 270.593 43.847 270.82C44.0736 271.047 44.427 271.213 44.907 271.32L46.767 271.7C47.6336 271.887 48.287 272.187 48.727 272.6C49.167 273 49.387 273.547 49.387 274.24C49.387 275.147 49.027 275.867 48.307 276.4C47.6003 276.92 46.647 277.18 45.447 277.18ZM55.5749 277.18C54.5883 277.18 53.7349 276.973 53.0149 276.56C52.2949 276.133 51.7416 275.54 51.3549 274.78C50.9683 274.007 50.7749 273.1 50.7749 272.06C50.7749 271.287 50.8816 270.593 51.0949 269.98C51.3216 269.367 51.6416 268.847 52.0549 268.42C52.4683 267.98 52.9683 267.647 53.5549 267.42C54.1549 267.193 54.8283 267.08 55.5749 267.08C56.0416 267.08 56.5349 267.153 57.0549 267.3C57.5749 267.447 58.0549 267.687 58.4949 268.02C58.6416 268.127 58.7349 268.253 58.7749 268.4C58.8149 268.533 58.8149 268.673 58.7749 268.82C58.7483 268.967 58.6816 269.093 58.5749 269.2C58.4816 269.293 58.3549 269.347 58.1949 269.36C58.0483 269.373 57.8883 269.327 57.7149 269.22C57.3949 268.98 57.0549 268.807 56.6949 268.7C56.3483 268.593 56.0149 268.54 55.6949 268.54C55.2016 268.54 54.7616 268.62 54.3749 268.78C54.0016 268.94 53.6816 269.173 53.4149 269.48C53.1616 269.773 52.9683 270.14 52.8349 270.58C52.7016 271.007 52.6349 271.507 52.6349 272.08C52.6349 273.213 52.9016 274.107 53.4349 274.76C53.9683 275.4 54.7216 275.72 55.6949 275.72C56.0149 275.72 56.3483 275.673 56.6949 275.58C57.0416 275.473 57.3816 275.3 57.7149 275.06C57.8883 274.953 58.0483 274.913 58.1949 274.94C58.3416 274.953 58.4616 275.013 58.5549 275.12C58.6616 275.213 58.7283 275.333 58.7549 275.48C58.7816 275.613 58.7683 275.753 58.7149 275.9C58.6749 276.047 58.5816 276.167 58.4349 276.26C58.0083 276.58 57.5416 276.813 57.0349 276.96C56.5283 277.107 56.0416 277.18 55.5749 277.18ZM64.1965 277.18C63.2365 277.18 62.4032 276.973 61.6965 276.56C60.9898 276.147 60.4432 275.56 60.0565 274.8C59.6698 274.04 59.4765 273.147 59.4765 272.12C59.4765 271.347 59.5832 270.653 59.7965 270.04C60.0232 269.413 60.3432 268.88 60.7565 268.44C61.1698 268 61.6632 267.667 62.2365 267.44C62.8232 267.2 63.4765 267.08 64.1965 267.08C65.1565 267.08 65.9898 267.287 66.6965 267.7C67.4032 268.113 67.9498 268.7 68.3365 269.46C68.7232 270.207 68.9165 271.093 68.9165 272.12C68.9165 272.893 68.8032 273.593 68.5765 274.22C68.3632 274.847 68.0498 275.38 67.6365 275.82C67.2232 276.26 66.7232 276.6 66.1365 276.84C65.5632 277.067 64.9165 277.18 64.1965 277.18ZM64.1965 275.74C64.7832 275.74 65.2898 275.6 65.7165 275.32C66.1565 275.04 66.4898 274.633 66.7165 274.1C66.9565 273.567 67.0765 272.907 67.0765 272.12C67.0765 270.947 66.8165 270.053 66.2965 269.44C65.7765 268.827 65.0765 268.52 64.1965 268.52C63.6232 268.52 63.1165 268.66 62.6765 268.94C62.2498 269.207 61.9165 269.607 61.6765 270.14C61.4365 270.673 61.3165 271.333 61.3165 272.12C61.3165 273.293 61.5765 274.193 62.0965 274.82C62.6298 275.433 63.3298 275.74 64.1965 275.74ZM73.9079 277.18C72.9079 277.18 72.1479 276.887 71.6279 276.3C71.1079 275.7 70.8479 274.84 70.8479 273.72V263.68C70.8479 263.373 70.9279 263.147 71.0879 263C71.2479 262.84 71.4679 262.76 71.7479 262.76C72.0412 262.76 72.2679 262.84 72.4279 263C72.5879 263.147 72.6679 263.373 72.6679 263.68V273.58C72.6679 274.273 72.8079 274.793 73.0879 275.14C73.3812 275.473 73.7946 275.64 74.3279 275.64C74.4479 275.64 74.5546 275.64 74.6479 275.64C74.7412 275.627 74.8346 275.613 74.9279 275.6C75.0746 275.587 75.1812 275.627 75.2479 275.72C75.3146 275.813 75.3479 276 75.3479 276.28C75.3479 276.533 75.2879 276.733 75.1679 276.88C75.0612 277.013 74.8812 277.1 74.6279 277.14C74.5079 277.153 74.3879 277.16 74.2679 277.16C74.1479 277.173 74.0279 277.18 73.9079 277.18ZM77.3635 277.14C77.0835 277.14 76.8635 277.06 76.7035 276.9C76.5435 276.74 76.4635 276.507 76.4635 276.2V263.68C76.4635 263.373 76.5435 263.147 76.7035 263C76.8635 262.84 77.0835 262.76 77.3635 262.76C77.6569 262.76 77.8835 262.84 78.0435 263C78.2035 263.147 78.2835 263.373 78.2835 263.68V269.38H78.0235C78.3035 268.62 78.7569 268.047 79.3835 267.66C80.0235 267.273 80.7502 267.08 81.5635 267.08C82.3502 267.08 82.9969 267.227 83.5035 267.52C84.0102 267.8 84.3902 268.227 84.6435 268.8C84.8969 269.373 85.0235 270.093 85.0235 270.96V276.2C85.0235 276.507 84.9435 276.74 84.7835 276.9C84.6369 277.06 84.4169 277.14 84.1235 277.14C83.8302 277.14 83.6035 277.06 83.4435 276.9C83.2835 276.74 83.2035 276.507 83.2035 276.2V271.06C83.2035 270.193 83.0369 269.56 82.7035 269.16C82.3702 268.76 81.8369 268.56 81.1035 268.56C80.2502 268.56 79.5635 268.827 79.0435 269.36C78.5369 269.88 78.2835 270.587 78.2835 271.48V276.2C78.2835 276.827 77.9769 277.14 77.3635 277.14ZM90.6088 277.18C89.9422 277.18 89.3355 277.047 88.7888 276.78C88.2555 276.513 87.8355 276.153 87.5288 275.7C87.2355 275.247 87.0888 274.74 87.0888 274.18C87.0888 273.46 87.2688 272.893 87.6288 272.48C87.9888 272.067 88.5955 271.773 89.4488 271.6C90.3022 271.413 91.4488 271.32 92.8888 271.32H93.8288V272.48H92.9288C91.9022 272.48 91.0888 272.527 90.4888 272.62C89.9022 272.713 89.4888 272.88 89.2488 273.12C89.0088 273.347 88.8888 273.667 88.8888 274.08C88.8888 274.6 89.0688 275.027 89.4288 275.36C89.8022 275.693 90.3088 275.86 90.9488 275.86C91.4555 275.86 91.9022 275.74 92.2888 275.5C92.6755 275.247 92.9822 274.913 93.2088 274.5C93.4355 274.073 93.5488 273.587 93.5488 273.04V270.74C93.5488 269.953 93.3888 269.387 93.0688 269.04C92.7488 268.68 92.2088 268.5 91.4488 268.5C91.0088 268.5 90.5555 268.56 90.0888 268.68C89.6222 268.8 89.1355 268.987 88.6288 269.24C88.4288 269.333 88.2555 269.367 88.1088 269.34C87.9622 269.3 87.8422 269.22 87.7488 269.1C87.6688 268.967 87.6222 268.827 87.6088 268.68C87.6088 268.52 87.6422 268.367 87.7088 268.22C87.7888 268.073 87.9222 267.967 88.1088 267.9C88.6955 267.607 89.2755 267.4 89.8488 267.28C90.4355 267.147 90.9822 267.08 91.4888 267.08C92.3555 267.08 93.0688 267.22 93.6288 267.5C94.1888 267.767 94.6088 268.187 94.8888 268.76C95.1688 269.32 95.3088 270.04 95.3088 270.92V276.2C95.3088 276.507 95.2355 276.74 95.0888 276.9C94.9422 277.06 94.7288 277.14 94.4488 277.14C94.1822 277.14 93.9688 277.06 93.8088 276.9C93.6622 276.74 93.5888 276.507 93.5888 276.2V274.78H93.7688C93.6622 275.273 93.4622 275.7 93.1688 276.06C92.8755 276.42 92.5088 276.7 92.0688 276.9C91.6422 277.087 91.1555 277.18 90.6088 277.18ZM105.948 277.18C105.348 277.18 104.741 277.113 104.128 276.98C103.528 276.833 102.961 276.587 102.428 276.24C102.281 276.147 102.174 276.033 102.108 275.9C102.054 275.753 102.034 275.613 102.048 275.48C102.074 275.333 102.134 275.207 102.228 275.1C102.321 274.993 102.434 274.933 102.568 274.92C102.714 274.893 102.868 274.927 103.028 275.02C103.548 275.313 104.048 275.52 104.528 275.64C105.021 275.76 105.508 275.82 105.988 275.82C106.721 275.82 107.274 275.687 107.648 275.42C108.021 275.153 108.208 274.8 108.208 274.36C108.208 273.987 108.081 273.7 107.828 273.5C107.588 273.287 107.208 273.127 106.688 273.02L104.828 272.64C104.001 272.453 103.374 272.147 102.948 271.72C102.534 271.28 102.328 270.72 102.328 270.04C102.328 269.44 102.488 268.92 102.808 268.48C103.141 268.027 103.601 267.68 104.188 267.44C104.774 267.2 105.448 267.08 106.208 267.08C106.794 267.08 107.348 267.16 107.868 267.32C108.401 267.467 108.881 267.693 109.308 268C109.468 268.093 109.568 268.213 109.608 268.36C109.661 268.493 109.668 268.633 109.628 268.78C109.601 268.913 109.541 269.027 109.448 269.12C109.354 269.213 109.234 269.273 109.088 269.3C108.941 269.313 108.781 269.273 108.608 269.18C108.221 268.913 107.821 268.727 107.408 268.62C107.008 268.5 106.608 268.44 106.208 268.44C105.488 268.44 104.941 268.58 104.568 268.86C104.208 269.14 104.028 269.507 104.028 269.96C104.028 270.307 104.134 270.593 104.348 270.82C104.574 271.047 104.928 271.213 105.408 271.32L107.268 271.7C108.134 271.887 108.788 272.187 109.228 272.6C109.668 273 109.888 273.547 109.888 274.24C109.888 275.147 109.528 275.867 108.808 276.4C108.101 276.92 107.148 277.18 105.948 277.18ZM116.356 277.18C115.302 277.18 114.396 276.98 113.636 276.58C112.889 276.167 112.309 275.587 111.896 274.84C111.482 274.08 111.276 273.187 111.276 272.16C111.276 271.147 111.476 270.26 111.876 269.5C112.289 268.74 112.849 268.147 113.556 267.72C114.276 267.293 115.096 267.08 116.016 267.08C116.669 267.08 117.256 267.193 117.776 267.42C118.309 267.633 118.762 267.947 119.136 268.36C119.509 268.773 119.789 269.28 119.976 269.88C120.176 270.467 120.276 271.133 120.276 271.88C120.276 272.093 120.209 272.26 120.076 272.38C119.956 272.487 119.776 272.54 119.536 272.54H112.696V271.38H119.076L118.736 271.66C118.736 270.967 118.629 270.38 118.416 269.9C118.216 269.407 117.916 269.033 117.516 268.78C117.129 268.527 116.642 268.4 116.056 268.4C115.416 268.4 114.869 268.553 114.416 268.86C113.962 269.153 113.616 269.573 113.376 270.12C113.136 270.653 113.016 271.273 113.016 271.98V272.1C113.016 273.3 113.302 274.207 113.876 274.82C114.449 275.433 115.276 275.74 116.356 275.74C116.782 275.74 117.216 275.687 117.656 275.58C118.109 275.473 118.542 275.28 118.956 275C119.156 274.88 119.336 274.827 119.496 274.84C119.669 274.84 119.809 274.893 119.916 275C120.022 275.093 120.089 275.213 120.116 275.36C120.142 275.493 120.122 275.64 120.056 275.8C119.989 275.96 119.862 276.1 119.676 276.22C119.236 276.527 118.709 276.767 118.096 276.94C117.496 277.1 116.916 277.18 116.356 277.18ZM125.619 277.18C124.833 277.18 124.173 277.033 123.639 276.74C123.119 276.447 122.733 276.013 122.479 275.44C122.226 274.867 122.099 274.147 122.099 273.28V268.04C122.099 267.733 122.173 267.507 122.319 267.36C122.479 267.2 122.706 267.12 122.999 267.12C123.293 267.12 123.519 267.2 123.679 267.36C123.839 267.507 123.919 267.733 123.919 268.04V273.28C123.919 274.107 124.086 274.72 124.419 275.12C124.753 275.507 125.279 275.7 125.999 275.7C126.799 275.7 127.446 275.433 127.939 274.9C128.446 274.367 128.699 273.66 128.699 272.78V268.04C128.699 267.733 128.773 267.507 128.919 267.36C129.079 267.2 129.306 267.12 129.599 267.12C129.893 267.12 130.119 267.2 130.279 267.36C130.439 267.507 130.519 267.733 130.519 268.04V276.2C130.519 276.827 130.226 277.14 129.639 277.14C129.346 277.14 129.119 277.06 128.959 276.9C128.813 276.74 128.739 276.507 128.739 276.2V274.46L128.999 274.8C128.733 275.573 128.299 276.167 127.699 276.58C127.113 276.98 126.419 277.18 125.619 277.18ZM136.408 277.18C135.808 277.18 135.201 277.113 134.588 276.98C133.988 276.833 133.421 276.587 132.888 276.24C132.741 276.147 132.635 276.033 132.568 275.9C132.515 275.753 132.495 275.613 132.508 275.48C132.535 275.333 132.595 275.207 132.688 275.1C132.781 274.993 132.895 274.933 133.028 274.92C133.175 274.893 133.328 274.927 133.488 275.02C134.008 275.313 134.508 275.52 134.988 275.64C135.481 275.76 135.968 275.82 136.448 275.82C137.181 275.82 137.735 275.687 138.108 275.42C138.481 275.153 138.668 274.8 138.668 274.36C138.668 273.987 138.541 273.7 138.288 273.5C138.048 273.287 137.668 273.127 137.148 273.02L135.288 272.64C134.461 272.453 133.835 272.147 133.408 271.72C132.995 271.28 132.788 270.72 132.788 270.04C132.788 269.44 132.948 268.92 133.268 268.48C133.601 268.027 134.061 267.68 134.648 267.44C135.235 267.2 135.908 267.08 136.668 267.08C137.255 267.08 137.808 267.16 138.328 267.32C138.861 267.467 139.341 267.693 139.768 268C139.928 268.093 140.028 268.213 140.068 268.36C140.121 268.493 140.128 268.633 140.088 268.78C140.061 268.913 140.001 269.027 139.908 269.12C139.815 269.213 139.695 269.273 139.548 269.3C139.401 269.313 139.241 269.273 139.068 269.18C138.681 268.913 138.281 268.727 137.868 268.62C137.468 268.5 137.068 268.44 136.668 268.44C135.948 268.44 135.401 268.58 135.028 268.86C134.668 269.14 134.488 269.507 134.488 269.96C134.488 270.307 134.595 270.593 134.808 270.82C135.035 271.047 135.388 271.213 135.868 271.32L137.728 271.7C138.595 271.887 139.248 272.187 139.688 272.6C140.128 273 140.348 273.547 140.348 274.24C140.348 275.147 139.988 275.867 139.268 276.4C138.561 276.92 137.608 277.18 136.408 277.18ZM148.031 277.1C147.751 277.1 147.531 277.013 147.371 276.84C147.211 276.667 147.131 276.427 147.131 276.12V268.14C147.131 267.82 147.211 267.58 147.371 267.42C147.531 267.247 147.751 267.16 148.031 267.16C148.324 267.16 148.551 267.247 148.711 267.42C148.871 267.58 148.951 267.82 148.951 268.14V276.12C148.951 276.427 148.871 276.667 148.711 276.84C148.564 277.013 148.337 277.1 148.031 277.1ZM148.031 265C147.671 265 147.384 264.907 147.171 264.72C146.971 264.52 146.871 264.26 146.871 263.94C146.871 263.593 146.971 263.333 147.171 263.16C147.384 262.973 147.671 262.88 148.031 262.88C148.417 262.88 148.704 262.973 148.891 263.16C149.091 263.333 149.191 263.593 149.191 263.94C149.191 264.26 149.091 264.52 148.891 264.72C148.704 264.907 148.417 265 148.031 265ZM152.377 277.14C152.097 277.14 151.877 277.06 151.717 276.9C151.557 276.74 151.477 276.507 151.477 276.2V268.04C151.477 267.733 151.557 267.507 151.717 267.36C151.877 267.2 152.097 267.12 152.377 267.12C152.657 267.12 152.87 267.2 153.017 267.36C153.177 267.507 153.257 267.733 153.257 268.04V269.68L153.037 269.38C153.317 268.62 153.77 268.047 154.397 267.66C155.037 267.273 155.763 267.08 156.577 267.08C157.363 267.08 158.01 267.22 158.517 267.5C159.023 267.78 159.403 268.207 159.657 268.78C159.91 269.353 160.037 270.08 160.037 270.96V276.2C160.037 276.507 159.957 276.74 159.797 276.9C159.65 277.06 159.43 277.14 159.137 277.14C158.843 277.14 158.617 277.06 158.457 276.9C158.297 276.74 158.217 276.507 158.217 276.2V271.06C158.217 270.193 158.05 269.56 157.717 269.16C157.383 268.76 156.85 268.56 156.117 268.56C155.263 268.56 154.577 268.827 154.057 269.36C153.55 269.88 153.297 270.587 153.297 271.48V276.2C153.297 276.827 152.99 277.14 152.377 277.14ZM166.562 277.18C165.775 277.18 165.115 277.04 164.582 276.76C164.062 276.48 163.669 276.073 163.402 275.54C163.149 275.007 163.022 274.353 163.022 273.58V268.66H161.742C161.502 268.66 161.315 268.6 161.182 268.48C161.049 268.347 160.982 268.173 160.982 267.96C160.982 267.733 161.049 267.56 161.182 267.44C161.315 267.32 161.502 267.26 161.742 267.26H163.022V265.08C163.022 264.773 163.102 264.547 163.262 264.4C163.422 264.24 163.649 264.16 163.942 264.16C164.235 264.16 164.455 264.24 164.602 264.4C164.762 264.547 164.842 264.773 164.842 265.08V267.26H167.262C167.515 267.26 167.709 267.32 167.842 267.44C167.975 267.56 168.042 267.733 168.042 267.96C168.042 268.173 167.975 268.347 167.842 268.48C167.709 268.6 167.515 268.66 167.262 268.66H164.842V273.42C164.842 274.153 164.995 274.707 165.302 275.08C165.609 275.453 166.115 275.64 166.822 275.64C167.075 275.64 167.289 275.62 167.462 275.58C167.635 275.527 167.789 275.5 167.922 275.5C168.042 275.487 168.142 275.527 168.222 275.62C168.315 275.713 168.362 275.887 168.362 276.14C168.362 276.327 168.329 276.5 168.262 276.66C168.209 276.807 168.095 276.907 167.922 276.96C167.762 277.013 167.549 277.06 167.282 277.1C167.015 277.153 166.775 277.18 166.562 277.18ZM173.692 277.18C172.639 277.18 171.732 276.98 170.972 276.58C170.226 276.167 169.646 275.587 169.232 274.84C168.819 274.08 168.612 273.187 168.612 272.16C168.612 271.147 168.812 270.26 169.212 269.5C169.626 268.74 170.186 268.147 170.892 267.72C171.612 267.293 172.432 267.08 173.352 267.08C174.006 267.08 174.592 267.193 175.112 267.42C175.646 267.633 176.099 267.947 176.472 268.36C176.846 268.773 177.126 269.28 177.312 269.88C177.512 270.467 177.612 271.133 177.612 271.88C177.612 272.093 177.546 272.26 177.412 272.38C177.292 272.487 177.112 272.54 176.872 272.54H170.032V271.38H176.412L176.072 271.66C176.072 270.967 175.966 270.38 175.752 269.9C175.552 269.407 175.252 269.033 174.852 268.78C174.466 268.527 173.979 268.4 173.392 268.4C172.752 268.4 172.206 268.553 171.752 268.86C171.299 269.153 170.952 269.573 170.712 270.12C170.472 270.653 170.352 271.273 170.352 271.98V272.1C170.352 273.3 170.639 274.207 171.212 274.82C171.786 275.433 172.612 275.74 173.692 275.74C174.119 275.74 174.552 275.687 174.992 275.58C175.446 275.473 175.879 275.28 176.292 275C176.492 274.88 176.672 274.827 176.832 274.84C177.006 274.84 177.146 274.893 177.252 275C177.359 275.093 177.426 275.213 177.452 275.36C177.479 275.493 177.459 275.64 177.392 275.8C177.326 275.96 177.199 276.1 177.012 276.22C176.572 276.527 176.046 276.767 175.432 276.94C174.832 277.1 174.252 277.18 173.692 277.18ZM180.416 277.14C180.109 277.14 179.876 277.06 179.716 276.9C179.556 276.74 179.476 276.507 179.476 276.2V268.04C179.476 267.733 179.556 267.507 179.716 267.36C179.876 267.2 180.096 267.12 180.376 267.12C180.656 267.12 180.869 267.2 181.016 267.36C181.176 267.507 181.256 267.733 181.256 268.04V269.58H181.056C181.269 268.78 181.669 268.173 182.256 267.76C182.843 267.347 183.583 267.113 184.476 267.06C184.689 267.047 184.863 267.1 184.996 267.22C185.129 267.327 185.203 267.513 185.216 267.78C185.229 268.033 185.169 268.24 185.036 268.4C184.903 268.547 184.696 268.633 184.416 268.66L184.056 268.68C183.176 268.773 182.496 269.06 182.016 269.54C181.549 270.02 181.316 270.68 181.316 271.52V276.2C181.316 276.507 181.236 276.74 181.076 276.9C180.929 277.06 180.709 277.14 180.416 277.14ZM190.744 277.18C189.691 277.18 188.784 276.98 188.024 276.58C187.277 276.167 186.697 275.587 186.284 274.84C185.871 274.08 185.664 273.187 185.664 272.16C185.664 271.147 185.864 270.26 186.264 269.5C186.677 268.74 187.237 268.147 187.944 267.72C188.664 267.293 189.484 267.08 190.404 267.08C191.057 267.08 191.644 267.193 192.164 267.42C192.697 267.633 193.151 267.947 193.524 268.36C193.897 268.773 194.177 269.28 194.364 269.88C194.564 270.467 194.664 271.133 194.664 271.88C194.664 272.093 194.597 272.26 194.464 272.38C194.344 272.487 194.164 272.54 193.924 272.54H187.084V271.38H193.464L193.124 271.66C193.124 270.967 193.017 270.38 192.804 269.9C192.604 269.407 192.304 269.033 191.904 268.78C191.517 268.527 191.031 268.4 190.444 268.4C189.804 268.4 189.257 268.553 188.804 268.86C188.351 269.153 188.004 269.573 187.764 270.12C187.524 270.653 187.404 271.273 187.404 271.98V272.1C187.404 273.3 187.691 274.207 188.264 274.82C188.837 275.433 189.664 275.74 190.744 275.74C191.171 275.74 191.604 275.687 192.044 275.58C192.497 275.473 192.931 275.28 193.344 275C193.544 274.88 193.724 274.827 193.884 274.84C194.057 274.84 194.197 274.893 194.304 275C194.411 275.093 194.477 275.213 194.504 275.36C194.531 275.493 194.511 275.64 194.444 275.8C194.377 275.96 194.251 276.1 194.064 276.22C193.624 276.527 193.097 276.767 192.484 276.94C191.884 277.1 191.304 277.18 190.744 277.18ZM199.888 277.18C199.288 277.18 198.681 277.113 198.068 276.98C197.468 276.833 196.901 276.587 196.368 276.24C196.221 276.147 196.114 276.033 196.048 275.9C195.994 275.753 195.974 275.613 195.988 275.48C196.014 275.333 196.074 275.207 196.168 275.1C196.261 274.993 196.374 274.933 196.508 274.92C196.654 274.893 196.808 274.927 196.968 275.02C197.488 275.313 197.988 275.52 198.468 275.64C198.961 275.76 199.448 275.82 199.928 275.82C200.661 275.82 201.214 275.687 201.588 275.42C201.961 275.153 202.148 274.8 202.148 274.36C202.148 273.987 202.021 273.7 201.768 273.5C201.528 273.287 201.148 273.127 200.628 273.02L198.768 272.64C197.941 272.453 197.314 272.147 196.888 271.72C196.474 271.28 196.268 270.72 196.268 270.04C196.268 269.44 196.428 268.92 196.748 268.48C197.081 268.027 197.541 267.68 198.128 267.44C198.714 267.2 199.388 267.08 200.148 267.08C200.734 267.08 201.288 267.16 201.808 267.32C202.341 267.467 202.821 267.693 203.248 268C203.408 268.093 203.508 268.213 203.548 268.36C203.601 268.493 203.608 268.633 203.568 268.78C203.541 268.913 203.481 269.027 203.388 269.12C203.294 269.213 203.174 269.273 203.028 269.3C202.881 269.313 202.721 269.273 202.548 269.18C202.161 268.913 201.761 268.727 201.348 268.62C200.948 268.5 200.548 268.44 200.148 268.44C199.428 268.44 198.881 268.58 198.508 268.86C198.148 269.14 197.968 269.507 197.968 269.96C197.968 270.307 198.074 270.593 198.288 270.82C198.514 271.047 198.868 271.213 199.348 271.32L201.208 271.7C202.074 271.887 202.728 272.187 203.168 272.6C203.608 273 203.828 273.547 203.828 274.24C203.828 275.147 203.468 275.867 202.748 276.4C202.041 276.92 201.088 277.18 199.888 277.18ZM209.156 277.18C208.556 277.18 207.949 277.113 207.336 276.98C206.736 276.833 206.169 276.587 205.636 276.24C205.489 276.147 205.382 276.033 205.316 275.9C205.262 275.753 205.242 275.613 205.256 275.48C205.282 275.333 205.342 275.207 205.436 275.1C205.529 274.993 205.642 274.933 205.776 274.92C205.922 274.893 206.076 274.927 206.236 275.02C206.756 275.313 207.256 275.52 207.736 275.64C208.229 275.76 208.716 275.82 209.196 275.82C209.929 275.82 210.482 275.687 210.856 275.42C211.229 275.153 211.416 274.8 211.416 274.36C211.416 273.987 211.289 273.7 211.036 273.5C210.796 273.287 210.416 273.127 209.896 273.02L208.036 272.64C207.209 272.453 206.582 272.147 206.156 271.72C205.742 271.28 205.536 270.72 205.536 270.04C205.536 269.44 205.696 268.92 206.016 268.48C206.349 268.027 206.809 267.68 207.396 267.44C207.982 267.2 208.656 267.08 209.416 267.08C210.002 267.08 210.556 267.16 211.076 267.32C211.609 267.467 212.089 267.693 212.516 268C212.676 268.093 212.776 268.213 212.816 268.36C212.869 268.493 212.876 268.633 212.836 268.78C212.809 268.913 212.749 269.027 212.656 269.12C212.562 269.213 212.442 269.273 212.296 269.3C212.149 269.313 211.989 269.273 211.816 269.18C211.429 268.913 211.029 268.727 210.616 268.62C210.216 268.5 209.816 268.44 209.416 268.44C208.696 268.44 208.149 268.58 207.776 268.86C207.416 269.14 207.236 269.507 207.236 269.96C207.236 270.307 207.342 270.593 207.556 270.82C207.782 271.047 208.136 271.213 208.616 271.32L210.476 271.7C211.342 271.887 211.996 272.187 212.436 272.6C212.876 273 213.096 273.547 213.096 274.24C213.096 275.147 212.736 275.867 212.016 276.4C211.309 276.92 210.356 277.18 209.156 277.18ZM219.564 277.18C218.51 277.18 217.604 276.98 216.844 276.58C216.097 276.167 215.517 275.587 215.104 274.84C214.69 274.08 214.484 273.187 214.484 272.16C214.484 271.147 214.684 270.26 215.084 269.5C215.497 268.74 216.057 268.147 216.764 267.72C217.484 267.293 218.304 267.08 219.224 267.08C219.877 267.08 220.464 267.193 220.984 267.42C221.517 267.633 221.97 267.947 222.344 268.36C222.717 268.773 222.997 269.28 223.184 269.88C223.384 270.467 223.484 271.133 223.484 271.88C223.484 272.093 223.417 272.26 223.284 272.38C223.164 272.487 222.984 272.54 222.744 272.54H215.904V271.38H222.284L221.944 271.66C221.944 270.967 221.837 270.38 221.624 269.9C221.424 269.407 221.124 269.033 220.724 268.78C220.337 268.527 219.85 268.4 219.264 268.4C218.624 268.4 218.077 268.553 217.624 268.86C217.17 269.153 216.824 269.573 216.584 270.12C216.344 270.653 216.224 271.273 216.224 271.98V272.1C216.224 273.3 216.51 274.207 217.084 274.82C217.657 275.433 218.484 275.74 219.564 275.74C219.99 275.74 220.424 275.687 220.864 275.58C221.317 275.473 221.75 275.28 222.164 275C222.364 274.88 222.544 274.827 222.704 274.84C222.877 274.84 223.017 274.893 223.124 275C223.23 275.093 223.297 275.213 223.324 275.36C223.35 275.493 223.33 275.64 223.264 275.8C223.197 275.96 223.07 276.1 222.884 276.22C222.444 276.527 221.917 276.767 221.304 276.94C220.704 277.1 220.124 277.18 219.564 277.18ZM228.707 277.18C228.107 277.18 227.5 277.113 226.887 276.98C226.287 276.833 225.72 276.587 225.187 276.24C225.04 276.147 224.934 276.033 224.867 275.9C224.814 275.753 224.794 275.613 224.807 275.48C224.834 275.333 224.894 275.207 224.987 275.1C225.08 274.993 225.194 274.933 225.327 274.92C225.474 274.893 225.627 274.927 225.787 275.02C226.307 275.313 226.807 275.52 227.287 275.64C227.78 275.76 228.267 275.82 228.747 275.82C229.48 275.82 230.034 275.687 230.407 275.42C230.78 275.153 230.967 274.8 230.967 274.36C230.967 273.987 230.84 273.7 230.587 273.5C230.347 273.287 229.967 273.127 229.447 273.02L227.587 272.64C226.76 272.453 226.134 272.147 225.707 271.72C225.294 271.28 225.087 270.72 225.087 270.04C225.087 269.44 225.247 268.92 225.567 268.48C225.9 268.027 226.36 267.68 226.947 267.44C227.534 267.2 228.207 267.08 228.967 267.08C229.554 267.08 230.107 267.16 230.627 267.32C231.16 267.467 231.64 267.693 232.067 268C232.227 268.093 232.327 268.213 232.367 268.36C232.42 268.493 232.427 268.633 232.387 268.78C232.36 268.913 232.3 269.027 232.207 269.12C232.114 269.213 231.994 269.273 231.847 269.3C231.7 269.313 231.54 269.273 231.367 269.18C230.98 268.913 230.58 268.727 230.167 268.62C229.767 268.5 229.367 268.44 228.967 268.44C228.247 268.44 227.7 268.58 227.327 268.86C226.967 269.14 226.787 269.507 226.787 269.96C226.787 270.307 226.894 270.593 227.107 270.82C227.334 271.047 227.687 271.213 228.167 271.32L230.027 271.7C230.894 271.887 231.547 272.187 231.987 272.6C232.427 273 232.647 273.547 232.647 274.24C232.647 275.147 232.287 275.867 231.567 276.4C230.86 276.92 229.907 277.18 228.707 277.18Z" fill="white"/>
<circle cx="31" cy="31" r="28" fill="#00ACFF" stroke="#0D121F" stroke-width="6"/>
<path d="M27.4487 39C27.0167 39 26.7047 38.904 26.5127 38.712C26.3207 38.504 26.2247 38.224 26.2247 37.872C26.2247 37.648 26.2807 37.432 26.3927 37.224C26.5047 37.016 26.6647 36.8 26.8727 36.576L31.9847 31.104C32.7687 30.272 33.3287 29.512 33.6647 28.824C34.0167 28.12 34.1927 27.416 34.1927 26.712C34.1927 25.816 33.9207 25.136 33.3767 24.672C32.8327 24.208 32.0327 23.976 30.9767 23.976C30.3367 23.976 29.7207 24.072 29.1287 24.264C28.5367 24.456 27.9447 24.768 27.3527 25.2C27.1127 25.36 26.8887 25.432 26.6807 25.416C26.4727 25.4 26.2887 25.32 26.1287 25.176C25.9847 25.032 25.8887 24.856 25.8407 24.648C25.7927 24.44 25.8007 24.224 25.8647 24C25.9287 23.776 26.0807 23.584 26.3207 23.424C26.9767 22.928 27.7367 22.544 28.6007 22.272C29.4647 22 30.3447 21.864 31.2407 21.864C32.4087 21.864 33.3927 22.048 34.1927 22.416C35.0087 22.768 35.6247 23.288 36.0407 23.976C36.4567 24.664 36.6647 25.504 36.6647 26.496C36.6647 27.168 36.5527 27.824 36.3287 28.464C36.1207 29.104 35.7927 29.76 35.3447 30.432C34.9127 31.088 34.3447 31.784 33.6407 32.52L28.7927 37.608V36.912H36.4247C36.7767 36.912 37.0487 37 37.2407 37.176C37.4327 37.352 37.5287 37.608 37.5287 37.944C37.5287 38.28 37.4327 38.544 37.2407 38.736C37.0487 38.912 36.7767 39 36.4247 39H27.4487Z" fill="white"/>
</svg>
