<svg width="231" height="315" viewBox="0 0 231 315" fill="none" xmlns="http://www.w3.org/2000/svg">
<rect x="31" y="31" width="200" height="200" rx="16" fill="#F3F5F7"/>
<path d="M63 75C63 68.3726 68.3726 63 75 63H231V231H63V75Z" fill="white"/>
<path d="M91.392 100.108C90.832 100.108 90.336 100.036 89.904 99.892C89.48 99.74 89.124 99.52 88.836 99.232C88.548 98.936 88.328 98.572 88.176 98.14C88.032 97.7 87.96 97.192 87.96 96.616V92.02C87.96 91.828 88.008 91.688 88.104 91.6C88.2 91.504 88.336 91.456 88.512 91.456C88.696 91.456 88.836 91.504 88.932 91.6C89.028 91.688 89.076 91.828 89.076 92.02V96.58C89.076 97.436 89.272 98.076 89.664 98.5C90.056 98.916 90.632 99.124 91.392 99.124C92.152 99.124 92.728 98.916 93.12 98.5C93.512 98.076 93.708 97.436 93.708 96.58V92.02C93.708 91.828 93.756 91.688 93.852 91.6C93.948 91.504 94.084 91.456 94.26 91.456C94.436 91.456 94.572 91.504 94.668 91.6C94.764 91.688 94.812 91.828 94.812 92.02V96.616C94.812 97.376 94.68 98.016 94.416 98.536C94.16 99.056 93.776 99.448 93.264 99.712C92.76 99.976 92.136 100.108 91.392 100.108ZM98.4293 100.108C98.0693 100.108 97.7053 100.068 97.3373 99.988C96.9773 99.9 96.6373 99.752 96.3173 99.544C96.2293 99.488 96.1653 99.42 96.1253 99.34C96.0933 99.252 96.0813 99.168 96.0893 99.088C96.1053 99 96.1413 98.924 96.1973 98.86C96.2533 98.796 96.3213 98.76 96.4013 98.752C96.4893 98.736 96.5813 98.756 96.6773 98.812C96.9893 98.988 97.2893 99.112 97.5773 99.184C97.8733 99.256 98.1653 99.292 98.4533 99.292C98.8933 99.292 99.2253 99.212 99.4493 99.052C99.6733 98.892 99.7853 98.68 99.7853 98.416C99.7853 98.192 99.7093 98.02 99.5573 97.9C99.4133 97.772 99.1853 97.676 98.8733 97.612L97.7573 97.384C97.2613 97.272 96.8853 97.088 96.6293 96.832C96.3813 96.568 96.2573 96.232 96.2573 95.824C96.2573 95.464 96.3533 95.152 96.5453 94.888C96.7453 94.616 97.0213 94.408 97.3733 94.264C97.7253 94.12 98.1293 94.048 98.5853 94.048C98.9373 94.048 99.2693 94.096 99.5813 94.192C99.9013 94.28 100.189 94.416 100.445 94.6C100.541 94.656 100.601 94.728 100.625 94.816C100.657 94.896 100.661 94.98 100.637 95.068C100.621 95.148 100.585 95.216 100.529 95.272C100.473 95.328 100.401 95.364 100.313 95.38C100.225 95.388 100.129 95.364 100.025 95.308C99.7933 95.148 99.5533 95.036 99.3053 94.972C99.0653 94.9 98.8253 94.864 98.5853 94.864C98.1533 94.864 97.8253 94.948 97.6013 95.116C97.3853 95.284 97.2773 95.504 97.2773 95.776C97.2773 95.984 97.3413 96.156 97.4693 96.292C97.6053 96.428 97.8173 96.528 98.1053 96.592L99.2213 96.82C99.7413 96.932 100.133 97.112 100.397 97.36C100.661 97.6 100.793 97.928 100.793 98.344C100.793 98.888 100.577 99.32 100.145 99.64C99.7213 99.952 99.1493 100.108 98.4293 100.108ZM104.062 100.108C103.59 100.108 103.194 100.02 102.874 99.844C102.562 99.668 102.33 99.408 102.178 99.064C102.026 98.72 101.95 98.288 101.95 97.768V94.624C101.95 94.44 101.994 94.304 102.082 94.216C102.178 94.12 102.314 94.072 102.49 94.072C102.666 94.072 102.802 94.12 102.898 94.216C102.994 94.304 103.042 94.44 103.042 94.624V97.768C103.042 98.264 103.142 98.632 103.342 98.872C103.542 99.104 103.858 99.22 104.29 99.22C104.77 99.22 105.158 99.06 105.454 98.74C105.758 98.42 105.91 97.996 105.91 97.468V94.624C105.91 94.44 105.954 94.304 106.042 94.216C106.138 94.12 106.274 94.072 106.45 94.072C106.626 94.072 106.762 94.12 106.858 94.216C106.954 94.304 107.002 94.44 107.002 94.624V99.52C107.002 99.896 106.826 100.084 106.474 100.084C106.298 100.084 106.162 100.036 106.066 99.94C105.978 99.844 105.934 99.704 105.934 99.52V98.476L106.09 98.68C105.93 99.144 105.67 99.5 105.31 99.748C104.958 99.988 104.542 100.108 104.062 100.108ZM110.379 100.108C109.979 100.108 109.615 100.028 109.287 99.868C108.967 99.708 108.715 99.492 108.531 99.22C108.355 98.948 108.267 98.644 108.267 98.308C108.267 97.876 108.375 97.536 108.591 97.288C108.807 97.04 109.171 96.864 109.683 96.76C110.195 96.648 110.883 96.592 111.747 96.592H112.311V97.288H111.771C111.155 97.288 110.667 97.316 110.307 97.372C109.955 97.428 109.707 97.528 109.563 97.672C109.419 97.808 109.347 98 109.347 98.248C109.347 98.56 109.455 98.816 109.671 99.016C109.895 99.216 110.199 99.316 110.583 99.316C110.887 99.316 111.155 99.244 111.387 99.1C111.619 98.948 111.803 98.748 111.939 98.5C112.075 98.244 112.143 97.952 112.143 97.624V96.244C112.143 95.772 112.047 95.432 111.855 95.224C111.663 95.008 111.339 94.9 110.883 94.9C110.619 94.9 110.347 94.936 110.067 95.008C109.787 95.08 109.495 95.192 109.191 95.344C109.071 95.4 108.967 95.42 108.879 95.404C108.791 95.38 108.719 95.332 108.663 95.26C108.615 95.18 108.587 95.096 108.579 95.008C108.579 94.912 108.599 94.82 108.639 94.732C108.687 94.644 108.767 94.58 108.879 94.54C109.231 94.364 109.579 94.24 109.923 94.168C110.275 94.088 110.603 94.048 110.907 94.048C111.427 94.048 111.855 94.132 112.191 94.3C112.527 94.46 112.779 94.712 112.947 95.056C113.115 95.392 113.199 95.824 113.199 96.352V99.52C113.199 99.704 113.155 99.844 113.067 99.94C112.979 100.036 112.851 100.084 112.683 100.084C112.523 100.084 112.395 100.036 112.299 99.94C112.211 99.844 112.167 99.704 112.167 99.52V98.668H112.275C112.211 98.964 112.091 99.22 111.915 99.436C111.739 99.652 111.519 99.82 111.255 99.94C110.999 100.052 110.707 100.108 110.379 100.108ZM111.351 93.316C111.287 93.404 111.211 93.456 111.123 93.472C111.043 93.488 110.963 93.476 110.883 93.436C110.803 93.388 110.747 93.324 110.715 93.244C110.683 93.164 110.691 93.072 110.739 92.968L111.723 91.06C111.779 90.932 111.855 90.852 111.951 90.82C112.047 90.78 112.143 90.772 112.239 90.796C112.343 90.82 112.431 90.868 112.503 90.94C112.575 91.004 112.615 91.088 112.623 91.192C112.639 91.288 112.615 91.388 112.551 91.492L111.351 93.316ZM115.242 100.084C115.058 100.084 114.918 100.036 114.822 99.94C114.726 99.844 114.678 99.704 114.678 99.52V94.624C114.678 94.44 114.726 94.304 114.822 94.216C114.918 94.12 115.05 94.072 115.218 94.072C115.386 94.072 115.514 94.12 115.602 94.216C115.698 94.304 115.746 94.44 115.746 94.624V95.548H115.626C115.754 95.068 115.994 94.704 116.346 94.456C116.698 94.208 117.142 94.068 117.678 94.036C117.806 94.028 117.91 94.06 117.99 94.132C118.07 94.196 118.114 94.308 118.122 94.468C118.13 94.62 118.094 94.744 118.014 94.84C117.934 94.928 117.81 94.98 117.642 94.996L117.426 95.008C116.898 95.064 116.49 95.236 116.202 95.524C115.922 95.812 115.782 96.208 115.782 96.712V99.52C115.782 99.704 115.734 99.844 115.638 99.94C115.55 100.036 115.418 100.084 115.242 100.084ZM119.361 100.06C119.193 100.06 119.061 100.008 118.965 99.904C118.869 99.8 118.821 99.656 118.821 99.472V94.684C118.821 94.492 118.869 94.348 118.965 94.252C119.061 94.148 119.193 94.096 119.361 94.096C119.537 94.096 119.673 94.148 119.769 94.252C119.865 94.348 119.913 94.492 119.913 94.684V99.472C119.913 99.656 119.865 99.8 119.769 99.904C119.681 100.008 119.545 100.06 119.361 100.06ZM119.361 92.8C119.145 92.8 118.973 92.744 118.845 92.632C118.725 92.512 118.665 92.356 118.665 92.164C118.665 91.956 118.725 91.8 118.845 91.696C118.973 91.584 119.145 91.528 119.361 91.528C119.593 91.528 119.765 91.584 119.877 91.696C119.997 91.8 120.057 91.956 120.057 92.164C120.057 92.356 119.997 92.512 119.877 92.632C119.765 92.744 119.593 92.8 119.361 92.8ZM123.912 100.108C123.336 100.108 122.836 99.984 122.412 99.736C121.988 99.488 121.66 99.136 121.428 98.68C121.196 98.224 121.08 97.688 121.08 97.072C121.08 96.608 121.144 96.192 121.272 95.824C121.408 95.448 121.6 95.128 121.848 94.864C122.096 94.6 122.392 94.4 122.736 94.264C123.088 94.12 123.48 94.048 123.912 94.048C124.488 94.048 124.988 94.172 125.412 94.42C125.836 94.668 126.164 95.02 126.396 95.476C126.628 95.924 126.744 96.456 126.744 97.072C126.744 97.536 126.676 97.956 126.54 98.332C126.412 98.708 126.224 99.028 125.976 99.292C125.728 99.556 125.428 99.76 125.076 99.904C124.732 100.04 124.344 100.108 123.912 100.108ZM123.912 99.244C124.264 99.244 124.568 99.16 124.824 98.992C125.088 98.824 125.288 98.58 125.424 98.26C125.568 97.94 125.64 97.544 125.64 97.072C125.64 96.368 125.484 95.832 125.172 95.464C124.86 95.096 124.44 94.912 123.912 94.912C123.568 94.912 123.264 94.996 123 95.164C122.744 95.324 122.544 95.564 122.4 95.884C122.256 96.204 122.184 96.6 122.184 97.072C122.184 97.776 122.34 98.316 122.652 98.692C122.972 99.06 123.392 99.244 123.912 99.244Z" fill="#1A202C"/>
<rect x="87" y="110" width="144" height="30" rx="2" fill="#F3F5F7"/>
<path d="M103.38 130.108C102.82 130.108 102.328 130.036 101.904 129.892C101.488 129.74 101.136 129.52 100.848 129.232C100.56 128.936 100.344 128.572 100.2 128.14C100.056 127.708 99.984 127.212 99.984 126.652V121.96C99.984 121.792 100.024 121.668 100.104 121.588C100.192 121.5 100.316 121.456 100.476 121.456C100.636 121.456 100.756 121.5 100.836 121.588C100.924 121.668 100.968 121.792 100.968 121.96V126.604C100.968 127.484 101.172 128.144 101.58 128.584C101.988 129.016 102.588 129.232 103.38 129.232C104.172 129.232 104.768 129.016 105.168 128.584C105.568 128.144 105.768 127.484 105.768 126.604V121.96C105.768 121.792 105.812 121.668 105.9 121.588C105.988 121.5 106.112 121.456 106.272 121.456C106.424 121.456 106.54 121.5 106.62 121.588C106.708 121.668 106.752 121.792 106.752 121.96V126.652C106.752 127.396 106.624 128.028 106.368 128.548C106.12 129.068 105.744 129.46 105.24 129.724C104.736 129.98 104.116 130.108 103.38 130.108ZM110.49 130.108C110.13 130.108 109.766 130.064 109.398 129.976C109.038 129.888 108.702 129.736 108.39 129.52C108.31 129.464 108.254 129.4 108.222 129.328C108.19 129.248 108.178 129.172 108.186 129.1C108.202 129.02 108.234 128.952 108.282 128.896C108.338 128.84 108.402 128.808 108.474 128.8C108.554 128.784 108.642 128.8 108.738 128.848C109.05 129.04 109.35 129.176 109.638 129.256C109.934 129.328 110.226 129.364 110.514 129.364C110.97 129.364 111.314 129.28 111.546 129.112C111.778 128.944 111.894 128.716 111.894 128.428C111.894 128.204 111.818 128.028 111.666 127.9C111.514 127.764 111.274 127.66 110.946 127.588L109.854 127.348C109.35 127.244 108.974 127.064 108.726 126.808C108.486 126.552 108.366 126.22 108.366 125.812C108.366 125.452 108.458 125.144 108.642 124.888C108.834 124.624 109.102 124.42 109.446 124.276C109.79 124.132 110.19 124.06 110.646 124.06C110.998 124.06 111.33 124.108 111.642 124.204C111.962 124.292 112.25 124.436 112.506 124.636C112.586 124.692 112.638 124.76 112.662 124.84C112.694 124.912 112.698 124.988 112.674 125.068C112.658 125.14 112.622 125.204 112.566 125.26C112.51 125.308 112.442 125.336 112.362 125.344C112.282 125.352 112.198 125.328 112.11 125.272C111.87 125.112 111.626 124.996 111.378 124.924C111.13 124.844 110.886 124.804 110.646 124.804C110.198 124.804 109.858 124.892 109.626 125.068C109.394 125.244 109.278 125.476 109.278 125.764C109.278 125.988 109.35 126.172 109.494 126.316C109.638 126.46 109.862 126.564 110.166 126.628L111.258 126.856C111.778 126.968 112.166 127.148 112.422 127.396C112.686 127.636 112.818 127.964 112.818 128.38C112.818 128.908 112.606 129.328 112.182 129.64C111.758 129.952 111.194 130.108 110.49 130.108ZM116.244 130.108C115.772 130.108 115.38 130.024 115.068 129.856C114.764 129.68 114.532 129.42 114.372 129.076C114.22 128.732 114.144 128.304 114.144 127.792V124.576C114.144 124.408 114.184 124.284 114.264 124.204C114.352 124.124 114.472 124.084 114.624 124.084C114.784 124.084 114.904 124.124 114.984 124.204C115.072 124.284 115.116 124.408 115.116 124.576V127.78C115.116 128.292 115.22 128.676 115.428 128.932C115.644 129.18 115.98 129.304 116.436 129.304C116.932 129.304 117.336 129.136 117.648 128.8C117.96 128.464 118.116 128.024 118.116 127.48V124.576C118.116 124.408 118.156 124.284 118.236 124.204C118.324 124.124 118.448 124.084 118.608 124.084C118.76 124.084 118.876 124.124 118.956 124.204C119.044 124.284 119.088 124.408 119.088 124.576V129.58C119.088 129.916 118.932 130.084 118.62 130.084C118.468 130.084 118.348 130.04 118.26 129.952C118.18 129.864 118.14 129.74 118.14 129.58V128.488L118.296 128.656C118.136 129.128 117.872 129.488 117.504 129.736C117.144 129.984 116.724 130.108 116.244 130.108ZM122.622 130.108C122.222 130.108 121.862 130.032 121.542 129.88C121.23 129.72 120.982 129.504 120.798 129.232C120.614 128.96 120.522 128.656 120.522 128.32C120.522 127.888 120.63 127.548 120.846 127.3C121.07 127.052 121.434 126.876 121.938 126.772C122.45 126.668 123.146 126.616 124.026 126.616H124.566V127.252H124.038C123.39 127.252 122.878 127.284 122.502 127.348C122.134 127.404 121.874 127.504 121.722 127.648C121.578 127.792 121.506 127.996 121.506 128.26C121.506 128.588 121.618 128.856 121.842 129.064C122.074 129.272 122.386 129.376 122.778 129.376C123.098 129.376 123.378 129.3 123.618 129.148C123.866 128.996 124.058 128.788 124.194 128.524C124.338 128.26 124.41 127.956 124.41 127.612V126.244C124.41 125.748 124.31 125.392 124.11 125.176C123.91 124.952 123.582 124.84 123.126 124.84C122.846 124.84 122.566 124.876 122.286 124.948C122.006 125.02 121.71 125.136 121.398 125.296C121.286 125.352 121.19 125.372 121.11 125.356C121.03 125.332 120.966 125.288 120.918 125.224C120.87 125.16 120.842 125.088 120.834 125.008C120.826 124.92 120.842 124.836 120.882 124.756C120.93 124.676 121.002 124.612 121.098 124.564C121.45 124.388 121.798 124.26 122.142 124.18C122.486 124.1 122.814 124.06 123.126 124.06C123.63 124.06 124.046 124.144 124.374 124.312C124.702 124.472 124.946 124.72 125.106 125.056C125.266 125.384 125.346 125.808 125.346 126.328V129.58C125.346 129.74 125.306 129.864 125.226 129.952C125.154 130.04 125.046 130.084 124.902 130.084C124.75 130.084 124.634 130.04 124.554 129.952C124.474 129.864 124.434 129.74 124.434 129.58V128.644H124.542C124.478 128.948 124.354 129.208 124.17 129.424C123.994 129.64 123.774 129.808 123.51 129.928C123.246 130.048 122.95 130.108 122.622 130.108ZM123.534 123.328C123.478 123.408 123.41 123.456 123.33 123.472C123.25 123.48 123.174 123.468 123.102 123.436C123.03 123.396 122.978 123.34 122.946 123.268C122.914 123.196 122.922 123.112 122.97 123.016L123.978 121.06C124.034 120.948 124.106 120.876 124.194 120.844C124.282 120.812 124.37 120.808 124.458 120.832C124.554 120.848 124.634 120.888 124.698 120.952C124.762 121.016 124.798 121.092 124.806 121.18C124.822 121.268 124.798 121.36 124.734 121.456L123.534 123.328ZM127.522 130.084C127.362 130.084 127.238 130.04 127.15 129.952C127.07 129.864 127.03 129.74 127.03 129.58V124.576C127.03 124.416 127.07 124.296 127.15 124.216C127.23 124.128 127.346 124.084 127.498 124.084C127.65 124.084 127.766 124.128 127.846 124.216C127.934 124.296 127.978 124.416 127.978 124.576V125.548H127.858C127.986 125.076 128.23 124.712 128.59 124.456C128.95 124.2 129.394 124.064 129.922 124.048C130.042 124.04 130.138 124.068 130.21 124.132C130.282 124.188 130.322 124.288 130.33 124.432C130.338 124.568 130.306 124.676 130.234 124.756C130.162 124.836 130.05 124.884 129.898 124.9L129.706 124.924C129.162 124.972 128.742 125.148 128.446 125.452C128.158 125.748 128.014 126.156 128.014 126.676V129.58C128.014 129.74 127.97 129.864 127.882 129.952C127.802 130.04 127.682 130.084 127.522 130.084ZM131.69 130.06C131.53 130.06 131.41 130.016 131.33 129.928C131.25 129.832 131.21 129.7 131.21 129.532V124.624C131.21 124.456 131.25 124.328 131.33 124.24C131.41 124.152 131.53 124.108 131.69 124.108C131.842 124.108 131.962 124.152 132.05 124.24C132.138 124.328 132.182 124.456 132.182 124.624V129.532C132.182 129.7 132.138 129.832 132.05 129.928C131.97 130.016 131.85 130.06 131.69 130.06ZM131.69 122.764C131.49 122.764 131.334 122.712 131.222 122.608C131.11 122.496 131.054 122.348 131.054 122.164C131.054 121.972 131.11 121.828 131.222 121.732C131.334 121.628 131.49 121.576 131.69 121.576C131.898 121.576 132.054 121.628 132.158 121.732C132.27 121.828 132.326 121.972 132.326 122.164C132.326 122.348 132.27 122.496 132.158 122.608C132.054 122.712 131.898 122.764 131.69 122.764ZM136.303 130.108C135.735 130.108 135.243 129.984 134.827 129.736C134.411 129.488 134.087 129.14 133.855 128.692C133.631 128.236 133.519 127.7 133.519 127.084C133.519 126.62 133.583 126.204 133.711 125.836C133.839 125.46 134.027 125.14 134.275 124.876C134.523 124.612 134.815 124.412 135.151 124.276C135.495 124.132 135.879 124.06 136.303 124.06C136.871 124.06 137.363 124.184 137.779 124.432C138.195 124.68 138.515 125.032 138.739 125.488C138.971 125.936 139.087 126.468 139.087 127.084C139.087 127.548 139.023 127.964 138.895 128.332C138.767 128.7 138.579 129.02 138.331 129.292C138.083 129.556 137.787 129.76 137.443 129.904C137.107 130.04 136.727 130.108 136.303 130.108ZM136.303 129.328C136.663 129.328 136.979 129.24 137.251 129.064C137.523 128.888 137.731 128.632 137.875 128.296C138.027 127.96 138.103 127.556 138.103 127.084C138.103 126.356 137.939 125.8 137.611 125.416C137.291 125.032 136.855 124.84 136.303 124.84C135.935 124.84 135.615 124.928 135.343 125.104C135.079 125.272 134.871 125.524 134.719 125.86C134.575 126.188 134.503 126.596 134.503 127.084C134.503 127.804 134.667 128.36 134.995 128.752C135.323 129.136 135.759 129.328 136.303 129.328ZM141.375 130C141.231 130 141.119 129.964 141.039 129.892C140.959 129.812 140.919 129.704 140.919 129.568C140.919 129.432 140.959 129.332 141.039 129.268C141.119 129.196 141.231 129.16 141.375 129.16H142.935V122.356H143.451L141.711 123.508C141.607 123.564 141.507 123.588 141.411 123.58C141.323 123.572 141.247 123.54 141.183 123.484C141.127 123.42 141.087 123.348 141.063 123.268C141.039 123.18 141.043 123.092 141.075 123.004C141.107 122.908 141.175 122.828 141.279 122.764L142.935 121.672C143.039 121.608 143.139 121.556 143.235 121.516C143.331 121.476 143.427 121.456 143.523 121.456C143.635 121.456 143.727 121.492 143.799 121.564C143.879 121.628 143.919 121.732 143.919 121.876V129.16H145.359C145.503 129.16 145.615 129.196 145.695 129.268C145.775 129.332 145.815 129.432 145.815 129.568C145.815 129.712 145.775 129.82 145.695 129.892C145.615 129.964 145.503 130 145.359 130H141.375ZM148.139 130C147.963 130 147.831 129.96 147.743 129.88C147.663 129.792 147.623 129.676 147.623 129.532C147.623 129.444 147.643 129.36 147.683 129.28C147.731 129.192 147.795 129.104 147.875 129.016L150.563 126.136C150.971 125.696 151.263 125.292 151.439 124.924C151.623 124.548 151.715 124.168 151.715 123.784C151.715 123.304 151.567 122.94 151.271 122.692C150.983 122.436 150.559 122.308 149.999 122.308C149.639 122.308 149.299 122.364 148.979 122.476C148.659 122.588 148.351 122.76 148.055 122.992C147.951 123.072 147.855 123.108 147.767 123.1C147.687 123.092 147.615 123.06 147.551 123.004C147.487 122.948 147.443 122.876 147.419 122.788C147.395 122.7 147.395 122.612 147.419 122.524C147.451 122.436 147.515 122.356 147.611 122.284C147.923 122.028 148.299 121.824 148.739 121.672C149.179 121.512 149.627 121.432 150.083 121.432C150.651 121.432 151.131 121.52 151.523 121.696C151.915 121.872 152.211 122.132 152.411 122.476C152.611 122.812 152.711 123.224 152.711 123.712C152.711 124.048 152.655 124.38 152.543 124.708C152.439 125.028 152.275 125.356 152.051 125.692C151.835 126.028 151.551 126.376 151.199 126.736L148.643 129.436V129.16H152.687C152.839 129.16 152.951 129.196 153.023 129.268C153.103 129.332 153.143 129.432 153.143 129.568C153.143 129.712 153.103 129.82 153.023 129.892C152.951 129.964 152.839 130 152.687 130H148.139Z" fill="#1A202C"/>
<path d="M156.584 132.244C156.432 132.244 156.312 132.2 156.224 132.112C156.144 132.032 156.104 131.912 156.104 131.752V121.948C156.104 121.78 156.144 121.656 156.224 121.576C156.312 121.496 156.432 121.456 156.584 121.456C156.744 121.456 156.864 121.496 156.944 121.576C157.032 121.656 157.076 121.78 157.076 121.948V131.752C157.076 132.08 156.912 132.244 156.584 132.244Z" fill="#1A202C"/>
<path d="M90.792 165.108C90.416 165.108 90.052 165.076 89.7 165.012C89.348 164.956 89.016 164.868 88.704 164.748C88.392 164.628 88.112 164.48 87.864 164.304C87.76 164.232 87.684 164.144 87.636 164.04C87.596 163.936 87.584 163.836 87.6 163.74C87.624 163.636 87.668 163.548 87.732 163.476C87.804 163.404 87.888 163.36 87.984 163.344C88.08 163.328 88.184 163.36 88.296 163.44C88.664 163.688 89.048 163.868 89.448 163.98C89.856 164.092 90.304 164.148 90.792 164.148C91.496 164.148 92.012 164.02 92.34 163.764C92.676 163.508 92.844 163.172 92.844 162.756C92.844 162.412 92.724 162.144 92.484 161.952C92.244 161.752 91.84 161.596 91.272 161.484L90 161.22C89.248 161.06 88.684 160.796 88.308 160.428C87.94 160.06 87.756 159.568 87.756 158.952C87.756 158.576 87.832 158.236 87.984 157.932C88.136 157.62 88.352 157.352 88.632 157.128C88.912 156.904 89.24 156.732 89.616 156.612C90 156.492 90.424 156.432 90.888 156.432C91.384 156.432 91.848 156.5 92.28 156.636C92.72 156.772 93.116 156.972 93.468 157.236C93.564 157.308 93.628 157.396 93.66 157.5C93.692 157.596 93.696 157.692 93.672 157.788C93.656 157.884 93.612 157.964 93.54 158.028C93.476 158.092 93.392 158.128 93.288 158.136C93.192 158.144 93.084 158.108 92.964 158.028C92.644 157.804 92.316 157.644 91.98 157.548C91.644 157.444 91.276 157.392 90.876 157.392C90.468 157.392 90.112 157.456 89.808 157.584C89.512 157.712 89.28 157.892 89.112 158.124C88.952 158.348 88.872 158.612 88.872 158.916C88.872 159.284 88.984 159.572 89.208 159.78C89.432 159.988 89.808 160.148 90.336 160.26L91.596 160.512C92.396 160.68 92.988 160.94 93.372 161.292C93.764 161.636 93.96 162.1 93.96 162.684C93.96 163.052 93.884 163.384 93.732 163.68C93.588 163.976 93.38 164.232 93.108 164.448C92.836 164.656 92.504 164.82 92.112 164.94C91.72 165.052 91.28 165.108 90.792 165.108ZM97.754 165.108C97.122 165.108 96.578 164.988 96.122 164.748C95.674 164.5 95.326 164.152 95.078 163.704C94.83 163.248 94.706 162.712 94.706 162.096C94.706 161.488 94.826 160.956 95.066 160.5C95.314 160.044 95.65 159.688 96.074 159.432C96.506 159.176 96.998 159.048 97.55 159.048C97.942 159.048 98.294 159.116 98.606 159.252C98.926 159.38 99.198 159.568 99.422 159.816C99.646 160.064 99.814 160.368 99.926 160.728C100.046 161.08 100.106 161.48 100.106 161.928C100.106 162.056 100.066 162.156 99.986 162.228C99.914 162.292 99.806 162.324 99.662 162.324H95.558V161.628H99.386L99.182 161.796C99.182 161.38 99.118 161.028 98.99 160.74C98.87 160.444 98.69 160.22 98.45 160.068C98.218 159.916 97.926 159.84 97.574 159.84C97.19 159.84 96.862 159.932 96.59 160.116C96.318 160.292 96.11 160.544 95.966 160.872C95.822 161.192 95.75 161.564 95.75 161.988V162.06C95.75 162.78 95.922 163.324 96.266 163.692C96.61 164.06 97.106 164.244 97.754 164.244C98.01 164.244 98.27 164.212 98.534 164.148C98.806 164.084 99.066 163.968 99.314 163.8C99.434 163.728 99.542 163.696 99.638 163.704C99.742 163.704 99.826 163.736 99.89 163.8C99.954 163.856 99.994 163.928 100.01 164.016C100.026 164.096 100.014 164.184 99.974 164.28C99.934 164.376 99.858 164.46 99.746 164.532C99.482 164.716 99.166 164.86 98.798 164.964C98.438 165.06 98.09 165.108 97.754 165.108ZM101.764 165.084C101.596 165.084 101.464 165.036 101.368 164.94C101.272 164.844 101.224 164.704 101.224 164.52V159.624C101.224 159.44 101.272 159.304 101.368 159.216C101.464 159.12 101.596 159.072 101.764 159.072C101.932 159.072 102.06 159.12 102.148 159.216C102.244 159.304 102.292 159.44 102.292 159.624V160.608L102.16 160.428C102.328 159.972 102.6 159.628 102.976 159.396C103.36 159.164 103.796 159.048 104.284 159.048C104.756 159.048 105.144 159.132 105.448 159.3C105.752 159.468 105.98 159.724 106.132 160.068C106.284 160.412 106.36 160.848 106.36 161.376V164.52C106.36 164.704 106.312 164.844 106.216 164.94C106.128 165.036 105.996 165.084 105.82 165.084C105.644 165.084 105.508 165.036 105.412 164.94C105.316 164.844 105.268 164.704 105.268 164.52V161.436C105.268 160.916 105.168 160.536 104.968 160.296C104.768 160.056 104.448 159.936 104.008 159.936C103.496 159.936 103.084 160.096 102.772 160.416C102.468 160.728 102.316 161.152 102.316 161.688V164.52C102.316 164.896 102.132 165.084 101.764 165.084ZM108.391 165.084C108.223 165.084 108.091 165.036 107.995 164.94C107.899 164.844 107.851 164.704 107.851 164.52V157.008C107.851 156.824 107.899 156.688 107.995 156.6C108.091 156.504 108.223 156.456 108.391 156.456C108.567 156.456 108.703 156.504 108.799 156.6C108.895 156.688 108.943 156.824 108.943 157.008V160.428H108.787C108.955 159.972 109.227 159.628 109.603 159.396C109.987 159.164 110.423 159.048 110.911 159.048C111.383 159.048 111.771 159.136 112.075 159.312C112.379 159.48 112.607 159.736 112.759 160.08C112.911 160.424 112.987 160.856 112.987 161.376V164.52C112.987 164.704 112.939 164.844 112.843 164.94C112.755 165.036 112.623 165.084 112.447 165.084C112.271 165.084 112.135 165.036 112.039 164.94C111.943 164.844 111.895 164.704 111.895 164.52V161.436C111.895 160.916 111.795 160.536 111.595 160.296C111.395 160.056 111.075 159.936 110.635 159.936C110.123 159.936 109.711 160.096 109.399 160.416C109.095 160.728 108.943 161.152 108.943 161.688V164.52C108.943 164.896 108.759 165.084 108.391 165.084ZM116.339 165.108C115.939 165.108 115.575 165.028 115.247 164.868C114.927 164.708 114.675 164.492 114.491 164.22C114.315 163.948 114.227 163.644 114.227 163.308C114.227 162.876 114.335 162.536 114.551 162.288C114.767 162.04 115.131 161.864 115.643 161.76C116.155 161.648 116.843 161.592 117.707 161.592H118.271V162.288H117.731C117.115 162.288 116.627 162.316 116.267 162.372C115.915 162.428 115.667 162.528 115.523 162.672C115.379 162.808 115.307 163 115.307 163.248C115.307 163.56 115.415 163.816 115.631 164.016C115.855 164.216 116.159 164.316 116.543 164.316C116.847 164.316 117.115 164.244 117.347 164.1C117.579 163.948 117.763 163.748 117.899 163.5C118.035 163.244 118.103 162.952 118.103 162.624V161.244C118.103 160.772 118.007 160.432 117.815 160.224C117.623 160.008 117.299 159.9 116.843 159.9C116.579 159.9 116.307 159.936 116.027 160.008C115.747 160.08 115.455 160.192 115.151 160.344C115.031 160.4 114.927 160.42 114.839 160.404C114.751 160.38 114.679 160.332 114.623 160.26C114.575 160.18 114.547 160.096 114.539 160.008C114.539 159.912 114.559 159.82 114.599 159.732C114.647 159.644 114.727 159.58 114.839 159.54C115.191 159.364 115.539 159.24 115.883 159.168C116.235 159.088 116.563 159.048 116.867 159.048C117.387 159.048 117.815 159.132 118.151 159.3C118.487 159.46 118.739 159.712 118.907 160.056C119.075 160.392 119.159 160.824 119.159 161.352V164.52C119.159 164.704 119.115 164.844 119.027 164.94C118.939 165.036 118.811 165.084 118.643 165.084C118.483 165.084 118.355 165.036 118.259 164.94C118.171 164.844 118.127 164.704 118.127 164.52V163.668H118.235C118.171 163.964 118.051 164.22 117.875 164.436C117.699 164.652 117.479 164.82 117.215 164.94C116.959 165.052 116.667 165.108 116.339 165.108Z" fill="#1A202C"/>
<rect x="87" y="175" width="144" height="30" rx="2" fill="#F3F5F7"/>
<circle cx="101.5" cy="190.5" r="2.5" fill="#1A202C"/>
<circle cx="112.5" cy="190.5" r="2.5" fill="#1A202C"/>
<circle cx="123.5" cy="190.5" r="2.5" fill="#1A202C"/>
<circle cx="134.5" cy="190.5" r="2.5" fill="#1A202C"/>
<circle cx="145.5" cy="190.5" r="2.5" fill="#1A202C"/>
<circle cx="156.5" cy="190.5" r="2.5" fill="#1A202C"/>
<circle cx="167.5" cy="190.5" r="2.5" fill="#1A202C"/>
<circle cx="178.5" cy="190.5" r="2.5" fill="#1A202C"/>
<circle cx="189.5" cy="190.5" r="2.5" fill="#1A202C"/>
<path d="M78.0645 277.18C76.6645 277.18 75.4645 276.887 74.4645 276.3C73.4645 275.713 72.6911 274.88 72.1445 273.8C71.6111 272.707 71.3445 271.42 71.3445 269.94C71.3445 268.833 71.4978 267.84 71.8045 266.96C72.1111 266.067 72.5511 265.307 73.1245 264.68C73.6978 264.04 74.3978 263.553 75.2245 263.22C76.0645 262.887 77.0111 262.72 78.0645 262.72C78.8645 262.72 79.6311 262.833 80.3645 263.06C81.1111 263.287 81.7511 263.607 82.2845 264.02C82.4978 264.167 82.6378 264.333 82.7045 264.52C82.7711 264.707 82.7778 264.887 82.7245 265.06C82.6845 265.22 82.5978 265.36 82.4645 265.48C82.3445 265.587 82.1911 265.647 82.0045 265.66C81.8178 265.66 81.6178 265.587 81.4045 265.44C80.9378 265.08 80.4245 264.82 79.8645 264.66C79.3178 264.487 78.7311 264.4 78.1045 264.4C77.0778 264.4 76.2045 264.62 75.4845 265.06C74.7778 265.487 74.2378 266.113 73.8645 266.94C73.5045 267.753 73.3245 268.753 73.3245 269.94C73.3245 271.113 73.5045 272.12 73.8645 272.96C74.2378 273.787 74.7778 274.42 75.4845 274.86C76.2045 275.287 77.0778 275.5 78.1045 275.5C78.7311 275.5 79.3245 275.413 79.8845 275.24C80.4578 275.067 80.9845 274.8 81.4645 274.44C81.6778 274.293 81.8711 274.227 82.0445 274.24C82.2311 274.253 82.3845 274.313 82.5045 274.42C82.6245 274.513 82.7045 274.647 82.7445 274.82C82.7978 274.98 82.7978 275.147 82.7445 275.32C82.6911 275.493 82.5711 275.647 82.3845 275.78C81.8378 276.247 81.1845 276.6 80.4245 276.84C79.6778 277.067 78.8911 277.18 78.0645 277.18ZM85.6605 277.14C85.3539 277.14 85.1205 277.06 84.9605 276.9C84.8005 276.74 84.7205 276.507 84.7205 276.2V268.04C84.7205 267.733 84.8005 267.507 84.9605 267.36C85.1205 267.2 85.3405 267.12 85.6205 267.12C85.9005 267.12 86.1139 267.2 86.2605 267.36C86.4205 267.507 86.5005 267.733 86.5005 268.04V269.58H86.3005C86.5139 268.78 86.9139 268.173 87.5005 267.76C88.0872 267.347 88.8272 267.113 89.7205 267.06C89.9339 267.047 90.1072 267.1 90.2405 267.22C90.3739 267.327 90.4472 267.513 90.4605 267.78C90.4739 268.033 90.4139 268.24 90.2805 268.4C90.1472 268.547 89.9405 268.633 89.6605 268.66L89.3005 268.68C88.4205 268.773 87.7405 269.06 87.2605 269.54C86.7939 270.02 86.5605 270.68 86.5605 271.52V276.2C86.5605 276.507 86.4805 276.74 86.3205 276.9C86.1739 277.06 85.9539 277.14 85.6605 277.14ZM92.5252 277.1C92.2452 277.1 92.0252 277.013 91.8652 276.84C91.7052 276.667 91.6252 276.427 91.6252 276.12V268.14C91.6252 267.82 91.7052 267.58 91.8652 267.42C92.0252 267.247 92.2452 267.16 92.5252 267.16C92.8186 267.16 93.0452 267.247 93.2052 267.42C93.3652 267.58 93.4452 267.82 93.4452 268.14V276.12C93.4452 276.427 93.3652 276.667 93.2052 276.84C93.0586 277.013 92.8319 277.1 92.5252 277.1ZM92.5252 265C92.1652 265 91.8786 264.907 91.6652 264.72C91.4652 264.52 91.3652 264.26 91.3652 263.94C91.3652 263.593 91.4652 263.333 91.6652 263.16C91.8786 262.973 92.1652 262.88 92.5252 262.88C92.9119 262.88 93.1986 262.973 93.3852 263.16C93.5852 263.333 93.6852 263.593 93.6852 263.94C93.6852 264.26 93.5852 264.52 93.3852 264.72C93.1986 264.907 92.9119 265 92.5252 265ZM100.471 277.18C99.418 277.18 98.5113 276.98 97.7513 276.58C97.0047 276.167 96.4247 275.587 96.0113 274.84C95.598 274.08 95.3913 273.187 95.3913 272.16C95.3913 271.147 95.5913 270.26 95.9913 269.5C96.4047 268.74 96.9647 268.147 97.6713 267.72C98.3913 267.293 99.2113 267.08 100.131 267.08C100.785 267.08 101.371 267.193 101.891 267.42C102.425 267.633 102.878 267.947 103.251 268.36C103.625 268.773 103.905 269.28 104.091 269.88C104.291 270.467 104.391 271.133 104.391 271.88C104.391 272.093 104.325 272.26 104.191 272.38C104.071 272.487 103.891 272.54 103.651 272.54H96.8113V271.38H103.191L102.851 271.66C102.851 270.967 102.745 270.38 102.531 269.9C102.331 269.407 102.031 269.033 101.631 268.78C101.245 268.527 100.758 268.4 100.171 268.4C99.5313 268.4 98.9847 268.553 98.5313 268.86C98.078 269.153 97.7313 269.573 97.4913 270.12C97.2513 270.653 97.1313 271.273 97.1313 271.98V272.1C97.1313 273.3 97.418 274.207 97.9913 274.82C98.5647 275.433 99.3913 275.74 100.471 275.74C100.898 275.74 101.331 275.687 101.771 275.58C102.225 275.473 102.658 275.28 103.071 275C103.271 274.88 103.451 274.827 103.611 274.84C103.785 274.84 103.925 274.893 104.031 275C104.138 275.093 104.205 275.213 104.231 275.36C104.258 275.493 104.238 275.64 104.171 275.8C104.105 275.96 103.978 276.1 103.791 276.22C103.351 276.527 102.825 276.767 102.211 276.94C101.611 277.1 101.031 277.18 100.471 277.18ZM114.43 277.18C113.83 277.18 113.223 277.113 112.61 276.98C112.01 276.833 111.443 276.587 110.91 276.24C110.763 276.147 110.656 276.033 110.59 275.9C110.536 275.753 110.516 275.613 110.53 275.48C110.556 275.333 110.616 275.207 110.71 275.1C110.803 274.993 110.916 274.933 111.05 274.92C111.196 274.893 111.35 274.927 111.51 275.02C112.03 275.313 112.53 275.52 113.01 275.64C113.503 275.76 113.99 275.82 114.47 275.82C115.203 275.82 115.756 275.687 116.13 275.42C116.503 275.153 116.69 274.8 116.69 274.36C116.69 273.987 116.563 273.7 116.31 273.5C116.07 273.287 115.69 273.127 115.17 273.02L113.31 272.64C112.483 272.453 111.856 272.147 111.43 271.72C111.016 271.28 110.81 270.72 110.81 270.04C110.81 269.44 110.97 268.92 111.29 268.48C111.623 268.027 112.083 267.68 112.67 267.44C113.256 267.2 113.93 267.08 114.69 267.08C115.276 267.08 115.83 267.16 116.35 267.32C116.883 267.467 117.363 267.693 117.79 268C117.95 268.093 118.05 268.213 118.09 268.36C118.143 268.493 118.15 268.633 118.11 268.78C118.083 268.913 118.023 269.027 117.93 269.12C117.836 269.213 117.716 269.273 117.57 269.3C117.423 269.313 117.263 269.273 117.09 269.18C116.703 268.913 116.303 268.727 115.89 268.62C115.49 268.5 115.09 268.44 114.69 268.44C113.97 268.44 113.423 268.58 113.05 268.86C112.69 269.14 112.51 269.507 112.51 269.96C112.51 270.307 112.616 270.593 112.83 270.82C113.056 271.047 113.41 271.213 113.89 271.32L115.75 271.7C116.616 271.887 117.27 272.187 117.71 272.6C118.15 273 118.37 273.547 118.37 274.24C118.37 275.147 118.01 275.867 117.29 276.4C116.583 276.92 115.63 277.18 114.43 277.18ZM123.818 277.18C123.031 277.18 122.371 277.033 121.838 276.74C121.318 276.447 120.931 276.013 120.678 275.44C120.424 274.867 120.298 274.147 120.298 273.28V268.04C120.298 267.733 120.371 267.507 120.518 267.36C120.678 267.2 120.904 267.12 121.198 267.12C121.491 267.12 121.718 267.2 121.878 267.36C122.038 267.507 122.118 267.733 122.118 268.04V273.28C122.118 274.107 122.284 274.72 122.618 275.12C122.951 275.507 123.478 275.7 124.198 275.7C124.998 275.7 125.644 275.433 126.138 274.9C126.644 274.367 126.898 273.66 126.898 272.78V268.04C126.898 267.733 126.971 267.507 127.118 267.36C127.278 267.2 127.504 267.12 127.798 267.12C128.091 267.12 128.318 267.2 128.478 267.36C128.638 267.507 128.718 267.733 128.718 268.04V276.2C128.718 276.827 128.424 277.14 127.838 277.14C127.544 277.14 127.318 277.06 127.158 276.9C127.011 276.74 126.938 276.507 126.938 276.2V274.46L127.198 274.8C126.931 275.573 126.498 276.167 125.898 276.58C125.311 276.98 124.618 277.18 123.818 277.18ZM134.346 277.18C133.68 277.18 133.073 277.047 132.526 276.78C131.993 276.513 131.573 276.153 131.266 275.7C130.973 275.247 130.826 274.74 130.826 274.18C130.826 273.46 131.006 272.893 131.366 272.48C131.726 272.067 132.333 271.773 133.186 271.6C134.04 271.413 135.186 271.32 136.626 271.32H137.566V272.48H136.666C135.64 272.48 134.826 272.527 134.226 272.62C133.64 272.713 133.226 272.88 132.986 273.12C132.746 273.347 132.626 273.667 132.626 274.08C132.626 274.6 132.806 275.027 133.166 275.36C133.54 275.693 134.046 275.86 134.686 275.86C135.193 275.86 135.64 275.74 136.026 275.5C136.413 275.247 136.72 274.913 136.946 274.5C137.173 274.073 137.286 273.587 137.286 273.04V270.74C137.286 269.953 137.126 269.387 136.806 269.04C136.486 268.68 135.946 268.5 135.186 268.5C134.746 268.5 134.293 268.56 133.826 268.68C133.36 268.8 132.873 268.987 132.366 269.24C132.166 269.333 131.993 269.367 131.846 269.34C131.7 269.3 131.58 269.22 131.486 269.1C131.406 268.967 131.36 268.827 131.346 268.68C131.346 268.52 131.38 268.367 131.446 268.22C131.526 268.073 131.66 267.967 131.846 267.9C132.433 267.607 133.013 267.4 133.586 267.28C134.173 267.147 134.72 267.08 135.226 267.08C136.093 267.08 136.806 267.22 137.366 267.5C137.926 267.767 138.346 268.187 138.626 268.76C138.906 269.32 139.046 270.04 139.046 270.92V276.2C139.046 276.507 138.973 276.74 138.826 276.9C138.68 277.06 138.466 277.14 138.186 277.14C137.92 277.14 137.706 277.06 137.546 276.9C137.4 276.74 137.326 276.507 137.326 276.2V274.78H137.506C137.4 275.273 137.2 275.7 136.906 276.06C136.613 276.42 136.246 276.7 135.806 276.9C135.38 277.087 134.893 277.18 134.346 277.18ZM150.545 277.18C149.559 277.18 148.705 276.973 147.985 276.56C147.265 276.133 146.712 275.54 146.325 274.78C145.939 274.007 145.745 273.1 145.745 272.06C145.745 271.287 145.852 270.593 146.065 269.98C146.292 269.367 146.612 268.847 147.025 268.42C147.439 267.98 147.939 267.647 148.525 267.42C149.125 267.193 149.799 267.08 150.545 267.08C151.012 267.08 151.505 267.153 152.025 267.3C152.545 267.447 153.025 267.687 153.465 268.02C153.612 268.127 153.705 268.253 153.745 268.4C153.785 268.533 153.785 268.673 153.745 268.82C153.719 268.967 153.652 269.093 153.545 269.2C153.452 269.293 153.325 269.347 153.165 269.36C153.019 269.373 152.859 269.327 152.685 269.22C152.365 268.98 152.025 268.807 151.665 268.7C151.319 268.593 150.985 268.54 150.665 268.54C150.172 268.54 149.732 268.62 149.345 268.78C148.972 268.94 148.652 269.173 148.385 269.48C148.132 269.773 147.939 270.14 147.805 270.58C147.672 271.007 147.605 271.507 147.605 272.08C147.605 273.213 147.872 274.107 148.405 274.76C148.939 275.4 149.692 275.72 150.665 275.72C150.985 275.72 151.319 275.673 151.665 275.58C152.012 275.473 152.352 275.3 152.685 275.06C152.859 274.953 153.019 274.913 153.165 274.94C153.312 274.953 153.432 275.013 153.525 275.12C153.632 275.213 153.699 275.333 153.725 275.48C153.752 275.613 153.739 275.753 153.685 275.9C153.645 276.047 153.552 276.167 153.405 276.26C152.979 276.58 152.512 276.813 152.005 276.96C151.499 277.107 151.012 277.18 150.545 277.18ZM159.167 277.18C158.207 277.18 157.373 276.973 156.667 276.56C155.96 276.147 155.413 275.56 155.027 274.8C154.64 274.04 154.447 273.147 154.447 272.12C154.447 271.347 154.553 270.653 154.767 270.04C154.993 269.413 155.313 268.88 155.727 268.44C156.14 268 156.633 267.667 157.207 267.44C157.793 267.2 158.447 267.08 159.167 267.08C160.127 267.08 160.96 267.287 161.667 267.7C162.373 268.113 162.92 268.7 163.307 269.46C163.693 270.207 163.887 271.093 163.887 272.12C163.887 272.893 163.773 273.593 163.547 274.22C163.333 274.847 163.02 275.38 162.607 275.82C162.193 276.26 161.693 276.6 161.107 276.84C160.533 277.067 159.887 277.18 159.167 277.18ZM159.167 275.74C159.753 275.74 160.26 275.6 160.687 275.32C161.127 275.04 161.46 274.633 161.687 274.1C161.927 273.567 162.047 272.907 162.047 272.12C162.047 270.947 161.787 270.053 161.267 269.44C160.747 268.827 160.047 268.52 159.167 268.52C158.593 268.52 158.087 268.66 157.647 268.94C157.22 269.207 156.887 269.607 156.647 270.14C156.407 270.673 156.287 271.333 156.287 272.12C156.287 273.293 156.547 274.193 157.067 274.82C157.6 275.433 158.3 275.74 159.167 275.74ZM166.718 277.14C166.438 277.14 166.218 277.06 166.058 276.9C165.898 276.74 165.818 276.507 165.818 276.2V268.04C165.818 267.733 165.898 267.507 166.058 267.36C166.218 267.2 166.438 267.12 166.718 267.12C166.998 267.12 167.212 267.2 167.358 267.36C167.518 267.507 167.598 267.733 167.598 268.04V269.68L167.378 269.38C167.658 268.62 168.112 268.047 168.738 267.66C169.378 267.273 170.105 267.08 170.918 267.08C171.705 267.08 172.352 267.22 172.858 267.5C173.365 267.78 173.745 268.207 173.998 268.78C174.252 269.353 174.378 270.08 174.378 270.96V276.2C174.378 276.507 174.298 276.74 174.138 276.9C173.992 277.06 173.772 277.14 173.478 277.14C173.185 277.14 172.958 277.06 172.798 276.9C172.638 276.74 172.558 276.507 172.558 276.2V271.06C172.558 270.193 172.392 269.56 172.058 269.16C171.725 268.76 171.192 268.56 170.458 268.56C169.605 268.56 168.918 268.827 168.398 269.36C167.892 269.88 167.638 270.587 167.638 271.48V276.2C167.638 276.827 167.332 277.14 166.718 277.14ZM180.904 277.18C180.117 277.18 179.457 277.04 178.924 276.76C178.404 276.48 178.01 276.073 177.744 275.54C177.49 275.007 177.364 274.353 177.364 273.58V268.66H176.084C175.844 268.66 175.657 268.6 175.524 268.48C175.39 268.347 175.324 268.173 175.324 267.96C175.324 267.733 175.39 267.56 175.524 267.44C175.657 267.32 175.844 267.26 176.084 267.26H177.364V265.08C177.364 264.773 177.444 264.547 177.604 264.4C177.764 264.24 177.99 264.16 178.284 264.16C178.577 264.16 178.797 264.24 178.944 264.4C179.104 264.547 179.184 264.773 179.184 265.08V267.26H181.604C181.857 267.26 182.05 267.32 182.184 267.44C182.317 267.56 182.384 267.733 182.384 267.96C182.384 268.173 182.317 268.347 182.184 268.48C182.05 268.6 181.857 268.66 181.604 268.66H179.184V273.42C179.184 274.153 179.337 274.707 179.644 275.08C179.95 275.453 180.457 275.64 181.164 275.64C181.417 275.64 181.63 275.62 181.804 275.58C181.977 275.527 182.13 275.5 182.264 275.5C182.384 275.487 182.484 275.527 182.564 275.62C182.657 275.713 182.704 275.887 182.704 276.14C182.704 276.327 182.67 276.5 182.604 276.66C182.55 276.807 182.437 276.907 182.264 276.96C182.104 277.013 181.89 277.06 181.624 277.1C181.357 277.153 181.117 277.18 180.904 277.18ZM186.731 277.18C186.065 277.18 185.458 277.047 184.911 276.78C184.378 276.513 183.958 276.153 183.651 275.7C183.358 275.247 183.211 274.74 183.211 274.18C183.211 273.46 183.391 272.893 183.751 272.48C184.111 272.067 184.718 271.773 185.571 271.6C186.425 271.413 187.571 271.32 189.011 271.32H189.951V272.48H189.051C188.025 272.48 187.211 272.527 186.611 272.62C186.025 272.713 185.611 272.88 185.371 273.12C185.131 273.347 185.011 273.667 185.011 274.08C185.011 274.6 185.191 275.027 185.551 275.36C185.925 275.693 186.431 275.86 187.071 275.86C187.578 275.86 188.025 275.74 188.411 275.5C188.798 275.247 189.105 274.913 189.331 274.5C189.558 274.073 189.671 273.587 189.671 273.04V270.74C189.671 269.953 189.511 269.387 189.191 269.04C188.871 268.68 188.331 268.5 187.571 268.5C187.131 268.5 186.678 268.56 186.211 268.68C185.745 268.8 185.258 268.987 184.751 269.24C184.551 269.333 184.378 269.367 184.231 269.34C184.085 269.3 183.965 269.22 183.871 269.1C183.791 268.967 183.745 268.827 183.731 268.68C183.731 268.52 183.765 268.367 183.831 268.22C183.911 268.073 184.045 267.967 184.231 267.9C184.818 267.607 185.398 267.4 185.971 267.28C186.558 267.147 187.105 267.08 187.611 267.08C188.478 267.08 189.191 267.22 189.751 267.5C190.311 267.767 190.731 268.187 191.011 268.76C191.291 269.32 191.431 270.04 191.431 270.92V276.2C191.431 276.507 191.358 276.74 191.211 276.9C191.065 277.06 190.851 277.14 190.571 277.14C190.305 277.14 190.091 277.06 189.931 276.9C189.785 276.74 189.711 276.507 189.711 276.2V274.78H189.891C189.785 275.273 189.585 275.7 189.291 276.06C188.998 276.42 188.631 276.7 188.191 276.9C187.765 277.087 187.278 277.18 186.731 277.18Z" fill="white"/>
<circle cx="31" cy="31" r="28" fill="#00ACFF" stroke="#0D121F" stroke-width="6"/>
<path d="M28.0247 39C27.6887 39 27.4247 38.904 27.2327 38.712C27.0407 38.52 26.9447 38.264 26.9447 37.944C26.9447 37.608 27.0407 37.352 27.2327 37.176C27.4247 37 27.6887 36.912 28.0247 36.912H30.9527V24.144H32.2007L28.6967 26.376C28.4407 26.52 28.2007 26.576 27.9767 26.544C27.7687 26.512 27.5847 26.424 27.4247 26.28C27.2807 26.136 27.1767 25.96 27.1127 25.752C27.0647 25.544 27.0807 25.328 27.1607 25.104C27.2567 24.88 27.4247 24.696 27.6647 24.552L30.9767 22.464C31.2487 22.304 31.5047 22.176 31.7447 22.08C32.0007 21.968 32.2407 21.912 32.4647 21.912C32.7367 21.912 32.9607 21.992 33.1367 22.152C33.3287 22.296 33.4247 22.544 33.4247 22.896V36.912H36.1127C36.4647 36.912 36.7367 37 36.9287 37.176C37.1207 37.352 37.2167 37.608 37.2167 37.944C37.2167 38.28 37.1207 38.544 36.9287 38.736C36.7367 38.912 36.4647 39 36.1127 39H28.0247Z" fill="white"/>
</svg>
