<svg width="230" height="315" viewBox="0 0 230 315" fill="none" xmlns="http://www.w3.org/2000/svg">
<rect x="30" y="31" width="200" height="200" rx="16" fill="#F3F5F7"/>
<path d="M62 75C62 68.3726 67.3726 63 74 63H230V231H62V75Z" fill="white"/>
<path d="M106 97C100.49 97 96 101.49 96 107C96 112.51 100.49 117 106 117C111.51 117 116 112.51 116 107C116 101.49 111.51 97 106 97ZM110.78 104.7L105.11 110.37C104.97 110.51 104.78 110.59 104.58 110.59C104.38 110.59 104.19 110.51 104.05 110.37L101.22 107.54C100.93 107.25 100.93 106.77 101.22 106.48C101.51 106.19 101.99 106.19 102.28 106.48L104.58 108.78L109.72 103.64C110.01 103.35 110.49 103.35 110.78 103.64C111.07 103.93 111.07 104.4 110.78 104.7Z" fill="#9CD323"/>
<rect x="130" y="95" width="100" height="5" rx="2.5" fill="#C3D4E9"/>
<rect x="130" y="112" width="100" height="5" rx="2.5" fill="#C3D4E9"/>
<rect x="130" y="129" width="100" height="5" rx="2.5" fill="#C3D4E9"/>
<path d="M106 160C100.49 160 96 164.49 96 170C96 175.51 100.49 180 106 180C111.51 180 116 175.51 116 170C116 164.49 111.51 160 106 160ZM110.78 167.7L105.11 173.37C104.97 173.51 104.78 173.59 104.58 173.59C104.38 173.59 104.19 173.51 104.05 173.37L101.22 170.54C100.93 170.25 100.93 169.77 101.22 169.48C101.51 169.19 101.99 169.19 102.28 169.48L104.58 171.78L109.72 166.64C110.01 166.35 110.49 166.35 110.78 166.64C111.07 166.93 111.07 167.4 110.78 167.7Z" fill="#9CD323"/>
<rect x="130" y="158" width="100" height="5" rx="2.5" fill="#C3D4E9"/>
<rect x="130" y="175" width="100" height="5" rx="2.5" fill="#C3D4E9"/>
<rect x="130" y="192" width="100" height="5" rx="2.5" fill="#C3D4E9"/>
<path d="M82.4753 277.14C82.1686 277.14 81.9353 277.06 81.7753 276.9C81.6153 276.727 81.5353 276.487 81.5353 276.18V264.48H77.1553C76.902 264.48 76.702 264.413 76.5553 264.28C76.4086 264.133 76.3353 263.933 76.3353 263.68C76.3353 263.427 76.4086 263.233 76.5553 263.1C76.702 262.967 76.902 262.9 77.1553 262.9H87.7753C88.042 262.9 88.242 262.967 88.3753 263.1C88.522 263.233 88.5953 263.427 88.5953 263.68C88.5953 263.933 88.522 264.133 88.3753 264.28C88.242 264.413 88.042 264.48 87.7753 264.48H83.3953V276.18C83.3953 276.487 83.3153 276.727 83.1553 276.9C83.0086 277.06 82.782 277.14 82.4753 277.14ZM91.6189 277.18C90.8322 277.18 90.1722 277.033 89.6389 276.74C89.1189 276.447 88.7322 276.013 88.4789 275.44C88.2256 274.867 88.0989 274.147 88.0989 273.28V268.04C88.0989 267.733 88.1722 267.507 88.3189 267.36C88.4789 267.2 88.7056 267.12 88.9989 267.12C89.2922 267.12 89.5189 267.2 89.6789 267.36C89.8389 267.507 89.9189 267.733 89.9189 268.04V273.28C89.9189 274.107 90.0856 274.72 90.4189 275.12C90.7522 275.507 91.2789 275.7 91.9989 275.7C92.7989 275.7 93.4456 275.433 93.9389 274.9C94.4456 274.367 94.6989 273.66 94.6989 272.78V268.04C94.6989 267.733 94.7722 267.507 94.9189 267.36C95.0789 267.2 95.3056 267.12 95.5989 267.12C95.8922 267.12 96.1189 267.2 96.2789 267.36C96.4389 267.507 96.5189 267.733 96.5189 268.04V276.2C96.5189 276.827 96.2256 277.14 95.6389 277.14C95.3456 277.14 95.1189 277.06 94.9589 276.9C94.8122 276.74 94.7389 276.507 94.7389 276.2V274.46L94.9989 274.8C94.7322 275.573 94.2989 276.167 93.6989 276.58C93.1122 276.98 92.4189 277.18 91.6189 277.18ZM102.768 277.18C101.914 277.18 101.161 276.98 100.508 276.58C99.8675 276.167 99.3675 275.58 99.0075 274.82C98.6475 274.047 98.4675 273.147 98.4675 272.12C98.4675 271.08 98.6408 270.187 98.9875 269.44C99.3475 268.68 99.8475 268.1 100.488 267.7C101.141 267.287 101.901 267.08 102.768 267.08C103.634 267.08 104.381 267.3 105.008 267.74C105.634 268.167 106.054 268.74 106.268 269.46H106.048V263.68C106.048 263.373 106.121 263.147 106.268 263C106.428 262.84 106.654 262.76 106.948 262.76C107.241 262.76 107.468 262.84 107.628 263C107.788 263.147 107.868 263.373 107.868 263.68V276.2C107.868 276.507 107.788 276.74 107.628 276.9C107.468 277.06 107.241 277.14 106.948 277.14C106.668 277.14 106.448 277.06 106.288 276.9C106.128 276.74 106.048 276.507 106.048 276.2V274.38L106.268 274.74C106.068 275.487 105.648 276.08 105.008 276.52C104.381 276.96 103.634 277.18 102.768 277.18ZM103.188 275.74C103.774 275.74 104.281 275.6 104.708 275.32C105.148 275.04 105.481 274.633 105.708 274.1C105.948 273.567 106.068 272.907 106.068 272.12C106.068 270.947 105.808 270.053 105.288 269.44C104.768 268.827 104.068 268.52 103.188 268.52C102.614 268.52 102.108 268.66 101.668 268.94C101.241 269.207 100.908 269.607 100.668 270.14C100.428 270.673 100.308 271.333 100.308 272.12C100.308 273.293 100.568 274.193 101.088 274.82C101.621 275.433 102.321 275.74 103.188 275.74ZM114.526 277.18C113.566 277.18 112.732 276.973 112.026 276.56C111.319 276.147 110.772 275.56 110.386 274.8C109.999 274.04 109.806 273.147 109.806 272.12C109.806 271.347 109.912 270.653 110.126 270.04C110.352 269.413 110.672 268.88 111.086 268.44C111.499 268 111.992 267.667 112.566 267.44C113.152 267.2 113.806 267.08 114.526 267.08C115.486 267.08 116.319 267.287 117.026 267.7C117.732 268.113 118.279 268.7 118.666 269.46C119.052 270.207 119.246 271.093 119.246 272.12C119.246 272.893 119.132 273.593 118.906 274.22C118.692 274.847 118.379 275.38 117.966 275.82C117.552 276.26 117.052 276.6 116.466 276.84C115.892 277.067 115.246 277.18 114.526 277.18ZM114.526 275.74C115.112 275.74 115.619 275.6 116.046 275.32C116.486 275.04 116.819 274.633 117.046 274.1C117.286 273.567 117.406 272.907 117.406 272.12C117.406 270.947 117.146 270.053 116.626 269.44C116.106 268.827 115.406 268.52 114.526 268.52C113.952 268.52 113.446 268.66 113.006 268.94C112.579 269.207 112.246 269.607 112.006 270.14C111.766 270.673 111.646 271.333 111.646 272.12C111.646 273.293 111.906 274.193 112.426 274.82C112.959 275.433 113.659 275.74 114.526 275.74ZM126.892 280.74C126.612 280.74 126.392 280.66 126.232 280.5C126.072 280.34 125.992 280.113 125.992 279.82V268.04C125.992 267.733 126.072 267.507 126.232 267.36C126.392 267.2 126.612 267.12 126.892 267.12C127.185 267.12 127.405 267.2 127.552 267.36C127.712 267.507 127.792 267.733 127.792 268.04V269.86L127.572 269.5C127.785 268.767 128.205 268.18 128.832 267.74C129.459 267.3 130.212 267.08 131.092 267.08C131.959 267.08 132.712 267.287 133.352 267.7C133.992 268.1 134.492 268.68 134.852 269.44C135.212 270.187 135.392 271.08 135.392 272.12C135.392 273.147 135.212 274.047 134.852 274.82C134.505 275.58 134.005 276.167 133.352 276.58C132.712 276.98 131.959 277.18 131.092 277.18C130.225 277.18 129.479 276.96 128.852 276.52C128.225 276.08 127.805 275.5 127.592 274.78H127.812V279.82C127.812 280.113 127.732 280.34 127.572 280.5C127.412 280.66 127.185 280.74 126.892 280.74ZM130.672 275.74C131.245 275.74 131.745 275.6 132.172 275.32C132.612 275.04 132.952 274.633 133.192 274.1C133.432 273.567 133.552 272.907 133.552 272.12C133.552 270.947 133.292 270.053 132.772 269.44C132.252 268.827 131.552 268.52 130.672 268.52C130.085 268.52 129.572 268.66 129.132 268.94C128.705 269.207 128.372 269.607 128.132 270.14C127.905 270.673 127.792 271.333 127.792 272.12C127.792 273.293 128.052 274.193 128.572 274.82C129.092 275.433 129.792 275.74 130.672 275.74ZM138.27 277.14C137.964 277.14 137.73 277.06 137.57 276.9C137.41 276.74 137.33 276.507 137.33 276.2V268.04C137.33 267.733 137.41 267.507 137.57 267.36C137.73 267.2 137.95 267.12 138.23 267.12C138.51 267.12 138.724 267.2 138.87 267.36C139.03 267.507 139.11 267.733 139.11 268.04V269.58H138.91C139.124 268.78 139.524 268.173 140.11 267.76C140.697 267.347 141.437 267.113 142.33 267.06C142.544 267.047 142.717 267.1 142.85 267.22C142.984 267.327 143.057 267.513 143.07 267.78C143.084 268.033 143.024 268.24 142.89 268.4C142.757 268.547 142.55 268.633 142.27 268.66L141.91 268.68C141.03 268.773 140.35 269.06 139.87 269.54C139.404 270.02 139.17 270.68 139.17 271.52V276.2C139.17 276.507 139.09 276.74 138.93 276.9C138.784 277.06 138.564 277.14 138.27 277.14ZM148.238 277.18C147.278 277.18 146.445 276.973 145.738 276.56C145.032 276.147 144.485 275.56 144.098 274.8C143.712 274.04 143.518 273.147 143.518 272.12C143.518 271.347 143.625 270.653 143.838 270.04C144.065 269.413 144.385 268.88 144.798 268.44C145.212 268 145.705 267.667 146.278 267.44C146.865 267.2 147.518 267.08 148.238 267.08C149.198 267.08 150.032 267.287 150.738 267.7C151.445 268.113 151.992 268.7 152.378 269.46C152.765 270.207 152.958 271.093 152.958 272.12C152.958 272.893 152.845 273.593 152.618 274.22C152.405 274.847 152.092 275.38 151.678 275.82C151.265 276.26 150.765 276.6 150.178 276.84C149.605 277.067 148.958 277.18 148.238 277.18ZM148.238 275.74C148.825 275.74 149.332 275.6 149.758 275.32C150.198 275.04 150.532 274.633 150.758 274.1C150.998 273.567 151.118 272.907 151.118 272.12C151.118 270.947 150.858 270.053 150.338 269.44C149.818 268.827 149.118 268.52 148.238 268.52C147.665 268.52 147.158 268.66 146.718 268.94C146.292 269.207 145.958 269.607 145.718 270.14C145.478 270.673 145.358 271.333 145.358 272.12C145.358 273.293 145.618 274.193 146.138 274.82C146.672 275.433 147.372 275.74 148.238 275.74ZM155.79 277.14C155.51 277.14 155.29 277.06 155.13 276.9C154.97 276.74 154.89 276.507 154.89 276.2V268.04C154.89 267.733 154.97 267.507 155.13 267.36C155.29 267.2 155.51 267.12 155.79 267.12C156.07 267.12 156.283 267.2 156.43 267.36C156.59 267.507 156.67 267.733 156.67 268.04V269.68L156.45 269.38C156.73 268.62 157.183 268.047 157.81 267.66C158.45 267.273 159.176 267.08 159.99 267.08C160.776 267.08 161.423 267.22 161.93 267.5C162.436 267.78 162.816 268.207 163.07 268.78C163.323 269.353 163.45 270.08 163.45 270.96V276.2C163.45 276.507 163.37 276.74 163.21 276.9C163.063 277.06 162.843 277.14 162.55 277.14C162.256 277.14 162.03 277.06 161.87 276.9C161.71 276.74 161.63 276.507 161.63 276.2V271.06C161.63 270.193 161.463 269.56 161.13 269.16C160.796 268.76 160.263 268.56 159.53 268.56C158.676 268.56 157.99 268.827 157.47 269.36C156.963 269.88 156.71 270.587 156.71 271.48V276.2C156.71 276.827 156.403 277.14 155.79 277.14ZM169.975 277.18C169.188 277.18 168.528 277.04 167.995 276.76C167.475 276.48 167.082 276.073 166.815 275.54C166.562 275.007 166.435 274.353 166.435 273.58V268.66H165.155C164.915 268.66 164.728 268.6 164.595 268.48C164.462 268.347 164.395 268.173 164.395 267.96C164.395 267.733 164.462 267.56 164.595 267.44C164.728 267.32 164.915 267.26 165.155 267.26H166.435V265.08C166.435 264.773 166.515 264.547 166.675 264.4C166.835 264.24 167.062 264.16 167.355 264.16C167.648 264.16 167.868 264.24 168.015 264.4C168.175 264.547 168.255 264.773 168.255 265.08V267.26H170.675C170.928 267.26 171.122 267.32 171.255 267.44C171.388 267.56 171.455 267.733 171.455 267.96C171.455 268.173 171.388 268.347 171.255 268.48C171.122 268.6 170.928 268.66 170.675 268.66H168.255V273.42C168.255 274.153 168.408 274.707 168.715 275.08C169.022 275.453 169.528 275.64 170.235 275.64C170.488 275.64 170.702 275.62 170.875 275.58C171.048 275.527 171.202 275.5 171.335 275.5C171.455 275.487 171.555 275.527 171.635 275.62C171.728 275.713 171.775 275.887 171.775 276.14C171.775 276.327 171.742 276.5 171.675 276.66C171.622 276.807 171.508 276.907 171.335 276.96C171.175 277.013 170.962 277.06 170.695 277.1C170.428 277.153 170.188 277.18 169.975 277.18ZM176.745 277.18C175.785 277.18 174.952 276.973 174.245 276.56C173.539 276.147 172.992 275.56 172.605 274.8C172.219 274.04 172.025 273.147 172.025 272.12C172.025 271.347 172.132 270.653 172.345 270.04C172.572 269.413 172.892 268.88 173.305 268.44C173.719 268 174.212 267.667 174.785 267.44C175.372 267.2 176.025 267.08 176.745 267.08C177.705 267.08 178.539 267.287 179.245 267.7C179.952 268.113 180.499 268.7 180.885 269.46C181.272 270.207 181.465 271.093 181.465 272.12C181.465 272.893 181.352 273.593 181.125 274.22C180.912 274.847 180.599 275.38 180.185 275.82C179.772 276.26 179.272 276.6 178.685 276.84C178.112 277.067 177.465 277.18 176.745 277.18ZM176.745 275.74C177.332 275.74 177.839 275.6 178.265 275.32C178.705 275.04 179.039 274.633 179.265 274.1C179.505 273.567 179.625 272.907 179.625 272.12C179.625 270.947 179.365 270.053 178.845 269.44C178.325 268.827 177.625 268.52 176.745 268.52C176.172 268.52 175.665 268.66 175.225 268.94C174.799 269.207 174.465 269.607 174.225 270.14C173.985 270.673 173.865 271.333 173.865 272.12C173.865 273.293 174.125 274.193 174.645 274.82C175.179 275.433 175.879 275.74 176.745 275.74ZM184.277 273.3C184.103 273.3 183.957 273.247 183.837 273.14C183.73 273.02 183.67 272.84 183.657 272.6L183.217 263.94C183.19 263.58 183.27 263.293 183.457 263.08C183.643 262.867 183.917 262.76 184.277 262.76C184.623 262.76 184.89 262.867 185.077 263.08C185.263 263.293 185.343 263.58 185.317 263.94L184.877 272.6C184.863 272.84 184.803 273.02 184.697 273.14C184.59 273.247 184.45 273.3 184.277 273.3ZM184.277 277.08C183.93 277.08 183.643 276.967 183.417 276.74C183.19 276.513 183.077 276.227 183.077 275.88C183.077 275.533 183.19 275.253 183.417 275.04C183.643 274.827 183.93 274.72 184.277 274.72C184.65 274.72 184.937 274.827 185.137 275.04C185.35 275.253 185.457 275.533 185.457 275.88C185.457 276.227 185.35 276.513 185.137 276.74C184.937 276.967 184.65 277.08 184.277 277.08Z" fill="white"/>
<circle cx="31" cy="31" r="28" fill="#00ACFF" stroke="#0D121F" stroke-width="6"/>
<path d="M31.2407 39.216C30.3447 39.216 29.4327 39.096 28.5047 38.856C27.5767 38.6 26.7687 38.224 26.0807 37.728C25.8247 37.568 25.6487 37.376 25.5527 37.152C25.4727 36.912 25.4567 36.696 25.5047 36.504C25.5527 36.296 25.6487 36.12 25.7927 35.976C25.9527 35.832 26.1447 35.752 26.3687 35.736C26.5927 35.704 26.8407 35.768 27.1127 35.928C27.8007 36.344 28.4727 36.648 29.1287 36.84C29.7847 37.016 30.4647 37.104 31.1687 37.104C31.9367 37.104 32.5847 36.992 33.1127 36.768C33.6407 36.544 34.0327 36.216 34.2887 35.784C34.5607 35.352 34.6967 34.832 34.6967 34.224C34.6967 33.312 34.3927 32.632 33.7847 32.184C33.1927 31.72 32.3287 31.488 31.1927 31.488H29.5607C29.1927 31.488 28.9127 31.4 28.7207 31.224C28.5287 31.032 28.4327 30.768 28.4327 30.432C28.4327 30.112 28.5287 29.864 28.7207 29.688C28.9127 29.496 29.1927 29.4 29.5607 29.4H30.9527C31.6407 29.4 32.2247 29.288 32.7047 29.064C33.1847 28.824 33.5527 28.496 33.8087 28.08C34.0807 27.648 34.2167 27.128 34.2167 26.52C34.2167 25.704 33.9447 25.08 33.4007 24.648C32.8727 24.2 32.0967 23.976 31.0727 23.976C30.4167 23.976 29.7927 24.064 29.2007 24.24C28.6247 24.416 28.0247 24.728 27.4007 25.176C27.1607 25.336 26.9287 25.408 26.7047 25.392C26.4967 25.36 26.3127 25.28 26.1527 25.152C26.0087 25.008 25.9047 24.832 25.8407 24.624C25.7927 24.416 25.8087 24.2 25.8887 23.976C25.9687 23.752 26.1287 23.56 26.3687 23.4C27.0407 22.904 27.8007 22.528 28.6487 22.272C29.4967 22 30.3687 21.864 31.2647 21.864C32.3847 21.864 33.3447 22.04 34.1447 22.392C34.9607 22.744 35.5767 23.248 35.9927 23.904C36.4247 24.56 36.6407 25.344 36.6407 26.256C36.6407 26.944 36.5127 27.568 36.2567 28.128C36.0007 28.688 35.6327 29.168 35.1527 29.568C34.6887 29.952 34.1207 30.224 33.4487 30.384V30.12C34.6167 30.312 35.5207 30.792 36.1607 31.56C36.8007 32.312 37.1207 33.256 37.1207 34.392C37.1207 35.384 36.8807 36.248 36.4007 36.984C35.9367 37.704 35.2647 38.256 34.3847 38.64C33.5047 39.024 32.4567 39.216 31.2407 39.216Z" fill="white"/>
</svg>
