<svg width="626" height="550" viewBox="0 0 626 550" fill="none" xmlns="http://www.w3.org/2000/svg">
<path d="M626 420.64H0V420.915H626V420.64Z" fill="#EBEBEB"/>
<path d="M563.275 438.339H521.809V438.614H563.275V438.339Z" fill="#EBEBEB"/>
<path d="M414.687 441.331H403.808V441.606H414.687V441.331Z" fill="#EBEBEB"/>
<path d="M520.557 428.131H496.531V428.406H520.557V428.131Z" fill="#EBEBEB"/>
<path d="M119.754 429.979H65.6799V430.254H119.754V429.979Z" fill="#EBEBEB"/>
<path d="M138.834 429.979H130.909V430.254H138.834V429.979Z" fill="#EBEBEB"/>
<path d="M281.888 434.621H164.6V434.896H281.888V434.621Z" fill="#EBEBEB"/>
<path d="M296.724 371.58H54.9753C53.0815 371.577 51.2663 370.914 49.9284 369.736C48.5904 368.559 47.8389 366.963 47.8389 365.299V66.726C47.8554 65.0716 48.6142 63.4898 49.9504 62.324C51.2866 61.1583 53.0923 60.5028 54.9753 60.5H296.724C298.62 60.5 300.438 61.1617 301.779 62.3397C303.12 63.5176 303.873 65.1152 303.873 66.781V365.299C303.873 366.965 303.12 368.562 301.779 369.74C300.438 370.918 298.62 371.58 296.724 371.58ZM54.9753 60.72C53.1645 60.7229 51.429 61.357 50.1497 62.483C48.8704 63.609 48.1519 65.135 48.1519 66.726V365.299C48.1519 366.89 48.8704 368.416 50.1497 369.542C51.429 370.668 53.1645 371.302 54.9753 371.305H296.724C298.536 371.302 300.273 370.668 301.554 369.543C302.835 368.417 303.557 366.891 303.56 365.299V66.726C303.557 65.134 302.835 63.608 301.554 62.4823C300.273 61.3566 298.536 60.7229 296.724 60.72H54.9753Z" fill="#EBEBEB"/>
<path d="M567.544 371.58H325.783C323.888 371.577 322.072 370.914 320.732 369.737C319.392 368.56 318.637 366.964 318.634 365.299V66.726C318.654 65.0706 319.415 63.4888 320.753 62.3234C322.092 61.1579 323.899 60.5028 325.783 60.5H567.544C569.425 60.5057 571.228 61.1625 572.561 62.3279C573.895 63.4933 574.652 65.0735 574.668 66.726V365.299C574.668 366.961 573.918 368.555 572.583 369.733C571.248 370.91 569.436 371.574 567.544 371.58ZM325.783 60.72C323.971 60.7229 322.234 61.3566 320.953 62.4823C319.672 63.608 318.95 65.134 318.947 66.726V365.299C318.95 366.891 319.672 368.417 320.953 369.543C322.234 370.668 323.971 371.302 325.783 371.305H567.544C569.356 371.302 571.093 370.668 572.374 369.543C573.655 368.417 574.377 366.891 574.38 365.299V66.726C574.377 65.134 573.655 63.608 572.374 62.4823C571.093 61.3566 569.356 60.7229 567.544 60.72H325.783Z" fill="#EBEBEB"/>
<path d="M221.992 112.101H103.465V346.698H221.992V112.101Z" fill="#F5F5F5"/>
<path d="M217.535 342.287L217.535 116.49H107.947L107.947 342.287H217.535Z" fill="#FAFAFA"/>
<path d="M163.987 115.368H161.47V344.498H163.987V115.368Z" fill="#F5F5F5"/>
<path d="M224.734 109.043H100.736V120.087H224.734V109.043Z" fill="#F5F5F5"/>
<path d="M224.734 121.308H100.736V122.617H224.734V121.308Z" fill="#F5F5F5"/>
<path d="M224.734 124.278H100.736V125.587H224.734V124.278Z" fill="#F5F5F5"/>
<path d="M224.734 127.248H100.736V128.557H224.734V127.248Z" fill="#F5F5F5"/>
<path d="M224.734 130.218H100.736V131.527H224.734V130.218Z" fill="#F5F5F5"/>
<path d="M224.734 133.188H100.736V134.497H224.734V133.188Z" fill="#F5F5F5"/>
<path d="M224.734 136.158H100.736V137.467H224.734V136.158Z" fill="#F5F5F5"/>
<path d="M224.734 139.128H100.736V140.437H224.734V139.128Z" fill="#F5F5F5"/>
<path d="M224.734 142.098H100.736V143.407H224.734V142.098Z" fill="#F5F5F5"/>
<path d="M224.734 145.068H100.736V146.377H224.734V145.068Z" fill="#F5F5F5"/>
<path d="M224.734 148.038H100.736V149.347H224.734V148.038Z" fill="#F5F5F5"/>
<path d="M224.734 151.008H100.736V152.317H224.734V151.008Z" fill="#F5F5F5"/>
<path d="M224.734 153.978H100.736V155.287H224.734V153.978Z" fill="#F5F5F5"/>
<path d="M224.734 156.948H100.736V158.257H224.734V156.948Z" fill="#F5F5F5"/>
<path d="M224.734 159.918H100.736V161.227H224.734V159.918Z" fill="#F5F5F5"/>
<path d="M224.734 162.888H100.736V164.197H224.734V162.888Z" fill="#F5F5F5"/>
<path d="M224.734 165.858H100.736V167.167H224.734V165.858Z" fill="#F5F5F5"/>
<path d="M224.734 168.828H100.736V170.137H224.734V168.828Z" fill="#F5F5F5"/>
<path d="M224.734 171.798H100.736V173.107H224.734V171.798Z" fill="#F5F5F5"/>
<path d="M362.329 112.101H243.802V346.698H362.329V112.101Z" fill="#F5F5F5"/>
<path d="M357.859 342.298V116.501H248.272V342.298H357.859Z" fill="#FAFAFA"/>
<path d="M304.324 115.368H301.807V344.498H304.324V115.368Z" fill="#F5F5F5"/>
<path d="M365.071 109.043H241.073V120.087H365.071V109.043Z" fill="#F5F5F5"/>
<path d="M365.071 121.308H241.073V122.617H365.071V121.308Z" fill="#F5F5F5"/>
<path d="M365.071 124.278H241.073V125.587H365.071V124.278Z" fill="#F5F5F5"/>
<path d="M365.071 127.248H241.073V128.557H365.071V127.248Z" fill="#F5F5F5"/>
<path d="M365.071 130.218H241.073V131.527H365.071V130.218Z" fill="#F5F5F5"/>
<path d="M365.071 133.188H241.073V134.497H365.071V133.188Z" fill="#F5F5F5"/>
<path d="M365.071 136.158H241.073V137.467H365.071V136.158Z" fill="#F5F5F5"/>
<path d="M365.071 139.128H241.073V140.437H365.071V139.128Z" fill="#F5F5F5"/>
<path d="M365.071 142.098H241.073V143.407H365.071V142.098Z" fill="#F5F5F5"/>
<path d="M365.071 145.068H241.073V146.377H365.071V145.068Z" fill="#F5F5F5"/>
<path d="M365.071 148.038H241.073V149.347H365.071V148.038Z" fill="#F5F5F5"/>
<path d="M365.071 151.008H241.073V152.317H365.071V151.008Z" fill="#F5F5F5"/>
<path d="M365.071 153.978H241.073V155.287H365.071V153.978Z" fill="#F5F5F5"/>
<path d="M365.071 156.948H241.073V158.257H365.071V156.948Z" fill="#F5F5F5"/>
<path d="M365.071 159.918H241.073V161.227H365.071V159.918Z" fill="#F5F5F5"/>
<path d="M365.071 162.888H241.073V164.197H365.071V162.888Z" fill="#F5F5F5"/>
<path d="M365.071 165.858H241.073V167.167H365.071V165.858Z" fill="#F5F5F5"/>
<path d="M365.071 168.828H241.073V170.137H365.071V168.828Z" fill="#F5F5F5"/>
<path d="M365.071 171.798H241.073V173.107H365.071V171.798Z" fill="#F5F5F5"/>
<path d="M502.665 112.101H384.139V346.698H502.665V112.101Z" fill="#F5F5F5"/>
<path d="M498.196 342.298V116.501H388.608V342.298H498.196Z" fill="#FAFAFA"/>
<path d="M444.66 115.368H442.144V344.498H444.66V115.368Z" fill="#F5F5F5"/>
<path d="M505.395 109.043H381.397V120.087H505.395V109.043Z" fill="#F5F5F5"/>
<path d="M505.395 121.308H381.397V122.617H505.395V121.308Z" fill="#F5F5F5"/>
<path d="M505.395 124.278H381.397V125.587H505.395V124.278Z" fill="#F5F5F5"/>
<path d="M505.395 127.248H381.397V128.557H505.395V127.248Z" fill="#F5F5F5"/>
<path d="M505.395 130.218H381.397V131.527H505.395V130.218Z" fill="#F5F5F5"/>
<path d="M505.395 133.188H381.397V134.497H505.395V133.188Z" fill="#F5F5F5"/>
<path d="M505.395 136.158H381.397V137.467H505.395V136.158Z" fill="#F5F5F5"/>
<path d="M505.395 139.128H381.397V140.437H505.395V139.128Z" fill="#F5F5F5"/>
<path d="M505.395 142.098H381.397V143.407H505.395V142.098Z" fill="#F5F5F5"/>
<path d="M505.395 145.068H381.397V146.377H505.395V145.068Z" fill="#F5F5F5"/>
<path d="M505.395 148.038H381.397V149.347H505.395V148.038Z" fill="#F5F5F5"/>
<path d="M505.395 151.008H381.397V152.317H505.395V151.008Z" fill="#F5F5F5"/>
<path d="M505.395 153.978H381.397V155.287H505.395V153.978Z" fill="#F5F5F5"/>
<path d="M505.395 156.948H381.397V158.257H505.395V156.948Z" fill="#F5F5F5"/>
<path d="M505.395 159.918H381.397V161.227H505.395V159.918Z" fill="#F5F5F5"/>
<path d="M505.395 162.888H381.397V164.197H505.395V162.888Z" fill="#F5F5F5"/>
<path d="M505.395 165.858H381.397V167.167H505.395V165.858Z" fill="#F5F5F5"/>
<path d="M505.395 168.828H381.397V170.137H505.395V168.828Z" fill="#F5F5F5"/>
<path d="M505.395 171.798H381.397V173.107H505.395V171.798Z" fill="#F5F5F5"/>
<path d="M188.188 305.162H203.801V304.249C203.801 302.456 201.509 301.026 198.793 301.125L192.683 301.345C190.179 301.433 188.188 302.808 188.188 304.469V305.162Z" fill="#F0F0F0"/>
<path d="M231.62 305.624H252.265L255.558 280.324C255.532 279.867 255.308 279.436 254.93 279.12C254.552 278.805 254.051 278.629 253.53 278.63H239.695C239.177 278.632 238.678 278.809 238.303 279.124C237.929 279.439 237.705 279.869 237.68 280.324L231.62 305.624Z" fill="#E6E6E6"/>
<path d="M200.095 241.34H205.253L211.05 289.19H205.891C205.467 289.18 205.061 289.037 204.747 288.787C204.432 288.537 204.23 288.196 204.176 287.826L198.717 242.726C198.686 242.553 198.699 242.376 198.754 242.207C198.809 242.038 198.906 241.882 199.037 241.75C199.169 241.618 199.331 241.513 199.514 241.442C199.697 241.371 199.895 241.336 200.095 241.34Z" fill="#E6E6E6"/>
<path d="M208.07 289.19H285.343C285.541 289.193 285.736 289.159 285.917 289.089C286.098 289.02 286.259 288.917 286.39 288.787C286.521 288.657 286.618 288.504 286.675 288.338C286.732 288.172 286.748 287.998 286.721 287.826L281.262 242.726C281.206 242.357 281.003 242.018 280.689 241.768C280.375 241.518 279.97 241.374 279.547 241.362H202.273C202.076 241.359 201.88 241.393 201.7 241.463C201.519 241.532 201.358 241.635 201.227 241.765C201.096 241.895 200.998 242.048 200.941 242.214C200.884 242.38 200.869 242.554 200.896 242.726L206.355 287.826C206.408 288.196 206.611 288.537 206.925 288.787C207.24 289.037 207.646 289.18 208.07 289.19Z" fill="#EBEBEB"/>
<path d="M209.51 284.768H282.376C282.549 284.768 282.721 284.737 282.88 284.677C283.038 284.616 283.181 284.527 283.299 284.415C283.416 284.304 283.506 284.172 283.563 284.028C283.62 283.884 283.642 283.732 283.628 283.58L278.82 244.2C278.773 243.879 278.597 243.583 278.324 243.365C278.051 243.148 277.699 243.022 277.331 243.012H204.464C204.291 243.011 204.12 243.043 203.961 243.103C203.802 243.164 203.659 243.253 203.541 243.365C203.424 243.476 203.334 243.608 203.277 243.752C203.22 243.896 203.198 244.048 203.212 244.2L207.982 283.569C208.025 283.899 208.205 284.203 208.486 284.424C208.768 284.645 209.132 284.767 209.51 284.768Z" fill="#FAFAFA"/>
<path d="M230.819 305.635H256.259C256.868 305.635 257.361 305.202 257.361 304.667V304.634C257.361 304.099 256.868 303.666 256.259 303.666H230.819C230.21 303.666 229.717 304.099 229.717 304.634V304.667C229.717 305.202 230.21 305.635 230.819 305.635Z" fill="#E6E6E6"/>
<path d="M131.986 313.401H194.886V305.063H131.986V313.401Z" fill="#E6E6E6"/>
<path d="M307.266 420.2H308.831C308.926 420.197 309.017 420.163 309.084 420.104C309.152 420.044 309.191 419.965 309.194 419.881L311.698 313.412H304.436L306.94 419.881C306.94 419.96 306.973 420.037 307.033 420.096C307.093 420.155 307.176 420.192 307.266 420.2Z" fill="#E6E6E6"/>
<path d="M363.243 420.178H366.874L356.632 313.39H349.383L363.243 420.178Z" fill="#F0F0F0"/>
<path d="M129.519 420.178L143.429 313.39H136.168L125.926 420.178H129.519Z" fill="#E6E6E6"/>
<path d="M176.945 313.401H360.839V305.063H176.945V313.401Z" fill="#F5F5F5"/>
<path d="M182.679 420.178H186.848L188.388 313.39H181.139L182.679 420.178Z" fill="#F0F0F0"/>
<path d="M265.211 303.6H267.139C267.236 303.6 267.328 303.566 267.396 303.507C267.464 303.447 267.502 303.366 267.502 303.281V301.4C267.502 301.358 267.493 301.317 267.475 301.278C267.456 301.239 267.43 301.204 267.396 301.175C267.362 301.145 267.322 301.121 267.278 301.105C267.234 301.089 267.187 301.081 267.139 301.081H265.75C265.669 301.081 265.591 301.105 265.527 301.149C265.464 301.193 265.418 301.254 265.399 301.323L264.848 303.105C264.813 303.158 264.795 303.218 264.797 303.279C264.798 303.34 264.819 303.399 264.856 303.451C264.894 303.502 264.947 303.543 265.01 303.569C265.072 303.596 265.142 303.606 265.211 303.6Z" fill="#F5F5F5"/>
<path d="M262.544 303.6H264.472C264.569 303.6 264.661 303.566 264.729 303.507C264.797 303.447 264.836 303.366 264.836 303.281V301.4C264.836 301.358 264.826 301.317 264.808 301.278C264.79 301.239 264.763 301.204 264.729 301.175C264.696 301.145 264.655 301.121 264.611 301.105C264.567 301.089 264.52 301.081 264.472 301.081H263.095C263.013 301.081 262.933 301.104 262.867 301.148C262.802 301.192 262.754 301.253 262.732 301.323L262.194 303.105C262.154 303.156 262.133 303.216 262.131 303.278C262.13 303.34 262.149 303.4 262.186 303.453C262.223 303.505 262.277 303.547 262.34 303.573C262.404 303.599 262.475 303.609 262.544 303.6Z" fill="#F5F5F5"/>
<path d="M259.878 303.6H261.806C261.854 303.601 261.903 303.594 261.949 303.579C261.994 303.564 262.036 303.54 262.071 303.511C262.106 303.481 262.134 303.445 262.153 303.406C262.172 303.366 262.181 303.324 262.181 303.281V301.4C262.181 301.357 262.172 301.315 262.153 301.275C262.134 301.236 262.106 301.2 262.071 301.17C262.036 301.141 261.994 301.117 261.949 301.102C261.903 301.087 261.854 301.08 261.806 301.081H260.416C260.334 301.083 260.255 301.107 260.19 301.15C260.125 301.194 260.077 301.254 260.053 301.323L259.515 303.105C259.474 303.157 259.452 303.218 259.45 303.281C259.449 303.344 259.47 303.406 259.508 303.459C259.547 303.512 259.603 303.553 259.669 303.579C259.734 303.604 259.807 303.611 259.878 303.6Z" fill="#F5F5F5"/>
<path d="M257.223 303.6H259.164C259.26 303.6 259.353 303.566 259.421 303.507C259.489 303.447 259.527 303.366 259.527 303.281V301.4C259.527 301.358 259.518 301.317 259.499 301.278C259.481 301.239 259.454 301.204 259.421 301.175C259.387 301.145 259.347 301.121 259.303 301.105C259.259 301.089 259.212 301.081 259.164 301.081H257.774C257.694 301.081 257.615 301.105 257.552 301.149C257.488 301.193 257.443 301.254 257.424 301.323L256.873 303.105C256.833 303.156 256.812 303.216 256.81 303.278C256.809 303.34 256.828 303.4 256.865 303.453C256.902 303.505 256.956 303.547 257.019 303.573C257.083 303.599 257.154 303.609 257.223 303.6Z" fill="#F5F5F5"/>
<path d="M254.557 303.6H256.485C256.581 303.6 256.673 303.566 256.741 303.507C256.81 303.447 256.848 303.366 256.848 303.281V301.4C256.848 301.358 256.838 301.317 256.82 301.278C256.802 301.239 256.775 301.204 256.741 301.175C256.708 301.145 256.668 301.121 256.624 301.105C256.58 301.089 256.532 301.081 256.485 301.081H255.095C255.015 301.083 254.938 301.108 254.874 301.151C254.811 301.195 254.766 301.255 254.744 301.323L254.206 303.105C254.167 303.156 254.145 303.216 254.144 303.278C254.142 303.34 254.161 303.4 254.198 303.453C254.235 303.505 254.289 303.547 254.353 303.573C254.416 303.599 254.487 303.609 254.557 303.6Z" fill="#F5F5F5"/>
<path d="M251.89 303.6H253.818C253.867 303.601 253.915 303.594 253.961 303.579C254.006 303.564 254.048 303.54 254.083 303.511C254.118 303.481 254.146 303.445 254.165 303.406C254.184 303.366 254.194 303.324 254.194 303.281V301.4C254.194 301.357 254.184 301.315 254.165 301.275C254.146 301.236 254.118 301.2 254.083 301.17C254.048 301.141 254.006 301.117 253.961 301.102C253.915 301.087 253.867 301.08 253.818 301.081H252.441C252.358 301.081 252.278 301.104 252.213 301.148C252.147 301.192 252.1 301.253 252.078 301.323L251.539 303.105C251.5 303.156 251.478 303.216 251.477 303.278C251.475 303.339 251.494 303.4 251.532 303.453C251.569 303.505 251.622 303.547 251.686 303.573C251.749 303.599 251.82 303.609 251.89 303.6Z" fill="#F5F5F5"/>
<path d="M249.236 303.6H251.164C251.26 303.6 251.352 303.566 251.42 303.507C251.489 303.447 251.527 303.366 251.527 303.281V301.4C251.527 301.358 251.517 301.317 251.499 301.278C251.481 301.239 251.454 301.204 251.42 301.175C251.387 301.145 251.347 301.121 251.303 301.105C251.259 301.089 251.211 301.081 251.164 301.081H249.774C249.693 301.081 249.615 301.105 249.551 301.149C249.488 301.193 249.443 301.254 249.423 301.323L248.873 303.105C248.832 303.157 248.81 303.218 248.808 303.281C248.807 303.344 248.828 303.406 248.866 303.459C248.905 303.512 248.961 303.553 249.027 303.579C249.092 303.604 249.165 303.611 249.236 303.6Z" fill="#F5F5F5"/>
<path d="M246.569 303.6H248.497C248.593 303.6 248.686 303.566 248.754 303.507C248.822 303.447 248.86 303.366 248.86 303.281V301.4C248.86 301.358 248.851 301.317 248.832 301.278C248.814 301.239 248.787 301.204 248.754 301.175C248.72 301.145 248.68 301.121 248.636 301.105C248.592 301.089 248.545 301.081 248.497 301.081H247.107C247.026 301.081 246.948 301.105 246.885 301.149C246.821 301.193 246.776 301.254 246.757 301.323L246.218 303.105C246.179 303.156 246.157 303.216 246.156 303.278C246.154 303.34 246.173 303.4 246.211 303.453C246.248 303.505 246.301 303.547 246.365 303.573C246.428 303.599 246.499 303.609 246.569 303.6Z" fill="#F5F5F5"/>
<path d="M243.902 303.6H245.83C245.928 303.6 246.021 303.567 246.091 303.507C246.162 303.448 246.203 303.367 246.206 303.281V301.4C246.203 301.314 246.162 301.233 246.091 301.174C246.021 301.114 245.928 301.081 245.83 301.081H244.453C244.371 301.081 244.291 301.104 244.225 301.148C244.159 301.192 244.112 301.253 244.09 301.323L243.552 303.105C243.512 303.156 243.49 303.216 243.489 303.278C243.488 303.34 243.507 303.4 243.544 303.453C243.581 303.505 243.634 303.547 243.698 303.573C243.762 303.599 243.833 303.609 243.902 303.6Z" fill="#F5F5F5"/>
<path d="M241.248 303.6H243.163C243.212 303.601 243.261 303.594 243.306 303.579C243.352 303.564 243.393 303.54 243.428 303.511C243.463 303.481 243.491 303.445 243.51 303.406C243.529 303.366 243.539 303.324 243.539 303.281V301.4C243.539 301.357 243.529 301.315 243.51 301.275C243.491 301.236 243.463 301.2 243.428 301.17C243.393 301.141 243.352 301.117 243.306 301.102C243.261 301.087 243.212 301.08 243.163 301.081H241.786C241.705 301.081 241.627 301.105 241.564 301.149C241.5 301.193 241.455 301.254 241.436 301.323L240.885 303.105C240.844 303.157 240.822 303.218 240.821 303.281C240.82 303.344 240.84 303.406 240.879 303.459C240.917 303.512 240.973 303.553 241.039 303.579C241.105 303.604 241.177 303.611 241.248 303.6Z" fill="#F5F5F5"/>
<path d="M238.581 303.6H240.509C240.606 303.6 240.698 303.566 240.766 303.507C240.834 303.447 240.872 303.366 240.872 303.281V301.4C240.872 301.358 240.863 301.317 240.845 301.278C240.826 301.239 240.8 301.204 240.766 301.175C240.732 301.145 240.692 301.121 240.648 301.105C240.604 301.089 240.557 301.081 240.509 301.081H239.132C239.051 301.081 238.973 301.105 238.909 301.149C238.846 301.193 238.801 301.254 238.781 301.323L238.231 303.105C238.196 303.157 238.179 303.216 238.18 303.276C238.181 303.336 238.2 303.394 238.236 303.445C238.272 303.496 238.324 303.537 238.384 303.565C238.445 303.592 238.513 303.604 238.581 303.6Z" fill="#F5F5F5"/>
<path d="M235.914 303.6H237.88C237.976 303.6 238.069 303.566 238.137 303.507C238.205 303.447 238.243 303.366 238.243 303.281V301.4C238.243 301.358 238.234 301.317 238.215 301.278C238.197 301.239 238.17 301.204 238.137 301.175C238.103 301.145 238.063 301.121 238.019 301.105C237.975 301.089 237.928 301.081 237.88 301.081H236.503C236.42 301.081 236.34 301.104 236.275 301.148C236.209 301.192 236.162 301.253 236.14 301.323L235.601 303.105C235.565 303.154 235.544 303.21 235.541 303.269C235.539 303.327 235.554 303.385 235.587 303.436C235.619 303.487 235.667 303.529 235.724 303.558C235.782 303.587 235.848 303.602 235.914 303.6Z" fill="#F5F5F5"/>
<path d="M233.26 303.6H235.176C235.224 303.601 235.273 303.594 235.318 303.579C235.364 303.564 235.406 303.54 235.441 303.511C235.476 303.481 235.503 303.445 235.522 303.406C235.542 303.366 235.551 303.324 235.551 303.281V301.4C235.551 301.357 235.542 301.315 235.522 301.275C235.503 301.236 235.476 301.2 235.441 301.17C235.406 301.141 235.364 301.117 235.318 301.102C235.273 301.087 235.224 301.08 235.176 301.081H233.798C233.718 301.081 233.639 301.105 233.576 301.149C233.512 301.193 233.467 301.254 233.448 301.323L232.897 303.105C232.856 303.157 232.834 303.218 232.833 303.281C232.832 303.344 232.852 303.406 232.891 303.459C232.93 303.512 232.985 303.553 233.051 303.579C233.117 303.604 233.19 303.611 233.26 303.6Z" fill="#F5F5F5"/>
<path d="M230.593 303.6H232.521C232.618 303.6 232.71 303.566 232.778 303.507C232.846 303.447 232.885 303.366 232.885 303.281V301.4C232.885 301.358 232.875 301.317 232.857 301.278C232.839 301.239 232.812 301.204 232.778 301.175C232.744 301.145 232.704 301.121 232.66 301.105C232.616 301.089 232.569 301.081 232.521 301.081H231.132C231.051 301.081 230.973 301.105 230.909 301.149C230.846 301.193 230.801 301.254 230.781 301.323L230.23 303.105C230.195 303.158 230.177 303.218 230.179 303.279C230.18 303.34 230.201 303.399 230.239 303.451C230.276 303.502 230.329 303.543 230.392 303.569C230.455 303.596 230.524 303.606 230.593 303.6Z" fill="#F5F5F5"/>
<path d="M227.927 303.6H229.855C229.951 303.6 230.043 303.566 230.111 303.507C230.179 303.447 230.218 303.366 230.218 303.281V301.4C230.218 301.358 230.208 301.317 230.19 301.278C230.172 301.239 230.145 301.204 230.111 301.175C230.078 301.145 230.038 301.121 229.994 301.105C229.95 301.089 229.902 301.081 229.855 301.081H228.477C228.395 301.081 228.315 301.104 228.249 301.148C228.184 301.192 228.136 301.253 228.114 301.323L227.576 303.105C227.537 303.156 227.515 303.216 227.514 303.278C227.512 303.34 227.531 303.4 227.568 303.453C227.605 303.505 227.659 303.547 227.723 303.573C227.786 303.599 227.857 303.609 227.927 303.6Z" fill="#F5F5F5"/>
<path d="M225.999 305.162H269.08V302.346H225.999V305.162Z" fill="#EBEBEB"/>
<path d="M427.959 351.945H349.759V348.469C349.759 347.01 350.418 345.611 351.592 344.58C352.766 343.549 354.358 342.969 356.019 342.969H421.699C423.359 342.969 424.951 343.549 426.125 344.58C427.299 345.611 427.959 347.01 427.959 348.469V351.901V351.945Z" fill="#E0E0E0"/>
<path d="M425.417 402.798L400.377 400.598V369.699H390.449V400.631L365.296 402.831C364.089 402.935 362.97 403.429 362.155 404.218C361.341 405.007 360.889 406.034 360.889 407.099V410.399H429.812V407.099C429.821 406.03 429.375 404.996 428.562 404.201C427.75 403.405 426.628 402.905 425.417 402.798Z" fill="#E0E0E0"/>
<path d="M370.016 414.469C370.019 415.599 369.64 416.703 368.927 417.644C368.215 418.584 367.201 419.318 366.014 419.751C364.826 420.185 363.52 420.3 362.258 420.081C360.997 419.862 359.838 419.319 358.928 418.521C358.018 417.723 357.398 416.706 357.146 415.598C356.894 414.49 357.022 413.342 357.514 412.298C358.005 411.254 358.838 410.362 359.907 409.734C360.976 409.106 362.233 408.771 363.518 408.771C365.239 408.771 366.89 409.371 368.108 410.439C369.327 411.508 370.013 412.957 370.016 414.469Z" fill="#E0E0E0"/>
<path d="M420.672 414.469C420.67 415.599 421.049 416.703 421.761 417.644C422.474 418.584 423.487 419.318 424.675 419.751C425.862 420.185 427.169 420.3 428.43 420.081C429.691 419.862 430.85 419.319 431.76 418.521C432.67 417.723 433.29 416.706 433.542 415.598C433.794 414.49 433.666 413.342 433.174 412.298C432.683 411.254 431.85 410.362 430.781 409.734C429.712 409.106 428.456 408.771 427.17 408.771C425.449 408.771 423.798 409.371 422.58 410.439C421.361 411.508 420.675 412.957 420.672 414.469Z" fill="#E0E0E0"/>
<path d="M388.721 348.788H402.067V371.8C402.067 373.005 401.523 374.161 400.553 375.012C399.583 375.864 398.268 376.343 396.897 376.343H393.892C392.52 376.343 391.205 375.864 390.235 375.012C389.266 374.161 388.721 373.005 388.721 371.8V348.788Z" fill="#E6E6E6"/>
<path d="M382.198 343.596C389.777 317.2 394.104 290.164 395.106 262.955C395.232 260.028 396.645 257.258 399.048 255.227C401.45 253.196 404.655 252.063 407.989 252.065H431.114C434.524 252.062 437.797 253.247 440.214 255.361C442.631 257.474 443.996 260.344 444.009 263.34C444.097 281.842 442.632 319.671 430.751 350.416L386.755 348.986C386.021 348.965 385.302 348.798 384.651 348.499C384.001 348.199 383.435 347.775 382.997 347.257C382.559 346.738 382.26 346.14 382.122 345.507C381.983 344.873 382.009 344.22 382.198 343.596Z" fill="#EBEBEB"/>
<path d="M388.42 348.348C396.421 320.835 401.058 292.652 402.255 264.275C402.372 261.576 403.675 259.021 405.891 257.148C408.106 255.275 411.062 254.23 414.137 254.232H435.421C438.565 254.232 441.583 255.325 443.813 257.273C446.044 259.22 447.307 261.864 447.327 264.627C447.402 281.699 446.075 319.99 435.095 348.348H388.42Z" fill="#E6E6E6"/>
<path d="M397.56 321.376C397.56 321.376 372.232 316.877 347.768 319.055C323.304 321.233 359.324 349.327 359.324 349.327H364.332C364.332 349.327 345.277 331.518 346.341 327.085C347.405 322.652 395.407 328.493 395.407 328.493L397.56 321.376Z" fill="#E6E6E6"/>
<path d="M435.133 348.348H393.629C401.636 320.836 406.278 292.652 407.476 264.275C407.593 261.576 408.896 259.021 411.111 257.148C413.327 255.275 416.283 254.23 419.357 254.232H435.458C438.606 254.229 441.627 255.323 443.859 257.273C446.091 259.224 447.351 261.872 447.365 264.638C447.44 281.699 446.088 319.99 435.133 348.348Z" fill="#E0E0E0"/>
<path d="M349.483 351.945H433.467C434.85 351.945 435.971 350.96 435.971 349.745V349.679C435.971 348.464 434.85 347.479 433.467 347.479H349.483C348.1 347.479 346.979 348.464 346.979 349.679V349.745C346.979 350.96 348.1 351.945 349.483 351.945Z" fill="#E0E0E0"/>
<path d="M117.35 398.31C117.563 397.93 117.668 397.51 117.655 397.086C117.642 396.662 117.513 396.248 117.278 395.878C117.043 395.508 116.709 395.193 116.305 394.962C115.901 394.73 115.439 394.588 114.959 394.548C115.366 393.463 115.39 392.295 115.028 391.198C114.666 390.1 113.935 389.125 112.93 388.399C112.684 388.204 112.372 388.085 112.041 388.058C111.691 388.092 111.362 388.223 111.102 388.432L105.506 391.963C105.053 392.2 104.671 392.528 104.392 392.92C103.252 394.867 107.372 397.32 105.644 398.97C105.155 399.432 104.392 399.531 103.766 399.861C102.426 400.598 102.276 402.204 101.65 403.469C101.024 404.734 98.8704 405.669 98.0316 404.569C98.6451 403.348 96.7796 402.303 95.2897 402.149C93.7998 401.995 92.2223 401.929 91.396 400.686C89.2551 402.325 84.485 397.76 84.5976 395.912C83.7572 396.049 82.9856 396.411 82.3891 396.948C81.7927 397.486 81.4007 398.173 81.2673 398.915C81.0209 400.434 80.9621 401.972 81.092 403.502C81.092 406.483 79.9402 409.409 80.0028 412.39C80.0028 414.711 81.067 417.285 83.4834 418.22C84.6858 418.599 85.966 418.749 87.2394 418.66L114.783 418.506C115.443 418.551 116.105 418.453 116.711 418.22C117.963 417.659 118.226 416.218 118.339 414.997C118.823 409.739 119.316 404.481 119.816 399.223L117.35 398.31Z" fill="#E0E0E0"/>
<path d="M118.94 372.746H76.2343L76.5848 376.53L76.8352 379.247L77.4863 386.287L77.8619 390.335L78.3502 395.725L78.563 398.035V398.728L78.876 401.5L79.214 405.218L79.4269 407.528L79.6397 409.871L79.8901 412.588L80.128 414.59L80.3283 416.9L80.4285 417.912H119.604L119.691 416.9L119.904 414.601L120.104 412.522L120.355 409.816L120.568 407.473L120.78 405.163L121.118 401.434L121.369 398.728V398.035L121.582 395.725L122.083 390.335L122.458 386.298L123.097 379.247L123.347 376.53L123.698 372.746H118.94ZM121.444 375.232L120.63 374.506H121.519L121.444 375.232ZM121.244 377.531L121.156 378.444L117.4 381.81L113.006 377.96L116.937 374.506H117.863L121.244 377.531ZM120.192 389.543L117.4 392.007L113.006 388.146L117.4 384.307L120.43 386.969L120.192 389.543ZM79.5396 386.969L82.632 384.307L87.0265 388.146L82.632 392.007L79.8526 389.543L79.5396 386.969ZM115.985 383.053L111.591 386.903L107.209 383.053L111.591 379.203L115.985 383.053ZM109.087 374.506H114.095L111.591 376.706L109.087 374.506ZM110.163 388.146L105.794 392.007L101.412 388.146L105.807 384.307L110.163 388.146ZM95.6152 393.25L99.9972 389.4L104.379 393.25L99.9972 397.1L95.6152 393.25ZM98.5825 398.343L94.188 402.204L89.8185 398.354L94.2005 394.504L98.5825 398.343ZM105.807 394.504L110.176 398.354L105.807 402.204L101.412 398.343L105.807 394.504ZM99.9972 386.903L95.6152 383.053L99.9972 379.203L104.379 383.053L99.9972 386.903ZM98.5825 388.146L94.2005 392.007L89.8185 388.146L94.2005 384.307L98.5825 388.146ZM88.3912 386.903L84.0092 383.053L88.3912 379.203L92.7732 383.053L88.3912 386.903ZM88.3912 389.4L92.7732 393.25L88.3912 397.1L84.0092 393.25L88.3912 389.4ZM92.7732 403.447L88.3912 407.297L84.0092 403.447L88.3912 399.597L92.7732 403.447ZM94.188 404.69L98.5825 408.551L94.2005 412.401L89.8185 408.551L94.188 404.69ZM95.6152 403.447L99.9972 399.597L104.379 403.447L99.9972 407.297L95.6152 403.447ZM105.807 404.69L110.176 408.551L105.807 412.401L101.412 408.551L105.807 404.69ZM111.603 409.794L115.998 413.644L113.156 416.141H110.063L107.221 413.6L111.603 409.794ZM107.221 403.447L111.603 399.597L115.998 403.447L111.603 407.297L107.221 403.447ZM107.221 393.25L111.603 389.4L115.998 393.25L111.603 397.1L107.221 393.25ZM110.176 377.96L105.807 381.81L101.412 377.96L105.343 374.506H106.27L110.176 377.96ZM99.9972 376.706L97.4932 374.506H102.501L99.9972 376.706ZM98.5825 377.96L94.2005 381.81L89.8185 377.96L93.7372 374.506H94.6637L98.5825 377.96ZM90.8952 374.506L88.3912 376.706L85.8872 374.506H90.8952ZM83.0452 374.506L86.9764 377.96L82.632 381.81L78.876 378.444L78.7884 377.531L82.2314 374.506H83.0452ZM79.2892 374.506L78.4754 375.221V374.506H79.2892ZM79.0262 381.161L81.1672 383.053L79.3392 384.659L79.0262 381.161ZM80.2156 394.086L80.0529 392.26L81.1672 393.25L80.2156 394.086ZM80.4285 396.407L82.632 394.504L87.0265 398.354L82.632 402.204L80.8667 400.642L80.4285 396.407ZM81.0795 403.535V403.359L81.1797 403.447L81.092 403.535H81.0795ZM81.8432 411.741L81.2924 405.834L82.5444 404.734L86.9389 408.595L82.632 412.39L81.8933 411.741H81.8432ZM82.2439 416.141L82.1688 415.261L82.5819 414.887L84.0092 416.141H82.2439ZM84.0092 413.6L88.3912 409.75L92.7732 413.6L89.9312 416.097H86.8387L84.0092 413.6ZM92.7732 416.097L94.2005 414.843L95.6278 416.097H92.7732ZM98.4573 416.097L95.6152 413.6L99.9972 409.75L104.379 413.6L101.55 416.097H98.4573ZM104.379 416.097L105.807 414.843L107.234 416.097H104.379ZM117.751 416.097H115.985L117.413 414.843L117.826 415.217L117.751 416.097ZM118.164 411.697L117.413 412.346L113.018 408.507L117.413 404.646L118.665 405.746L118.164 411.697ZM118.94 403.315V403.491L118.852 403.403L118.965 403.315H118.94ZM119.19 400.598L117.413 402.16L113.018 398.31L117.413 394.46L119.579 396.363L119.19 400.598ZM119.791 393.998L118.827 393.151L119.954 392.161L119.791 393.998ZM120.981 381.062L120.655 384.571L118.827 382.954L120.981 381.062Z" fill="#E6E6E6"/>
<path d="M75.5457 376.079H124.449C125.583 376.079 126.502 375.271 126.502 374.275V372.977C126.502 371.981 125.583 371.173 124.449 371.173H75.5457C74.4117 371.173 73.4924 371.981 73.4924 372.977V374.275C73.4924 375.271 74.4117 376.079 75.5457 376.079Z" fill="#F0F0F0"/>
<path d="M120.63 415.272H79.3768C78.2428 415.272 77.3235 416.08 77.3235 417.076V418.374C77.3235 419.37 78.2428 420.178 79.3768 420.178H120.63C121.764 420.178 122.683 419.37 122.683 418.374V417.076C122.683 416.08 121.764 415.272 120.63 415.272Z" fill="#F0F0F0"/>
<path d="M510.891 380.6L524.212 346.896C524.212 346.896 505.808 358.952 505.871 345.62C505.933 332.288 514.284 342.65 517.139 337.722C519.993 332.794 508.95 332.849 512.832 325.38C516.713 317.911 527.756 329.384 529.709 322.773C531.662 316.162 534.717 312.796 542.805 313.39C542.805 313.39 547.149 322.091 541.816 328.372C536.482 334.653 554.987 329.626 553.084 335.951C551.18 342.276 545.033 347.798 542.316 343.343C539.599 338.888 536.144 347.424 540.789 349.624C545.434 351.824 534.717 361.35 532.363 356.356C530.725 353.034 528.699 349.871 526.316 346.918L514.046 382.976L510.891 380.6Z" fill="#EBEBEB"/>
<path d="M497.182 380.93L482.158 359.381C482.158 359.381 497.006 365.244 494.678 356.081C492.349 346.918 488.343 355.135 485.513 352.11C482.684 349.085 490.333 347.655 486.364 343.002C482.396 338.349 476.737 347.754 474.245 343.442C471.754 339.13 469.024 337.205 463.566 338.679C463.566 338.679 462.063 345.279 466.821 348.92C471.578 352.561 457.932 351.538 460.323 355.663C462.714 359.788 467.923 362.791 469.087 359.348C470.251 355.905 474.095 361.35 471.228 363.495C468.361 365.64 477.488 370.799 478.214 367.026C478.78 364.513 479.64 362.058 480.781 359.7L495.466 383.02L497.182 380.93Z" fill="#E6E6E6"/>
<path d="M507.285 381.139L500.412 346.423C500.412 346.423 516.237 360.723 518.528 347.71C520.819 334.697 510.866 343.629 508.963 338.426C507.06 333.223 517.827 334.818 515.386 326.997C512.944 319.176 500.124 328.812 499.423 322.091C498.722 315.37 496.293 311.652 488.355 311.091C488.355 311.091 482.533 318.967 486.59 325.842C490.646 332.717 473.519 325.215 474.208 331.65C474.896 338.085 479.917 344.322 483.372 340.362C486.828 336.402 488.656 345.202 483.723 346.698C478.79 348.194 487.479 358.974 490.721 354.398C492.92 351.389 495.467 348.587 498.321 346.038L503.755 382.91L507.285 381.139Z" fill="#F5F5F5"/>
<path d="M515.824 420.2H492.211C491.417 420.199 490.653 419.932 490.074 419.454C489.495 418.976 489.145 418.322 489.094 417.626L486.59 381.876C486.564 381.503 486.626 381.129 486.771 380.777C486.916 380.425 487.142 380.104 487.434 379.832C487.726 379.56 488.078 379.343 488.469 379.195C488.86 379.047 489.282 378.971 489.707 378.972H518.328C518.753 378.973 519.173 379.05 519.562 379.198C519.952 379.347 520.303 379.564 520.593 379.836C520.884 380.108 521.108 380.429 521.253 380.78C521.397 381.13 521.459 381.504 521.433 381.876L518.929 417.626C518.878 418.321 518.53 418.972 517.953 419.45C517.377 419.928 516.616 420.196 515.824 420.2Z" fill="#EBEBEB"/>
<path d="M521.107 377.487H486.602C484.887 377.487 483.497 378.708 483.497 380.215V380.248C483.497 381.755 484.887 382.976 486.602 382.976H521.107C522.822 382.976 524.212 381.755 524.212 380.248V380.215C524.212 378.708 522.822 377.487 521.107 377.487Z" fill="#F5F5F5"/>
<path d="M313 470.316C447.067 470.316 555.75 464.741 555.75 457.864C555.75 450.987 447.067 445.412 313 445.412C178.933 445.412 70.2497 450.987 70.2497 457.864C70.2497 464.741 178.933 470.316 313 470.316Z" fill="#F5F5F5"/>
<path d="M216.947 125.664C217.317 122.901 216.871 120.101 215.652 117.533C214.432 114.966 212.48 112.718 209.984 111.006C207.488 109.294 204.532 108.176 201.401 107.76C198.27 107.343 195.07 107.643 192.109 108.629C189.149 109.616 186.527 111.256 184.497 113.391C182.468 115.527 181.099 118.086 180.522 120.821C179.946 123.557 180.181 126.377 181.206 129.009C182.231 131.642 184.01 133.998 186.373 135.85L186.949 137.753L189.979 138.072L203.3 139.436L206.342 139.755L207.394 138.006C209.999 136.777 212.229 135.013 213.892 132.864C215.555 130.715 216.603 128.245 216.947 125.664Z" fill="#00ACFF"/>
<path opacity="0.7" d="M216.947 125.664C217.317 122.901 216.871 120.101 215.652 117.533C214.432 114.966 212.48 112.718 209.984 111.006C207.488 109.294 204.532 108.176 201.401 107.76C198.27 107.343 195.07 107.643 192.109 108.629C189.149 109.616 186.527 111.256 184.497 113.391C182.468 115.527 181.099 118.086 180.522 120.821C179.946 123.557 180.181 126.377 181.206 129.009C182.231 131.642 184.01 133.998 186.373 135.85L186.949 137.753L189.979 138.072L203.3 139.436L206.342 139.755L207.394 138.006C209.999 136.777 212.229 135.013 213.892 132.864C215.555 130.715 216.603 128.245 216.947 125.664Z" fill="white"/>
<path d="M201.447 139.502C201.447 139.502 203.362 131.857 208.057 128.7L204.301 128.315L203.412 124.674L199.732 130.9L198.48 125.037L195.7 130.537L193.76 123.717L191.932 127.083L188.176 126.698C191.932 130.713 191.769 138.534 191.769 138.534" stroke="#00ACFF" stroke-width="0.5" stroke-linecap="round" stroke-linejoin="round"/>
<path d="M203.099 148.753C202.824 150.843 199.156 152.196 194.911 151.756C190.667 151.316 187.399 149.27 187.737 147.169C188.075 145.068 191.681 143.737 195.926 144.166C200.17 144.595 203.375 146.652 203.099 148.753Z" fill="#263238"/>
<path d="M201.76 149.974L188.714 148.632C187.894 148.552 187.14 148.197 186.609 147.643C186.078 147.088 185.809 146.375 185.859 145.651L186.373 137.709C186.379 137.636 186.402 137.564 186.44 137.499C186.478 137.433 186.531 137.375 186.595 137.328C186.66 137.281 186.734 137.246 186.814 137.224C186.894 137.203 186.978 137.196 187.061 137.203L206.367 139.194C206.45 139.202 206.531 139.225 206.604 139.261C206.677 139.298 206.74 139.347 206.791 139.405C206.841 139.464 206.877 139.531 206.897 139.603C206.917 139.674 206.92 139.749 206.906 139.821L205.328 147.653C205.186 148.369 204.737 149.009 204.073 149.441C203.408 149.873 202.58 150.064 201.76 149.974Z" fill="#00ACFF"/>
<path opacity="0.3" d="M201.76 149.974L188.714 148.632C187.894 148.552 187.14 148.197 186.609 147.643C186.078 147.088 185.809 146.375 185.859 145.651L186.373 137.709C186.379 137.636 186.402 137.564 186.44 137.499C186.478 137.433 186.531 137.375 186.595 137.328C186.66 137.281 186.734 137.246 186.814 137.224C186.894 137.203 186.978 137.196 187.061 137.203L206.367 139.194C206.45 139.202 206.531 139.225 206.604 139.261C206.677 139.298 206.74 139.347 206.791 139.405C206.841 139.464 206.877 139.531 206.897 139.603C206.917 139.674 206.92 139.749 206.906 139.821L205.328 147.653C205.186 148.369 204.737 149.009 204.073 149.441C203.408 149.873 202.58 150.064 201.76 149.974Z" fill="white"/>
<path d="M186.16 139.953L206.53 142.043C206.739 142.056 206.946 141.998 207.107 141.88C207.268 141.763 207.372 141.595 207.396 141.412C207.42 141.23 207.363 141.046 207.237 140.899C207.11 140.752 206.925 140.653 206.718 140.624L186.348 138.534C186.139 138.521 185.932 138.579 185.771 138.697C185.609 138.814 185.506 138.982 185.482 139.165C185.458 139.347 185.514 139.531 185.641 139.678C185.767 139.825 185.953 139.924 186.16 139.953Z" fill="#00ACFF"/>
<path d="M206.042 144.012L186.11 141.966C186.001 141.951 185.89 141.955 185.784 141.978C185.677 142.001 185.577 142.043 185.489 142.101C185.401 142.16 185.328 142.233 185.273 142.317C185.219 142.401 185.184 142.493 185.171 142.589C185.159 142.685 185.168 142.782 185.199 142.875C185.231 142.968 185.283 143.054 185.353 143.128C185.423 143.202 185.51 143.264 185.608 143.308C185.705 143.352 185.812 143.378 185.922 143.385L205.854 145.431C205.96 145.443 206.068 145.437 206.172 145.412C206.275 145.386 206.371 145.343 206.455 145.285C206.54 145.226 206.609 145.154 206.661 145.071C206.712 144.989 206.744 144.898 206.755 144.804C206.769 144.711 206.762 144.616 206.733 144.525C206.705 144.434 206.656 144.349 206.589 144.275C206.523 144.202 206.44 144.14 206.346 144.095C206.252 144.05 206.148 144.021 206.042 144.012Z" fill="#00ACFF"/>
<path d="M205.215 147.4L186.035 145.431C185.821 145.409 185.605 145.463 185.436 145.581C185.267 145.698 185.158 145.87 185.133 146.058C185.108 146.247 185.169 146.438 185.303 146.588C185.436 146.738 185.632 146.836 185.847 146.861L205.028 148.83C205.241 148.849 205.454 148.794 205.623 148.677C205.791 148.56 205.901 148.39 205.929 148.203C205.951 148.014 205.888 147.825 205.756 147.676C205.623 147.526 205.429 147.427 205.215 147.4Z" fill="#00ACFF"/>
<g opacity="0.5">
<path d="M186.16 139.953L206.53 142.043C206.739 142.056 206.946 141.998 207.107 141.88C207.268 141.763 207.372 141.595 207.396 141.412C207.42 141.23 207.363 141.046 207.237 140.899C207.11 140.752 206.925 140.653 206.718 140.624L186.348 138.534C186.139 138.521 185.932 138.579 185.771 138.697C185.609 138.814 185.506 138.982 185.482 139.165C185.458 139.347 185.515 139.531 185.641 139.678C185.767 139.825 185.953 139.924 186.16 139.953Z" fill="white"/>
<path d="M206.041 144.012L186.11 141.966C186.001 141.951 185.89 141.955 185.783 141.978C185.677 142.001 185.576 142.043 185.489 142.101C185.401 142.16 185.328 142.233 185.273 142.317C185.218 142.401 185.184 142.493 185.171 142.589C185.158 142.685 185.168 142.782 185.199 142.875C185.23 142.968 185.283 143.054 185.353 143.128C185.423 143.202 185.51 143.264 185.607 143.308C185.705 143.352 185.812 143.378 185.922 143.385L205.854 145.431C205.96 145.443 206.068 145.437 206.171 145.412C206.275 145.386 206.371 145.343 206.455 145.285C206.539 145.226 206.609 145.154 206.661 145.071C206.712 144.989 206.744 144.898 206.755 144.804C206.769 144.711 206.761 144.616 206.733 144.525C206.704 144.434 206.655 144.349 206.589 144.275C206.522 144.202 206.44 144.14 206.346 144.095C206.251 144.05 206.148 144.021 206.041 144.012Z" fill="white"/>
<path d="M205.215 147.4L186.035 145.431C185.821 145.409 185.605 145.463 185.436 145.581C185.267 145.698 185.158 145.87 185.133 146.058C185.108 146.247 185.169 146.438 185.303 146.588C185.436 146.738 185.632 146.836 185.847 146.861L205.028 148.83C205.241 148.849 205.454 148.794 205.623 148.677C205.791 148.56 205.901 148.39 205.929 148.203C205.951 148.014 205.888 147.825 205.756 147.676C205.623 147.526 205.429 147.427 205.215 147.4Z" fill="white"/>
</g>
<path d="M199.143 100.188L199.732 82.7201L203.813 82.4451L199.143 100.188Z" fill="#00ACFF"/>
<path d="M214.18 106.986L228.753 89.4961L230.443 91.1681L214.18 106.986Z" fill="#00ACFF"/>
<path d="M222.08 119.009L239.52 116.699L240.134 118.305L222.08 119.009Z" fill="#00ACFF"/>
<path d="M182.504 104.555L168.632 90.8491L166.754 92.8621L182.504 104.555Z" fill="#00ACFF"/>
<path d="M174.391 118.558L155.411 114.532L156.037 116.754L174.391 118.558Z" fill="#00ACFF"/>
<path d="M423.426 205.139L407.614 217.624C405.11 219.571 388.17 203.995 388.17 203.995L383.513 207.537C383.513 207.537 399.388 224.84 405.272 225.214C411.157 225.588 427.508 214.214 427.508 214.214L423.426 205.139Z" fill="#EEC1BB"/>
<path d="M413.36 211.915L419.382 220.902L425.642 217.602L436.109 211.97V191.686C436.109 191.686 419.658 201.157 413.36 211.915Z" fill="#00ACFF"/>
<path opacity="0.2" d="M425.68 217.547L436.147 211.915V211.783C435.421 209.341 434.807 207.383 434.807 207.383C434.807 207.383 423.865 211.948 425.68 217.547Z" fill="black"/>
<path d="M500.9 216.48C500.9 216.48 509.777 225.808 508.625 230.384C507.473 234.96 499.673 237.534 499.673 237.534L490.784 236.83C490.784 236.83 498.296 232.089 498.296 230.384C498.296 228.679 492.725 224.059 492.725 224.059L500.9 216.48Z" fill="#EEC1BB"/>
<path d="M428.484 262.504L477.813 265.54C477.654 251.715 478.294 237.893 479.729 224.125C480.004 221.47 480.28 218.962 480.555 216.601C482.095 203.83 483.673 195.536 483.673 195.536H483.522L436.084 191.708C426.193 221.397 428.484 262.504 428.484 262.504Z" fill="#00ACFF"/>
<path d="M464.267 440.363L455.953 444.565L445.975 428.67L454.288 424.468L464.267 440.363Z" fill="#EEC1BB"/>
<path d="M454.939 443.63L464.179 438.46C464.329 438.366 464.512 438.323 464.696 438.337C464.879 438.351 465.051 438.422 465.181 438.537L470.752 443.63C470.871 443.751 470.962 443.892 471.019 444.044C471.076 444.196 471.099 444.356 471.085 444.516C471.071 444.675 471.021 444.831 470.938 444.973C470.855 445.116 470.741 445.243 470.602 445.346L470.364 445.489C467.146 447.227 465.356 448.008 461.375 450.252C458.871 451.627 448.429 456.577 444.56 456.852C440.691 457.127 440.253 453.871 441.831 453.354C449.781 450.747 452.873 447.425 453.888 444.807C454.075 444.321 454.446 443.906 454.939 443.63Z" fill="#263238"/>
<path opacity="0.2" d="M454.288 424.468L445.975 428.67L451.121 436.865L459.446 432.663L454.288 424.468Z" fill="black"/>
<path d="M428.497 262.515C428.497 262.515 403.845 333.168 405.348 356.73C406.975 382.569 446.513 436.92 446.513 436.92L461.412 428.648C461.412 428.648 433.492 375.1 432.441 355.3C433.981 326.612 464.204 264.781 464.204 264.781L428.497 262.515Z" fill="#263238"/>
<path opacity="0.2" d="M452.673 281.732C444.447 286.132 441.18 305.03 442.92 314.611C447.377 302.511 452.46 290.521 456.529 281.347C455.905 281.108 455.219 281.018 454.542 281.086C453.866 281.153 453.221 281.376 452.673 281.732Z" fill="black"/>
<path d="M444.861 438.185L462.426 428.406L459.547 424.05L441.13 433.928L444.861 438.185Z" fill="#00ACFF"/>
<path d="M453.036 446.303C452.515 446.644 451.883 446.829 451.233 446.831C451.027 446.812 450.829 446.745 450.662 446.637C450.495 446.529 450.363 446.383 450.282 446.215C450.214 446.119 450.178 446.009 450.178 445.896C450.178 445.783 450.214 445.673 450.282 445.577C450.933 444.686 454.438 444.543 454.839 444.543C454.88 444.539 454.921 444.548 454.956 444.568C454.99 444.588 455.015 444.618 455.027 444.653C455.051 444.684 455.063 444.72 455.063 444.757C455.063 444.795 455.051 444.831 455.027 444.862C454.421 445.4 453.754 445.883 453.036 446.303ZM450.895 445.577C450.806 445.625 450.729 445.688 450.67 445.764C450.64 445.801 450.624 445.845 450.624 445.89C450.624 445.936 450.64 445.98 450.67 446.017C450.719 446.134 450.805 446.237 450.918 446.313C451.031 446.389 451.167 446.435 451.308 446.446C452.469 446.282 453.523 445.754 454.276 444.961C453.115 444.983 451.97 445.192 450.895 445.577Z" fill="#00ACFF"/>
<path d="M454.964 444.906H454.852C453.762 445.005 451.096 444.422 450.82 443.575C450.772 443.433 450.779 443.282 450.84 443.144C450.901 443.006 451.013 442.891 451.158 442.816C451.289 442.719 451.441 442.646 451.604 442.603C451.768 442.559 451.94 442.546 452.11 442.563C453.487 442.673 454.977 444.521 455.027 444.631C455.051 444.659 455.064 444.694 455.064 444.73C455.064 444.766 455.051 444.8 455.027 444.829C455.013 444.859 454.992 444.885 454.964 444.906ZM451.496 443.091L451.421 443.146C451.183 443.311 451.233 443.41 451.246 443.465C451.434 443.96 453.224 444.499 454.401 444.565C453.925 444.048 452.911 443.058 452.047 442.992C451.855 442.971 451.66 443.01 451.496 443.102V443.091Z" fill="#00ACFF"/>
<path d="M482.396 449.922H473.143L472.38 431.101H481.644L482.396 449.922Z" fill="#EEC1BB"/>
<path d="M471.866 448.976H483.134C483.317 448.981 483.494 449.039 483.636 449.14C483.779 449.241 483.879 449.381 483.923 449.537L485.751 456.775C485.825 457.086 485.756 457.41 485.559 457.676C485.362 457.942 485.053 458.128 484.699 458.194C484.6 458.205 484.499 458.205 484.399 458.194C480.755 458.194 478.139 457.952 473.544 457.952C470.74 457.952 462.276 458.205 458.37 458.205C454.463 458.205 453.988 454.839 455.578 454.531C462.702 453.167 468.098 451.231 470.351 449.471C470.771 449.15 471.31 448.974 471.866 448.976Z" fill="#263238"/>
<path opacity="0.2" d="M481.644 431.112H472.38L472.78 440.814H482.033L481.644 431.112Z" fill="black"/>
<path d="M469.951 194.81C467.948 196.405 457.568 197.439 457.568 197.439L453.575 202.73L451.684 195.195C451.684 195.195 448.241 194.48 448.967 193.534C450.101 193.444 451.204 193.157 452.21 192.688C453.216 192.22 454.105 191.58 454.827 190.806C456.579 188.705 456.454 185.768 455.891 182.908C455.891 182.908 455.891 182.831 455.891 182.798L463.966 177.562L469.525 173.932C467.722 179.784 465.531 190.564 469.951 194.81Z" fill="#EEC1BB"/>
<path opacity="0.2" d="M467.246 178.97C465.531 185.845 458.482 189.838 454.827 190.806C456.579 188.705 456.454 185.768 455.891 182.908C455.898 182.868 455.898 182.827 455.891 182.787L463.966 177.551C464.141 178.618 467.497 177.914 467.246 178.97Z" fill="black"/>
<path d="M445.987 263.582C445.987 263.582 451.221 333.168 455.127 356.73C459.396 382.569 468.536 438.933 468.536 438.933H485.45C485.45 438.933 481.995 385.033 480.442 359.59C478.602 330.649 477.863 265.54 477.863 265.54L445.987 263.582Z" fill="#263238"/>
<path d="M466.495 439.252H486.452V434.016L465.744 433.675L466.495 439.252Z" fill="#00ACFF"/>
<path d="M457.255 149.391C455.621 149.026 453.9 149.106 452.319 149.621C450.738 150.136 449.373 151.061 448.404 152.273C444.51 156.607 447.365 159.489 447.365 159.489C447.636 158.254 448.251 157.098 449.155 156.123C449.155 156.123 446.876 160.523 451.809 165.726C456.742 170.929 471.265 176.891 471.265 176.891C471.265 176.891 480.104 173.844 482.659 166.903C485.213 159.962 485.162 155.023 475.91 150.524C466.658 146.025 457.506 144.727 457.255 149.391Z" fill="#263238"/>
<path d="M473.381 166.1C472.342 173.173 472.017 177.683 468.523 181.269C468.055 181.747 467.544 182.192 466.996 182.6C459.559 188.386 448.579 184.008 446.964 175.857C446.692 174.377 446.567 172.879 446.588 171.38C446.588 164.439 449.48 156.178 456.967 154.022C459.004 153.418 461.184 153.285 463.297 153.636C465.409 153.987 467.383 154.81 469.028 156.026C470.674 157.242 471.935 158.809 472.691 160.578C473.447 162.346 473.671 164.255 473.344 166.122L473.381 166.1Z" fill="#EEC1BB"/>
<path d="M459.334 167.486C459.334 168.135 458.858 168.641 458.357 168.586C457.856 168.531 457.518 167.992 457.568 167.343C457.619 166.694 458.069 166.188 458.545 166.243C459.021 166.298 459.384 166.815 459.334 167.486Z" fill="#263238"/>
<path d="M450.92 166.969C450.92 167.618 450.432 168.124 449.944 168.069C449.456 168.014 449.117 167.475 449.155 166.826C449.193 166.177 449.656 165.671 450.132 165.726C450.607 165.781 450.97 166.342 450.92 166.969Z" fill="#263238"/>
<path d="M453.575 167.453C452.529 169.397 451.18 171.203 449.568 172.821C450.054 173.173 450.622 173.429 451.231 173.569C451.841 173.71 452.478 173.732 453.099 173.635L453.575 167.453Z" fill="#D4827D"/>
<path d="M462.389 164.934C462.31 164.952 462.228 164.952 462.149 164.935C462.07 164.917 461.998 164.883 461.938 164.835C461.558 164.488 461.09 164.223 460.573 164.063C460.055 163.902 459.502 163.85 458.958 163.911C458.902 163.922 458.844 163.923 458.788 163.914C458.731 163.905 458.677 163.886 458.629 163.859C458.581 163.831 458.54 163.795 458.509 163.753C458.477 163.711 458.455 163.664 458.445 163.614C458.422 163.516 458.443 163.415 458.504 163.331C458.565 163.247 458.66 163.187 458.77 163.163C459.451 163.071 460.147 163.123 460.8 163.314C461.453 163.505 462.045 163.831 462.526 164.263C462.607 164.335 462.652 164.432 462.652 164.533C462.652 164.633 462.607 164.73 462.526 164.802L462.389 164.934Z" fill="#263238"/>
<path d="M455.14 177.1C456.211 176.984 457.235 176.642 458.124 176.104C459.014 175.566 459.742 174.847 460.248 174.009C460.26 173.985 460.267 173.959 460.268 173.933C460.27 173.907 460.265 173.881 460.254 173.856C460.244 173.832 460.228 173.809 460.207 173.79C460.187 173.771 460.162 173.756 460.135 173.745C460.109 173.732 460.08 173.724 460.051 173.721C460.021 173.719 459.991 173.722 459.962 173.73C459.934 173.738 459.908 173.752 459.886 173.77C459.864 173.787 459.846 173.809 459.835 173.833C459.347 174.599 458.663 175.255 457.838 175.75C457.012 176.244 456.067 176.563 455.077 176.682C455.048 176.683 455.019 176.69 454.993 176.701C454.967 176.713 454.944 176.729 454.925 176.748C454.906 176.768 454.892 176.791 454.884 176.815C454.876 176.84 454.873 176.865 454.877 176.891C454.88 176.917 454.889 176.942 454.903 176.965C454.917 176.988 454.937 177.009 454.96 177.025C454.983 177.041 455.01 177.053 455.039 177.061C455.067 177.068 455.097 177.07 455.127 177.067L455.14 177.1Z" fill="#263238"/>
<path d="M447.678 163.229C447.587 163.215 447.504 163.177 447.44 163.119C447.407 163.078 447.384 163.032 447.371 162.983C447.359 162.934 447.358 162.883 447.369 162.834C447.379 162.785 447.401 162.738 447.433 162.696C447.464 162.654 447.505 162.619 447.552 162.591C448.123 162.24 448.782 162.015 449.473 161.934C450.163 161.854 450.866 161.921 451.521 162.129C451.625 162.172 451.706 162.249 451.748 162.343C451.79 162.437 451.79 162.541 451.747 162.635C451.698 162.726 451.61 162.798 451.503 162.835C451.396 162.871 451.277 162.871 451.171 162.833C450.649 162.681 450.094 162.639 449.551 162.71C449.007 162.781 448.49 162.962 448.041 163.24C447.923 163.278 447.793 163.274 447.678 163.229Z" fill="#263238"/>
<path d="M451.684 156.86C453.812 156.244 455.953 157.96 455.953 157.96C458.803 157.744 461.668 157.744 464.517 157.96C467.309 158.378 468.123 160.831 468.361 161.436C468.599 162.041 467.259 163.24 467.259 163.24C467.259 163.24 467.559 170.643 467.672 172.689L471.115 178.189C474.937 172.931 477.006 166.838 477.087 160.6C477.2 150.073 453.575 150.579 453.575 150.579L451.684 156.86Z" fill="#263238"/>
<path d="M476.799 175.186C475.434 176.819 473.392 177.914 471.115 178.233C468.085 178.618 466.958 176.165 468.11 173.833C469.162 171.776 471.991 169.004 474.871 169.708C477.751 170.412 478.452 173.162 476.799 175.186Z" fill="#EEC1BB"/>
<path d="M468.811 450.406C468.181 450.455 467.552 450.307 467.034 449.988C466.861 449.868 466.727 449.711 466.646 449.531C466.564 449.352 466.538 449.156 466.57 448.965C466.566 448.853 466.599 448.742 466.666 448.646C466.732 448.55 466.83 448.474 466.946 448.426C467.973 447.953 470.952 449.526 471.29 449.757C471.327 449.775 471.357 449.803 471.375 449.836C471.393 449.87 471.398 449.908 471.391 449.944C471.385 449.983 471.366 450.019 471.337 450.048C471.308 450.077 471.27 450.099 471.228 450.109C470.437 450.285 469.627 450.384 468.811 450.406ZM467.434 448.723C467.334 448.713 467.233 448.733 467.146 448.778C467.084 448.778 467.021 448.844 467.009 448.998C466.991 449.125 467.008 449.254 467.058 449.375C467.108 449.495 467.19 449.604 467.296 449.691C468.332 450.111 469.512 450.162 470.589 449.834C469.628 449.291 468.557 448.914 467.434 448.723Z" fill="#00ACFF"/>
<path d="M471.165 450.12H471.065C470.113 449.658 468.261 447.92 468.448 447.018C468.483 446.874 468.573 446.746 468.703 446.653C468.833 446.561 468.995 446.511 469.162 446.512C469.327 446.492 469.495 446.504 469.655 446.546C469.815 446.587 469.962 446.658 470.088 446.754C471.153 447.524 471.34 449.856 471.34 449.977C471.34 450.011 471.33 450.044 471.313 450.075C471.295 450.105 471.271 450.132 471.24 450.153C471.213 450.146 471.187 450.135 471.165 450.12ZM469.312 446.82H469.2C468.924 446.82 468.899 446.963 468.887 447.018C468.774 447.546 469.951 448.899 470.902 449.526C470.838 448.6 470.454 447.714 469.8 446.985C469.667 446.879 469.493 446.82 469.312 446.82Z" fill="#00ACFF"/>
<path d="M385.028 208.714C385.028 208.714 375.6 207.999 373.484 207.317C371.368 206.635 371.894 200.717 372.044 199.738C372.195 198.759 385.24 200.838 387.281 201.74C389.322 202.642 390.449 207.009 390.449 207.009L385.028 208.714Z" fill="#EEC1BB"/>
<path d="M534.799 235.064L425.174 227.636L419.402 293.397L529.027 300.825L534.799 235.064Z" fill="#00ACFF"/>
<path opacity="0.7" d="M534.799 235.064L425.174 227.636L419.402 293.397L529.027 300.825L534.799 235.064Z" fill="white"/>
<path d="M534.799 235.064L425.174 227.636L419.402 293.397L529.027 300.825L534.799 235.064Z" stroke="black" stroke-width="0.5" stroke-miterlimit="10"/>
<path d="M426.379 226.71L424.144 226.559L423.972 228.522L426.206 228.674L426.379 226.71Z" fill="black"/>
<path d="M420.616 292.467L418.381 292.315L418.209 294.279L420.443 294.43L420.616 292.467Z" fill="black"/>
<path d="M530.23 299.905L527.995 299.754L527.823 301.717L530.057 301.868L530.23 299.905Z" fill="black"/>
<path d="M535.993 234.172L533.758 234.02L533.586 235.983L535.82 236.135L535.993 234.172Z" fill="black"/>
<path d="M527.756 289.703L422.587 282.577L421.785 291.724L526.953 298.85L527.756 289.703Z" fill="#00ACFF"/>
<path opacity="0.2" d="M517.139 294.371L432.24 288.618C431.99 288.601 431.758 288.498 431.593 288.331C431.429 288.164 431.347 287.947 431.364 287.727C431.374 287.617 431.408 287.51 431.464 287.412C431.521 287.313 431.6 287.226 431.695 287.154C431.79 287.083 431.901 287.028 432.02 286.995C432.14 286.961 432.266 286.948 432.391 286.957L517.276 292.71C517.527 292.727 517.759 292.83 517.923 292.997C518.088 293.164 518.17 293.381 518.153 293.601C518.133 293.821 518.016 294.025 517.826 294.169C517.636 294.314 517.389 294.386 517.139 294.371Z" fill="black"/>
<path d="M465.807 265.628L467.109 250.844L488.631 259.743L465.807 265.628Z" fill="#00ACFF"/>
<path d="M445.086 288.717C445.055 289.064 444.908 289.395 444.663 289.669C444.417 289.942 444.085 290.146 443.709 290.253C443.332 290.361 442.927 290.368 442.546 290.274C442.164 290.179 441.824 289.988 441.566 289.723C441.309 289.458 441.146 289.133 441.1 288.787C441.053 288.441 441.124 288.091 441.304 287.781C441.484 287.471 441.764 287.214 442.11 287.044C442.455 286.874 442.851 286.798 443.246 286.825C443.774 286.864 444.263 287.085 444.608 287.439C444.952 287.793 445.124 288.252 445.086 288.717Z" fill="#00ACFF"/>
<path opacity="0.4" d="M445.086 288.717C445.055 289.064 444.908 289.395 444.663 289.669C444.417 289.942 444.085 290.146 443.709 290.253C443.332 290.361 442.927 290.368 442.546 290.274C442.164 290.179 441.824 289.988 441.566 289.723C441.309 289.458 441.146 289.133 441.1 288.787C441.053 288.441 441.124 288.091 441.304 287.781C441.484 287.471 441.764 287.214 442.11 287.044C442.455 286.874 442.851 286.798 443.246 286.825C443.774 286.864 444.263 287.085 444.608 287.439C444.952 287.793 445.124 288.252 445.086 288.717Z" fill="white"/>
<path d="M468.937 190.806L457.568 195.547L453.575 202.4V194.7C453.575 194.7 451.959 193.16 453.575 190.146L446.551 192.5L443.383 199.584L451.571 196.581L453.575 203.973L457.568 198.121L462.689 203.17L473.519 194.678L468.937 190.806Z" fill="#00ACFF"/>
<path opacity="0.2" d="M468.937 190.806L457.568 195.547L453.575 202.4V194.7C453.575 194.7 451.959 193.16 453.575 190.146L446.551 192.5L443.383 199.584L451.571 196.581L453.575 203.973L457.568 198.121L462.689 203.17L473.519 194.678L468.937 190.806Z" fill="black"/>
<path opacity="0.2" d="M477.676 216.227C477.88 218.939 478.573 221.605 479.729 224.125C480.004 221.47 480.28 218.962 480.555 216.601L477.676 216.227Z" fill="black"/>
<path d="M483.673 195.547C493.288 199.232 505.808 219.428 505.808 219.428L494.715 228.305L477.625 216.205L483.673 195.547Z" fill="#00ACFF"/>
<path d="M486.502 232.496C486.502 232.496 487.754 227.106 488.944 226.996C490.133 226.886 499.21 228.294 499.773 229.768C500.337 231.242 500.813 234.861 498.521 235.07C496.23 235.279 485.776 235.07 486.502 232.496Z" fill="#EEC1BB"/>
<path d="M298.114 206.712C300.042 204.831 304.799 201.509 299.366 197.659C293.932 193.809 296.048 186.461 301.87 186.604C307.692 186.747 302.245 183.425 302.483 177.551C302.721 171.677 311.247 170.951 316.143 173.932C321.038 176.913 324.907 169.224 331.167 170.566C337.427 171.908 335.198 176.726 336.613 181.786C338.027 186.846 347.217 182.688 350.059 188.386C352.901 194.084 348.069 193.754 348.519 199.936C348.97 206.118 354.717 207.24 354.166 211.981C353.615 216.722 342.084 217.217 342.898 224.18C343.712 231.143 338.879 236.676 332.406 233.794C325.933 230.912 327.21 239.91 318.634 237.93C310.058 235.95 308.768 230.527 308.618 225.181C308.468 219.835 302.571 223.883 298.665 221.606C294.758 219.329 291.941 212.762 298.114 206.712Z" fill="#2E353A"/>
<path d="M293.243 265.848L296.323 218.757L343.048 220.11L334.409 268.983L293.243 265.848Z" fill="#00ACFF"/>
<path opacity="0.7" d="M293.243 265.848L296.323 218.757L343.048 220.11L334.409 268.983L293.243 265.848Z" fill="white"/>
<path d="M297.676 276.243C297.676 276.243 284.93 335.94 281.525 360.448C277.08 392.425 258.914 439.208 258.914 439.208L266.175 440.858C266.175 440.858 291.791 401.104 296.787 365.343C317.144 328.779 318.784 283.8 318.784 283.8L297.676 276.243Z" fill="#9F5B53"/>
<path d="M245.392 453.684C246.574 453.202 247.848 452.919 249.148 452.848C249.148 452.848 253.618 450.538 258.05 441.562H263.058C263.899 441.569 264.718 441.802 265.403 442.231C266.088 442.66 266.607 443.264 266.889 443.96C266.965 444.156 267.011 444.359 267.027 444.565C266.977 445.623 266.852 446.678 266.651 447.722C265.917 451.203 264.943 454.641 263.734 458.018L262.895 457.831L264.422 451.297C264.936 449.097 262.281 451.22 261.055 453.497C259.828 455.774 257.937 457.985 252.441 456.874C245.955 455.499 243.364 454.696 245.392 453.684Z" fill="#2E353A"/>
<path d="M310.922 275.286C310.922 275.286 312.499 336.017 314.941 360.613C318.121 392.711 311.36 441.782 311.36 441.782L318.872 442.068C318.872 442.068 334.584 398.519 331.054 362.615C342.322 323.158 333.37 278.817 333.37 278.817L310.922 275.286Z" fill="#9F5B53"/>
<path d="M299.679 455.675C300.794 455.093 302.02 454.695 303.297 454.498C303.297 454.498 307.454 451.77 310.746 442.398L315.754 441.903C316.593 441.83 317.436 441.984 318.171 442.347C318.905 442.709 319.495 443.26 319.861 443.927C319.964 444.115 320.035 444.315 320.074 444.521C320.149 445.576 320.149 446.634 320.074 447.689C319.771 451.216 319.228 454.724 318.446 458.194L317.582 458.095L318.296 451.495C318.534 449.24 316.155 451.627 315.216 453.97C314.277 456.313 312.712 458.722 307.066 458.15C300.48 457.435 297.813 456.874 299.679 455.675Z" fill="#2E353A"/>
<path d="M314.427 225.126C323.993 224.026 326.872 220.462 326.872 220.462C320.8 215.435 325.846 206.712 325.846 206.712L314.327 208.604C314.589 210.012 314.74 211.435 314.778 212.861C314.865 218.999 311.698 219.065 311.698 219.065C309.682 222.387 314.427 225.126 314.427 225.126Z" fill="#9F5B53"/>
<path opacity="0.2" d="M314.327 208.604C314.589 210.012 314.74 211.435 314.778 212.861C322.553 212.861 325.846 206.712 325.846 206.712L314.327 208.604Z" fill="black"/>
<path d="M320.687 180.301C310.671 179.817 307.166 184.371 305.864 193.402C304.236 204.688 306.602 212.872 319.273 211.057C336.475 208.593 337.314 181.104 320.687 180.301Z" fill="#9F5B53"/>
<path d="M312.361 193.226C311.48 194.503 310.425 195.682 309.219 196.735C309.495 197.107 309.88 197.406 310.335 197.6C310.789 197.794 311.295 197.875 311.798 197.835L312.361 193.226Z" fill="#892B29"/>
<path d="M318.534 192.797C318.534 193.523 318.872 194.139 319.41 194.172C319.949 194.205 320.462 193.655 320.525 192.94C320.587 192.225 320.199 191.598 319.648 191.565C319.097 191.532 318.609 192.082 318.534 192.797Z" fill="#2E353A"/>
<path d="M319.873 191.609L318.146 190.872C318.146 190.872 318.909 192.258 319.873 191.609Z" fill="#2E353A"/>
<path d="M308.343 191.95C308.28 192.665 308.668 193.281 309.219 193.325C309.77 193.369 310.258 192.808 310.321 192.082C310.383 191.356 309.995 190.751 309.444 190.707C308.893 190.663 308.405 191.224 308.343 191.95Z" fill="#2E353A"/>
<path d="M309.67 190.762L307.942 190.025C307.942 190.025 308.718 191.4 309.67 190.762Z" fill="#2E353A"/>
<path d="M319.085 186.604C319.883 186.607 320.671 186.77 321.387 187.081C322.103 187.391 322.728 187.842 323.216 188.397" stroke="#2E353A" stroke-width="0.72468" stroke-linecap="round" stroke-linejoin="round"/>
<path d="M311.748 185.79C311.052 185.678 310.336 185.707 309.655 185.874C308.973 186.042 308.345 186.344 307.817 186.758" stroke="#2E353A" stroke-width="0.72468" stroke-linecap="round" stroke-linejoin="round"/>
<path d="M330.703 195.657C330.703 195.657 326.472 188.199 327.536 182.655C327.536 182.655 308.142 174.581 306.051 192.225C306.051 192.225 305.1 176.418 322.327 176.902C339.555 177.386 338.115 199.496 328.813 205.667C328.813 205.7 333.32 200.31 330.703 195.657Z" fill="#2E353A"/>
<path d="M328.963 197.428C329.04 196.926 329.229 196.442 329.52 196.004C329.81 195.566 330.196 195.182 330.656 194.876C331.115 194.569 331.639 194.345 332.197 194.217C332.755 194.089 333.337 194.058 333.908 194.128C336.988 194.568 338.115 200.233 330.315 201.212C329.201 201.366 328.637 200.387 328.963 197.428Z" fill="#9F5B53"/>
<path d="M317.833 198.253C317.833 198.253 317.082 201.553 312.023 201.553" stroke="#2E353A" stroke-width="0.72468" stroke-linecap="round" stroke-linejoin="round"/>
<path d="M293.319 266.277L268.842 392.601C268.842 392.601 328.062 398.805 348.144 395.175C348.144 395.175 353.064 304.766 332.106 269.093L293.319 266.277Z" fill="#00ACFF"/>
<path d="M258.914 439.208C258.914 439.208 252.654 450.637 249.11 452.848C249.11 452.848 253.906 455.356 258.914 449.768C265.374 442.53 266.951 444.543 266.951 444.543C266.82 443.297 266.56 442.063 266.175 440.858C265.199 438.526 258.914 439.208 258.914 439.208Z" fill="#9F5B53"/>
<path d="M312.111 439.12C312.111 439.12 310.346 443.344 308.005 447.997C306.925 450.409 305.326 452.617 303.297 454.498C303.297 454.498 307.379 455.664 309.557 453.398C311.735 451.132 315.542 443.014 319.773 443.949C319.543 443.287 319.223 442.652 318.822 442.057C318.221 441.155 312.111 439.12 312.111 439.12Z" fill="#9F5B53"/>
<path d="M293.243 265.848L292.092 272.602L335.261 275.286L334.584 267.982L293.243 265.848Z" fill="black"/>
<path d="M314.252 266.618C313.789 266.178 302.496 265.386 301.569 266.189C301.569 266.189 300.405 272.899 300.868 273.526C301.331 274.153 312.224 274.23 313.238 274.296C314.252 274.362 314.69 267.058 314.252 266.618ZM312.224 273.537C311.397 273.537 302.446 273.427 302.07 272.91C301.694 272.393 302.646 266.882 302.646 266.882C303.41 266.222 312.662 266.882 313.063 267.234C313.463 267.586 313 273.592 312.199 273.537H312.224Z" fill="white"/>
<path d="M311.961 269.126L309.732 268.994C309.527 268.978 309.323 269.032 309.163 269.145C309.002 269.258 308.897 269.42 308.868 269.599C308.849 269.699 308.853 269.801 308.882 269.9C308.911 269.998 308.963 270.089 309.036 270.168C309.108 270.248 309.198 270.312 309.301 270.358C309.404 270.404 309.517 270.43 309.632 270.435L311.873 270.545C312.077 270.537 312.27 270.463 312.415 270.337C312.56 270.211 312.647 270.043 312.66 269.864C312.672 269.685 312.609 269.509 312.482 269.369C312.356 269.228 312.174 269.134 311.973 269.104L311.961 269.126Z" fill="white"/>
<path d="M343.048 220.11C350.898 224.598 345.439 260.689 312.023 288.31L308.33 284.262C308.33 284.262 330.002 257.939 332.556 246.983C338.303 222.31 343.048 220.11 343.048 220.11Z" fill="#9F5B53"/>
<path d="M296.323 218.757C292.567 217.866 285.456 237.589 285.456 255.673C285.456 265.848 288.849 285.45 288.849 285.45L294.758 282.15C294.758 282.15 292.818 253.847 293.243 251.24C293.669 248.633 298.064 231.561 298.064 231.561C298.853 229.131 299.311 226.628 299.428 224.103C299.382 223.068 299.08 222.054 298.544 221.131C298.008 220.208 297.25 219.398 296.323 218.757Z" fill="#9F5B53"/>
<path d="M363.655 292.157L253.793 288.28L250.78 354.183L360.642 358.059L363.655 292.157Z" fill="#00ACFF"/>
<path opacity="0.7" d="M363.655 292.157L253.793 288.28L250.78 354.183L360.642 358.059L363.655 292.157Z" fill="white"/>
<path d="M363.655 292.157L253.793 288.28L250.78 354.183L360.642 358.059L363.655 292.157Z" stroke="black" stroke-width="0.5" stroke-miterlimit="10"/>
<path d="M254.95 287.342L252.71 287.263L252.621 289.231L254.86 289.31L254.95 287.342Z" fill="black"/>
<path d="M251.917 353.249L249.678 353.17L249.588 355.137L251.827 355.216L251.917 353.249Z" fill="black"/>
<path d="M361.777 357.13L359.538 357.051L359.448 359.019L361.687 359.098L361.777 357.13Z" fill="black"/>
<path d="M364.822 291.213L362.583 291.134L362.493 293.101L364.732 293.18L364.822 291.213Z" fill="black"/>
<path d="M354.579 301.532L291.628 299.332C291.504 299.328 291.382 299.302 291.269 299.256C291.156 299.21 291.054 299.144 290.971 299.063C290.887 298.982 290.822 298.888 290.78 298.785C290.738 298.682 290.72 298.572 290.727 298.463C290.737 298.243 290.845 298.036 291.028 297.885C291.21 297.735 291.453 297.654 291.703 297.66L354.654 299.86C354.778 299.863 354.901 299.887 355.015 299.932C355.128 299.977 355.23 300.041 355.315 300.121C355.4 300.201 355.467 300.295 355.51 300.397C355.553 300.5 355.573 300.609 355.568 300.718C355.565 300.829 355.537 300.938 355.485 301.039C355.433 301.14 355.359 301.231 355.267 301.307C355.175 301.383 355.067 301.441 354.949 301.48C354.831 301.519 354.705 301.536 354.579 301.532Z" fill="#00ACFF"/>
<path d="M354.316 307.604L291.353 305.404C291.23 305.4 291.108 305.374 290.996 305.329C290.884 305.283 290.783 305.219 290.7 305.139C290.616 305.06 290.551 304.966 290.508 304.864C290.466 304.763 290.446 304.654 290.451 304.546C290.455 304.436 290.483 304.327 290.535 304.227C290.586 304.126 290.661 304.036 290.753 303.961C290.845 303.886 290.954 303.828 291.072 303.791C291.19 303.753 291.315 303.737 291.441 303.743L354.391 305.943C354.641 305.955 354.876 306.052 355.045 306.215C355.214 306.378 355.303 306.592 355.293 306.812C355.28 307.03 355.17 307.235 354.988 307.383C354.805 307.531 354.564 307.61 354.316 307.604Z" fill="#00ACFF"/>
<path d="M354.016 313.665L291.065 311.465C290.94 311.461 290.817 311.435 290.704 311.389C290.59 311.343 290.488 311.278 290.403 311.197C290.318 311.116 290.252 311.022 290.209 310.919C290.166 310.816 290.146 310.706 290.151 310.596C290.156 310.487 290.185 310.379 290.238 310.28C290.29 310.181 290.365 310.092 290.457 310.018C290.549 309.945 290.657 309.888 290.774 309.851C290.891 309.814 291.016 309.798 291.14 309.804L354.091 312.004C354.342 312.016 354.578 312.113 354.749 312.275C354.92 312.438 355.011 312.652 355.005 312.873C354.992 313.093 354.88 313.299 354.695 313.448C354.51 313.596 354.266 313.674 354.016 313.665Z" fill="#00ACFF"/>
<path d="M353.728 319.737L290.777 317.537C290.526 317.526 290.289 317.428 290.119 317.266C289.948 317.104 289.856 316.889 289.863 316.668C289.868 316.558 289.897 316.45 289.95 316.35C290.002 316.251 290.076 316.161 290.168 316.086C290.26 316.012 290.368 315.954 290.485 315.916C290.602 315.878 290.727 315.861 290.852 315.865L353.803 318.065C354.054 318.076 354.29 318.174 354.461 318.336C354.632 318.498 354.724 318.713 354.717 318.934C354.712 319.044 354.682 319.152 354.63 319.251C354.578 319.351 354.503 319.441 354.412 319.516C354.32 319.59 354.212 319.648 354.095 319.686C353.977 319.724 353.853 319.741 353.728 319.737Z" fill="#00ACFF"/>
<path d="M353.44 325.809L261.455 322.509C261.33 322.505 261.207 322.479 261.094 322.433C260.98 322.387 260.878 322.322 260.793 322.241C260.708 322.16 260.642 322.066 260.599 321.963C260.556 321.859 260.536 321.75 260.541 321.64C260.546 321.53 260.575 321.422 260.628 321.323C260.68 321.223 260.754 321.133 260.846 321.058C260.938 320.984 261.046 320.926 261.163 320.888C261.281 320.85 261.405 320.833 261.53 320.837L353.515 324.137C353.64 324.141 353.763 324.167 353.876 324.213C353.99 324.259 354.092 324.324 354.177 324.405C354.262 324.486 354.328 324.58 354.371 324.684C354.414 324.787 354.434 324.896 354.429 325.006C354.416 325.227 354.305 325.434 354.12 325.584C353.935 325.735 353.691 325.815 353.44 325.809Z" fill="#00ACFF"/>
<path d="M353.152 331.87L261.167 328.57C261.042 328.566 260.919 328.54 260.806 328.494C260.692 328.448 260.59 328.383 260.505 328.302C260.42 328.221 260.354 328.127 260.311 328.024C260.268 327.921 260.248 327.811 260.253 327.701C260.266 327.481 260.377 327.275 260.563 327.127C260.748 326.978 260.992 326.9 261.242 326.909L353.239 330.209C353.363 330.213 353.484 330.239 353.596 330.284C353.708 330.33 353.809 330.394 353.892 330.474C353.976 330.554 354.041 330.647 354.084 330.749C354.126 330.851 354.146 330.959 354.141 331.067C354.138 331.177 354.109 331.286 354.057 331.387C354.006 331.487 353.932 331.577 353.839 331.652C353.747 331.727 353.639 331.785 353.521 331.822C353.402 331.86 353.277 331.876 353.152 331.87Z" fill="#00ACFF"/>
<path d="M352.876 337.942L260.879 334.642C260.628 334.631 260.392 334.533 260.221 334.371C260.05 334.209 259.958 333.994 259.965 333.773C259.978 333.552 260.089 333.345 260.274 333.195C260.459 333.045 260.703 332.964 260.954 332.97L352.951 336.27C353.203 336.281 353.439 336.379 353.61 336.541C353.78 336.703 353.872 336.918 353.865 337.139C353.852 337.36 353.742 337.567 353.557 337.717C353.372 337.867 353.128 337.948 352.876 337.942Z" fill="#00ACFF"/>
<path d="M352.588 344.003L260.591 340.703C260.468 340.699 260.347 340.673 260.235 340.628C260.123 340.582 260.022 340.518 259.938 340.438C259.854 340.359 259.789 340.265 259.747 340.163C259.704 340.062 259.685 339.954 259.69 339.845C259.693 339.736 259.721 339.628 259.772 339.528C259.823 339.429 259.896 339.339 259.987 339.264C260.078 339.189 260.185 339.131 260.301 339.093C260.418 339.055 260.542 339.038 260.666 339.042L352.663 342.342C352.915 342.354 353.151 342.451 353.322 342.613C353.492 342.776 353.584 342.99 353.577 343.211C353.564 343.431 353.453 343.637 353.268 343.786C353.083 343.934 352.839 344.012 352.588 344.003Z" fill="#00ACFF"/>
<path d="M352.3 350.075L260.316 346.775C260.191 346.771 260.068 346.745 259.954 346.699C259.841 346.653 259.739 346.588 259.654 346.507C259.569 346.426 259.503 346.332 259.46 346.229C259.417 346.125 259.397 346.016 259.402 345.906C259.415 345.685 259.526 345.478 259.71 345.328C259.895 345.178 260.139 345.097 260.391 345.103L352.375 348.403C352.5 348.407 352.623 348.433 352.737 348.479C352.85 348.525 352.953 348.59 353.037 348.671C353.122 348.752 353.188 348.846 353.232 348.95C353.275 349.053 353.294 349.162 353.289 349.272C353.285 349.382 353.255 349.49 353.203 349.59C353.15 349.689 353.076 349.779 352.984 349.854C352.892 349.928 352.785 349.986 352.667 350.024C352.55 350.062 352.425 350.08 352.3 350.075Z" fill="#00ACFF"/>
<path d="M271.571 301.642L266.363 301.455L266.438 299.783L279.021 300.245L278.933 301.906L273.725 301.719L273.174 313.423L271.02 313.346L271.571 301.642Z" fill="#00ACFF"/>
<path d="M284.046 297.295L261.742 296.487L260.823 316.083L283.127 316.891L284.046 297.295Z" stroke="#00ACFF" stroke-width="0.5" stroke-miterlimit="10"/>
<path d="M309.344 283.052C309.344 283.052 305.588 284.57 305.087 285.45C304.587 286.33 300.405 296.12 300.743 297.407C301.081 298.694 307.867 300.289 308.843 299.97C309.82 299.651 313.689 288.376 313.676 286.957C313.664 285.538 309.344 283.052 309.344 283.052Z" fill="#9F5B53"/>
<path d="M290.927 279.906C290.927 279.906 287.597 281.996 287.246 282.953C286.896 283.91 284.868 294.184 285.469 295.394C286.069 296.604 293.068 297.088 293.97 296.615C294.871 296.142 296.311 284.438 295.998 283.041C295.685 281.644 290.927 279.906 290.927 279.906Z" fill="#9F5B53"/>
<path d="M324.756 216.898C324.756 216.898 319.072 222.398 314.928 224.114C314.928 224.114 312.612 219.648 313.676 216.898C313.676 216.898 306.477 220.495 307.191 225.126C307.904 229.757 314.402 225.797 314.402 225.797C314.402 225.797 319.924 230.197 324.418 227.722C328.913 225.247 327.911 219.67 327.911 219.67L324.756 216.898Z" fill="#00ACFF"/>
<path d="M314.49 230.736C314.487 230.959 314.384 231.172 314.203 231.328C314.023 231.484 313.779 231.572 313.526 231.572C313.291 231.548 313.074 231.45 312.916 231.294C312.759 231.139 312.671 230.939 312.671 230.731C312.671 230.523 312.759 230.322 312.916 230.167C313.074 230.012 313.291 229.913 313.526 229.889C313.652 229.889 313.778 229.911 313.895 229.954C314.012 229.996 314.118 230.059 314.208 230.137C314.297 230.216 314.368 230.309 314.417 230.412C314.465 230.515 314.49 230.625 314.49 230.736Z" fill="#00ACFF"/>
<path d="M312.637 240.9C312.637 241.068 312.58 241.231 312.474 241.371C312.369 241.51 312.218 241.618 312.042 241.683C311.866 241.747 311.672 241.763 311.485 241.731C311.298 241.698 311.126 241.617 310.991 241.499C310.856 241.381 310.765 241.23 310.727 241.065C310.69 240.901 310.709 240.731 310.782 240.576C310.855 240.421 310.979 240.289 311.137 240.196C311.296 240.103 311.482 240.053 311.673 240.053C311.8 240.052 311.926 240.072 312.044 240.115C312.162 240.157 312.268 240.219 312.358 240.298C312.448 240.377 312.519 240.471 312.567 240.574C312.615 240.678 312.639 240.788 312.637 240.9Z" fill="#00ACFF"/>
<path d="M216.283 197.076C215.469 195.492 216.283 185.911 216.283 185.911C216.283 185.911 229.704 179.729 231.845 178.211C233.986 176.693 236.415 183.524 235.063 184.943C233.711 186.362 229.704 191.686 222.994 191.686L222.092 199.474L216.283 197.076Z" fill="#E4897B"/>
<path d="M177.446 196.438C181.628 197.329 201.785 209.11 205.891 208.714C209.998 208.318 214.843 192.214 214.843 192.214L223.219 194.414C223.219 194.414 222.818 223.795 215.156 226.974C207.494 230.153 175.994 224.092 175.994 224.092L177.446 196.438Z" fill="#263238"/>
<path opacity="0.2" d="M223.207 194.436C223.207 194.436 222.818 223.828 215.156 227.007C212.452 228.107 206.818 228.107 200.633 227.601C192.352 226.821 184.124 225.661 175.981 224.125L176.169 220.759L177.421 196.449C181.59 197.318 201.747 209.11 205.854 208.703C209.96 208.296 214.818 192.203 214.818 192.203L223.207 194.436Z" fill="white"/>
<path opacity="0.2" d="M200.633 227.601C192.352 226.821 184.124 225.661 175.981 224.125L176.169 220.759C177.008 217.459 177.784 214.61 177.784 214.61C177.784 214.61 200.508 218.9 200.633 227.601Z" fill="black"/>
<path d="M137.056 448.415H125.2C125.004 448.414 124.813 448.472 124.66 448.581C124.507 448.689 124.402 448.84 124.361 449.009L122.433 456.709C122.355 457.039 122.428 457.382 122.637 457.664C122.846 457.946 123.173 458.145 123.547 458.216C123.651 458.227 123.756 458.227 123.86 458.216C127.729 458.161 130.534 457.952 135.379 457.952C138.359 457.952 147.36 458.227 151.479 458.227C155.599 458.227 156.137 454.652 154.459 454.322C146.947 452.881 141.201 450.868 138.772 448.965C138.541 448.778 138.271 448.633 137.977 448.539C137.682 448.444 137.37 448.402 137.056 448.415Z" fill="#263238"/>
<path d="M187.625 448.14H175.706C175.509 448.139 175.319 448.197 175.166 448.306C175.013 448.414 174.907 448.565 174.867 448.734L172.926 456.434C172.849 456.765 172.924 457.11 173.135 457.392C173.346 457.675 173.676 457.872 174.053 457.941C174.157 457.958 174.263 457.958 174.366 457.941C178.222 457.886 181.027 457.677 185.872 457.677C188.864 457.677 197.866 457.952 201.985 457.952C206.104 457.952 206.643 454.377 204.952 454.047C197.44 452.606 191.694 450.593 189.277 448.69C188.828 448.326 188.236 448.129 187.625 448.14Z" fill="#263238"/>
<path d="M192.169 449.405H174.529C174.529 449.405 172.901 400.741 177.784 365.882C177.784 365.882 172.939 344.982 168.707 325.314C166.516 315.161 164.488 305.327 163.361 298.848C158.966 349.723 152.256 364.199 152.256 364.199C148.5 416.097 140.6 449.339 140.6 449.339H122.696C121.031 408.452 129.895 358.545 129.895 358.545C124.211 300.762 123.91 260.788 123.998 254.782H193.159C198.066 278.542 211.989 354.2 192.169 449.405Z" fill="#00ACFF"/>
<path d="M193.108 254.782H123.935V260.271L193.985 259.699L193.108 254.782Z" fill="black"/>
<path d="M146.171 262.053H148.637V252.318H146.171V262.053Z" fill="#00ACFF"/>
<path d="M181.164 262.053H183.631V252.318H181.164V262.053Z" fill="#00ACFF"/>
<path d="M161.571 259.963H174.366V253.825H161.571V259.963Z" fill="white"/>
<path d="M193.108 254.782H123.948C123.622 252.164 123.385 247.489 123.209 241.89C123.022 235.697 122.896 228.382 122.821 221.507C122.683 208.912 122.696 197.813 122.696 197.813C122.696 197.813 131.46 190.751 152.744 190.806C161.493 190.974 170.073 192.957 177.784 196.592C193.108 231.143 193.108 254.782 193.108 254.782Z" fill="#263238"/>
<path d="M137.319 193.732C143.354 198.649 154.572 200.222 154.572 200.222C154.572 200.222 162.622 196.526 165.026 193.567C160.957 190.806 160.106 190.553 158.766 188.474C158.043 187.23 157.755 185.825 157.94 184.437C158.007 183.663 158.141 182.894 158.34 182.138L137.319 174.075C140.312 179.828 143.755 189.2 137.319 193.732Z" fill="#E4897B"/>
<path opacity="0.2" d="M142.352 179.531C143.604 186.681 153.783 188.265 158.766 188.474C158.043 187.23 157.755 185.825 157.94 184.437L142.352 179.531Z" fill="black"/>
<path d="M154.121 152.977C154.121 152.977 166.979 157.124 159.129 169.543C154.922 176.143 146.759 155.034 146.759 155.034L154.121 152.977Z" fill="#263238"/>
<path d="M142.803 183.535C144.836 184.975 147.35 185.788 149.96 185.852C152.569 185.916 155.131 185.225 157.251 183.887C160.036 182.206 161.981 179.651 162.685 176.748C162.791 176.345 162.87 175.938 162.923 175.527C163.849 167.893 160.769 155.815 151.104 153.582C148.973 153.079 146.73 153.063 144.59 153.536C142.45 154.009 140.483 154.955 138.876 156.285C137.27 157.615 136.078 159.283 135.413 161.132C134.748 162.981 134.633 164.949 135.078 166.848C136.844 175.01 137.432 179.872 142.803 183.535Z" fill="#E4897B"/>
<path d="M149.639 167.541C149.639 168.212 150.215 168.707 150.728 168.641C151.242 168.575 151.542 167.992 151.454 167.332C151.367 166.672 150.866 166.166 150.365 166.232C149.864 166.298 149.551 166.859 149.639 167.541Z" fill="#263238"/>
<path d="M161.258 167.673C162.863 168.207 164.205 169.217 165.051 170.529C165.897 171.841 166.194 173.372 165.89 174.856C164.5 183.084 153.696 189.475 142.803 183.535C133.05 178.2 161.258 167.673 161.258 167.673Z" fill="#E4897B"/>
<path d="M158.265 166.562C158.265 167.233 158.854 167.728 159.342 167.662C159.83 167.596 160.168 167.013 160.068 166.342C159.968 165.671 159.48 165.176 158.991 165.242C158.503 165.308 158.178 165.924 158.265 166.562Z" fill="#263238"/>
<path d="M155.574 167.2C156.784 169.149 158.297 170.941 160.068 172.524C159.59 172.911 159.023 173.201 158.405 173.376C157.786 173.551 157.132 173.606 156.487 173.536L155.574 167.2Z" fill="#DE5753"/>
<path d="M160.957 163.086C160.884 163.122 160.803 163.14 160.719 163.14C160.636 163.14 160.554 163.122 160.481 163.086C159.992 162.836 159.442 162.691 158.877 162.66C158.312 162.63 157.747 162.715 157.226 162.91C157.175 162.935 157.119 162.951 157.061 162.957C157.003 162.963 156.945 162.958 156.889 162.944C156.833 162.93 156.781 162.906 156.735 162.873C156.69 162.841 156.653 162.801 156.625 162.756C156.596 162.711 156.578 162.66 156.571 162.609C156.564 162.557 156.569 162.505 156.586 162.455C156.602 162.404 156.629 162.358 156.666 162.317C156.703 162.276 156.749 162.242 156.8 162.217C157.453 161.955 158.166 161.834 158.883 161.863C159.599 161.891 160.297 162.069 160.92 162.382C161.024 162.433 161.102 162.518 161.137 162.618C161.172 162.719 161.161 162.827 161.107 162.921C161.075 162.987 161.023 163.044 160.957 163.086Z" fill="#263238"/>
<path d="M147.498 164.714C147.413 164.74 147.32 164.74 147.235 164.714C147.153 164.639 147.108 164.538 147.108 164.434C147.108 164.329 147.153 164.229 147.235 164.153C147.698 163.67 148.287 163.292 148.952 163.053C149.617 162.813 150.338 162.719 151.054 162.778C151.169 162.794 151.273 162.849 151.343 162.932C151.413 163.014 151.444 163.116 151.429 163.218C151.408 163.32 151.343 163.411 151.247 163.473C151.152 163.534 151.033 163.561 150.916 163.548C150.352 163.511 149.786 163.591 149.264 163.782C148.742 163.973 148.278 164.27 147.911 164.648C147.854 164.689 147.786 164.716 147.714 164.727C147.642 164.739 147.568 164.734 147.498 164.714Z" fill="#263238"/>
<path d="M140.449 155.804L141.564 157.223C138.672 158.587 139.911 161.623 140.825 162.943C142.766 165.77 141.764 170.775 139.498 173.063C139.498 173.063 139.147 171.765 137.945 172.271C136.743 172.777 138.484 179.564 141.601 182.435C141.601 182.435 137.282 180.07 133.726 173.217C130.446 166.892 127.554 160.611 131.222 155.804H140.449Z" fill="#263238"/>
<path d="M131.986 174.064C132.634 174.928 133.47 175.671 134.445 176.25C135.42 176.83 136.516 177.234 137.67 177.441C140.762 177.98 142.064 175.494 141.013 173.041C140.049 170.841 137.257 167.893 134.277 168.487C131.297 169.081 130.396 171.908 131.986 174.064Z" fill="#E4897B"/>
<path d="M151.805 156.673C151.805 156.673 160.632 151.558 158.954 147.642C157.276 143.726 155.198 148.643 155.198 148.643C155.198 148.643 156.024 145.431 153.47 145.277C150.916 145.123 152.005 146.872 150.841 148.203C149.677 149.534 136.268 149.303 132.374 152.108C128.48 154.913 132.9 162.514 132.9 162.514C132.9 162.514 139.686 154 151.805 156.673Z" fill="#263238"/>
<path d="M157.439 176.66C156.633 177.63 155.905 178.648 155.261 179.707L154.572 179.498C151.492 178.541 150.428 177.199 150.177 176C150.07 175.415 150.121 174.816 150.328 174.251C150.436 173.928 150.596 173.621 150.803 173.338C152.402 174.675 154.311 175.692 156.4 176.319C157.038 176.55 157.439 176.66 157.439 176.66Z" fill="#263238"/>
<path d="M156.4 176.319L155.724 177.199C152.832 176.297 150.929 175.307 150.328 174.251C150.436 173.928 150.596 173.621 150.803 173.338C152.402 174.675 154.311 175.692 156.4 176.319Z" fill="white"/>
<path d="M154.572 179.498C151.492 178.541 150.428 177.199 150.177 176C151.338 176.389 152.414 176.95 153.357 177.661C153.97 178.147 154.394 178.79 154.572 179.498Z" fill="#DE5753"/>
<path d="M159.367 196.922L156.563 203.434L163.887 236.775L161.157 240.372L156.563 237.094L153.996 204.193L147.085 197.351L153.996 195.789L159.367 196.922Z" fill="#00ACFF"/>
<path d="M140.061 188.595L154.121 194.612L160.056 189.079L166.979 192.764L162.334 202.224L154.572 197.021L149.188 202.774L134.941 192.687L140.061 188.595Z" fill="#263238"/>
<path opacity="0.2" d="M140.061 188.595L154.121 194.612L160.056 189.079L166.979 192.764L162.334 202.224L154.572 197.021L149.188 202.774L134.941 192.687L140.061 188.595Z" fill="white"/>
<path opacity="0.2" d="M123.209 241.89C123.022 235.697 122.896 228.382 122.821 221.507L128.693 217.107C128.693 217.107 129.544 235.18 123.209 241.89Z" fill="black"/>
<path opacity="0.2" d="M168.707 325.314C166.516 315.161 164.488 305.327 163.361 298.848C166.422 295.933 168.528 292.345 169.458 288.464C169.458 288.464 172.313 308.176 168.707 325.314Z" fill="black"/>
<path d="M90.2316 225.225L80.8166 221.408C80.8166 221.408 77.7742 219.296 75.8086 219.472C73.843 219.648 61.4607 221.221 60.7846 221.408C60.1085 221.595 62.0366 228.822 64.4279 228.503C66.8192 228.184 75.9463 228.888 77.1608 227.645L88.1784 235.136L90.2316 225.225Z" fill="#E4897B"/>
<path d="M123.147 197.538C118.214 198.022 106.12 222.629 101.374 225.192C96.6294 227.755 85.2863 222.2 85.2863 222.2L80.2783 232.991C80.2783 232.991 98.9331 245.091 105.506 244.057C118.239 242.132 126.565 226.259 126.565 226.259C126.565 226.259 131.46 212.861 127.103 202.708C126.182 200.774 124.838 199.017 123.147 197.538Z" fill="#263238"/>
<path opacity="0.2" d="M123.147 197.538C118.214 198.022 106.12 222.629 101.374 225.192C96.6294 227.755 85.2863 222.2 85.2863 222.2L80.2783 232.991C80.2783 232.991 98.9331 245.091 105.506 244.057C118.239 242.132 126.565 226.259 126.565 226.259C126.565 226.259 131.46 212.861 127.103 202.708C126.182 200.774 124.838 199.017 123.147 197.538Z" fill="white"/>
</svg>
