<svg width="577" height="562" viewBox="0 0 577 562" fill="none" xmlns="http://www.w3.org/2000/svg">
<path d="M577 429.817H0V430.098H577V429.817Z" fill="#EBEBEB"/>
<path d="M519.185 447.902H480.964V448.183H519.185V447.902Z" fill="#EBEBEB"/>
<path d="M382.228 450.96H372.2V451.241H382.228V450.96Z" fill="#EBEBEB"/>
<path d="M479.81 437.472H457.665V437.753H479.81V437.472Z" fill="#EBEBEB"/>
<path d="M110.38 439.36H60.5388V439.641H110.38V439.36Z" fill="#EBEBEB"/>
<path d="M127.967 439.36H120.662V439.641H127.967V439.36Z" fill="#EBEBEB"/>
<path d="M259.823 444.104H151.716V444.385H259.823V444.104Z" fill="#EBEBEB"/>
<path d="M273.498 379.687H50.6721C48.9265 379.684 47.2535 379.007 46.0202 377.803C44.787 376.6 44.0943 374.969 44.0943 373.269V68.1817C44.1095 66.4912 44.8089 64.8748 46.0405 63.6837C47.2721 62.4925 48.9365 61.8227 50.6721 61.8198H273.498C275.246 61.8198 276.922 62.496 278.157 63.6996C279.393 64.9032 280.087 66.5357 280.087 68.2379V373.269C280.087 374.971 279.393 376.604 278.157 377.807C276.922 379.011 275.246 379.687 273.498 379.687ZM50.6721 62.0446C49.003 62.0476 47.4034 62.6955 46.2242 63.8461C45.0451 64.9967 44.3828 66.556 44.3828 68.1817V373.269C44.3828 374.895 45.0451 376.454 46.2242 377.605C47.4034 378.755 49.003 379.403 50.6721 379.406H273.498C275.168 379.403 276.769 378.755 277.95 377.605C279.131 376.455 279.796 374.896 279.799 373.269V68.1817C279.796 66.5549 279.131 64.9957 277.95 63.8454C276.769 62.6951 275.168 62.0476 273.498 62.0446H50.6721Z" fill="#EBEBEB"/>
<path d="M523.12 379.687H300.282C298.536 379.684 296.861 379.007 295.626 377.804C294.391 376.601 293.696 374.97 293.693 373.269V68.1817C293.711 66.4902 294.413 64.8738 295.647 63.683C296.88 62.4921 298.546 61.8227 300.282 61.8198H523.12C524.853 61.8257 526.515 62.4968 527.744 63.6876C528.973 64.8785 529.671 66.4931 529.686 68.1817V373.269C529.686 374.967 528.995 376.596 527.764 377.799C526.533 379.002 524.863 379.681 523.12 379.687ZM300.282 62.0446C298.612 62.0476 297.011 62.6951 295.83 63.8454C294.649 64.9957 293.985 66.5549 293.981 68.1817V373.269C293.985 374.896 294.649 376.455 295.83 377.605C297.011 378.755 298.612 379.403 300.282 379.406H523.12C524.79 379.403 526.391 378.755 527.572 377.605C528.753 376.455 529.417 374.896 529.421 373.269V68.1817C529.417 66.5549 528.753 64.9957 527.572 63.8454C526.391 62.6951 524.79 62.0476 523.12 62.0446H300.282Z" fill="#EBEBEB"/>
<path d="M92.2623 275.604L488.684 275.604V86.7612L92.2623 86.7612V275.604Z" fill="#E6E6E6"/>
<path d="M88.3041 275.604L484.726 275.604V86.7612L88.3041 86.7612V275.604Z" fill="#F5F5F5"/>
<path d="M477.618 269.142V93.2134L95.4012 93.2134V269.142H477.618Z" fill="#FAFAFA"/>
<path d="M299.867 269.142L382.02 93.2134H313.184L231.031 269.142H299.867Z" fill="white"/>
<path d="M358.952 269.142L441.105 93.2134H400.023L317.858 269.142H358.952Z" fill="white"/>
<path d="M153.771 269.142L235.924 93.2134H215.383L133.218 269.142H153.771Z" fill="white"/>
<path d="M98.4131 269.142L98.4131 93.2134H95.4243L95.4243 269.142H98.4131Z" fill="#E6E6E6"/>
<path d="M91.2584 256.362L481.795 256.362V253.979L91.2584 253.979V256.362Z" fill="#F5F5F5"/>
<path d="M91.2584 250.079L481.795 250.079V247.696L91.2584 247.696V250.079Z" fill="#F5F5F5"/>
<g opacity="0.4">
<path d="M100.629 75.8022H78.6682V199.195H100.629V75.8022Z" fill="#EBEBEB"/>
<path d="M111.592 75.8022H100.617V191.945H111.592V75.8022Z" fill="#E6E6E6"/>
<path d="M133.564 75.8022H111.603V199.195H133.564V75.8022Z" fill="#EBEBEB"/>
<path d="M144.527 75.8022H133.552V191.945H144.527V75.8022Z" fill="#E6E6E6"/>
<path d="M166.499 75.8022H144.539V199.195H166.499V75.8022Z" fill="#EBEBEB"/>
<path d="M177.462 75.8022H166.488V191.945H177.462V75.8022Z" fill="#E6E6E6"/>
<path d="M199.434 75.8022H177.474V199.195H199.434V75.8022Z" fill="#EBEBEB"/>
<path d="M210.397 75.8022H199.423V191.945H210.397V75.8022Z" fill="#E6E6E6"/>
<path d="M232.358 75.8022H210.397V199.195H232.358V75.8022Z" fill="#EBEBEB"/>
<path d="M243.332 75.8022H232.358V191.945H243.332V75.8022Z" fill="#E6E6E6"/>
<path d="M265.293 75.8022H243.332V199.195H265.293V75.8022Z" fill="#EBEBEB"/>
<path d="M276.268 75.8022H265.293V191.945H276.268V75.8022Z" fill="#E6E6E6"/>
<path d="M298.228 75.8022H276.268V199.195H298.228V75.8022Z" fill="#EBEBEB"/>
<path d="M309.203 75.8022H298.228V191.945H309.203V75.8022Z" fill="#E6E6E6"/>
<path d="M331.163 75.8022H309.203V199.195H331.163V75.8022Z" fill="#EBEBEB"/>
<path d="M342.138 75.8022H331.163V191.945H342.138V75.8022Z" fill="#E6E6E6"/>
<path d="M364.099 75.8022H342.138V199.195H364.099V75.8022Z" fill="#EBEBEB"/>
<path d="M375.073 75.8022H364.099V191.945H375.073V75.8022Z" fill="#E6E6E6"/>
<path d="M397.034 75.8022H375.073V199.195H397.034V75.8022Z" fill="#EBEBEB"/>
<path d="M408.008 75.8022H397.034V191.945H408.008V75.8022Z" fill="#E6E6E6"/>
<path d="M429.969 75.8022H408.008V199.195H429.969V75.8022Z" fill="#EBEBEB"/>
<path d="M440.943 75.8022H429.969V191.945H440.943V75.8022Z" fill="#E6E6E6"/>
<path d="M462.904 75.8022H440.943V199.195H462.904V75.8022Z" fill="#EBEBEB"/>
<path d="M495.839 75.8022H473.879V199.195H495.839V75.8022Z" fill="#EBEBEB"/>
<path d="M473.879 75.8022H462.904V191.945H473.879V75.8022Z" fill="#E6E6E6"/>
</g>
<path d="M470.29 286.867H69.0784V294.859H470.29V286.867Z" fill="#F5F5F5"/>
<path d="M470.29 294.87H493.589V286.878H470.29V294.87Z" fill="#EBEBEB"/>
<path d="M480.941 325.207H473.278L473.094 323.88C472.934 322.64 472.314 321.498 471.352 320.671C470.39 319.843 469.15 319.385 467.866 319.384H428.723C427.97 319.384 427.227 319.541 426.542 319.843C425.857 320.146 425.247 320.588 424.752 321.139C424.257 321.691 423.888 322.339 423.671 323.041C423.455 323.742 423.395 324.481 423.495 325.207L424.545 332.737C424.635 333.399 424.969 334.006 425.485 334.444C426.002 334.883 426.664 335.123 427.349 335.12H483.699C484.102 335.12 484.5 335.037 484.866 334.875C485.233 334.713 485.56 334.477 485.826 334.183C486.091 333.888 486.289 333.541 486.406 333.166C486.523 332.791 486.556 332.396 486.503 332.007L486.169 329.613C485.988 328.388 485.36 327.268 484.399 326.459C483.439 325.65 482.211 325.205 480.941 325.207Z" fill="#EBEBEB"/>
<path d="M467.497 340.1H444.29L443.355 335.166H466.562L467.497 340.1Z" fill="#F5F5F5"/>
<path d="M457.607 337.638H453.245V429.817H457.607V337.638Z" fill="#F5F5F5"/>
<path d="M472.551 429.818H438.058L450.418 426.704H460.192L472.551 429.818Z" fill="#F5F5F5"/>
<path d="M368.634 325.207H360.96L360.775 323.88C360.62 322.639 360.004 321.497 359.043 320.669C358.081 319.84 356.842 319.383 355.559 319.384H316.404C315.653 319.386 314.91 319.543 314.227 319.847C313.543 320.15 312.934 320.592 312.441 321.144C311.947 321.695 311.579 322.343 311.363 323.043C311.147 323.744 311.087 324.482 311.188 325.207L312.238 332.737C312.327 333.397 312.66 334.002 313.174 334.441C313.688 334.879 314.347 335.121 315.03 335.12H371.392C371.794 335.121 372.192 335.037 372.558 334.875C372.924 334.714 373.251 334.477 373.515 334.182C373.78 333.887 373.976 333.54 374.092 333.165C374.207 332.79 374.239 332.395 374.184 332.007L373.861 329.613C373.681 328.388 373.053 327.268 372.092 326.459C371.132 325.65 369.904 325.205 368.634 325.207Z" fill="#EBEBEB"/>
<path d="M355.178 340.1H331.971L331.048 335.166H354.255L355.178 340.1Z" fill="#F5F5F5"/>
<path d="M345.3 337.638H340.938V429.817H345.3V337.638Z" fill="#F5F5F5"/>
<path d="M360.233 429.818H325.74L338.099 426.704H347.873L360.233 429.818Z" fill="#F5F5F5"/>
<path d="M256.326 325.207H248.652L248.468 323.88C248.31 322.64 247.693 321.499 246.733 320.671C245.772 319.843 244.534 319.386 243.252 319.384H204.096C203.345 319.386 202.603 319.543 201.92 319.847C201.236 320.15 200.627 320.592 200.133 321.144C199.639 321.695 199.272 322.343 199.056 323.043C198.84 323.744 198.78 324.482 198.88 325.207L199.919 332.737C200.011 333.398 200.346 334.003 200.862 334.442C201.377 334.88 202.039 335.121 202.723 335.12H259.073C259.476 335.122 259.875 335.04 260.243 334.879C260.61 334.718 260.938 334.482 261.204 334.186C261.47 333.891 261.668 333.544 261.784 333.168C261.9 332.792 261.932 332.396 261.877 332.007L261.543 329.613C261.364 328.389 260.739 327.27 259.78 326.46C258.822 325.65 257.595 325.205 256.326 325.207Z" fill="#EBEBEB"/>
<path d="M242.871 340.1H219.664L218.729 335.166H241.936L242.871 340.1Z" fill="#F5F5F5"/>
<path d="M232.981 337.638H228.619V429.817H232.981V337.638Z" fill="#F5F5F5"/>
<path d="M247.925 429.818H213.432L225.792 426.704H235.566L247.925 429.818Z" fill="#F5F5F5"/>
<path d="M144.019 325.207H136.345L136.16 323.88C136 322.64 135.381 321.498 134.419 320.671C133.456 319.843 132.217 319.385 130.933 319.384H91.7892C91.0316 319.382 90.2824 319.538 89.5924 319.843C88.9025 320.147 88.288 320.593 87.7909 321.15C87.2937 321.707 86.9256 322.361 86.7114 323.069C86.4973 323.777 86.4423 324.521 86.55 325.252L87.6002 332.782C87.69 333.444 88.0243 334.051 88.5405 334.489C89.0567 334.928 89.7194 335.168 90.4044 335.165H146.754C147.157 335.165 147.555 335.082 147.921 334.92C148.288 334.758 148.615 334.522 148.881 334.228C149.146 333.933 149.344 333.586 149.461 333.211C149.578 332.836 149.611 332.441 149.558 332.052L149.224 329.658C149.054 328.429 148.433 327.301 147.477 326.483C146.52 325.665 145.292 325.212 144.019 325.207Z" fill="#EBEBEB"/>
<path d="M130.564 340.1H107.357L106.422 335.166H129.629L130.564 340.1Z" fill="#F5F5F5"/>
<path d="M120.674 337.638H116.312V429.817H120.674V337.638Z" fill="#F5F5F5"/>
<path d="M135.618 429.818H101.125L113.484 426.704H123.259L135.618 429.818Z" fill="#F5F5F5"/>
<path d="M288.5 480.577C412.073 480.577 512.249 474.881 512.249 467.854C512.249 460.826 412.073 455.13 288.5 455.13C164.927 455.13 64.7509 460.826 64.7509 467.854C64.7509 474.881 164.927 480.577 288.5 480.577Z" fill="#F5F5F5"/>
<path d="M416.594 160.114C416.592 161.247 416.245 162.354 415.597 163.295C414.948 164.237 414.028 164.97 412.953 165.402C411.877 165.834 410.694 165.946 409.553 165.723C408.412 165.501 407.365 164.954 406.543 164.152C405.721 163.35 405.162 162.328 404.935 161.217C404.709 160.105 404.827 158.953 405.272 157.906C405.718 156.859 406.472 155.965 407.44 155.335C408.408 154.706 409.545 154.37 410.709 154.37C411.482 154.37 412.249 154.519 412.964 154.808C413.678 155.096 414.328 155.52 414.874 156.053C415.421 156.587 415.854 157.22 416.149 157.917C416.444 158.613 416.596 159.36 416.594 160.114Z" fill="#263238"/>
<path d="M412.555 165.307C412.557 166.366 412.237 167.402 411.634 168.283C411.031 169.165 410.174 169.852 409.169 170.259C408.165 170.665 407.06 170.772 405.993 170.566C404.927 170.36 403.947 169.85 403.178 169.101C402.409 168.352 401.885 167.398 401.674 166.359C401.462 165.32 401.572 164.243 401.989 163.265C402.406 162.287 403.112 161.452 404.017 160.865C404.922 160.278 405.986 159.966 407.074 159.968C408.526 159.971 409.919 160.534 410.946 161.535C411.973 162.535 412.552 163.892 412.555 165.307Z" fill="#263238"/>
<path d="M445.79 413.778L440.343 419.736L425.468 408.215L430.915 402.257L445.79 413.778Z" fill="#7F3E3B"/>
<path d="M439.351 419.432L445.467 412.688C445.57 412.575 445.712 412.504 445.867 412.489C446.021 412.475 446.175 412.517 446.298 412.609L452.068 417.004C452.354 417.253 452.528 417.601 452.552 417.973C452.575 418.346 452.447 418.713 452.195 418.994C450.025 421.242 448.871 422.287 446.171 425.221C444.521 427.041 440.263 431.11 437.966 433.617C435.67 436.123 433.212 433.842 433.95 432.583C437.262 426.963 438.635 423.591 438.82 420.736C438.85 420.257 439.036 419.8 439.351 419.432Z" fill="#263238"/>
<path opacity="0.2" d="M430.927 402.257L425.468 408.215L433.142 414.149L438.589 408.192L430.927 402.257Z" fill="black"/>
<path d="M382.747 258.52C382.747 258.52 370.873 320.34 370.399 343.169C369.869 368.234 429.253 415.408 429.253 415.408L438.728 404.067C438.728 404.067 402.573 366.975 394.783 343.787C397.888 317.047 411.92 256.115 411.92 256.115L382.747 258.52Z" fill="#263238"/>
<path opacity="0.3" d="M393.71 299.209C391.506 310.055 392.972 324.083 396.076 334.48C398.557 318.575 403 296.916 406.531 280.404C402.642 280.55 396.468 285.608 393.71 299.209Z" fill="black"/>
<path d="M439.305 404.033L428.919 415.981L423.31 413.126L436.131 400.189L439.305 404.033Z" fill="#00ACFF"/>
<path d="M438.52 422.467C438.994 421.918 439.408 421.323 439.755 420.691C439.774 420.66 439.785 420.625 439.785 420.59C439.785 420.554 439.774 420.519 439.755 420.488C439.731 420.461 439.7 420.441 439.666 420.429C439.632 420.417 439.595 420.414 439.559 420.421C439.259 420.5 436.524 421.152 436.097 422.141C436.054 422.253 436.042 422.373 436.06 422.491C436.078 422.609 436.126 422.72 436.2 422.815C436.298 422.97 436.436 423.098 436.6 423.185C436.764 423.271 436.949 423.315 437.135 423.31C437.687 423.202 438.179 422.903 438.52 422.467ZM439.201 420.893C438.439 422.152 437.689 422.905 437.147 422.939C437.024 422.937 436.904 422.903 436.799 422.842C436.694 422.781 436.607 422.694 436.547 422.59C436.508 422.546 436.482 422.492 436.472 422.435C436.462 422.378 436.468 422.319 436.489 422.264C436.651 421.736 438.081 421.196 439.166 420.893H439.201Z" fill="#00ACFF"/>
<path d="M439.674 420.725C439.68 420.699 439.68 420.672 439.674 420.646C439.69 420.621 439.699 420.591 439.699 420.562C439.699 420.532 439.69 420.502 439.674 420.477C439.605 420.41 437.966 418.746 436.824 418.825C436.676 418.835 436.533 418.877 436.405 418.95C436.277 419.022 436.167 419.121 436.085 419.241C435.982 419.365 435.926 419.52 435.926 419.679C435.926 419.839 435.982 419.994 436.085 420.118C436.627 420.837 438.716 421.062 439.616 420.781L439.674 420.725ZM436.443 419.387C436.546 419.274 436.691 419.205 436.847 419.196C437.528 419.196 438.578 419.971 439.155 420.5C438.18 420.654 437.182 420.441 436.362 419.904C436.293 419.814 436.235 419.679 436.362 419.454L436.443 419.387Z" fill="#00ACFF"/>
<path d="M385.944 196.768C385.713 197.656 385.528 198.319 385.321 199.072C385.113 199.825 384.871 200.522 384.64 201.23C384.163 202.661 383.655 204.077 383.116 205.479C382.032 208.301 380.788 211.063 379.389 213.751C376.546 219.422 372.703 224.562 368.034 228.936C366.75 230.071 365.385 231.115 363.949 232.061C363.579 232.297 362.991 232.612 362.529 232.882C362.067 233.151 361.525 233.331 361.017 233.556C360.51 233.781 360.002 233.905 359.494 234.062L357.994 234.399C354.455 234.963 350.833 234.794 347.366 233.905C344.287 233.182 341.293 232.15 338.434 230.825C337.037 230.195 335.687 229.498 334.36 228.768C333.033 228.037 331.763 227.284 330.425 226.385L333.31 221.091C334.533 221.473 335.906 221.911 337.21 222.282C338.514 222.653 339.876 222.979 341.192 223.305C343.747 223.93 346.347 224.366 348.97 224.609C351.172 224.859 353.403 224.707 355.547 224.159L356.136 223.935C356.297 223.845 356.482 223.777 356.644 223.687L357.059 223.429C357.198 223.316 357.255 223.294 357.475 223.125C358.376 222.434 359.228 221.682 360.025 220.877C363.426 217.175 366.21 212.977 368.276 208.435C369.43 206.108 370.434 203.669 371.403 201.219C371.876 199.993 372.327 198.746 372.742 197.498L373.342 195.632C373.538 195.037 373.746 194.351 373.884 193.879L385.944 196.768Z" fill="#7F3E3B"/>
<path d="M362.564 213.864L376.296 222.159C376.296 222.159 376.746 221.585 377.45 220.596C377.981 219.877 378.674 218.91 379.47 217.786C383.959 211.424 390.329 199.948 389.925 194.621C389.313 186.696 380.762 186.236 371.992 195.138C368.207 198.971 366.591 204.961 364.826 208.738C364.237 209.975 363.752 211.065 363.372 211.908L362.564 213.864Z" fill="#00ACFF"/>
<path d="M421.683 457.783H413.49L412.428 439.304H420.621L421.683 457.783Z" fill="#7F3E3B"/>
<path d="M413.063 456.861H422.295C422.371 456.858 422.446 456.869 422.517 456.895C422.589 456.92 422.654 456.959 422.71 457.009C422.765 457.06 422.81 457.12 422.842 457.187C422.874 457.254 422.892 457.327 422.895 457.4L423.345 464.504C423.345 464.876 423.195 465.233 422.927 465.498C422.66 465.763 422.296 465.914 421.914 465.92C418.706 465.92 417.171 465.684 413.12 465.684C410.639 465.684 403.427 465.932 399.988 465.932C396.549 465.932 396.653 462.616 398.107 462.323C404.639 460.975 409.358 459.12 411.678 457.355C412.072 457.047 412.558 456.874 413.063 456.861Z" fill="#263238"/>
<path opacity="0.2" d="M420.621 439.304H412.428L412.982 448.836H421.175L420.621 439.304Z" fill="black"/>
<path d="M398.649 256.8C398.649 256.8 395.187 317.125 397.968 339.853C400.969 364.749 409.508 446.532 409.508 446.532H424.51C424.51 446.532 422.941 365.48 422.306 340.696C421.625 313.798 426.865 254.44 426.865 254.44L398.649 256.8Z" fill="#263238"/>
<path d="M425.053 446.531H408.354L407.431 440.068L425.861 441.08L425.053 446.531Z" fill="#00ACFF"/>
<path d="M410.155 458.255C410.89 458.236 411.622 458.138 412.336 457.963C412.374 457.958 412.409 457.941 412.436 457.915C412.464 457.888 412.481 457.854 412.486 457.817C412.492 457.782 412.487 457.747 412.473 457.715C412.458 457.683 412.435 457.656 412.405 457.637C412.14 457.457 409.82 455.906 408.828 456.288C408.714 456.333 408.613 456.405 408.535 456.497C408.456 456.589 408.402 456.699 408.378 456.816C408.323 456.991 408.316 457.176 408.359 457.354C408.401 457.531 408.491 457.695 408.62 457.828C409.058 458.153 409.606 458.305 410.155 458.255ZM411.816 457.693C410.351 457.985 409.266 457.94 408.885 457.569C408.805 457.48 408.75 457.372 408.726 457.255C408.702 457.139 408.709 457.019 408.747 456.906C408.755 456.846 408.78 456.789 408.818 456.742C408.857 456.694 408.908 456.658 408.966 456.636C409.497 456.434 410.824 457.108 411.816 457.693Z" fill="#00ACFF"/>
<path d="M412.301 457.974H412.382C412.41 457.96 412.434 457.939 412.452 457.913C412.47 457.888 412.482 457.859 412.486 457.828C412.486 457.727 412.682 455.434 411.851 454.658C411.748 454.554 411.621 454.477 411.48 454.432C411.339 454.387 411.189 454.376 411.043 454.4C410.879 454.4 410.719 454.456 410.593 454.559C410.466 454.661 410.381 454.804 410.351 454.962C410.166 455.827 411.378 457.491 412.197 457.963L412.301 457.974ZM411.147 454.737C411.297 454.738 411.441 454.794 411.551 454.894C412.005 455.663 412.195 456.553 412.093 457.434C411.325 456.828 410.822 455.96 410.686 455.007C410.686 454.905 410.778 454.771 411.055 454.737H411.147Z" fill="#00ACFF"/>
<path opacity="0.3" d="M390.121 195.576C387.04 193.946 385.344 198.948 379.943 203.568C377.543 205.613 372.961 218.022 373.654 220.608L376.296 222.204C376.296 222.204 390.883 203.444 390.121 195.576Z" fill="black"/>
<path d="M334.914 221.923L328.267 215.392L324.239 223.26C324.239 223.26 331.487 228.419 333.552 226.632L334.914 221.923Z" fill="#7F3E3B"/>
<path d="M319.831 215.864L318.504 222.08L324.239 223.305L328.267 215.392L319.831 215.864Z" fill="#7F3E3B"/>
<path d="M382.747 258.52L426.403 254.867C426.403 251.045 424.384 238.76 423.668 222.968C423.051 211.272 423.48 199.545 424.949 187.922C425.064 187.045 425.191 186.179 425.33 185.303C425.33 185.303 423.079 185.055 419.86 184.864C417.194 184.707 413.859 184.606 410.628 184.718C404.417 184.896 398.222 185.418 392.072 186.281C389.244 186.775 386.498 187.472 384.317 188.068C381.524 188.866 379.885 189.484 379.885 189.484C379.885 189.484 371.23 214.459 382.747 258.52Z" fill="#00ACFF"/>
<path opacity="0.3" d="M423.668 223.002C423.057 211.302 423.485 199.572 424.949 187.944C422.006 187.944 417.044 188.641 416.617 193.306C416.167 198.308 418.313 209.817 423.668 223.002Z" fill="black"/>
<path d="M428.296 190.203C429.276 191.428 430.107 192.507 430.938 193.688C431.769 194.868 432.565 196.014 433.362 197.194C434.931 199.566 436.42 201.994 437.805 204.489C440.709 209.561 443.031 214.928 444.729 220.495L444.89 221.023L444.971 221.293L445.086 221.731C445.23 222.327 445.331 222.932 445.386 223.541C445.464 224.556 445.441 225.576 445.317 226.587C445.1 228.257 444.714 229.903 444.163 231.499C443.167 234.303 441.923 237.018 440.447 239.614C437.651 244.534 434.394 249.192 430.719 253.529L425.561 250.258C427.869 245.504 430.073 240.592 431.885 235.793C432.789 233.502 433.522 231.15 434.077 228.756C434.312 227.76 434.443 226.743 434.469 225.722C434.478 225.389 434.447 225.058 434.377 224.732C434.377 224.631 434.319 224.553 434.296 224.541L434.216 224.328L434.042 223.901C433.134 221.601 432.102 219.35 430.95 217.157C429.796 214.909 428.492 212.661 427.153 210.469C425.814 208.277 424.383 206.085 422.929 203.916C421.475 201.747 419.918 199.566 418.498 197.61L428.296 190.203Z" fill="#7F3E3B"/>
<path d="M415.763 200.713C418.291 206.054 421.134 211.248 424.28 216.269C424.961 217.393 425.595 218.404 426.115 219.214C427.015 220.641 427.58 221.462 427.58 221.462L443.332 211.155L442.582 209.39C442.224 208.558 441.751 207.468 441.174 206.209C437.712 198.791 430.915 185.617 425.33 185.291C416.975 184.853 411.574 191.35 415.763 200.713Z" fill="#00ACFF"/>
<path d="M408.424 164.509L403.808 168.937L397.53 174.973C397.807 175.832 398.031 176.707 398.199 177.592C398.88 181.133 398.199 184.46 392.925 186.157C392.925 186.157 386.336 191.923 395.845 191.575C398.768 191.518 401.649 190.881 404.312 189.704C406.974 188.527 409.363 186.835 411.332 184.73C406.947 181.189 407.558 170.444 408.424 164.509Z" fill="#7F3E3B"/>
<path d="M409.855 182.583C406.544 186.67 402.116 189.763 397.08 191.507C398.367 191.778 399.575 192.329 400.612 193.12C401.649 193.91 402.489 194.919 403.069 196.071C403.069 196.071 412.14 191.99 412.474 184.696C411.676 183.907 410.799 183.199 409.855 182.583Z" fill="white"/>
<path d="M393.641 185.786C393.641 185.786 391.137 189.698 395.534 191.586C393.743 192.617 392.354 194.199 391.587 196.082C391.587 196.082 387.929 190.698 390.71 186.382C392.36 185.955 393.641 185.786 393.641 185.786Z" fill="white"/>
<path opacity="0.2" d="M397.53 174.973C397.807 175.832 398.031 176.706 398.199 177.592C400.68 176.884 403.819 173.995 403.969 171.455C404.019 170.613 403.972 169.769 403.831 168.937L397.53 174.973Z" fill="black"/>
<path d="M397.29 152.478C401.855 148.031 401.855 140.822 397.29 136.376C392.725 131.929 385.323 131.929 380.758 136.376C376.192 140.822 376.192 148.031 380.758 152.478C385.323 156.925 392.725 156.925 397.29 152.478Z" fill="#263238"/>
<path d="M398.73 152.122C403.332 152.122 407.062 148.489 407.062 144.007C407.062 139.525 403.332 135.892 398.73 135.892C394.128 135.892 390.398 139.525 390.398 144.007C390.398 148.489 394.128 152.122 398.73 152.122Z" fill="#263238"/>
<path d="M412.878 146.817C412.878 148.071 412.496 149.296 411.781 150.339C411.066 151.381 410.05 152.194 408.86 152.674C407.671 153.154 406.362 153.279 405.1 153.034C403.837 152.79 402.678 152.186 401.767 151.299C400.857 150.413 400.237 149.283 399.986 148.054C399.735 146.824 399.864 145.549 400.356 144.391C400.849 143.233 401.683 142.242 402.754 141.546C403.824 140.849 405.082 140.478 406.37 140.478C408.096 140.478 409.751 141.145 410.972 142.334C412.192 143.523 412.878 145.136 412.878 146.817Z" fill="#263238"/>
<path d="M395.534 154.943C395.531 156.197 395.148 157.421 394.431 158.462C393.714 159.503 392.697 160.314 391.508 160.792C390.318 161.27 389.01 161.394 387.748 161.148C386.486 160.902 385.328 160.298 384.419 159.411C383.51 158.524 382.891 157.394 382.641 156.165C382.39 154.935 382.52 153.661 383.013 152.504C383.506 151.346 384.34 150.356 385.41 149.66C386.48 148.964 387.738 148.593 389.025 148.593C389.881 148.593 390.728 148.757 391.518 149.076C392.309 149.396 393.027 149.864 393.631 150.454C394.236 151.043 394.715 151.744 395.041 152.514C395.368 153.284 395.535 154.11 395.534 154.943Z" fill="#263238"/>
<path d="M411.332 159.338C414.786 159.338 417.586 156.611 417.586 153.246C417.586 149.882 414.786 147.154 411.332 147.154C407.877 147.154 405.077 149.882 405.077 153.246C405.077 156.611 407.877 159.338 411.332 159.338Z" fill="#263238"/>
<path d="M409.728 155.955C408.689 163.823 408.493 168.487 404.108 172.399C402.7 173.69 400.958 174.581 399.068 174.976C397.178 175.371 395.213 175.254 393.386 174.64C391.559 174.025 389.94 172.935 388.703 171.488C387.466 170.041 386.66 168.292 386.371 166.431C385.113 159.282 387.04 147.604 395.199 144.715C396.948 144.045 398.847 143.835 400.706 144.105C402.565 144.376 404.318 145.118 405.789 146.256C407.261 147.395 408.4 148.89 409.091 150.592C409.782 152.295 410.002 154.144 409.728 155.955Z" fill="#7F3E3B"/>
<path d="M409.289 161.665C412.317 161.665 414.771 159.274 414.771 156.326C414.771 153.377 412.317 150.987 409.289 150.987C406.262 150.987 403.808 153.377 403.808 156.326C403.808 159.274 406.262 161.665 409.289 161.665Z" fill="#263238"/>
<path d="M399.803 153.662C400.894 154.326 402.109 154.773 403.377 154.979C404.646 155.185 405.944 155.146 407.197 154.863C408.45 154.58 409.633 154.059 410.679 153.33C411.725 152.602 412.614 151.679 413.294 150.616L396.699 140.5C396.015 141.563 395.552 142.746 395.338 143.983C395.123 145.22 395.161 146.485 395.45 147.708C395.738 148.93 396.271 150.085 397.018 151.107C397.765 152.129 398.711 152.997 399.803 153.662Z" fill="#263238"/>
<path d="M388.286 149.976C390.675 150.7 393.262 150.472 395.477 149.34C397.693 148.208 399.357 146.266 400.103 143.94L382.101 138.466C381.731 139.617 381.597 140.828 381.708 142.03C381.818 143.232 382.171 144.4 382.745 145.469C383.32 146.538 384.105 147.486 385.055 148.259C386.006 149.033 387.104 149.616 388.286 149.976Z" fill="#263238"/>
<path d="M412.278 163.879C411.127 165.506 409.436 166.697 407.489 167.251C405.031 167.869 404.258 165.666 405.342 163.374C406.312 161.317 408.805 158.507 411.055 158.878C413.305 159.248 413.732 161.856 412.278 163.879Z" fill="#7F3E3B"/>
<path d="M397.276 157.776C397.276 158.417 396.849 158.9 396.411 158.9C395.972 158.9 395.66 158.36 395.707 157.708C395.753 157.057 396.145 156.584 396.572 156.584C396.999 156.584 397.322 157.135 397.276 157.776Z" fill="#263238"/>
<path d="M389.81 157.54C389.81 158.181 389.371 158.664 388.944 158.664C388.517 158.664 388.194 158.113 388.24 157.473C388.286 156.832 388.679 156.349 389.106 156.349C389.533 156.349 389.856 156.899 389.81 157.54Z" fill="#263238"/>
<path d="M392.164 157.933C391.232 159.876 390.041 161.69 388.621 163.328C389.057 163.658 389.563 163.889 390.101 164.006C390.64 164.122 391.199 164.121 391.737 164.003L392.164 157.933Z" fill="#630F0F"/>
<path d="M394.322 165.824C395.085 165.763 395.828 165.554 396.507 165.211C397.187 164.867 397.79 164.396 398.28 163.823C398.298 163.806 398.312 163.786 398.322 163.764C398.331 163.742 398.336 163.718 398.336 163.694C398.336 163.67 398.331 163.646 398.322 163.624C398.312 163.601 398.298 163.581 398.28 163.565C398.243 163.529 398.193 163.509 398.142 163.509C398.09 163.509 398.04 163.529 398.003 163.565C397.462 164.18 396.783 164.667 396.019 164.988C395.255 165.31 394.426 165.457 393.595 165.419C393.552 165.429 393.514 165.453 393.487 165.487C393.46 165.52 393.446 165.562 393.446 165.605C393.446 165.647 393.46 165.689 393.487 165.722C393.514 165.756 393.552 165.78 393.595 165.79C393.836 165.816 394.079 165.827 394.322 165.824Z" fill="#263238"/>
<path d="M399.746 155.506C399.811 155.495 399.874 155.472 399.93 155.438C400.013 155.379 400.07 155.292 400.089 155.194C400.109 155.096 400.089 154.994 400.034 154.91C399.701 154.412 399.249 154 398.716 153.71C398.183 153.42 397.586 153.261 396.976 153.246C396.92 153.237 396.862 153.239 396.807 153.254C396.751 153.268 396.7 153.295 396.656 153.33C396.613 153.366 396.577 153.411 396.553 153.462C396.529 153.512 396.517 153.567 396.517 153.623C396.517 153.679 396.529 153.734 396.553 153.784C396.577 153.835 396.613 153.879 396.656 153.915C396.7 153.951 396.751 153.977 396.807 153.992C396.862 154.006 396.92 154.009 396.976 153.999C397.456 154.017 397.924 154.147 398.34 154.38C398.757 154.613 399.108 154.942 399.365 155.337C399.406 155.396 399.464 155.443 399.531 155.473C399.598 155.503 399.672 155.514 399.746 155.506Z" fill="#263238"/>
<path d="M386.775 154.932C386.836 154.925 386.896 154.904 386.948 154.871C387 154.838 387.043 154.793 387.075 154.741C387.306 154.314 387.634 153.945 388.034 153.661C388.434 153.376 388.895 153.184 389.383 153.1C389.485 153.089 389.578 153.039 389.643 152.961C389.708 152.883 389.739 152.784 389.729 152.684C389.725 152.635 389.71 152.588 389.687 152.544C389.664 152.501 389.632 152.463 389.593 152.431C389.555 152.4 389.51 152.376 389.462 152.362C389.414 152.347 389.363 152.342 389.313 152.347C388.698 152.443 388.114 152.675 387.606 153.026C387.097 153.377 386.679 153.837 386.382 154.37C386.332 154.458 386.32 154.562 386.348 154.659C386.376 154.755 386.442 154.838 386.532 154.887C386.604 154.933 386.691 154.949 386.775 154.932Z" fill="#263238"/>
<path d="M427.545 248.314L419.294 247.617L424.28 256.429C424.28 256.429 431.688 255.766 431.019 252.068L427.545 248.314Z" fill="#7F3E3B"/>
<path d="M413.64 252.731L418.106 259.813L424.268 256.429L419.294 247.617L413.64 252.731Z" fill="#7F3E3B"/>
<path d="M273.013 176.704C265.316 190.406 268.963 208.997 280.537 216.044C292.666 223.451 315.896 209.3 322.555 202.714C311.995 202.938 309.445 194.003 309.007 185.28C308.499 175.243 303.56 165.487 297.051 168.825C286.907 161.856 278.172 167.544 273.013 176.704Z" fill="#263238"/>
<path d="M317.65 200.746C315.743 200.825 313.875 200.208 312.411 199.016C310.276 197.172 309.399 193.89 309.884 189.54C310.957 179.75 307.045 171.286 302.81 169.05C301.973 168.57 300.999 168.364 300.033 168.463C299.067 168.562 298.159 168.961 297.443 169.6L297.086 169.162C297.885 168.449 298.899 168.004 299.977 167.895C301.056 167.786 302.142 168.017 303.075 168.555C307.483 170.871 311.557 179.582 310.461 189.596C309.999 193.766 310.807 196.869 312.769 198.588C314.569 200.14 317.292 200.567 320.662 199.814L320.789 200.364C319.76 200.604 318.708 200.732 317.65 200.746Z" fill="#263238"/>
<path d="M273.071 221.541C271.59 223.523 269.998 225.425 268.305 227.239C266.624 229.058 264.832 230.778 262.939 232.387C260.998 234.062 258.909 235.567 256.696 236.883C255.529 237.579 254.31 238.188 253.049 238.704C251.712 239.283 250.31 239.709 248.872 239.974C247.316 240.292 245.718 240.36 244.14 240.177C242.576 239.982 241.055 239.538 239.64 238.862C237.198 237.664 234.97 236.093 233.039 234.208C229.513 230.771 226.53 226.843 224.188 222.552L227.742 220.304C230.669 223.598 233.915 226.609 237.436 229.296C239.008 230.498 240.749 231.474 242.605 232.196C243.343 232.475 244.123 232.635 244.913 232.668C245.693 232.709 246.474 232.618 247.221 232.399C249.038 231.896 250.755 231.098 252.299 230.038C254.062 228.891 255.729 227.609 257.284 226.205C258.888 224.778 260.4 223.204 261.9 221.608C263.401 220.012 264.855 218.236 266.112 216.674L273.071 221.541Z" fill="#FFC3BD"/>
<path d="M274.087 212.324C266.401 212.132 264.151 216.82 264.151 216.82L271.975 230.6C274.399 228.359 276.263 225.605 277.422 222.552C278.829 217.989 279.268 212.436 274.087 212.324Z" fill="#00ACFF"/>
<path d="M228.204 220.968L225.399 214.381L220.414 221.541C220.414 221.541 223.322 224.452 226.784 224.07L228.204 220.968Z" fill="#FFC3BD"/>
<path d="M219.318 210.492L216.606 216.471L220.414 221.541L225.399 214.381L219.318 210.492Z" fill="#FFC3BD"/>
<path d="M317.235 457.772L308.868 458.547L306.318 439.709L314.684 438.934L317.235 457.772Z" fill="#FFC3BD"/>
<path d="M384.524 438.124L378.108 443.036L367.076 426.637L373.504 421.714L384.524 438.124Z" fill="#FFC3BD"/>
<path d="M375.465 440.091L381.651 432.999C381.753 432.874 381.899 432.79 382.061 432.763C382.223 432.736 382.389 432.768 382.528 432.853L388.898 436.663C389.053 436.769 389.183 436.906 389.281 437.064C389.379 437.222 389.442 437.398 389.466 437.581C389.49 437.764 389.474 437.95 389.42 438.126C389.366 438.303 389.275 438.467 389.152 438.608C386.948 441.047 385.759 442.114 383.036 445.228C381.362 447.15 377.947 451.623 375.639 454.276C373.331 456.929 370.549 454.906 371.276 453.602C374.519 447.779 374.888 444.284 374.935 441.463C374.937 440.958 375.125 440.472 375.465 440.091Z" fill="#263238"/>
<path d="M308.118 456.097H318.089C318.269 456.1 318.444 456.159 318.588 456.266C318.731 456.374 318.835 456.523 318.885 456.693L321.054 464.381C321.107 464.563 321.114 464.754 321.077 464.94C321.04 465.126 320.958 465.3 320.84 465.45C320.721 465.599 320.568 465.72 320.393 465.801C320.218 465.883 320.025 465.924 319.831 465.921C316.369 465.921 314.65 465.662 310.253 465.662C307.553 465.662 300.582 465.932 296.855 465.932C293.128 465.932 292.447 462.346 293.947 462.02C300.709 460.559 304.61 458.547 306.641 456.636C307.041 456.273 307.572 456.079 308.118 456.097Z" fill="#263238"/>
<path opacity="0.2" d="M306.318 439.709L307.633 449.42H316.115L314.696 438.934L306.318 439.709Z" fill="black"/>
<path opacity="0.2" d="M373.504 421.725L367.076 426.637L372.765 435.089L379.193 430.178L373.504 421.725Z" fill="black"/>
<path d="M268.167 213.426C268.167 213.426 264.451 215.539 280.93 261.083L314.638 254.598C311.661 241.447 310.161 233.242 311.776 204.804C306.878 204.772 301.984 205.084 297.132 205.737C291.962 206.361 286.844 207.345 281.818 208.682C275.356 210.526 268.167 213.426 268.167 213.426Z" fill="#00ACFF"/>
<path d="M300.64 205.31C299.486 205.422 298.332 205.569 297.178 205.737C292.008 206.361 286.89 207.345 281.864 208.682C280.503 209.075 279.095 209.514 277.745 209.952C277.168 213.032 277.641 218.202 283.411 225.137L285.95 228.195L288.662 225.284C297.513 215.808 301.482 209.199 300.64 205.31Z" fill="white"/>
<path d="M292.585 189.372C292.481 194.317 293.104 203.219 297.132 205.737C297.132 205.737 299.313 208.839 286.054 223.013C278.183 213.549 281.818 208.682 281.818 208.682C287.081 206.355 286.227 202.444 284.599 198.926L292.585 189.372Z" fill="#FFC3BD"/>
<path opacity="0.2" d="M291.72 190.406C292.162 193.267 291.969 196.188 291.154 198.971C290.589 200.893 288.292 202.163 285.811 202.815C285.634 201.468 285.245 200.157 284.657 198.926L291.72 190.406Z" fill="black"/>
<path d="M300.132 184.123C297.824 191.991 297.017 195.363 291.962 198.611C284.38 203.557 275.01 199.297 274.871 190.99C274.756 183.504 278.553 171.882 287.254 170.309C289.148 169.927 291.111 170.034 292.95 170.617C294.789 171.201 296.44 172.241 297.741 173.636C299.041 175.03 299.945 176.731 300.365 178.57C300.784 180.409 300.704 182.323 300.132 184.123Z" fill="#FFC3BD"/>
<path d="M298.009 171.972C301.956 175.4 274.063 178.087 276.579 173.917C279.095 169.747 291.339 166.161 298.009 171.972Z" fill="#263238"/>
<path d="M299.752 188.551C291.385 190.799 290.589 168.319 295.309 169.87C300.028 171.421 308.36 186.236 299.752 188.551Z" fill="#263238"/>
<path d="M301.667 190.294C301.144 191.798 300.044 193.046 298.597 193.778C296.659 194.722 295.32 193.171 295.539 191.204C295.736 189.439 296.97 186.809 299.001 186.708C299.455 186.677 299.909 186.759 300.321 186.947C300.733 187.134 301.09 187.421 301.356 187.78C301.623 188.139 301.792 188.558 301.846 188.998C301.9 189.437 301.839 189.883 301.667 190.294Z" fill="#FFC3BD"/>
<path d="M280.93 261.083C280.93 261.083 282.245 338.718 286.988 363.154C291.939 388.59 303.629 446.599 303.629 446.599L319.393 445.858C319.393 445.858 311.13 378.08 309.745 358.422C307.83 331.333 305.614 256.329 305.614 256.329L280.93 261.083Z" fill="#00ACFF"/>
<path opacity="0.4" d="M280.93 261.083C280.93 261.083 282.245 338.718 286.988 363.154C291.939 388.59 303.629 446.599 303.629 446.599L319.393 445.858C319.393 445.858 311.13 378.08 309.745 358.422C307.83 331.333 305.614 256.329 305.614 256.329L280.93 261.083Z" fill="white"/>
<path opacity="0.5" d="M306.249 276.594C303.744 274.976 299.752 266.557 298.171 283.732C297.017 296.219 303.837 311.449 307.656 316.878C307.137 302.604 306.629 287.924 306.249 276.594Z" fill="#00ACFF"/>
<path d="M320.489 446.599L302.521 447.442L300.398 441.047L319.877 439.563L320.489 446.599Z" fill="#00ACFF"/>
<path d="M289.827 259.363C289.827 259.363 311.361 327.927 324.274 357.151C334.66 380.755 369.153 434.011 369.153 434.011L378.604 427.267C378.604 427.267 354.624 368.819 347.446 352.847C324.366 301.626 328.117 267.052 314.673 254.586L289.827 259.363Z" fill="#00ACFF"/>
<path opacity="0.4" d="M289.827 259.363C289.827 259.363 311.361 327.927 324.274 357.151C334.66 380.755 369.153 434.011 369.153 434.011L378.604 427.267C378.604 427.267 354.624 368.819 347.446 352.847C324.366 301.626 328.117 267.052 314.673 254.586L289.827 259.363Z" fill="white"/>
<path d="M379.597 426.974L369.003 434.864L364.283 431.043L378.085 421.376L379.597 426.974Z" fill="#00ACFF"/>
<path d="M314.8 252.586L316.842 255.216C317.004 255.418 316.773 255.699 316.381 255.778L281.022 262.578C280.722 262.578 280.445 262.578 280.387 262.353L279.556 259.498C279.499 259.296 279.73 259.082 280.064 259.015L314.2 252.451C314.303 252.424 314.412 252.422 314.517 252.446C314.621 252.469 314.719 252.517 314.8 252.586Z" fill="white"/>
<path d="M310.876 257.16L311.799 256.981C311.972 256.981 312.099 256.834 312.065 256.722L310.911 253.013C310.911 252.912 310.703 252.844 310.53 252.878L309.607 253.058C309.434 253.058 309.307 253.215 309.341 253.316L310.495 257.025C310.518 257.138 310.703 257.194 310.876 257.16Z" fill="#00ACFF"/>
<path opacity="0.4" d="M310.876 257.16L311.799 256.981C311.972 256.981 312.099 256.834 312.065 256.722L310.911 253.013C310.911 252.912 310.703 252.844 310.53 252.878L309.607 253.058C309.434 253.058 309.307 253.215 309.341 253.316L310.495 257.025C310.518 257.138 310.703 257.194 310.876 257.16Z" fill="black"/>
<path d="M283.653 262.398L284.565 262.218C284.749 262.218 284.865 262.072 284.83 261.96L283.676 258.251C283.676 258.138 283.469 258.082 283.284 258.116L282.372 258.296C282.188 258.296 282.061 258.442 282.095 258.554L283.249 262.263C283.295 262.364 283.469 262.432 283.653 262.398Z" fill="#00ACFF"/>
<path opacity="0.4" d="M283.653 262.398L284.565 262.218C284.749 262.218 284.865 262.072 284.83 261.96L283.676 258.251C283.676 258.138 283.469 258.082 283.284 258.116L282.372 258.296C282.188 258.296 282.061 258.442 282.095 258.554L283.249 262.263C283.295 262.364 283.469 262.432 283.653 262.398Z" fill="black"/>
<path d="M297.27 259.779L298.182 259.599C298.367 259.599 298.482 259.453 298.447 259.341L297.293 255.631C297.293 255.53 297.074 255.463 296.901 255.497L295.978 255.676C295.805 255.676 295.678 255.834 295.713 255.935L296.867 259.644C296.913 259.757 297.086 259.813 297.27 259.779Z" fill="#00ACFF"/>
<path opacity="0.4" d="M297.27 259.779L298.182 259.599C298.367 259.599 298.482 259.453 298.447 259.341L297.293 255.631C297.293 255.53 297.074 255.463 296.901 255.497L295.978 255.676C295.805 255.676 295.678 255.834 295.713 255.935L296.867 259.644C296.913 259.757 297.086 259.813 297.27 259.779Z" fill="black"/>
<path d="M285.742 183.83C285.603 184.482 285.13 184.954 284.692 184.853C284.253 184.752 284.022 184.179 284.172 183.527C284.323 182.875 284.796 182.403 285.223 182.515C285.65 182.628 285.892 183.212 285.742 183.83Z" fill="#263238"/>
<path d="M278.241 182.38C278.102 183.032 277.629 183.504 277.191 183.403C276.752 183.302 276.521 182.717 276.671 182.077C276.822 181.436 277.295 180.953 277.722 181.054C278.149 181.155 278.391 181.728 278.241 182.38Z" fill="#263238"/>
<path d="M277.906 181.133L276.418 180.369C276.418 180.369 276.96 181.74 277.906 181.133Z" fill="#263238"/>
<path d="M281.495 183.988C280.563 185.35 279.449 186.586 278.183 187.663C278.475 187.97 278.834 188.209 279.234 188.362C279.633 188.516 280.063 188.581 280.491 188.551L281.495 183.988Z" fill="#ED847E"/>
<path d="M282.13 191.519C282.1 191.497 282.077 191.467 282.065 191.433C282.053 191.399 282.051 191.362 282.061 191.327C282.065 191.302 282.074 191.278 282.088 191.256C282.102 191.235 282.12 191.216 282.142 191.201C282.163 191.187 282.188 191.176 282.213 191.171C282.239 191.166 282.266 191.165 282.291 191.17C283.118 191.35 283.975 191.342 284.798 191.147C285.62 190.952 286.385 190.575 287.034 190.046C287.052 190.027 287.074 190.011 287.098 190C287.122 189.989 287.149 189.983 287.175 189.982C287.202 189.981 287.229 189.986 287.253 189.995C287.278 190.005 287.301 190.019 287.32 190.038C287.339 190.056 287.354 190.078 287.363 190.103C287.373 190.127 287.378 190.153 287.377 190.179C287.376 190.205 287.37 190.23 287.359 190.254C287.348 190.277 287.331 190.299 287.311 190.316C286.627 190.908 285.807 191.334 284.92 191.557C284.033 191.779 283.104 191.793 282.211 191.597L282.13 191.519Z" fill="#263238"/>
<path d="M290.693 181.133C290.635 181.096 290.587 181.046 290.554 180.987C290.358 180.544 290.055 180.154 289.671 179.848C289.288 179.543 288.835 179.332 288.35 179.233C288.298 179.227 288.248 179.21 288.203 179.184C288.158 179.158 288.119 179.124 288.088 179.083C288.057 179.042 288.034 178.995 288.022 178.946C288.009 178.897 288.007 178.845 288.015 178.795C288.032 178.694 288.089 178.604 288.173 178.544C288.257 178.483 288.362 178.456 288.465 178.469C289.084 178.576 289.666 178.831 290.157 179.211C290.649 179.592 291.035 180.087 291.281 180.65C291.325 180.744 291.328 180.85 291.292 180.947C291.255 181.044 291.181 181.123 291.085 181.167C291.022 181.195 290.953 181.207 290.884 181.201C290.815 181.195 290.749 181.172 290.693 181.133Z" fill="#263238"/>
<path d="M276.96 178.401H276.902C276.828 178.328 276.787 178.229 276.787 178.126C276.787 178.023 276.828 177.924 276.902 177.851C277.349 177.413 277.895 177.084 278.496 176.889C279.098 176.693 279.737 176.638 280.364 176.727C280.466 176.751 280.554 176.812 280.61 176.898C280.666 176.984 280.685 177.088 280.664 177.187C280.64 177.289 280.575 177.378 280.485 177.434C280.394 177.491 280.285 177.511 280.18 177.491C279.68 177.428 279.171 177.481 278.696 177.645C278.221 177.809 277.792 178.079 277.445 178.435C277.371 178.481 277.284 178.503 277.197 178.497C277.109 178.491 277.026 178.457 276.96 178.401Z" fill="#263238"/>
<path d="M313.23 208.322C314.557 209.188 315.631 209.975 316.773 210.851C317.915 211.728 318.989 212.605 320.062 213.526C322.204 215.378 324.238 217.344 326.155 219.416C328.109 221.509 329.895 223.745 331.498 226.104C333.158 228.518 334.554 231.095 335.664 233.792L336.068 234.77L335.964 235.591C335.672 238.007 335.011 240.367 334.002 242.593C333.024 244.764 331.747 246.794 330.206 248.629C328.708 250.391 327.026 251.996 325.186 253.417C324.277 254.107 323.333 254.752 322.358 255.35C321.361 255.969 320.32 256.518 319.243 256.991L317.177 253.361C317.858 252.833 318.677 252.17 319.381 251.518C320.085 250.866 320.8 250.158 321.458 249.461C322.767 248.081 323.927 246.575 324.92 244.965C325.887 243.426 326.662 241.781 327.228 240.064C327.776 238.412 328.095 236.696 328.175 234.961L328.463 236.759C326.234 232.435 323.326 228.475 319.843 225.025C318.1 223.227 316.219 221.529 314.292 219.877C313.323 219.056 312.33 218.258 311.338 217.472C310.345 216.685 309.272 215.909 308.36 215.28L313.23 208.322Z" fill="#FFC3BD"/>
<path d="M319.97 252.9L313.876 253.552L316.808 260.15C316.808 260.15 321.135 258.622 322.255 255.362L319.97 252.9Z" fill="#FFC3BD"/>
<path d="M308.349 255.092L310.207 260.397L316.808 260.094L313.876 253.496L308.349 255.092Z" fill="#FFC3BD"/>
<path d="M311.776 204.804C315.331 205.142 317.223 208.795 317.223 208.795L310.103 222.283C310.103 222.283 304.841 218.585 305.487 214.1C306.168 209.458 307.714 204.411 311.776 204.804Z" fill="#00ACFF"/>
<path d="M372.523 443.89C372.435 443.831 372.357 443.759 372.292 443.677C372.206 443.596 372.144 443.493 372.114 443.38C372.083 443.267 372.085 443.148 372.119 443.036C372.43 442.025 375.35 441.137 375.685 441.036C375.721 441.024 375.76 441.023 375.797 441.033C375.834 441.043 375.867 441.064 375.892 441.092C375.912 441.124 375.922 441.161 375.922 441.198C375.922 441.236 375.912 441.273 375.892 441.305C375.373 442.283 374.346 443.947 373.284 444.093C373.013 444.121 372.742 444.049 372.523 443.89ZM375.327 441.553C374.173 441.946 372.673 442.609 372.511 443.137C372.494 443.187 372.493 443.24 372.507 443.29C372.521 443.34 372.551 443.385 372.592 443.418C372.668 443.518 372.77 443.597 372.888 443.647C373.005 443.696 373.134 443.714 373.261 443.699C373.896 443.621 374.588 442.856 375.327 441.553Z" fill="#00ACFF"/>
<path d="M372.142 441.17C372.076 441.127 372.018 441.074 371.969 441.013C371.868 440.894 371.814 440.745 371.814 440.591C371.814 440.438 371.868 440.289 371.969 440.17C372.055 440.047 372.166 439.941 372.295 439.86C372.424 439.779 372.568 439.724 372.719 439.698C373.942 439.518 375.777 441.002 375.858 441.069C375.885 441.09 375.905 441.118 375.917 441.15C375.929 441.181 375.933 441.216 375.927 441.249C375.919 441.283 375.902 441.314 375.877 441.34C375.853 441.365 375.823 441.384 375.789 441.395C374.585 441.751 373.29 441.671 372.142 441.17ZM375.258 441.103C374.564 440.519 373.701 440.161 372.788 440.08C372.693 440.094 372.601 440.127 372.52 440.177C372.438 440.228 372.369 440.294 372.315 440.372C372.165 440.586 372.223 440.698 372.315 440.766C372.673 441.215 374.335 441.339 375.338 441.136L375.258 441.103Z" fill="#00ACFF"/>
<path d="M303.687 457.704C303.005 457.753 302.324 457.596 301.736 457.255C301.583 457.151 301.454 457.016 301.361 456.858C301.267 456.701 301.21 456.525 301.194 456.344C301.187 456.242 301.207 456.141 301.251 456.048C301.296 455.956 301.363 455.876 301.448 455.816C302.36 455.22 305.752 456.726 306.422 457.03C306.459 457.045 306.49 457.071 306.512 457.104C306.535 457.137 306.546 457.176 306.546 457.215C306.546 457.255 306.535 457.293 306.512 457.326C306.49 457.359 306.459 457.385 306.422 457.401C305.523 457.594 304.607 457.696 303.687 457.704ZM302.094 456.029C301.962 456.02 301.83 456.047 301.713 456.108C301.713 456.108 301.621 456.175 301.633 456.299C301.634 456.425 301.667 456.549 301.727 456.66C301.787 456.771 301.873 456.867 301.979 456.94C302.567 457.367 303.94 457.423 305.729 457.108C304.582 456.569 303.356 456.205 302.094 456.029Z" fill="#00ACFF"/>
<path d="M306.375 457.367H306.295C305.141 456.917 302.902 455.119 303.029 454.231C303.029 454.029 303.202 453.77 303.71 453.714C305.683 453.489 306.537 456.996 306.572 457.142C306.578 457.177 306.575 457.213 306.563 457.247C306.551 457.28 306.53 457.31 306.502 457.333C306.466 457.36 306.421 457.372 306.375 457.367ZM303.894 454.096H303.756C303.548 454.096 303.433 454.186 303.421 454.276C303.352 454.815 304.921 456.209 306.064 456.827C305.81 455.973 305.083 454.096 303.894 454.096Z" fill="#00ACFF"/>
<path d="M285.407 182.583L283.919 181.83C283.919 181.83 284.461 183.212 285.407 182.583Z" fill="#263238"/>
<path d="M193.064 457.558L184.455 457.929L184.317 438.214L192.926 437.843L193.064 457.558Z" fill="#FF8B7B"/>
<path d="M184.317 456.231L194.068 456.355C194.232 456.352 194.39 456.412 194.508 456.521C194.627 456.63 194.697 456.781 194.703 456.94L195.072 464.448C195.072 464.644 195.032 464.838 194.955 465.018C194.878 465.199 194.765 465.363 194.622 465.501C194.479 465.639 194.31 465.748 194.124 465.822C193.938 465.896 193.738 465.933 193.537 465.932C190.145 465.83 188.529 465.617 184.248 465.572C181.605 465.572 175.27 465.572 171.634 465.572C167.999 465.572 168.172 462.02 169.684 461.728C176.608 460.39 180.347 458.614 182.817 456.771C183.241 456.433 183.769 456.243 184.317 456.231Z" fill="#263238"/>
<path opacity="0.2" d="M192.926 437.854L184.317 438.214L184.398 448.375L193.007 448.498L192.926 437.854Z" fill="black"/>
<path d="M176.412 260.094C176.412 260.094 172.373 312.989 171.796 337.211C171.184 363.738 181.213 443.508 181.213 443.508L196.215 444.34C196.215 444.34 194.034 367.638 197.103 341.572C200.438 313.27 207.212 257.396 207.212 257.396L176.412 260.094Z" fill="#263238"/>
<path opacity="0.3" d="M196.942 278.921C193.976 290.442 196.561 308.392 199.654 320.677C201.627 304.199 203.877 285.665 205.424 272.941C202.088 272.334 198.303 273.604 196.942 278.921Z" fill="black"/>
<path d="M197.403 446.014L180.393 446.228L178.847 439.9L199.053 439.506L197.403 446.014Z" fill="#263238"/>
<path d="M181.178 457.659C181.955 457.652 182.729 457.561 183.486 457.389C183.525 457.382 183.561 457.363 183.588 457.335C183.615 457.307 183.632 457.271 183.636 457.232C183.646 457.196 183.644 457.158 183.629 457.123C183.615 457.088 183.589 457.06 183.555 457.041C183.29 456.85 180.855 455.186 179.782 455.569C179.661 455.617 179.555 455.693 179.472 455.791C179.39 455.889 179.333 456.006 179.309 456.131C179.252 456.314 179.245 456.508 179.287 456.695C179.33 456.882 179.42 457.055 179.551 457.198C180.014 457.547 180.595 457.712 181.178 457.659ZM182.944 457.097C181.386 457.378 180.243 457.322 179.851 456.917C179.765 456.825 179.706 456.711 179.682 456.588C179.657 456.465 179.668 456.338 179.712 456.22C179.721 456.158 179.747 456.098 179.788 456.049C179.828 455.999 179.882 455.961 179.943 455.939C180.555 455.737 181.997 456.457 182.99 457.097H182.944Z" fill="#00ACFF"/>
<path d="M183.486 457.389H183.578C183.608 457.372 183.633 457.35 183.653 457.323C183.673 457.296 183.687 457.265 183.694 457.232C183.694 457.12 183.925 454.703 183.059 453.86C182.948 453.754 182.813 453.673 182.665 453.624C182.517 453.576 182.36 453.56 182.205 453.579C182.033 453.584 181.868 453.644 181.734 453.75C181.601 453.855 181.507 454.001 181.467 454.163C181.259 455.085 182.528 456.861 183.382 457.378C183.415 457.392 183.451 457.396 183.486 457.389ZM182.332 453.961C182.495 453.959 182.653 454.02 182.771 454.13C183.232 454.953 183.418 455.896 183.301 456.827C182.551 456.198 181.709 454.849 181.847 454.242C181.847 454.13 181.94 453.995 182.24 453.961H182.332Z" fill="#00ACFF"/>
<path d="M185.794 195.048C185.032 197.049 184.305 198.791 183.486 200.612C182.667 202.432 181.847 204.186 180.982 205.962C179.228 209.491 177.347 212.976 175.212 216.381C173.108 219.871 170.768 223.22 168.207 226.407C165.536 229.853 162.435 232.96 158.975 235.658L158.606 235.939C158.221 236.23 157.793 236.461 157.336 236.625C155.707 237.222 154.01 237.63 152.282 237.839C150.609 238.007 148.923 238.007 147.25 237.839C144.195 237.472 141.228 236.593 138.48 235.242C136 234.011 133.677 232.502 131.556 230.746C130.529 229.892 129.56 228.993 128.625 228.06C127.672 227.1 126.778 226.087 125.948 225.025C125.409 224.348 125.129 223.509 125.155 222.653C125.182 221.797 125.514 220.977 126.095 220.333C126.675 219.69 127.467 219.263 128.335 219.126C129.203 218.99 130.093 219.152 130.852 219.585L131.268 219.821C132.064 220.282 133.102 220.889 134.037 221.383C134.972 221.878 135.976 222.372 136.945 222.822C138.797 223.686 140.729 224.379 142.715 224.89C144.413 225.343 146.173 225.533 147.931 225.452C149.338 225.368 150.709 224.984 151.947 224.328L150.309 225.306C152.684 223.091 154.808 220.634 156.644 217.977C157.636 216.584 158.594 215.137 159.517 213.639C160.452 212.155 161.364 210.638 162.229 209.075C163.972 205.973 165.622 202.77 167.203 199.521C167.999 197.903 168.773 196.262 169.511 194.621C170.25 192.98 171.011 191.249 171.646 189.765L171.704 189.641C172.559 187.994 174.014 186.717 175.785 186.061C177.556 185.404 179.515 185.415 181.278 186.092C183.041 186.768 184.481 188.061 185.317 189.718C186.152 191.375 186.322 193.275 185.794 195.048Z" fill="#00ACFF"/>
<path opacity="0.3" d="M167.203 217.269C166.866 220.716 166.866 224.186 167.203 227.633L168.195 226.407C170.758 223.224 173.094 219.874 175.189 216.381C176.066 214.965 176.908 213.526 177.704 212.088C178.12 210.57 178.489 209.064 178.858 207.536L179.17 206.041C175.119 204.647 168.403 207.198 167.203 217.269Z" fill="black"/>
<path d="M127.402 218.438L120.558 215.808L119.543 225.463C121.961 226.072 124.435 226.449 126.928 226.587C127.513 226.627 128.1 226.53 128.639 226.306C129.178 226.081 129.655 225.735 130.03 225.296C130.405 224.857 130.668 224.338 130.797 223.781C130.926 223.224 130.917 222.644 130.771 222.091C130.548 221.265 130.126 220.503 129.54 219.868C128.954 219.233 128.221 218.742 127.402 218.438Z" fill="#FF8B7B"/>
<path d="M113.761 217.663L115.769 225.587L119.543 225.452L120.558 215.797L113.761 217.663Z" fill="#FF8B7B"/>
<path d="M252.611 448.791L244.14 450.601L238.716 431.729L247.187 429.919L252.611 448.791Z" fill="#FF8B7B"/>
<path d="M243.494 448.701L252.622 445.396C252.697 445.365 252.778 445.349 252.859 445.349C252.94 445.348 253.021 445.364 253.096 445.394C253.172 445.424 253.24 445.469 253.297 445.525C253.354 445.582 253.4 445.649 253.43 445.722L256.569 452.601C256.711 452.971 256.698 453.381 256.532 453.741C256.365 454.101 256.059 454.382 255.68 454.523C252.484 455.647 250.891 455.985 246.875 457.446C244.406 458.334 237.643 461.054 234.274 462.29C230.904 463.527 229.658 460.2 231.042 459.379C237.02 455.692 240.655 452.287 242.282 449.701C242.56 449.245 242.987 448.893 243.494 448.701Z" fill="#263238"/>
<path opacity="0.2" d="M247.198 429.919L238.716 431.74L241.521 441.462L249.991 439.642L247.198 429.919Z" fill="black"/>
<path d="M193.283 258.621C193.283 258.621 202.135 314.226 206.451 338.077C211.182 364.21 237.343 439.866 237.343 439.866L252.864 436.494C252.864 436.494 234.4 363.637 232.185 337.481C229.784 309.1 222.618 256.014 222.618 256.014L193.283 258.621Z" fill="#263238"/>
<path d="M254.399 436.168L235.485 440.226L233.258 434.696L254.111 431.155L254.399 436.168Z" fill="#263238"/>
<path d="M241.186 451.129C241.91 450.849 242.599 450.491 243.24 450.061C243.272 450.039 243.297 450.009 243.313 449.974C243.328 449.939 243.333 449.901 243.327 449.863C243.321 449.826 243.304 449.791 243.279 449.762C243.253 449.733 243.22 449.712 243.182 449.701C242.859 449.623 239.963 448.926 239.12 449.701C239.025 449.785 238.953 449.89 238.91 450.008C238.868 450.126 238.857 450.252 238.878 450.376C238.892 450.568 238.956 450.755 239.065 450.916C239.175 451.078 239.325 451.209 239.501 451.297C240.065 451.445 240.665 451.384 241.186 451.129ZM242.617 450.005C241.267 450.814 240.182 451.129 239.663 450.926C239.55 450.867 239.455 450.779 239.388 450.673C239.322 450.566 239.285 450.444 239.282 450.319C239.267 450.259 239.269 450.196 239.287 450.137C239.305 450.078 239.339 450.024 239.386 449.982C239.801 449.6 241.405 449.735 242.571 449.982L242.617 450.005Z" fill="#00ACFF"/>
<path d="M243.159 450.083C243.187 450.071 243.211 450.051 243.229 450.027C243.245 450 243.253 449.969 243.253 449.937C243.253 449.906 243.245 449.875 243.229 449.847C243.229 449.746 242.513 447.397 241.405 446.925C241.265 446.858 241.111 446.824 240.955 446.824C240.799 446.824 240.645 446.858 240.505 446.925C240.345 446.989 240.211 447.103 240.125 447.25C240.039 447.397 240.006 447.567 240.032 447.734C240.17 448.667 242.017 449.881 242.998 450.061L243.159 450.083ZM240.851 447.273C240.926 447.243 241.007 447.227 241.088 447.227C241.169 447.227 241.25 447.243 241.324 447.273C241.982 447.554 242.548 448.836 242.813 449.6C241.89 449.274 240.597 448.307 240.505 447.7C240.505 447.577 240.505 447.431 240.771 447.296L240.851 447.273Z" fill="#00ACFF"/>
<path d="M173.746 191.417C174.062 189.968 174.773 188.629 175.805 187.541C176.836 186.453 178.151 185.656 179.609 185.235C181.691 184.547 183.819 183.999 185.979 183.594C192.479 182.653 199.029 182.079 205.597 181.874C209.059 181.728 212.521 181.874 215.394 181.987H215.498C216.236 182.026 216.958 182.21 217.622 182.527C218.285 182.844 218.876 183.288 219.36 183.832C219.843 184.377 220.209 185.01 220.436 185.696C220.663 186.381 220.746 187.103 220.679 187.82C219.529 199.275 219.144 210.79 219.525 222.293C220.379 239.007 222.503 252.001 222.549 256.013L176.389 260.049C169.857 219.708 171.784 200.915 173.746 191.417Z" fill="white"/>
<path d="M171.392 191.822C171.747 190.209 172.525 188.714 173.649 187.481C174.773 186.248 176.206 185.319 177.808 184.786C180.851 184.041 183.933 183.46 187.04 183.043C184.548 195.587 180.89 233.016 185.252 261.049C185.286 261.262 185.274 261.479 185.219 261.688C185.163 261.896 185.064 262.091 184.928 262.261C184.791 262.431 184.621 262.571 184.426 262.674C184.232 262.777 184.018 262.84 183.798 262.859L175.304 263.601C174.733 263.653 174.164 263.489 173.713 263.144C173.262 262.799 172.964 262.299 172.881 261.746C166.43 220.754 169.396 199.735 171.392 191.822Z" fill="#00ACFF"/>
<path d="M186.948 183.437C192.533 181.627 193.214 178.098 192.487 174.355C192.313 173.415 192.074 172.488 191.772 171.579L198.396 165.161L203.254 160.462C202.365 166.746 201.765 178.12 206.416 181.818C202.894 185.879 198.348 188.977 193.226 190.81C185.794 187.124 186.948 183.437 186.948 183.437Z" fill="#FF8B7B"/>
<path opacity="0.2" d="M191.726 171.579C192.028 172.487 192.267 173.415 192.441 174.355C195.061 173.591 198.373 170.511 198.5 167.825C198.546 166.934 198.496 166.041 198.35 165.161L191.726 171.579Z" fill="black"/>
<path d="M190.595 149.548C190.595 153.527 188.771 156.764 186.475 156.764C184.178 156.764 182.32 153.561 182.309 149.582C182.297 145.603 184.132 142.377 186.429 142.366C188.725 142.355 190.583 145.569 190.595 149.548Z" fill="#263238"/>
<path d="M207.443 152.291C205.827 160.552 205.32 165.453 200.438 169.331C198.866 170.604 196.967 171.436 194.945 171.735C192.924 172.034 190.857 171.79 188.967 171.029C187.077 170.268 185.437 169.018 184.223 167.416C183.009 165.813 182.267 163.918 182.078 161.935C181.224 154.303 183.994 142.074 192.81 139.522C194.702 138.922 196.723 138.817 198.669 139.217C200.616 139.617 202.421 140.508 203.903 141.801C205.385 143.095 206.492 144.744 207.113 146.585C207.734 148.426 207.848 150.394 207.443 152.291Z" fill="#FF8B7B"/>
<path d="M189.798 144.647C192.822 146.794 200.646 147.581 204.073 146.693C202.919 147.457 202.781 149.807 203.796 153.302C202.629 154.832 201.724 156.536 201.119 158.349L207.662 157.225C207.662 157.225 224.638 146.199 212.128 141.489C213.017 132.216 193.491 131.587 186.452 137.6C180.024 143.029 184.513 146.39 189.798 144.647Z" fill="#263238"/>
<path d="M211.494 142.366C211.494 142.366 213.628 139.96 212.648 135.622C215.244 138.578 214.54 141.017 211.494 142.366Z" fill="#263238"/>
<path d="M208.874 158.888C207.918 160.458 206.428 161.651 204.662 162.26C202.423 162.98 201.592 160.979 202.446 158.81C203.219 156.854 205.32 154.123 207.455 154.314C209.589 154.505 210.143 156.933 208.874 158.888Z" fill="#FF8B7B"/>
<path d="M193.953 153.583C193.872 154.258 193.433 154.775 192.972 154.707C192.51 154.64 192.222 154.089 192.314 153.415C192.406 152.74 192.833 152.223 193.295 152.291C193.757 152.358 194.045 152.864 193.953 153.583Z" fill="#263238"/>
<path d="M186.083 152.864C185.99 153.538 185.552 154.055 185.102 153.988C184.652 153.921 184.352 153.359 184.432 152.684C184.513 152.01 184.963 151.493 185.425 151.56C185.886 151.628 186.175 152.201 186.083 152.864Z" fill="#263238"/>
<path d="M188.748 153.302C187.643 155.299 186.269 157.144 184.663 158.787C185.104 159.161 185.624 159.437 186.187 159.594C186.749 159.751 187.34 159.787 187.917 159.698L188.748 153.302Z" fill="#FF5652"/>
<path d="M190.514 161.777C191.326 161.763 192.128 161.591 192.871 161.27C193.614 160.95 194.284 160.488 194.841 159.911C194.879 159.874 194.9 159.823 194.9 159.771C194.9 159.719 194.879 159.668 194.841 159.63C194.823 159.611 194.801 159.596 194.776 159.585C194.751 159.574 194.724 159.569 194.697 159.569C194.67 159.569 194.643 159.574 194.618 159.585C194.594 159.596 194.571 159.611 194.553 159.63C193.943 160.25 193.195 160.725 192.366 161.019C191.538 161.314 190.652 161.419 189.775 161.328C189.73 161.338 189.69 161.363 189.661 161.399C189.632 161.435 189.616 161.479 189.616 161.524C189.616 161.57 189.632 161.614 189.661 161.65C189.69 161.685 189.73 161.71 189.775 161.721L190.514 161.777Z" fill="#263238"/>
<path d="M197.899 151.178C197.968 151.173 198.035 151.154 198.096 151.122C198.188 151.066 198.255 150.977 198.281 150.874C198.306 150.771 198.29 150.662 198.234 150.571C197.918 150.021 197.467 149.555 196.921 149.216C196.376 148.877 195.752 148.674 195.107 148.626C195.01 148.642 194.922 148.691 194.859 148.764C194.795 148.837 194.76 148.93 194.76 149.025C194.76 149.121 194.795 149.214 194.859 149.287C194.922 149.36 195.01 149.409 195.107 149.425C195.611 149.473 196.095 149.64 196.519 149.91C196.943 150.18 197.294 150.545 197.542 150.976C197.578 151.037 197.63 151.088 197.693 151.123C197.756 151.159 197.827 151.178 197.899 151.178Z" fill="#263238"/>
<path d="M183.001 150.043C183.069 150.039 183.134 150.02 183.192 149.986C183.25 149.953 183.3 149.907 183.336 149.852C183.609 149.415 183.98 149.044 184.422 148.767C184.864 148.491 185.365 148.316 185.886 148.256C185.94 148.256 185.993 148.245 186.042 148.224C186.091 148.204 186.136 148.174 186.172 148.136C186.209 148.098 186.237 148.053 186.256 148.004C186.274 147.955 186.282 147.903 186.279 147.851C186.276 147.746 186.231 147.646 186.153 147.572C186.075 147.499 185.971 147.457 185.863 147.458C185.207 147.519 184.574 147.729 184.015 148.071C183.456 148.412 182.987 148.876 182.644 149.425C182.586 149.513 182.566 149.62 182.587 149.723C182.609 149.825 182.67 149.916 182.759 149.975C182.832 150.018 182.916 150.041 183.001 150.043Z" fill="#263238"/>
<path d="M220.922 223.743C220.505 211.611 220.891 199.466 222.076 187.382C222.142 186.625 222.051 185.862 221.81 185.14C221.569 184.417 221.181 183.749 220.67 183.175C220.159 182.601 219.535 182.132 218.835 181.797C218.135 181.461 217.373 181.266 216.594 181.222H216.49C213.513 181.065 209.797 180.953 206.104 181.099C201.592 202.376 202.112 229.824 204.385 259.43C204.401 259.641 204.46 259.847 204.558 260.035C204.656 260.224 204.792 260.391 204.957 260.528C205.123 260.665 205.314 260.769 205.521 260.833C205.728 260.897 205.946 260.921 206.162 260.903L221.88 259.52C222.47 259.471 223.016 259.197 223.399 258.757C223.782 258.316 223.97 257.746 223.922 257.171C223.518 251.394 221.718 239.052 220.922 223.743Z" fill="#00ACFF"/>
<path opacity="0.3" d="M217.137 187.124C214.575 188.506 212.371 193.868 215.567 200.69C216.883 203.562 218.651 206.217 220.806 208.558C220.887 205.467 221.026 202.455 221.199 199.634C219.56 194.879 218.198 190.552 217.137 187.124Z" fill="black"/>
<path d="M221.164 183.279L222.318 184.145L223.368 184.943C224.049 185.482 224.707 186.067 225.365 186.606C226.665 187.715 227.938 188.866 229.184 190.057C231.691 192.443 234.028 194.993 236.178 197.689C238.417 200.452 240.398 203.405 242.098 206.512C243.936 209.785 245.307 213.287 246.171 216.921C246.42 217.946 246.601 218.986 246.714 220.034L246.829 221.641V223.193C246.743 225.145 246.477 227.086 246.033 228.992C245.194 232.455 243.947 235.812 242.317 238.996C240.78 242.001 239.022 244.894 237.055 247.651C235.132 250.39 233.007 252.99 230.696 255.429C230.071 256.068 229.232 256.468 228.331 256.557C227.429 256.647 226.525 256.419 225.781 255.915C225.037 255.412 224.502 254.666 224.273 253.812C224.044 252.958 224.137 252.052 224.534 251.259L224.615 251.09C227.406 245.852 229.757 240.401 231.642 234.792C233.385 229.386 234.216 223.878 232.796 220.349C232.403 219.191 231.921 218.064 231.354 216.977C230.777 215.818 230.134 214.692 229.427 213.605C227.925 211.295 226.255 209.094 224.43 207.018C222.572 204.883 220.552 202.814 218.441 200.814C217.391 199.813 216.317 198.835 215.209 197.891L213.559 196.486L212.74 195.812L212.013 195.227L211.701 194.98C210.207 193.735 209.265 191.975 209.075 190.069C208.884 188.162 209.459 186.258 210.679 184.756C211.899 183.253 213.669 182.27 215.617 182.011C217.566 181.753 219.541 182.239 221.129 183.369L221.164 183.279Z" fill="#00ACFF"/>
<path d="M222.203 251.697L217.517 252.821L225.595 259.981C225.595 259.981 232.785 256.834 230.812 253.361L229.45 252.619C227.24 251.433 224.651 251.104 222.203 251.697Z" fill="#FF8B7B"/>
<path d="M213.698 257.373L219.283 261.251L225.607 259.992L217.517 252.833L213.698 257.373Z" fill="#FF8B7B"/>
<path d="M182.632 126.236C166.395 135.768 147.308 122.977 131.071 132.508C129.633 121.268 128.186 109.991 126.732 98.6757C142.969 89.1442 162.068 101.935 178.293 92.4038C179.739 103.689 181.186 114.966 182.632 126.236Z" fill="#00ACFF"/>
<path opacity="0.3" d="M126.744 98.6762L130.206 126.135C141.353 126.653 152.813 129.597 163.118 123.562L159.644 96.1022C148.497 95.5402 137.038 92.6291 126.744 98.6762Z" fill="black"/>
<path d="M139.449 87.8629C136.241 87.8629 133.033 87.5706 129.629 87.2559C126.225 86.9412 122.705 86.6152 119.243 86.6152V85.4912C122.774 85.4912 126.294 85.8172 129.698 86.1319C133.102 86.4466 136.276 86.7389 139.426 86.7389L139.449 87.8629Z" fill="#00ACFF"/>
<path d="M145.912 87.3348L145.704 86.2108C148.298 85.7564 150.785 84.8461 153.043 83.5244L153.644 84.4911C151.266 85.8904 148.646 86.8542 145.912 87.3348Z" fill="#00ACFF"/>
<path d="M159.471 120.751C143.246 130.283 124.147 117.492 107.911 127.023L103.583 93.1909C119.808 83.6593 138.907 96.4505 155.132 86.9189C156.579 98.1964 158.025 109.474 159.471 120.751Z" fill="#00ACFF"/>
<path d="M143.65 407.742C143.102 407.796 142.554 407.64 142.123 407.306C141.692 406.972 141.411 406.487 141.342 405.955L100.975 91.4259C100.922 90.8927 101.084 90.3604 101.427 89.9411C101.769 89.5218 102.265 89.2482 102.81 89.1779C103.358 89.1326 103.903 89.2939 104.332 89.6285C104.762 89.9632 105.043 90.4456 105.118 90.9763L145.439 405.494C145.489 406.02 145.333 406.545 145.001 406.962C144.668 407.38 144.185 407.659 143.65 407.742Z" fill="#00ACFF"/>
</svg>
