<svg width="50" height="50" viewBox="0 0 50 50" fill="none" xmlns="http://www.w3.org/2000/svg">
<rect width="50" height="50" rx="12" fill="#00ACFF"/>
<g clip-path="url(#clip0_62_5255)">
<path fill-rule="evenodd" clip-rule="evenodd" d="M32.5717 17.3C32.3506 15.6331 31.5834 14.0863 30.39 12.9017C29.6827 12.3756 28.929 11.9148 28.1383 11.525C28.039 11.4922 27.9312 11.4967 27.8349 11.5374C27.7386 11.5782 27.6603 11.6525 27.6147 11.7466C27.5691 11.8407 27.5591 11.9482 27.5868 12.0491C27.6144 12.1499 27.6778 12.2373 27.765 12.295C28.4687 12.6703 29.1399 13.1034 29.7717 13.59C30.8445 14.7541 31.4617 16.266 31.51 17.8483C30.5427 17.9125 29.5723 17.9125 28.605 17.8483C28.5131 16.9718 28.3011 16.1121 27.975 15.2933C28.8033 15.2933 29.55 15.2933 30.1333 15.2C30.2342 15.1833 30.3258 15.1313 30.3919 15.0533C30.458 14.9753 30.4943 14.8764 30.4943 14.7742C30.4943 14.672 30.458 14.5731 30.3919 14.4951C30.3258 14.4171 30.2342 14.3651 30.1333 14.3483C29.445 14.3483 28.535 14.185 27.5317 14.0683L27.1117 12.9017C27.0823 12.8058 27.016 12.7254 26.9274 12.6784C26.8388 12.6314 26.7351 12.6215 26.6392 12.6508C26.5433 12.6802 26.4629 12.7465 26.4159 12.8351C26.3689 12.9238 26.359 13.0274 26.3883 13.1233L26.5633 13.9517C25.5947 13.8474 24.6208 13.8007 23.6467 13.8117C24.0321 13.0373 24.6313 12.3895 25.3733 11.945C25.4434 11.9144 25.5009 11.8609 25.5367 11.7933H25.875C25.974 11.8042 26.0733 11.7752 26.151 11.7129C26.2286 11.6505 26.2783 11.5599 26.2892 11.4608C26.3 11.3618 26.2711 11.2626 26.2087 11.1849C26.1464 11.1072 26.0557 11.0575 25.9567 11.0467C22.235 10.5567 19.4583 12.75 18 16.285C17.4348 17.709 17.3669 19.2821 17.8074 20.7495C18.2478 22.2169 19.1707 23.4926 20.4267 24.37C21.6336 25.2358 23.0652 25.734 24.5489 25.8045C26.0325 25.8751 27.5049 25.5151 28.7886 24.7678C30.0723 24.0205 31.1124 22.9179 31.7836 21.5929C32.4549 20.2679 32.7285 18.777 32.5717 17.3ZM31.475 18.77C31.3815 19.479 31.1643 20.1661 30.8333 20.8C30.051 21.063 29.232 21.2008 28.4067 21.2084C28.5576 20.5376 28.6436 19.8539 28.6633 19.1667C29.6078 19.0917 30.5467 18.9592 31.475 18.77ZM18.84 18.5367C19.5167 18.6767 20.3917 18.8167 21.3717 18.945C21.3456 19.6989 21.4242 20.4527 21.605 21.185C20.8233 21.185 20.0883 21.08 19.3883 20.9867C19.0229 20.2219 18.8354 19.3843 18.84 18.5367ZM22.7717 19.1667C24.2595 19.2658 25.7522 19.2658 27.24 19.1667C27.2405 19.8501 27.1898 20.5325 27.0883 21.2084H22.9117C22.8053 20.5332 22.7585 19.85 22.7717 19.1667ZM26.8433 15.4217C27.0328 16.2457 27.146 17.0853 27.1817 17.93C24.9533 17.8367 23.3667 17.8367 22.8533 17.8367C22.9208 16.9938 23.0416 16.156 23.215 15.3283C24.7433 15.3517 25.8167 15.3633 26.8433 15.3633V15.4217ZM24.055 11.9217C23.3233 12.4406 22.7433 13.1454 22.375 13.9633C21.7201 14.0132 21.0692 14.1067 20.4267 14.2433C20.844 13.6286 21.3799 13.1035 22.003 12.6988C22.6261 12.2941 23.3237 12.018 24.055 11.8867V11.9217ZM19.8083 15.2C20.5036 15.1525 21.2014 15.1525 21.8967 15.2C21.643 16.0427 21.4864 16.9117 21.43 17.79H18.8983C19.0278 16.8751 19.337 15.9948 19.8083 15.2ZM19.96 21.9783C20.6017 22.1417 21.2783 22.2933 21.9783 22.41C22.1852 22.9445 22.4596 23.4503 22.795 23.915C21.6712 23.5808 20.68 22.9037 19.96 21.9783ZM24.4867 24.3117C23.9524 23.8349 23.5505 23.228 23.32 22.55C24.4839 22.6638 25.6561 22.6638 26.82 22.55C26.7335 23.1707 26.5104 23.7644 26.1667 24.2884C25.6136 24.3979 25.0469 24.4215 24.4867 24.3583V24.3117ZM27.4967 23.8334C28.605 21.6167 27.1233 22.8417 29.9583 22.0133C29.2848 22.7971 28.4435 23.4192 27.4967 23.8334Z" fill="white"/>
<path fill-rule="evenodd" clip-rule="evenodd" d="M18.7933 31.9066C18.6533 32.0816 18.7233 32.3616 17.9417 32.3616C17.16 32.3616 17.3817 31.6732 16.775 31.7082C16.5767 31.7082 16.495 31.9066 16.53 32.1049C16.7368 32.5269 17.0662 32.8766 17.475 33.1082C17.6645 33.1812 17.8669 33.2145 18.0698 33.206C18.2727 33.1975 18.4717 33.1474 18.6544 33.0588C18.8371 32.9702 18.9996 32.845 19.1319 32.6909C19.2642 32.5368 19.3634 32.3572 19.4233 32.1632C19.4233 32.0699 19.4817 32.0816 19.4817 31.9649C19.4752 31.8821 19.4396 31.8043 19.3811 31.7454C19.3225 31.6865 19.245 31.6504 19.1623 31.6433C19.0796 31.6363 18.997 31.659 18.9294 31.7072C18.8619 31.7554 18.8136 31.8261 18.7933 31.9066Z" fill="white"/>
<path fill-rule="evenodd" clip-rule="evenodd" d="M32.945 31.79C32.805 31.965 32.875 32.245 32.105 32.245C31.335 32.245 31.5333 31.5566 30.88 31.5916C30.6933 31.5916 30.6 31.79 30.635 31.9883C30.8478 32.4098 31.1807 32.759 31.5917 32.9916C31.7842 33.0639 31.9897 33.0952 32.195 33.0837C32.4003 33.0722 32.6009 33.0181 32.7842 32.9248C32.9675 32.8316 33.1293 32.7012 33.2594 32.5419C33.3895 32.3827 33.4851 32.1981 33.54 32V31.8016C33.5096 31.7503 33.4666 31.7077 33.4151 31.6777C33.3636 31.6476 33.3053 31.6313 33.2457 31.6301C33.1862 31.6289 33.1272 31.643 33.0746 31.671C33.022 31.699 32.9774 31.7399 32.945 31.79Z" fill="white"/>
<path fill-rule="evenodd" clip-rule="evenodd" d="M37.9734 36.2934C37.1382 35.3113 35.995 34.641 34.73 34.3918C37.25 32.4084 36.8884 27.3918 33.6917 26.7734C33.5939 26.761 33.495 26.7854 33.4142 26.8418C33.3334 26.8983 33.2765 26.9829 33.2547 27.079C33.2328 27.1751 33.2476 27.276 33.296 27.3618C33.3444 27.4477 33.4231 27.5124 33.5167 27.5434C34.0212 27.7014 34.4656 28.0093 34.7907 28.4262C35.1159 28.843 35.3063 29.349 35.3367 29.8768C35.0579 29.915 34.7741 29.8909 34.5058 29.8061C34.2375 29.7214 33.9913 29.5782 33.785 29.3868C33.3767 28.7451 33.4817 28.9551 33.3767 28.5701C33.2717 28.1851 32.7 27.8351 32.105 28.4068C31.8017 28.7101 31.685 29.1418 30.9384 29.5151C30.5467 29.746 30.1081 29.8856 29.655 29.9234C28.9434 29.9934 29.095 29.9234 28.815 29.9234C28.8682 29.494 29.0061 29.0795 29.2208 28.7038C29.4355 28.3282 29.7226 27.9989 30.0656 27.7352C30.4086 27.4714 30.8006 27.2784 31.2188 27.1674C31.637 27.0564 32.073 27.0295 32.5017 27.0884C32.5501 27.1012 32.6007 27.1035 32.6501 27.095C32.6995 27.0865 32.7464 27.0676 32.7878 27.0394C32.8293 27.0112 32.8641 26.9745 32.8901 26.9317C32.9161 26.8889 32.9327 26.841 32.9386 26.7913C32.9445 26.7415 32.9396 26.6911 32.9244 26.6434C32.9091 26.5957 32.8838 26.5518 32.8501 26.5147C32.8164 26.4777 32.7752 26.4482 32.7292 26.4285C32.6832 26.4087 32.6334 26.399 32.5834 26.4001C27.4267 25.7701 26.085 32.3268 29.3517 34.5668C28.6888 34.7337 28.0525 34.9929 27.4617 35.3368C26.841 35.6496 26.3244 36.1358 25.9745 36.7363C25.6245 37.3368 25.4563 38.0259 25.49 38.7201C25.49 38.8129 25.5269 38.902 25.5925 38.9676C25.6582 39.0332 25.7472 39.0701 25.84 39.0701C25.9329 39.0701 26.0219 39.0332 26.0875 38.9676C26.1531 38.902 26.19 38.8129 26.19 38.7201C26.3331 38.0957 26.7085 37.5493 27.24 37.1918C28.1813 36.3466 29.238 35.6395 30.3784 35.0918C31.4864 35.4461 32.6809 35.4214 33.7734 35.0218C34.9092 35.5489 35.9562 36.2495 36.8767 37.0984C37.4125 37.4516 37.7893 37.9999 37.9267 38.6268C37.9267 38.7196 37.9636 38.8086 38.0292 38.8743C38.0948 38.9399 38.1839 38.9768 38.2767 38.9768C38.3695 38.9768 38.4585 38.9399 38.5242 38.8743C38.5898 38.8086 38.6267 38.7196 38.6267 38.6268C38.6906 38.2138 38.6654 37.7918 38.5527 37.3894C38.44 36.9869 38.2425 36.6132 37.9734 36.2934ZM30.915 33.7851C30.2659 33.5784 29.7044 33.1608 29.3197 32.5986C28.935 32.0363 28.7492 31.3617 28.7917 30.6818C29.4407 30.9134 30.1414 30.9597 30.8152 30.8154C31.489 30.6712 32.1094 30.3421 32.6067 29.8651C32.9408 30.2365 33.367 30.513 33.8423 30.6667C34.3176 30.8203 34.8251 30.8456 35.3134 30.7401C35.0917 33.1668 33.505 34.4384 30.915 33.7851Z" fill="white"/>
<path fill-rule="evenodd" clip-rule="evenodd" d="M22.5033 35.1849C21.8912 34.8312 21.231 34.5679 20.5433 34.4033C23.0633 32.4316 22.725 27.4733 19.505 26.7966C19.4552 26.7851 19.4037 26.7835 19.3532 26.792C19.3029 26.8004 19.2546 26.8187 19.2113 26.8458C19.1238 26.9005 19.0616 26.9877 19.0383 27.0883C19.0151 27.1888 19.0328 27.2945 19.0875 27.382C19.1422 27.4695 19.2295 27.5317 19.33 27.5549C19.8328 27.7157 20.2755 28.0244 20.6001 28.4407C20.9248 28.8569 21.1164 29.3614 21.15 29.8883C20.8712 29.9265 20.5874 29.9023 20.3191 29.8176C20.0508 29.7329 19.8046 29.5896 19.5983 29.3983C19.19 28.7566 19.295 28.9666 19.19 28.5933C19.1665 28.4976 19.1212 28.4087 19.0578 28.3333C18.9943 28.2579 18.9144 28.1982 18.8241 28.1587C18.7339 28.1192 18.6357 28.1011 18.5373 28.1056C18.4389 28.1102 18.3429 28.1373 18.2567 28.1849C17.8133 28.3949 17.6383 28.8266 17.3933 29.0833C17.0319 29.42 16.5971 29.668 16.1233 29.8077C15.6495 29.9474 15.1497 29.975 14.6633 29.8883C14.718 29.4595 14.8569 29.0458 15.072 28.6709C15.2872 28.296 15.5743 27.9673 15.9169 27.7039C16.2596 27.4404 16.6509 27.2473 17.0685 27.1356C17.4861 27.0239 17.9216 26.996 18.35 27.0533C18.4344 27.0514 18.5152 27.0192 18.5777 26.9625C18.6401 26.9057 18.68 26.8284 18.6899 26.7446C18.6999 26.6608 18.6792 26.5762 18.6318 26.5065C18.5843 26.4367 18.5133 26.3865 18.4317 26.3649C13.485 25.6649 11.7933 32.1983 15.2 34.5316C13.9637 34.7827 12.8468 35.4397 12.0267 36.3983C11.7599 36.7087 11.5609 37.0713 11.4424 37.4631C11.3238 37.8548 11.2884 38.267 11.3383 38.6733C11.3383 38.7661 11.3752 38.8551 11.4409 38.9207C11.5065 38.9864 11.5955 39.0233 11.6883 39.0233C11.7812 39.0233 11.8702 38.9864 11.9358 38.9207C12.0015 38.8551 12.0383 38.7661 12.0383 38.6733C12.12 37.7983 13.135 37.0866 13.835 36.5383C14.516 35.9649 15.2739 35.4897 16.0867 35.1266C16.1381 35.1085 16.1856 35.0807 16.2267 35.0449C17.3343 35.4019 18.5297 35.3773 19.6217 34.9749C20.458 35.3652 21.2419 35.8591 21.955 36.4449C22.655 36.9933 23.67 37.7049 23.7517 38.5799C23.7517 38.6259 23.7607 38.6714 23.7783 38.7139C23.7959 38.7563 23.8217 38.7949 23.8542 38.8274C23.8867 38.8599 23.9253 38.8857 23.9677 38.9033C24.0102 38.9209 24.0557 38.9299 24.1017 38.9299C24.1476 38.9299 24.1932 38.9209 24.2356 38.9033C24.2781 38.8857 24.3167 38.8599 24.3492 38.8274C24.3817 38.7949 24.4074 38.7563 24.425 38.7139C24.4426 38.6714 24.4517 38.6259 24.4517 38.5799C24.4914 37.886 24.3283 37.1956 23.9823 36.5927C23.6364 35.9899 23.1225 35.5008 22.5033 35.1849ZM16.74 33.7966C16.0876 33.5938 15.5223 33.1775 15.1351 32.6147C14.7478 32.0518 14.5611 31.3751 14.605 30.6933C15.254 30.9249 15.9547 30.9711 16.6285 30.8269C17.3024 30.6826 17.9227 30.3536 18.42 29.8766C18.7557 30.2462 19.1817 30.5223 19.6561 30.6777C20.1306 30.8331 20.6374 30.8626 21.1267 30.7633C20.905 33.1666 19.3183 34.4499 16.74 33.7966Z" fill="white"/>
</g>
<defs>
<clipPath id="clip0_62_5255">
<rect width="28" height="28" fill="white" transform="translate(11 11)"/>
</clipPath>
</defs>
</svg>
