<svg width="50" height="50" viewBox="0 0 50 50" fill="none" xmlns="http://www.w3.org/2000/svg">
<rect width="50" height="50" rx="12" fill="#00ACFF"/>
<path fill-rule="evenodd" clip-rule="evenodd" d="M32.1168 32.5693C32.5393 32.5389 32.9386 32.3647 33.2486 32.0757C33.5585 31.7867 33.7603 31.4003 33.8205 30.9806C33.8489 30.7402 33.8204 30.4965 33.7373 30.2692C33.6542 30.0419 33.5188 29.8374 33.3421 29.6722C32.768 29.2445 32.1129 28.9384 31.4167 28.7727C31.173 28.7074 30.9408 28.605 30.7282 28.469C30.6661 28.4385 30.6118 28.3943 30.5693 28.3396C30.5268 28.285 30.4974 28.2214 30.4832 28.1536C30.4132 27.5812 30.8332 27.3592 31.335 27.3125C31.9727 27.2569 32.6129 27.3867 33.1787 27.6863C33.2152 27.7166 33.2576 27.7388 33.3033 27.7516C33.3489 27.7644 33.3967 27.7675 33.4436 27.7606C33.4905 27.7537 33.5354 27.7371 33.5755 27.7117C33.6155 27.6863 33.6498 27.6528 33.6761 27.6133C33.7024 27.5739 33.7201 27.5293 33.7281 27.4825C33.7361 27.4358 33.7342 27.3878 33.7225 27.3419C33.7108 27.2959 33.6896 27.2529 33.6602 27.2156C33.6309 27.1784 33.594 27.1477 33.5521 27.1256C33.2638 26.9247 32.9498 26.7636 32.6186 26.6467L32.6886 26.5532C32.7427 26.4695 32.7858 26.3792 32.817 26.2845C32.8431 26.1887 32.8626 26.0911 32.8753 25.9925C33.0037 24.9528 32.8753 24.8243 32.7003 24.8243C32.5252 24.8243 32.3152 24.7192 31.7434 25.6187C31.6853 25.7018 31.6382 25.7921 31.6034 25.8874C31.5583 25.9823 31.5344 26.086 31.5334 26.1911C31.5275 26.265 31.5275 26.3392 31.5334 26.413C31.2658 26.3835 30.9958 26.3835 30.7282 26.413C30.5163 26.4348 30.3107 26.4985 30.1235 26.6004C29.9364 26.7023 29.7712 26.8404 29.6377 27.0066C29.5042 27.1729 29.405 27.364 29.3458 27.5689C29.2866 27.7738 29.2687 27.9884 29.2929 28.2003C29.2988 28.4445 29.362 28.6839 29.4776 28.8991C29.5932 29.1142 29.7578 29.2991 29.9581 29.4386C30.5361 29.7922 31.1606 30.0635 31.8134 30.2446C32.1868 30.3848 32.5719 30.4783 32.5369 30.8871C32.5019 31.296 32.0118 31.5179 31.4984 31.5646C30.8706 31.6249 30.2387 31.5032 29.678 31.2142C29.5405 31.1109 29.4221 30.9844 29.3279 30.8404C29.2044 30.6707 29.1025 30.4863 29.0245 30.2913C28.9836 30.199 28.9081 30.1265 28.8142 30.0894C28.7204 30.0522 28.6157 30.0534 28.5228 30.0928C28.4761 30.1118 28.4337 30.1401 28.3983 30.176C28.3628 30.2119 28.335 30.2546 28.3164 30.3015C28.2979 30.3484 28.2891 30.3986 28.2904 30.4491C28.2918 30.4996 28.3034 30.5492 28.3244 30.5951C28.4241 30.8939 28.5656 31.177 28.7445 31.4361C28.8802 31.6286 29.0456 31.7981 29.2346 31.9385C29.3968 32.0442 29.5687 32.1342 29.748 32.2071C29.696 32.2879 29.653 32.374 29.6197 32.4641C29.5902 32.5592 29.5706 32.6571 29.5613 32.7562C29.4213 33.8075 29.5613 33.9243 29.7364 33.9243C29.9114 33.9243 30.1214 34.0295 30.6932 33.13C30.7489 33.0454 30.7958 32.9554 30.8332 32.8613C30.8676 32.7629 30.8911 32.6611 30.9032 32.5576V32.4408C31.3 32.5387 31.7083 32.5819 32.1168 32.5693Z" fill="white"/>
<path fill-rule="evenodd" clip-rule="evenodd" d="M22.4316 23.7613C22.3464 23.5163 22.1822 23.3067 21.9649 23.1655C22.0057 23.1145 22.0337 23.0544 22.0466 22.9903C22.1166 20.9694 23.8436 19.6961 24.5787 17.9905C24.9471 17.1119 24.9926 16.131 24.7071 15.222C24.6097 14.9127 24.4968 14.6086 24.3687 14.3108C24.2121 14.0193 24.0367 13.7384 23.8436 13.4697C22.3616 11.1918 19.176 10.5493 16.3638 11.297C13.5516 12.0446 11.1128 14.1473 11.0077 16.9626C10.9724 17.5143 11.0585 18.0672 11.2602 18.5819C11.4618 19.0967 11.774 19.5608 12.1746 19.9414C13.0736 20.6733 14.034 21.326 15.0452 21.8922C15.5003 22.1319 15.9011 22.4632 16.2224 22.8652C16.5437 23.2673 16.7785 23.7314 16.9122 24.2285C16.9122 24.287 16.9706 24.3103 16.9939 24.357C16.9549 24.3961 16.9269 24.4447 16.9125 24.498C16.8982 24.5513 16.8981 24.6074 16.9122 24.6608C16.923 24.7034 16.9423 24.7434 16.9688 24.7784C16.9954 24.8134 17.0287 24.8426 17.0669 24.8644C17.105 24.8863 17.1471 24.9001 17.1907 24.9053C17.2343 24.9104 17.2785 24.9067 17.3206 24.8944L20.3429 24.4505C20.5646 24.4505 20.903 24.3103 21.2297 24.2402H21.4981C21.5473 24.7179 21.5473 25.1994 21.4981 25.6771C21.568 26.0355 21.6109 26.3986 21.6265 26.7635C21.6308 26.9144 21.5946 27.0637 21.5215 27.1957C21.3468 27.4635 21.1052 27.681 20.8207 27.8265C20.5362 27.972 20.2186 28.0404 19.8995 28.0251C19.5673 28.0346 19.2385 27.9552 18.9473 27.795C18.656 27.6348 18.4127 27.3997 18.2425 27.1139L18.1725 26.9504H18.8959C19.2085 26.9285 19.5156 26.8575 19.8061 26.7401C21.1014 26.2612 21.1831 26.1327 21.1247 25.8523C21.0664 25.5719 20.9147 25.4668 19.5494 25.5603C19.398 25.5481 19.2458 25.5481 19.0943 25.5603C18.9352 25.5892 18.779 25.6322 18.6276 25.6888C18.36 25.807 18.0991 25.9396 17.8457 26.0859C17.7566 25.8554 17.6902 25.6168 17.6474 25.3734C17.6302 25.2727 17.5739 25.183 17.4908 25.1239C17.4077 25.0647 17.3045 25.041 17.2039 25.0579C17.154 25.0634 17.1056 25.0793 17.0621 25.1045C17.0186 25.1297 16.9808 25.1638 16.9511 25.2045C16.9215 25.2451 16.9006 25.2915 16.8899 25.3407C16.8792 25.3899 16.8789 25.4408 16.8889 25.4902C16.9269 25.8262 16.9932 26.1583 17.0873 26.4831C17.1807 26.8089 17.2937 27.1288 17.4257 27.441C17.6429 27.9101 17.9836 28.3113 18.4111 28.6014C18.8387 28.8915 19.337 29.0598 19.8528 29.0881C20.389 29.157 20.9338 29.0806 21.4305 28.8669C21.9272 28.6532 22.3575 28.3101 22.6767 27.8732C22.8407 27.6164 22.9407 27.324 22.9684 27.0205C22.9929 26.4915 22.9498 25.9615 22.84 25.4434C22.7535 24.8718 22.6168 24.3089 22.4316 23.7613ZM21.0897 23.1422C20.7396 23.2356 20.3662 23.4225 20.1212 23.4926L17.5774 24.1234C17.1923 21.717 14.4384 20.911 12.9098 19.2755C12.6274 18.9782 12.4148 18.6215 12.2877 18.2314C12.1605 17.8414 12.1219 17.4278 12.1746 17.021C12.3147 14.6846 14.4151 13.1543 16.7489 12.5469C19.0826 11.9394 21.7082 12.2549 22.9917 14.1122C23.1434 14.3342 23.2835 14.5678 23.4118 14.8015C23.5375 15.047 23.6467 15.3007 23.7385 15.5608C23.9909 16.2349 23.9909 16.9777 23.7385 17.6518C23.0851 19.4391 21.4048 20.8642 21.4048 22.9786C21.3982 23.0212 21.3982 23.0645 21.4048 23.1071L21.0897 23.1422Z" fill="white"/>
<path fill-rule="evenodd" clip-rule="evenodd" d="M38.2897 26.1677C37.4592 24.6975 36.1552 23.5526 34.5906 22.9202C33.0583 22.2054 31.3464 21.9693 29.678 22.2427C28.3581 22.5139 27.1233 23.1007 26.0789 23.953C25.0346 24.8053 24.2116 25.8978 23.6802 27.1373C23.1433 28.3851 23.002 29.7678 23.2754 31.0986C23.5488 32.4294 24.2237 33.6441 25.2088 34.5785C25.5704 34.944 25.9606 35.28 26.3757 35.5832C26.7958 35.8978 27.2547 36.157 27.741 36.3541C28.3106 36.5654 28.9083 36.6914 29.5146 36.728C30.3884 36.7705 31.2643 36.7236 32.1285 36.5878C32.1731 36.5821 32.2161 36.5675 32.2551 36.5449C32.294 36.5223 32.328 36.4922 32.3552 36.4563C32.3823 36.4204 32.4021 36.3795 32.4132 36.3359C32.4244 36.2922 32.4268 36.2468 32.4202 36.2023C32.4159 36.1581 32.4027 36.1153 32.3814 36.0764C32.3601 36.0375 32.3311 36.0033 32.2961 35.976C32.2612 35.9487 32.2211 35.9288 32.1782 35.9175C32.1354 35.9062 32.0906 35.9037 32.0468 35.9102C31.231 36.0236 30.4049 36.0432 29.5847 35.9686C29.0581 35.9287 28.5417 35.8024 28.056 35.5948C27.6386 35.4076 27.2465 35.1682 26.8891 34.8823C26.5285 34.5874 26.1893 34.2673 25.8739 33.9244C25.0766 33.1063 24.5468 32.0646 24.355 30.9378C24.1633 29.811 24.3186 28.6525 24.8004 27.6163C25.2694 26.5725 25.9795 25.6554 26.8722 24.9404C27.7649 24.2255 28.8146 23.7332 29.9347 23.5043C31.3371 23.2668 32.7784 23.4496 34.0772 24.03C35.4076 24.5217 36.5339 25.4476 37.2745 26.6584C37.6914 27.4591 37.9283 28.3413 37.9686 29.2434C38.0089 30.1454 37.8517 31.0453 37.5079 31.8801C37.1873 32.7329 36.6788 33.5024 36.0202 34.1314C35.3616 34.7603 34.5698 35.2326 33.7038 35.5131C33.6171 35.5497 33.5467 35.6168 33.5061 35.7017C33.4654 35.7867 33.4572 35.8836 33.4831 35.9742C33.5089 36.0648 33.567 36.1428 33.6464 36.1934C33.7258 36.244 33.8209 36.2638 33.9138 36.249C34.9152 35.9604 35.8379 35.4476 36.6122 34.7494C37.3865 34.0511 37.992 33.1858 38.383 32.2188C38.805 31.2633 39.0152 30.2276 38.9991 29.183C38.983 28.1384 38.741 27.1097 38.2897 26.1677Z" fill="white"/>
<path fill-rule="evenodd" clip-rule="evenodd" d="M29.2346 16.3084C29.538 16.764 29.8764 17.2079 30.2031 17.6168C30.23 17.6591 30.2654 17.6955 30.3071 17.7234C30.3488 17.7514 30.3958 17.7703 30.4451 17.7791C30.4945 17.7879 30.5452 17.7863 30.5939 17.7745C30.6427 17.7626 30.6884 17.7407 30.7282 17.7102C30.7711 17.684 30.8083 17.6495 30.8375 17.6086C30.8667 17.5677 30.8873 17.5213 30.8982 17.4722C30.9091 17.4231 30.91 17.3724 30.9009 17.3229C30.8917 17.2735 30.8727 17.2264 30.8449 17.1845C30.5649 16.7406 30.3082 16.2851 30.0748 15.8178C29.8297 15.3622 29.6197 14.8833 29.4213 14.416C29.4213 14.3225 29.398 14.2408 29.3513 14.1707C30.3848 14.3973 31.3742 14.7919 32.2802 15.3388C32.7337 15.6205 33.1561 15.9494 33.5404 16.3201C33.9206 16.655 34.2438 17.0495 34.4973 17.4883C34.6875 17.8193 34.8364 18.1723 34.9407 18.5396C35.1158 19.1587 35.2324 19.8012 35.3725 20.397C35.3781 20.4413 35.3927 20.484 35.4154 20.5224C35.438 20.5609 35.4684 20.5943 35.5044 20.6205C35.5405 20.6468 35.5816 20.6654 35.6251 20.6752C35.6686 20.6849 35.7137 20.6857 35.7575 20.6774C35.8367 20.6607 35.9074 20.6162 35.9566 20.5519C36.0059 20.4876 36.0304 20.4078 36.0259 20.3269C36.0259 19.6844 35.9676 19.0186 35.8742 18.3644C35.8061 17.9003 35.6847 17.4456 35.5125 17.0093C35.0677 16.0591 34.369 15.2505 33.4938 14.673C32.543 14.0804 31.4839 13.6833 30.3782 13.5048C30.9148 13.3415 31.4602 13.2089 32.0118 13.1076C32.7252 12.976 33.4462 12.8902 34.1706 12.8506C34.2144 12.8538 34.2585 12.8481 34.3001 12.8338C34.3417 12.8195 34.38 12.797 34.4127 12.7675C34.4453 12.7381 34.4718 12.7023 34.4903 12.6624C34.5089 12.6225 34.5192 12.5792 34.5206 12.5352C34.5208 12.4462 34.4872 12.3604 34.4265 12.2953C34.3658 12.2303 34.2826 12.1907 34.1939 12.1848C33.2756 12.0795 32.349 12.0678 31.4284 12.1497C30.8025 12.2113 30.1822 12.3207 29.573 12.4768C29.2274 12.5571 28.8881 12.6625 28.5578 12.7922C28.3187 12.8874 28.1092 13.0446 27.951 13.2478C27.8907 13.3355 27.8492 13.4348 27.8292 13.5393C27.8091 13.6439 27.8108 13.7514 27.8343 13.8553C27.9804 14.2365 28.16 14.604 28.3711 14.9533C28.6278 15.3972 28.9312 15.8528 29.2346 16.3084Z" fill="white"/>
<path fill-rule="evenodd" clip-rule="evenodd" d="M21.5098 35.2908C21.2881 35.0689 20.9847 34.8469 20.8213 34.6834L18.2892 32.3471C18.2587 32.316 18.2224 32.2913 18.1824 32.2744C18.1423 32.2576 18.0992 32.2489 18.0558 32.2489C18.0123 32.2489 17.9693 32.2576 17.9292 32.2744C17.8891 32.2913 17.8528 32.316 17.8224 32.3471C17.7895 32.3777 17.7633 32.4147 17.7454 32.4559C17.7275 32.4971 17.7182 32.5416 17.7182 32.5865C17.7182 32.6315 17.7275 32.6759 17.7454 32.7171C17.7633 32.7583 17.7895 32.7954 17.8224 32.826L19.9111 35.4777C18.1786 35.4143 16.5112 34.8006 15.1502 33.7255C14.3635 33.1278 13.7411 32.34 13.3415 31.4359C12.9447 30.5376 12.8189 29.5428 12.9798 28.5739C13.0217 28.2659 13.1001 27.9639 13.2132 27.6744C13.3197 27.377 13.4484 27.088 13.5982 26.81C13.6473 26.7355 13.665 26.6446 13.6475 26.5571C13.63 26.4696 13.5788 26.3926 13.5049 26.3427C13.4283 26.2977 13.3374 26.2835 13.2508 26.303C13.1641 26.3225 13.0881 26.3743 13.0381 26.4478C12.8315 26.7406 12.6481 27.0492 12.4897 27.3707C12.3591 27.701 12.2538 28.0407 12.1746 28.387C11.8335 29.5347 11.8621 30.7609 12.2563 31.8915C12.6848 33.0149 13.4309 33.9891 14.4034 34.6951C15.8996 35.7536 17.6943 36.3061 19.5261 36.2721L15.757 38.2697C15.6655 38.3085 15.5926 38.3813 15.5534 38.4727C15.5143 38.5641 15.512 38.6672 15.547 38.7603C15.5881 38.8556 15.6649 38.9309 15.7609 38.9702C15.8568 39.0095 15.9643 39.0096 16.0604 38.9706C16.9239 38.6668 17.7874 38.3398 18.6392 37.9893L20.3429 37.2767C20.4362 37.2767 21.2181 36.8562 21.5098 36.6926C21.6709 36.6078 21.7969 36.4686 21.8652 36.2996C21.9336 36.1307 21.94 35.943 21.8832 35.7698C21.7895 35.5883 21.6628 35.4259 21.5098 35.2908Z" fill="white"/>
</svg>
