<svg width="50" height="50" viewBox="0 0 50 50" fill="none" xmlns="http://www.w3.org/2000/svg">
<rect width="50" height="50" rx="12" fill="#00ACFF"/>
<path fill-rule="evenodd" clip-rule="evenodd" d="M13.6921 25.2138C14.8583 26.2195 15.6863 25.28 14.7883 24.1683L14.695 24.0625C14.5037 23.8543 14.3011 23.6598 14.0886 23.4802C13.867 23.2949 13.6338 23.1361 13.4005 22.9773C12.8364 22.6173 12.2427 22.3204 11.6279 22.0907C11.5243 22.0327 11.4047 22.0239 11.2953 22.0661C11.186 22.1083 11.0959 22.198 11.0448 22.3156C10.9938 22.4332 10.986 22.569 11.0232 22.6931C11.0604 22.8171 11.1395 22.9194 11.2431 22.9773C11.7445 23.3611 12.1644 23.8507 12.6425 24.3007C12.9491 24.61 13.2724 24.8972 13.6104 25.1609L13.6921 25.2138Z" fill="white"/>
<path fill-rule="evenodd" clip-rule="evenodd" d="M24.9925 32.426C24.9538 32.3032 24.8737 32.2028 24.7698 32.1469C24.666 32.0911 24.5468 32.0844 24.4385 32.1283C24.3303 32.1721 24.2418 32.263 24.1926 32.3809C24.1434 32.4988 24.1375 32.634 24.1761 32.7568C24.2411 33.1429 24.1682 33.5424 23.9735 33.8675C23.7789 34.1926 23.4784 34.4167 23.1382 34.4905C22.9326 34.4968 22.7286 34.4468 22.5435 34.3449C22.3441 34.2583 22.1618 34.1279 22.007 33.9611C21.9037 33.8394 21.8064 33.7112 21.7155 33.5773C21.6622 33.4838 21.6228 33.381 21.5989 33.273C21.5515 33.0212 21.5846 32.7585 21.6922 32.5319C21.7738 32.4392 21.8321 32.3466 21.9021 32.254C21.9988 32.0999 22.1217 31.9694 22.2636 31.8702C22.52 31.6795 22.82 31.5779 23.1266 31.5779C23.4332 31.5779 23.7331 31.6795 23.9896 31.8702C24.0639 31.9399 24.1586 31.9753 24.255 31.9695C24.3513 31.9637 24.4421 31.9171 24.5096 31.8389C24.5771 31.7607 24.6162 31.6566 24.6192 31.5472C24.6223 31.4378 24.589 31.3311 24.526 31.2482C24.2394 30.9149 23.8804 30.6734 23.4852 30.5479C23.09 30.4224 22.6726 30.4175 22.2752 30.5336C22.2728 30.3274 22.2453 30.1226 22.1936 29.9249C22.154 29.801 22.0732 29.6998 21.9685 29.6429C21.8639 29.586 21.7437 29.5779 21.6338 29.6205C21.5789 29.6412 21.5282 29.6743 21.4847 29.7178C21.4413 29.7613 21.406 29.8142 21.3809 29.8735C21.3559 29.9328 21.3417 29.9972 21.339 30.0628C21.3364 30.1285 21.3454 30.1941 21.3656 30.2557C21.4298 30.4793 21.4298 30.7202 21.3656 30.9438C21.0065 31.1776 20.7086 31.5156 20.5026 31.9231C20.4561 31.9288 20.4092 31.9288 20.3627 31.9231C20.1605 31.9328 19.9595 31.8827 19.7796 31.7776C19.5552 31.7184 19.3445 31.6056 19.1615 31.4467C19.0564 31.3305 18.9626 31.2019 18.8816 31.0629C18.8204 30.9729 18.7767 30.8691 18.7533 30.7586C18.7157 30.4796 18.7577 30.1943 18.8731 29.9443C18.9885 29.6944 19.1712 29.4928 19.3947 29.369C19.6501 29.175 19.9504 29.0714 20.2577 29.0714C20.565 29.0714 20.8654 29.175 21.1207 29.369C21.1949 29.4498 21.2944 29.4937 21.3972 29.4912C21.5 29.4888 21.5977 29.44 21.6688 29.3558C21.74 29.2716 21.7787 29.1587 21.7765 29.0421C21.7743 28.9254 21.7314 28.8145 21.6572 28.7338C21.4207 28.4492 21.1287 28.2315 20.8047 28.0982C20.4806 27.9649 20.1335 27.9197 19.7913 27.9663C19.8329 27.5968 19.7845 27.2215 19.6513 26.8811C19.6127 26.7583 19.5326 26.6579 19.4287 26.602C19.3248 26.5462 19.2056 26.5395 19.0974 26.5834C18.9891 26.6272 18.9007 26.7181 18.8514 26.836C18.8022 26.9539 18.7963 27.0891 18.835 27.212C18.8752 27.4063 18.8761 27.6084 18.8378 27.8032C18.7994 27.998 18.7227 28.1804 18.6134 28.3368C18.3864 28.4739 18.1782 28.6477 17.9953 28.8529C17.9281 28.8914 17.8578 28.9224 17.7854 28.9456C17.584 28.9456 17.3851 28.8959 17.2023 28.8C17.003 28.7134 16.8207 28.583 16.6659 28.4162C16.5593 28.2979 16.4618 28.1695 16.3743 28.0324C16.314 27.9384 16.2741 27.8296 16.2577 27.7148C16.2094 27.4317 16.2492 27.1383 16.3705 26.8848C16.4917 26.6313 16.6868 26.4336 16.9224 26.3253C17.1789 26.1346 17.4788 26.033 17.7854 26.033C18.092 26.033 18.3919 26.1346 18.6484 26.3253C18.7237 26.3755 18.8119 26.395 18.8983 26.3808C18.9848 26.3666 19.0644 26.3194 19.1241 26.2471C19.1838 26.1747 19.22 26.0815 19.2268 25.9827C19.2336 25.8838 19.2106 25.7853 19.1615 25.7033C18.7932 25.3307 18.342 25.0794 17.8569 24.9768C17.3718 24.8742 16.8712 24.9241 16.4093 25.121C15.9227 25.2997 15.5089 25.6707 15.2431 26.1665C14.9073 26.6995 14.7577 27.355 14.8233 28.006C14.8644 28.2846 14.9472 28.5531 15.0682 28.8C15.2336 29.0944 15.4293 29.3654 15.6513 29.6072C15.9907 29.9386 16.3943 30.1744 16.8291 30.2954C17.007 30.3574 17.1913 30.3929 17.3772 30.4013C17.3538 30.6166 17.3538 30.8344 17.3772 31.0497C17.4205 31.3254 17.5074 31.59 17.6338 31.8305C17.7916 32.135 17.9881 32.4114 18.2169 32.651C18.5551 32.977 18.9537 33.2122 19.3831 33.3391C19.6602 33.425 19.9475 33.4608 20.2344 33.445C20.2401 33.48 20.2401 33.5159 20.2344 33.5509C20.2744 33.8317 20.3615 34.1013 20.491 34.3449C20.649 34.6452 20.8456 34.9173 21.0741 35.1521C21.4076 35.4859 21.8079 35.7222 22.2403 35.8403C22.6672 35.9779 23.1195 35.9779 23.5464 35.8403C23.8588 35.7308 24.1488 35.5515 24.3991 35.3128C24.6495 35.0742 24.8552 34.7811 25.0041 34.4508C25.1326 34.1328 25.1981 33.7867 25.1961 33.4369C25.1941 33.0871 25.1246 32.7421 24.9925 32.426Z" fill="white"/>
<path fill-rule="evenodd" clip-rule="evenodd" d="M23.5931 17.5252C23.7517 17.5596 23.9077 17.6083 24.0595 17.6708C24.8642 18.0413 25.3074 17.0752 24.7243 16.6518C24.434 16.4548 24.1196 16.3076 23.7913 16.2151C23.063 16.037 22.3123 16.0101 21.5755 16.1357C20.9249 16.1856 20.2714 16.1501 19.628 16.0298L17.2373 15.0108C16.6851 14.7471 16.1107 14.5476 15.523 14.4153C15.4732 14.42 15.4248 14.4364 15.3808 14.4634C15.3369 14.4904 15.2984 14.5275 15.2677 14.5722C15.237 14.617 15.2148 14.6685 15.2026 14.7235C15.1903 14.7785 15.1882 14.8358 15.1965 14.8917C15.2043 14.9905 15.2425 15.083 15.3043 15.1531C15.3661 15.2233 15.4476 15.2666 15.5347 15.2755C15.5347 15.2755 15.6746 15.3549 15.8029 15.4343C16.5259 15.8577 18.0536 16.9429 19.0916 17.5384C19.5179 17.8147 19.9908 17.986 20.4793 18.0413L21.7971 17.7369C22.3834 17.5672 22.9885 17.4958 23.5931 17.5252Z" fill="white"/>
<path fill-rule="evenodd" clip-rule="evenodd" d="M38.8935 14.243C38.833 14.1292 38.7352 14.0473 38.6216 14.015C38.508 13.9828 38.3877 14.0029 38.2871 14.071L36.2113 15.3944C35.8393 15.6364 35.449 15.8401 35.0451 16.0031C34.8079 16.0896 34.5594 16.1299 34.3104 16.1222C33.92 16.1155 33.5305 16.0801 33.1442 16.0163C32.801 15.9492 32.462 15.8564 32.1296 15.7384C31.6398 15.5532 31.1733 15.315 30.6835 15.1562C30.3056 15.0262 29.9122 14.9637 29.5173 14.9709C29.2025 14.9875 28.8918 15.0589 28.596 15.1826C28.1834 15.3383 27.7911 15.5564 27.4298 15.8311C27.1383 16.0296 24.456 18.8483 24.1995 19.1527C23.7502 19.6356 23.3582 20.1828 23.0333 20.7804C22.8091 21.2301 22.6813 21.7333 22.6601 22.2494C22.6339 22.5512 22.6686 22.8558 22.7616 23.1401C22.8545 23.4244 23.0033 23.6809 23.1966 23.8904C23.4708 24.1365 23.7904 24.3094 24.1315 24.3965C24.4727 24.4835 24.8267 24.4824 25.1674 24.3932C25.7695 24.2566 26.3336 23.9569 26.8118 23.5198C27.2882 23.0897 27.7328 22.6162 28.1412 22.1038C28.7351 22.387 29.365 22.5612 30.0071 22.6199C30.3093 22.6595 30.6145 22.6595 30.9168 22.6199C31.2164 22.5707 31.5099 22.4819 31.7914 22.3553C32.4349 22.0482 33.0177 21.5983 33.5057 21.0319C33.5484 21.0001 33.5848 20.9587 33.6128 20.9103C33.6408 20.8619 33.6598 20.8075 33.6686 20.7504C33.6773 20.6934 33.6756 20.6349 33.6637 20.5786C33.6517 20.5223 33.6297 20.4694 33.599 20.4231C33.5699 20.3762 33.533 20.3362 33.4903 20.3055C33.4476 20.2748 33.3999 20.2539 33.3501 20.244C33.3003 20.2342 33.2492 20.2356 33.1999 20.2482C33.1506 20.2607 33.1039 20.2842 33.0625 20.3173C32.5261 20.5754 31.9611 20.749 31.3832 20.8334L30.3686 21.0319C30.1354 21.0319 29.9255 21.1245 29.6922 21.1378C29.3274 21.1709 28.9609 21.1709 28.596 21.1378C28.6074 21.0901 28.6074 21.0398 28.596 20.9922C28.5612 20.9514 28.5196 20.9189 28.4735 20.8967C28.4274 20.8746 28.3779 20.8631 28.3278 20.8631C28.2778 20.8631 28.2282 20.8746 28.1821 20.8967C28.1361 20.9189 28.0944 20.9514 28.0596 20.9922C27.5088 21.6128 26.9162 22.1836 26.287 22.6993C25.9109 22.9931 25.4797 23.1834 25.0275 23.2551C24.7145 23.3131 24.3935 23.2477 24.1178 23.0699C24.0082 23.0019 23.9207 22.8958 23.8682 22.7671C23.8157 22.6385 23.801 22.4941 23.8263 22.3553C23.8752 22.0524 23.9784 21.7641 24.1295 21.5083C24.4199 21.0467 24.7565 20.6248 25.1324 20.2511C25.7039 19.6027 26.2986 18.9277 26.905 18.2793C27.2867 17.8807 27.6962 17.5178 28.1295 17.1941C28.3549 17.0214 28.5929 16.8709 28.8409 16.7442C29.3003 16.5154 29.8151 16.4733 30.2987 16.6251C30.7768 16.7442 31.2316 16.9427 31.7098 17.1015C32.1277 17.2196 32.5525 17.3036 32.9809 17.3529C33.4004 17.3793 33.8209 17.3793 34.2404 17.3529C34.6147 17.3406 34.9848 17.2602 35.3366 17.1147C35.7994 16.8948 36.2443 16.6291 36.6661 16.3207L38.6836 14.8782C38.7841 14.8236 38.8621 14.727 38.9012 14.6086C38.9403 14.4902 38.9376 14.3592 38.8935 14.243Z" fill="white"/>
<path fill-rule="evenodd" clip-rule="evenodd" d="M32.6544 27.6486C32.583 27.417 32.4973 27.1915 32.3978 26.9737C32.068 26.3314 31.6769 25.7323 31.2316 25.1871L29.9838 23.5726C29.9205 23.4893 29.8318 23.4362 29.7355 23.4239C29.6392 23.4116 29.5423 23.4409 29.4643 23.5061C29.3862 23.5713 29.3327 23.6675 29.3144 23.7755C29.2961 23.8835 29.3145 23.9954 29.3657 24.0887L30.287 25.9679C30.5902 26.5172 30.8553 27.0924 31.08 27.6883C31.222 28.0222 31.3165 28.3795 31.3599 28.747C31.397 28.9784 31.3902 29.2161 31.3399 29.4443C31.2896 29.6725 31.1971 29.886 31.0683 30.0703C30.9048 30.2816 30.6959 30.4411 30.4619 30.5335C30.4447 30.4839 30.4252 30.4353 30.4036 30.3879C30.1576 29.9729 29.8847 29.5792 29.5873 29.2102L27.908 27.0531C27.8758 26.9992 27.8346 26.953 27.7867 26.9172C27.7388 26.8814 27.6852 26.8567 27.6289 26.8444C27.5152 26.8196 27.3974 26.847 27.3015 26.9207C27.2057 26.9944 27.1395 27.1083 27.1176 27.2374C27.0958 27.3665 27.12 27.5001 27.1849 27.6089L28.4911 30.1365C28.7132 30.4907 28.9195 30.8572 29.1091 31.2349C29.21 31.4301 29.2884 31.6391 29.3424 31.8569C29.4072 32.0083 29.4263 32.1798 29.3968 32.3448C29.3673 32.5098 29.2908 32.6592 29.1791 32.77C29.0123 32.9266 28.8104 33.0274 28.596 33.0611C28.596 33.0611 28.596 32.9817 28.596 32.942C28.4722 32.6417 28.3197 32.3576 28.1412 32.0951C27.8613 31.7113 27.5931 31.3408 27.2899 30.9835C26.9867 30.6262 26.7068 30.2821 26.3919 29.9512C26.328 29.8626 26.236 29.806 26.1356 29.7936C26.0353 29.7812 25.9347 29.8141 25.8555 29.8851C25.7765 29.9599 25.7264 30.0666 25.7155 30.1827C25.7046 30.2987 25.7339 30.415 25.7971 30.507C25.9837 30.8247 26.147 31.129 26.3103 31.4599C26.4735 31.7907 26.7651 32.4259 26.975 32.9288L27.3015 33.8287L27.1383 34.1463C27.0596 34.2893 26.9558 34.4124 26.8334 34.508C26.7111 34.6036 26.5727 34.6697 26.4269 34.7021C26.1452 34.7871 25.8456 34.7494 25.5872 34.5962C25.539 34.5623 25.4854 34.5394 25.4293 34.529C25.3733 34.5186 25.3161 34.5209 25.2608 34.5356C25.2056 34.5504 25.1534 34.5773 25.1074 34.615C25.0613 34.6526 25.0223 34.7002 24.9925 34.755C24.9314 34.8676 24.9119 35.0029 24.9381 35.1317C24.9643 35.2605 25.0341 35.3724 25.1324 35.4432C25.5073 35.8119 25.9892 36.0099 26.4852 35.999C26.8083 36.0084 27.1296 35.9415 27.4288 35.8026C27.7279 35.6636 27.9983 35.4556 28.2228 35.1918C28.393 34.9931 28.5347 34.7654 28.6427 34.5168C28.6783 34.3877 28.7017 34.2546 28.7126 34.1198C29.114 34.1515 29.5157 34.0649 29.8788 33.8684C30.222 33.6504 30.4972 33.3169 30.6664 32.914C30.8356 32.5111 30.8904 32.0585 30.8234 31.6187C31.2546 31.5269 31.6569 31.3078 31.9896 30.9835C32.2554 30.7088 32.4697 30.3763 32.62 30.0057C32.7702 29.6351 32.8533 29.2341 32.8643 28.8264C32.8375 28.4254 32.767 28.0298 32.6544 27.6486Z" fill="white"/>
<path fill-rule="evenodd" clip-rule="evenodd" d="M38.9868 26.0207C38.9732 25.9581 38.9488 25.8991 38.915 25.8472C38.8812 25.7952 38.8387 25.7514 38.7899 25.7182C38.7411 25.685 38.6871 25.6631 38.6308 25.6537C38.5745 25.6443 38.5172 25.6476 38.462 25.6634C37.7506 25.756 37.0626 25.7825 36.3745 25.9148C35.9063 26.0002 35.4458 26.1331 34.9984 26.3119C34.4842 26.5319 33.9948 26.8207 33.5407 27.172C32.5844 27.622 33.1558 28.4954 34.0538 28.2043L35.1384 27.9528L35.9547 27.7279L36.7594 27.4367C37.4008 27.1853 38.0305 26.9074 38.6719 26.6162C38.7272 26.6008 38.7791 26.5731 38.8249 26.5347C38.8706 26.4964 38.9093 26.4481 38.9385 26.3928C38.9678 26.3374 38.9871 26.2761 38.9954 26.2122C39.0037 26.1484 39.0008 26.0833 38.9868 26.0207Z" fill="white"/>
</svg>
